<?xml version="1.0" encoding="UTF-8" standalone="no"?>
<svg
   xmlns:dc="http://purl.org/dc/elements/1.1/"
   xmlns:cc="http://creativecommons.org/ns#"
   xmlns:rdf="http://www.w3.org/1999/02/22-rdf-syntax-ns#"
   xmlns:svg="http://www.w3.org/2000/svg"
   xmlns="http://www.w3.org/2000/svg"
   xmlns:sodipodi="http://sodipodi.sourceforge.net/DTD/sodipodi-0.dtd"
   xmlns:inkscape="http://www.inkscape.org/namespaces/inkscape"
   version="1.0"
   width="636.93457"
   height="790.85284"
   id="svg4473"
   sodipodi:docname="Intel Celeron D (2006).svg"
   inkscape:version="1.0.2 (e86c870879, 2021-01-15, custom)">
  <metadata
     id="metadata268">
    <rdf:RDF>
      <cc:Work
         rdf:about="">
        <dc:format>image/svg+xml</dc:format>
        <dc:type
           rdf:resource="http://purl.org/dc/dcmitype/StillImage" />
        <dc:title></dc:title>
      </cc:Work>
    </rdf:RDF>
  </metadata>
  <sodipodi:namedview
     pagecolor="#ffffff"
     bordercolor="#666666"
     borderopacity="1"
     objecttolerance="10"
     gridtolerance="10"
     guidetolerance="10"
     inkscape:pageopacity="0"
     inkscape:pageshadow="2"
     inkscape:window-width="1440"
     inkscape:window-height="837"
     id="namedview266"
     showgrid="false"
     fit-margin-top="0"
     fit-margin-left="0"
     fit-margin-right="0"
     fit-margin-bottom="0"
     inkscape:zoom="0.74642639"
     inkscape:cx="318.90589"
     inkscape:cy="391.30588"
     inkscape:window-x="-8"
     inkscape:window-y="-8"
     inkscape:window-maximized="1"
     inkscape:current-layer="svg4473" />
  <defs
     id="defs4475">
    <clipPath
       id="clipPath6207">
      <path
         d="m 8144.72,8133.26 h 93.54 v 67.72 h -93.54 z"
         id="path6209" />
    </clipPath>
    <clipPath
       id="clipPath6199">
      <path
         d="m 553.589,173.935 c 7.332,-0.015 16.003,1.989 24.665,6.467 0.434,0.22 0.869,0.455 1.304,0.695 0.435,0.234 0.87,0.469 1.299,0.724 0,4.443 0,8.886 0,13.33 0,9.985 -9.785,12.619 -17.127,12.619 -6.113,0 -17.753,-2.179 -25.26,-9.686 -3.498,-3.498 -4.363,-6.432 -4.363,-11.405 0,-1.874 0.46,-3.548 1.3,-5.048 0.365,-0.654 0.799,-1.264 1.304,-1.839 3.269,-3.733 9.371,-5.842 16.878,-5.857"
         id="path6201" />
    </clipPath>
    <clipPath
       id="clipPath6191">
      <path
         d="m 534.107,207.77 h 46.75 v -33.851 h -46.75 z"
         id="path6193" />
    </clipPath>
    <clipPath
       id="clipPath6313">
      <path
         d="m 8144.72,8175.45 h 93.54 v 73.87 h -93.54 z"
         id="path6315" />
    </clipPath>
    <clipPath
       id="clipPath6305">
      <path
         d="m 578.254,180.402 c 0.434,0.22 0.869,0.455 1.304,0.69 0.435,0.239 0.87,0.469 1.299,0.719 0,-9.526 0,-19.671 0,-29.197 0,-1.575 -1.274,-2.849 -2.848,-2.849 -13.31,0 -27.743,0 -41.053,0 -1.574,0 -2.849,1.274 -2.849,2.849 0,11.185 0,22.885 0,34.065 0,-1.874 0.465,-3.548 1.3,-5.048 0.365,-0.654 0.799,-1.264 1.304,-1.839 3.269,-3.733 9.371,-5.847 16.878,-5.857 7.332,-0.015 16.003,1.989 24.665,6.467"
         id="path6307" />
    </clipPath>
    <clipPath
       id="clipPath6297">
      <path
         d="m 534.107,186.679 h 46.75 v -36.914 h -46.75 z"
         id="path6299" />
    </clipPath>
    <clipPath
       id="clipPath6119">
      <path
         d="m 125.218,233.724 v 6.263 c 0.131,-0.021 0.263,-0.04 0.395,-0.06 3.635,-0.56 7.679,-1.365 9.275,-2.33 0.459,-0.279 0.707,-0.569 0.702,-0.844 v -0.035 c -0.09,-0.33 -0.531,-0.675 -1.241,-0.995 -0.715,-0.32 -1.701,-0.614 -2.879,-0.894 -1.744,-0.415 -3.911,-0.78 -6.252,-1.105"
         id="path6121" />
    </clipPath>
    <clipPath
       id="clipPath6111">
      <path
         d="m 124.976,233.549 h 10.795 v 6.7171 h -10.795 z"
         id="path6113" />
    </clipPath>
    <clipPath
       id="clipPath6139">
      <path
         d="m 125.218,232.575 v 1.049 c 3.701,0.51 6.978,1.135 8.843,1.874 0.908,0.36 1.493,0.75 1.624,1.195 l 0.004,0.005 v 0.055 c 0,0.34 -0.283,0.64 -0.751,0.924 -0.467,0.285 -1.129,0.55 -1.921,0.8 -1.588,0.5 -3.701,0.935 -5.816,1.29 -0.666,0.115 -1.333,0.22 -1.983,0.314 v 0.6 c 9.577,-1.039 12.969,-2.344 14.106,-3.243 0.458,-0.36 0.548,-0.645 0.548,-0.83 0,-0.115 -0.036,-0.195 -0.054,-0.22 l -0.009,-0.015 -0.004,-0.01 -0.005,-0.005 c -0.121,-0.395 -0.633,-0.8 -1.511,-1.184 -0.882,-0.39 -2.118,-0.76 -3.679,-1.12 -2.407,-0.545 -5.581,-1.04 -9.392,-1.479"
         id="path6141" />
    </clipPath>
    <clipPath
       id="clipPath6131">
      <path
         d="m 124.976,232.35 h 15.114 v 8.6363 h -15.114 z"
         id="path6133" />
    </clipPath>
    <clipPath
       id="clipPath6159">
      <path
         d="m 125.218,232.475 v 0.05 c 8.765,1.009 14.159,2.329 14.632,3.818 0,0 1.988,2.579 -14.632,4.383 v 0.05 c 5.76,-0.625 9.288,-1.339 11.443,-2.014 1.43,-0.445 2.254,-0.875 2.726,-1.244 0.452,-0.36 0.581,-0.67 0.584,-0.89 v -0.02 c 0,-0.185 -0.076,-0.29 -0.081,-0.295 -0.15,-0.44 -0.683,-0.845 -1.565,-1.229 -2.254,-1 -6.813,-1.885 -13.107,-2.609 m 0,1.194 v 0.055 c 2.341,0.325 4.508,0.69 6.252,1.105 1.178,0.28 2.164,0.574 2.879,0.894 0.71,0.32 1.151,0.665 1.241,0.995 v 0.035 c 0.005,0.275 -0.243,0.565 -0.702,0.844 -1.596,0.965 -5.64,1.77 -9.275,2.33 -0.132,0.02 -0.264,0.039 -0.395,0.06 v 0.044 c 4.82,-0.719 10.55,-1.879 10.422,-3.328 -0.362,-1.265 -4.92,-2.269 -10.422,-3.034"
         id="path6161" />
    </clipPath>
    <clipPath
       id="clipPath6151">
      <path
         d="m 124.976,232.35 h 17.033 v 8.6363 h -17.033 z"
         id="path6153" />
    </clipPath>
    <clipPath
       id="clipPath6179">
      <path
         d="m 125.218,232.525 v 0.05 c 3.811,0.439 6.985,0.934 9.392,1.479 1.561,0.36 2.797,0.73 3.679,1.12 0.878,0.384 1.39,0.789 1.511,1.184 l 0.005,0.005 0.004,0.01 0.009,0.015 c 0.018,0.025 0.054,0.105 0.054,0.22 0,0.185 -0.09,0.47 -0.548,0.83 -1.137,0.899 -4.529,2.204 -14.106,3.243 v 0.045 c 16.62,-1.804 14.632,-4.383 14.632,-4.383 -0.473,-1.489 -5.867,-2.809 -14.632,-3.818 m 0,1.099 v 0.045 c 5.502,0.765 10.06,1.769 10.422,3.034 0.128,1.449 -5.602,2.609 -10.422,3.328 v 0.05 c 0.65,-0.094 1.317,-0.199 1.983,-0.314 2.115,-0.355 4.228,-0.79 5.816,-1.29 0.792,-0.25 1.454,-0.515 1.921,-0.8 0.468,-0.284 0.751,-0.584 0.751,-0.924 v -0.055 l -0.004,-0.005 c -0.131,-0.445 -0.716,-0.835 -1.624,-1.195 -1.865,-0.739 -5.142,-1.364 -8.843,-1.874"
         id="path6181" />
    </clipPath>
    <clipPath
       id="clipPath6171">
      <path
         d="m 124.976,232.35 h 17.033 v 8.6363 h -17.033 z"
         id="path6173" />
    </clipPath>
    <clipPath
       id="clipPath4910">
      <path
         d="M 0,842.04 H 595.44 V 0 H 0 Z"
         id="path4912" />
    </clipPath>
    <clipPath
       id="clipPath4902">
      <path
         d="M 0,841 H 595.276 V -0.89 H 0 Z"
         id="path4904" />
    </clipPath>
    <clipPath
       id="clipPath4894">
      <path
         d="M 0,-0.89 V 841 H 1190.551 V -0.89"
         id="path4896" />
    </clipPath>
    <clipPath
       id="clipPath4954">
      <path
         d="M 0,842.04 H 595.44 V 0 H 0 Z"
         id="path4956" />
    </clipPath>
    <clipPath
       id="clipPath4946">
      <path
         d="M 0,841 H 595.276 V -0.89 H 0 Z"
         id="path4948" />
    </clipPath>
    <clipPath
       id="clipPath4938">
      <path
         d="M 0,-0.89 V 841 H 1190.551 V -0.89"
         id="path4940" />
    </clipPath>
    <clipPath
       id="clipPath4998">
      <path
         d="M 0,842.04 H 595.44 V 0 H 0 Z"
         id="path5000" />
    </clipPath>
    <clipPath
       id="clipPath4990">
      <path
         d="M 0,841 H 595.276 V -0.89 H 0 Z"
         id="path4992" />
    </clipPath>
    <clipPath
       id="clipPath4982">
      <path
         d="M 0,-0.89 V 841 H 1190.551 V -0.89"
         id="path4984" />
    </clipPath>
    <clipPath
       id="clipPath4690">
      <path
         d="M 0,842.04 H 595.44 V 0 H 0 Z"
         id="path4692" />
    </clipPath>
    <clipPath
       id="clipPath4682">
      <path
         d="M 0,841 H 595.276 V -0.89 H 0 Z"
         id="path4684" />
    </clipPath>
    <clipPath
       id="clipPath4674">
      <path
         d="M 0,-0.89 V 841 H 1190.551 V -0.89"
         id="path4676" />
    </clipPath>
    <clipPath
       id="clipPath4734">
      <path
         d="M 0,842.04 H 595.44 V 0 H 0 Z"
         id="path4736" />
    </clipPath>
    <clipPath
       id="clipPath4726">
      <path
         d="M 0,841 H 595.276 V -0.89 H 0 Z"
         id="path4728" />
    </clipPath>
    <clipPath
       id="clipPath4718">
      <path
         d="M 0,-0.89 V 841 H 1190.551 V -0.89"
         id="path4720" />
    </clipPath>
    <clipPath
       id="clipPath4778">
      <path
         d="M 0,842.04 H 595.44 V 0 H 0 Z"
         id="path4780" />
    </clipPath>
    <clipPath
       id="clipPath4770">
      <path
         d="M 0,841 H 595.276 V -0.89 H 0 Z"
         id="path4772" />
    </clipPath>
    <clipPath
       id="clipPath4762">
      <path
         d="M 0,-0.89 V 841 H 1190.551 V -0.89"
         id="path4764" />
    </clipPath>
    <clipPath
       id="clipPath4822">
      <path
         d="M 0,842.04 H 595.44 V 0 H 0 Z"
         id="path4824" />
    </clipPath>
    <clipPath
       id="clipPath4814">
      <path
         d="M 0,841 H 595.276 V -0.89 H 0 Z"
         id="path4816" />
    </clipPath>
    <clipPath
       id="clipPath4806">
      <path
         d="M 0,-0.89 V 841 H 1190.551 V -0.89"
         id="path4808" />
    </clipPath>
    <clipPath
       id="clipPath4866">
      <path
         d="M 0,842.04 H 595.44 V 0 H 0 Z"
         id="path4868" />
    </clipPath>
    <clipPath
       id="clipPath4858">
      <path
         d="M 0,841 H 595.276 V -0.89 H 0 Z"
         id="path4860" />
    </clipPath>
    <clipPath
       id="clipPath4850">
      <path
         d="M 0,-0.89 V 841 H 1190.551 V -0.89"
         id="path4852" />
    </clipPath>
    <clipPath
       id="clipPath2455">
      <path
         d="M 0,0 V 203.28 H 283.44 V 0 Z"
         id="path2457" />
    </clipPath>
    <clipPath
       id="clipPath2447">
      <path
         d="m 44.469,65.962 66.081,-41.485 -0.015,-4.108 9.675,-4.938 h 5.763 l 0.618,1.235 c 0,0 60.105,-7.613 124.944,18.723 0,0 4.734,-2.058 4.734,-2.058 l 10.086,3.91 c 0,0 9.469,40.121 -0.823,61.107 0,0 -5.969,7.613 -5.969,7.613 l -3.088,-0.823 -54.341,60.078 -1.03,10.699 -17.496,15.843 c 0,0 -3.293,4.321 -8.645,-0.206 -5.352,-4.526 -2.058,-7.818 -2.058,-7.818 l 0.411,-4.732 -24.495,-5.761 c 0,0 -1.646,5.349 -7.821,3.703 -6.176,-1.646 -4.117,-5.761 -4.117,-5.761 l -69.574,-16.46 c 0,0 -0.411,6.173 -6.587,4.732 -6.175,-1.44 -4.734,-6.995 -4.734,-6.995 l -23.465,-5.761 -9.057,7.407 c 0,0 -7.411,2.88 -10.704,-3.909 -3.293,-6.79 -6.587,-46.088 -0.618,-70.572 0,0 16.879,-11.934 16.879,-11.934 z"
         id="path2449" />
    </clipPath>
    <clipPath
       id="clipPath2439">
      <path
         d="M -141.72,-12.207 V 94.901 H 7.624 V -12.207 Z"
         id="path2441" />
    </clipPath>
    <clipPath
       id="clipPath4955">
      <path
         d="M 0,0 H 792 V 594 H 0 Z"
         id="path4957" />
    </clipPath>
    <clipPath
       id="clipPath4963">
      <path
         d="m 101.8125,-244.6875 v 92.8125 h 234 v -92.8125 z"
         id="path4965" />
    </clipPath>
    <clipPath
       id="clipPath4971">
      <path
         d="M 0,75.67731 V 0 h 189.83298 v 75.67731"
         id="path4973" />
    </clipPath>
    <clipPath
       id="clipPath5069">
      <path
         d="M -225,18 V 126.56194 H -9 V 18 Z"
         id="path5071" />
    </clipPath>
    <clipPath
       id="clipPath5077">
      <path
         d="M 0,0 V 216.23999 H 288 V 0 Z"
         id="path5079" />
    </clipPath>
    <clipPath
       id="clipPath5139">
      <path
         d="m 172.125,171 v 99 h 82.6875 v -99 z"
         id="path5141" />
    </clipPath>
    <clipPath
       id="clipPath5147">
      <path
         d="m 72.2383,50.12994 v 0 c 0.709,0.3653 1.41989,0.74707 2.12989,1.13187 0.7129,0.3916 1.4229,0.76852 2.13179,1.1806 0,-15.59179 0,-32.19427 0,-47.78018 C 76.49998,2.0889 74.40819,0 71.83499,0 50.05669,0 26.44339,0 4.66208,0 2.08887,0 0,2.0889 0,4.66223 0,22.96494 0,42.1055 0,60.40732 c 0,-3.0723 0.76074,-5.81159 2.1279,-8.2637 0.59473,-1.06449 1.30862,-2.06839 2.13577,-3.00977 5.34571,-6.10742 15.33402,-9.56543 27.60843,-9.58493 12.00589,-0.0166 26.19339,3.25388 40.3662,10.58102"
         id="path5149" />
    </clipPath>
    <clipPath
       id="clipPath5155">
      <path
         d="M 0,0 V 60.40732 H 76.49998 V 0 Z"
         id="path5157" />
    </clipPath>
    <clipPath
       id="clipPath5239">
      <path
         d="m 31.8721,39.54892 c 12.00589,-0.0166 26.19339,3.25388 40.3662,10.58102 0.709,0.3653 1.41989,0.75 2.12989,1.13669 0.7129,0.39069 1.4229,0.76859 2.13179,1.1875 0,7.26761 0,14.54111 0,21.81351 0,16.34183 -16.01359,20.64459 -28.02629,20.64459 -10.00293,0 -29.05279,-3.56055 -41.33502,-15.84482 C 1.41406,73.34573 0,68.54504 0,60.40732 0,57.33502 0.75488,54.59573 2.1279,52.14752 2.72263,51.07913 3.43652,50.07523 4.26367,49.13385 9.60938,43.02643 19.59769,39.57233 31.8721,39.54892"
         id="path5241" />
    </clipPath>
    <clipPath
       id="clipPath5247">
      <path
         d="M 0,39.53232 V 94.91223 H 76.49998 V 39.53232 Z"
         id="path5249" />
    </clipPath>
    <clipPath
       id="clipPath5343">
      <path
         d="m 72.2383,50.12994 v 0 c 0.709,0.3653 1.41989,0.74707 2.12989,1.13187 0.7129,0.3916 1.4229,0.76852 2.13179,1.1806 0,-15.59179 0,-32.19427 0,-47.78018 C 76.49998,2.0889 74.40819,0 71.83499,0 50.05669,0 26.44339,0 4.66208,0 2.08887,0 0,2.0889 0,4.66223 0,22.96494 0,42.1055 0,60.40732 c 0,-3.0723 0.76074,-5.81159 2.1279,-8.2637 0.59473,-1.06449 1.30862,-2.06839 2.13577,-3.00977 5.34571,-6.10742 15.33402,-9.56543 27.60843,-9.58493 12.00589,-0.0166 26.19339,3.25388 40.3662,10.58102"
         id="path5345" />
    </clipPath>
    <clipPath
       id="clipPath5351">
      <path
         d="M 0,0 V 60.40732 H 76.49998 V 0 Z"
         id="path5353" />
    </clipPath>
  </defs>
  <g
     id="g4180">
    <g
       transform="matrix(8.325944,0,0,-8.3324763,0,790.85282)"
       id="g5143">
      <g
         clip-path="url(#clipPath5147)"
         id="g5145">
        <g
           id="g5151">
          <g
             clip-path="url(#clipPath5155)"
             id="g5153">
            <g
               id="g5159">
              <g
                 transform="matrix(1,0,0,-1,-8153.7598,8238.542)"
                 id="g5161">
                <g
                   id="g5163">
                  <path
                     d="m 8225.9959,8188.4197 c 0,0 0,0 0,0 0,13.2668 0,32.2017 0,45.4672 -22.1979,0 -40.3656,-29.2027 -40.3656,-34.8877 12.0053,0.017 26.1932,-3.2526 40.3656,-10.5795 z"
                     id="path5165"
                     style="fill:#ffffff;fill-opacity:1;fill-rule:nonzero;stroke:none" />
                  <path
                     d="m 8225.9959,8188.4197 c 0,13.2668 0,32.2017 0,45.4672 0.1773,0 0.3545,0 0.5318,0 0,-13.444 0,-32.2987 0,-45.7441 -0.1773,0.093 -0.3545,0.1851 -0.5318,0.2769 z"
                     id="path5167"
                     style="fill:#ffffff;fill-opacity:1;fill-rule:nonzero;stroke:none" />
                  <path
                     d="m 8226.5277,8188.1428 c 0,13.4454 0,32.3001 0,45.7441 0.1772,0 0.3545,0 0.533,0 0,-13.8347 0,-32.1888 0,-46.0235 -0.1785,0.094 -0.3558,0.1889 -0.533,0.282 z"
                     id="path5169"
                     style="fill:#fbfbfb;fill-opacity:1;fill-rule:nonzero;stroke:none" />
                  <path
                     d="m 8227.0607,8187.8608 c 0,13.8347 0,32.1888 0,46.0235 0.3545,0 0.7103,0 1.0648,0 0,-14.4079 0,-32.1952 0,-46.5993 -0.3545,0.1928 -0.7103,0.383 -1.0648,0.5732 z"
                     id="path5171"
                     style="fill:#efeeee;fill-opacity:1;fill-rule:nonzero;stroke:none" />
                  <path
                     d="m 8228.1255,8187.2876 c 0.7129,-0.392 1.4232,-0.7685 2.1323,-1.1812 0,15.5917 0,32.1939 0,47.7805 -0.7116,0 -1.4232,0 -2.1323,0 0,-14.4079 0,-32.1952 0,-46.5993 z"
                     id="path5173"
                     style="fill:#d3d2d2;fill-opacity:1;fill-rule:nonzero;stroke:none" />
                  <path
                     d="m 8185.6303,8198.9992 c 0,5.685 18.1677,34.8877 40.3656,34.8877 0,0.2187 -0.185,0.4011 -0.4036,0.4011 0,-19.2688 -39.962,-29.6038 -39.962,-35.2888 0,0 0,0 0,0 z"
                     id="path5175"
                     style="fill:#ffffff;fill-opacity:1;fill-rule:nonzero;stroke:none" />
                  <path
                     d="m 8225.9959,8233.8869 c 0,0.2187 -0.185,0.4011 -0.4036,0.4011 0,0.1772 0,0.3558 0,0.5343 0.4036,0 0.9341,-0.533 0.9341,-0.9354 -0.1773,0 -0.3545,0 -0.5318,0 z"
                     id="path5177"
                     style="fill:#ffffff;fill-opacity:1;fill-rule:nonzero;stroke:none" />
                  <path
                     d="m 8226.5277,8233.8869 c 0,0.4024 -0.5305,0.9354 -0.9341,0.9354 0,0.1773 0,0.3558 0,0.5331 0.8086,0 1.4671,-0.6625 1.4671,-1.4711 -0.1785,0 -0.3558,0 -0.533,0 z"
                     id="path5179"
                     style="fill:#fbfbfb;fill-opacity:1;fill-rule:nonzero;stroke:none" />
                  <path
                     d="m 8227.0607,8233.8843 c 0,0.8086 -0.6585,1.4711 -1.4671,1.4711 0,0.3558 0,0.7103 0,1.0648 1.3973,0 2.5332,-1.136 2.5332,-2.5333 -0.3545,0 -0.7103,0 -1.0648,0 z"
                     id="path5181"
                     style="fill:#efeeee;fill-opacity:1;fill-rule:nonzero;stroke:none" />
                  <path
                     d="m 8228.1255,8233.8869 c 0.7091,0 1.4207,0 2.1323,0 0,2.5734 -2.0921,4.6616 -4.6655,4.6616 0,-0.7038 0,-1.4154 0,-2.1283 1.3973,0 2.5332,-1.136 2.5332,-2.5333 z"
                     id="path5183"
                     style="fill:#d3d2d2;fill-opacity:1;fill-rule:nonzero;stroke:none" />
                  <path
                     d="m 8185.6303,8198.9992 c 0,5.685 39.962,16.02 39.962,35.2888 -21.7788,0 -45.3909,0 -67.1722,0 0,-19.2688 27.2102,-29.6038 27.2102,-35.2888 0,0 0,0 0,0 z"
                     id="path5185"
                     style="fill:#ffffff;fill-opacity:1;fill-rule:nonzero;stroke:none" />
                  <path
                     d="m 8225.5923,8234.288 c -21.7788,0 -45.3909,0 -67.1722,0 0,0.1772 0,0.3558 0,0.5343 21.7813,0 45.396,0 67.1735,0 0,-0.1785 0,-0.3571 0,-0.5343 z"
                     id="path5187"
                     style="fill:#ffffff;fill-opacity:1;fill-rule:nonzero;stroke:none" />
                  <path
                     d="m 8225.5936,8234.8223 c -21.7775,0 -45.3922,0 -67.1735,0 0,0.1773 0,0.3558 0,0.5331 21.7813,0 45.396,0 67.1735,0 0,-0.1773 0,-0.3558 0,-0.5331 z"
                     id="path5189"
                     style="fill:#fbfbfb;fill-opacity:1;fill-rule:nonzero;stroke:none" />
                  <path
                     d="m 8225.5936,8235.3554 c -21.7775,0 -45.3922,0 -67.1735,0 0,0.3558 0,0.7103 0,1.0648 21.7813,0 45.3934,0 67.1722,0 0,-0.3545 0,-0.709 0,-1.0648 z"
                     id="path5191"
                     style="fill:#efeeee;fill-opacity:1;fill-rule:nonzero;stroke:none" />
                  <path
                     d="m 8225.5923,8236.4202 c 0,0.7129 0,1.4245 0,2.1283 -21.7788,0 -45.3909,0 -67.1722,0 0,-0.7038 0,-1.4154 0,-2.1283 21.7813,0 45.3934,0 67.1722,0 z"
                     id="path5193"
                     style="fill:#d3d2d2;fill-opacity:1;fill-rule:nonzero;stroke:none" />
                  <path
                     d="m 8185.6303,8198.9992 c 0,5.685 -27.2102,16.02 -27.2102,35.2888 -0.22,0 -0.3985,-0.1824 -0.3985,-0.4011 22.1902,0 27.6087,-29.2027 27.6087,-34.8877 0,0 0,0 0,0 z"
                     id="path5195"
                     style="fill:#ffffff;fill-opacity:1;fill-rule:nonzero;stroke:none" />
                  <path
                     d="m 8158.4201,8234.288 c -0.11,0 -0.2096,-0.047 -0.2808,-0.1178 -0.089,0.088 -0.207,0.2045 -0.3364,0.3351 0.1825,0.1825 0.4153,0.317 0.6172,0.317 0,-0.1785 0,-0.3571 0,-0.5343 z"
                     id="path5197"
                     style="fill:#ffffff;fill-opacity:1;fill-rule:nonzero;stroke:none" />
                  <path
                     d="m 8158.4201,8234.8223 c 0,0.1773 0,0.3558 0,0.5331 -0.2019,0 -0.3946,-0.041 -0.5693,-0.1152 0.089,-0.1721 0.1786,-0.3415 0.2536,-0.5084 0.1061,0.057 0.2148,0.091 0.3157,0.091 z"
                     id="path5199"
                     style="fill:#fbfbfb;fill-opacity:1;fill-rule:nonzero;stroke:none" />
                  <path
                     d="m 8158.1044,8234.7318 c -0.075,0.1669 -0.1643,0.3363 -0.2536,0.5084 -0.176,-0.075 -0.3338,-0.1837 -0.4671,-0.317 0.1449,-0.1436 0.2886,-0.2872 0.4192,-0.4179 0.091,0.092 0.1954,0.1708 0.3015,0.2265 z"
                     id="path5201"
                     style="fill:#fcfbfc;fill-opacity:1;fill-rule:nonzero;stroke:none" />
                  <path
                     d="m 8158.1393,8234.1702 c -0.072,-0.074 -0.1177,-0.1746 -0.1177,-0.2833 -0.1786,0 -0.3558,0 -0.5344,0 0,0.2005 0.132,0.4347 0.3157,0.6184 0.1294,-0.1306 0.2472,-0.2471 0.3364,-0.3351 z"
                     id="path5203"
                     style="fill:#ffffff;fill-opacity:1;fill-rule:nonzero;stroke:none" />
                  <path
                     d="m 8157.8029,8234.5053 c -0.1306,0.1307 -0.2743,0.2743 -0.4192,0.4179 -0.1319,-0.1319 -0.2406,-0.2911 -0.3144,-0.4657 0.1708,-0.091 0.3416,-0.1799 0.5072,-0.2549 0.056,0.1074 0.1346,0.2109 0.2264,0.3027 z"
                     id="path5205"
                     style="fill:#fdfdfd;fill-opacity:1;fill-rule:nonzero;stroke:none" />
                  <path
                     d="m 8157.5765,8234.2026 c -0.1656,0.075 -0.3364,0.1643 -0.5072,0.2549 -0.074,-0.176 -0.1151,-0.3688 -0.1151,-0.5706 0.1772,0 0.3545,0 0.533,0 0,0.1 0.034,0.2083 0.089,0.3157 z"
                     id="path5207"
                     style="fill:#ffffff;fill-opacity:1;fill-rule:nonzero;stroke:none" />
                  <path
                     d="m 8158.4201,8235.3554 c 0,0.3558 0,0.7103 0,1.0648 -0.3493,0 -0.6819,-0.071 -0.9859,-0.1993 0.056,-0.2988 0.2355,-0.6404 0.4166,-0.9807 0.1747,0.074 0.3674,0.1152 0.5693,0.1152 z"
                     id="path5209"
                     style="fill:#efeeee;fill-opacity:1;fill-rule:nonzero;stroke:none" />
                  <path
                     d="m 8157.8508,8235.2402 c -0.1811,0.3403 -0.361,0.6819 -0.4166,0.9807 -0.3028,-0.1293 -0.5757,-0.3144 -0.8048,-0.5434 0.1786,-0.1772 0.4671,-0.4644 0.7543,-0.7543 0.1333,0.1333 0.2911,0.242 0.4671,0.317 z"
                     id="path5211"
                     style="fill:#f1f1f1;fill-opacity:1;fill-rule:nonzero;stroke:none" />
                  <path
                     d="m 8157.3837,8234.9232 c -0.2872,0.2899 -0.5757,0.5771 -0.7543,0.7543 -0.2303,-0.229 -0.4153,-0.502 -0.5434,-0.8047 0.3002,-0.056 0.6418,-0.2368 0.9833,-0.4153 0.074,0.1746 0.1825,0.3338 0.3144,0.4657 z"
                     id="path5213"
                     style="fill:#f7f7f7;fill-opacity:1;fill-rule:nonzero;stroke:none" />
                  <path
                     d="m 8157.0693,8234.4575 c -0.3415,0.1785 -0.6831,0.3596 -0.9833,0.4153 -0.1293,-0.3041 -0.2005,-0.6366 -0.2005,-0.9859 0.3571,0 0.7129,0 1.0687,0 0,0.2018 0.041,0.3946 0.1151,0.5706 z"
                     id="path5215"
                     style="fill:#fdfdfd;fill-opacity:1;fill-rule:nonzero;stroke:none" />
                  <path
                     d="m 8158.4201,8236.4202 c 0,0.7129 0,1.4245 0,2.1283 -0.3222,0 -0.6353,-0.034 -0.9393,-0.096 0.031,-0.6741 0.3985,-1.4012 0.4295,-2.0844 0.1643,0.034 0.3351,0.052 0.5098,0.052 z"
                     id="path5217"
                     style="fill:#d3d2d2;fill-opacity:1;fill-rule:nonzero;stroke:none" />
                  <path
                     d="m 8157.9103,8236.3684 c -0.031,0.6832 -0.3985,1.4103 -0.4295,2.0844 -0.3028,-0.061 -0.5965,-0.1527 -0.8746,-0.2717 0.1112,-0.5939 0.718,-1.3585 0.828,-1.9602 0.1514,0.063 0.3105,0.1139 0.4761,0.1475 z"
                     id="path5219"
                     style="fill:#d6d5d5;fill-opacity:1;fill-rule:nonzero;stroke:none" />
                  <path
                     d="m 8157.4342,8236.2209 c -0.11,0.6017 -0.7168,1.3663 -0.828,1.9602 -0.5577,-0.2355 -1.0597,-0.5771 -1.4815,-0.9989 0.3545,-0.3519 1.1502,-1.1476 1.5047,-1.5047 0.2291,0.229 0.502,0.4141 0.8048,0.5434 z"
                     id="path5221"
                     style="fill:#dad9d9;fill-opacity:1;fill-rule:nonzero;stroke:none" />
                  <path
                     d="m 8156.6294,8235.6775 c -0.3545,0.3571 -1.1502,1.1528 -1.5047,1.5047 -0.4217,-0.4217 -0.7646,-0.925 -1.0001,-1.4827 0.5991,-0.1087 1.3624,-0.7154 1.9614,-0.8267 0.1281,0.3027 0.3131,0.5757 0.5434,0.8047 z"
                     id="path5223"
                     style="fill:#e9e9e9;fill-opacity:1;fill-rule:nonzero;stroke:none" />
                  <path
                     d="m 8156.086,8234.8728 c -0.599,0.1113 -1.3623,0.718 -1.9614,0.8267 -0.1177,-0.2781 -0.2096,-0.5705 -0.2717,-0.8733 0.6806,-0.031 1.4064,-0.3985 2.0844,-0.4295 0.035,0.1643 0.084,0.3234 0.1487,0.4761 z"
                     id="path5225"
                     style="fill:#f9f9f9;fill-opacity:1;fill-rule:nonzero;stroke:none" />
                  <path
                     d="m 8155.9373,8234.3967 c -0.678,0.031 -1.4038,0.3985 -2.0844,0.4295 -0.062,-0.304 -0.093,-0.6171 -0.093,-0.9393 0.709,0 1.4167,0 2.1257,0 0,0.1747 0.018,0.3454 0.052,0.5098 z"
                     id="path5227"
                     style="fill:#fdfdfd;fill-opacity:1;fill-rule:nonzero;stroke:none" />
                  <path
                     d="m 8185.6303,8198.9992 c 0,5.685 -5.4185,34.8877 -27.6087,34.8877 0,-12.6211 0,-31.8446 0,-44.4709 0,0 0,0 0,0 5.346,6.1068 15.3343,9.5638 27.6087,9.5832 z"
                     id="path5229"
                     style="fill:#ffffff;fill-opacity:1;fill-rule:nonzero;stroke:none" />
                  <path
                     d="m 8158.0216,8233.8869 c -0.7142,0 -1.4219,0 -2.1361,0 0,-14.3044 0,-33.1785 0,-47.4816 0.5952,1.0648 1.3093,2.0688 2.1361,3.0107 0,12.6263 0,31.8498 0,44.4709 z"
                     id="path5231"
                     style="fill:#ffffff;fill-opacity:1;fill-rule:nonzero;stroke:none" />
                  <path
                     d="m 8155.8855,8233.8869 c -0.709,0 -1.4167,0 -2.1257,0 0,-18.3036 0,-37.4442 0,-55.7452 0,3.0728 0.7594,5.8118 2.1257,8.2636 0,14.3031 0,33.1772 0,47.4816 z"
                     id="path5233"
                     style="fill:#ffffff;fill-opacity:1;fill-rule:nonzero;stroke:none" />
                </g>
              </g>
            </g>
          </g>
        </g>
      </g>
    </g>
    <g
       transform="matrix(8.325944,0,0,-8.3324763,0,790.85282)"
       id="g5235">
      <g
         clip-path="url(#clipPath5239)"
         id="g5237">
        <g
           id="g5243">
          <g
             clip-path="url(#clipPath5247)"
             id="g5245">
            <g
               id="g5251">
              <g
                 transform="matrix(1,0,0,-1,-8153.7598,8238.542)"
                 id="g5253">
                <g
                   id="g5255">
                  <path
                     d="m 8185.6262,8198.9971 c 12.0067,0.017 26.1959,-3.2545 40.3705,-10.5817 0,-4.3212 0,-11.3074 0,-24.1403 -14.1204,0 -40.3705,19.4886 -40.3705,34.722 0,0 0,0 0,0 z"
                     id="path5257"
                     style="fill:#ffffff;fill-opacity:1;fill-rule:nonzero;stroke:none" />
                  <path
                     d="m 8225.9967,8188.4154 c 0,-4.3212 0,-11.3074 0,-24.1403 0.1771,0 0.3542,0 0.5314,0 0,11.8983 0,19.1462 0,23.8627 -0.1772,0.094 -0.3543,0.1864 -0.5314,0.2776 z"
                     id="path5259"
                     style="fill:#ffffff;fill-opacity:1;fill-rule:nonzero;stroke:none" />
                  <path
                     d="m 8226.5281,8188.1378 c 0,-4.7165 0,-11.9644 0,-23.8627 0.1771,0 0.3556,0 0.5327,0 0,9.8402 0,17.9949 0,23.5785 -0.1771,0.095 -0.3556,0.1891 -0.5327,0.2829 z"
                     id="path5261"
                     style="fill:#fafafa;fill-opacity:1;fill-rule:nonzero;stroke:none" />
                  <path
                     d="m 8227.0608,8187.8549 c 0,-5.5836 0,-13.7383 0,-23.5785 0.1785,0 0.3556,0 0.534,0 0,7.782 0,16.8409 0,23.2917 -0.1784,0.096 -0.3555,0.1917 -0.534,0.2868 z"
                     id="path5263"
                     style="fill:#eeedee;fill-opacity:1;fill-rule:nonzero;stroke:none" />
                  <path
                     d="m 8227.5948,8187.5681 c 0,-6.4508 0,-15.5097 0,-23.2917 0.1772,0 0.3556,0 0.5314,0 0,6.8461 0,16.1588 0,23.0035 -0.1758,0.097 -0.3542,0.193 -0.5314,0.2895 z"
                     id="path5265"
                     style="fill:#dfdfdf;fill-opacity:1;fill-rule:nonzero;stroke:none" />
                  <path
                     d="m 8228.1262,8187.2786 c 0,-6.8447 0,-16.1574 0,-23.0035 0.3556,0 0.7112,0 1.0655,0 0,7.0602 0,15.3643 0,22.4205 -0.3556,0.1957 -0.7111,0.3874 -1.0681,0.583 z"
                     id="path5267"
                     style="fill:#d3d2d2;fill-opacity:1;fill-rule:nonzero;stroke:none" />
                  <path
                     d="m 8229.1943,8186.6956 c 0,-7.0562 0,-15.3603 0,-22.4205 0.3556,0 0.7112,0 1.0667,0 0,7.273 0,14.5474 0,21.8164 -0.3542,0.2089 -0.7085,0.4085 -1.0641,0.6041 z"
                     id="path5269"
                     style="fill:#c5c4c4;fill-opacity:1;fill-rule:nonzero;stroke:none" />
                  <path
                     d="m 8185.6262,8198.9971 c 0,-15.2334 26.2501,-34.722 40.3705,-34.722 0,-15.2004 -18.1932,-16.3848 -23.7676,-16.3848 0,17.6393 -16.6029,29.0022 -16.6029,51.1068 0,0 0,0 0,0 z"
                     id="path5271"
                     style="fill:#ffffff;fill-opacity:1;fill-rule:nonzero;stroke:none" />
                  <path
                     d="m 8225.9967,8164.2751 c 0,-7.6008 -4.5486,-11.696 -9.7939,-13.893 0.09,-0.089 0.1904,-0.2234 0.2961,-0.382 5.3682,2.2908 10.0292,6.5208 10.0292,14.275 -0.1772,0 -0.3543,0 -0.5314,0 z"
                     id="path5273"
                     style="fill:#ffffff;fill-opacity:1;fill-rule:nonzero;stroke:none" />
                  <path
                     d="m 8226.5281,8164.2751 c 0,-7.7542 -4.661,-11.9842 -10.0292,-14.275 0.1058,-0.1573 0.2181,-0.3384 0.3305,-0.5209 5.4805,2.3398 10.2314,6.702 10.2314,14.7972 -0.1771,0 -0.3556,0 -0.5327,0 z"
                     id="path5275"
                     style="fill:#fafafa;fill-opacity:1;fill-rule:nonzero;stroke:none" />
                  <path
                     d="m 8216.2028,8150.3821 c -5.2452,-2.1957 -11.1858,-2.4918 -13.9737,-2.4918 0,-0.1771 0,-0.3542 0,-0.5327 2.8262,0 8.9016,0.3516 14.2698,2.6425 -0.1057,0.1586 -0.2062,0.2934 -0.2961,0.382 z"
                     id="path5277"
                     style="fill:#ffffff;fill-opacity:1;fill-rule:nonzero;stroke:none" />
                  <path
                     d="m 8216.4989,8150.0001 c -5.3682,-2.2909 -11.4436,-2.6425 -14.2698,-2.6425 0,-0.1771 0,-0.3543 0,-0.5327 2.9122,0 9.1211,0.3159 14.6003,2.6543 -0.1124,0.1825 -0.2247,0.3636 -0.3305,0.5209 z"
                     id="path5279"
                     style="fill:#fcfcfc;fill-opacity:1;fill-rule:nonzero;stroke:none" />
                  <path
                     d="m 8227.0608,8164.2764 c 0.1785,0 0.3556,0 0.534,0 0,-4.2181 -1.2108,-7.4501 -3.1209,-9.9273 -0.1547,0.107 -0.3146,0.2379 -0.4733,0.3701 1.8731,2.3953 3.0602,5.5096 3.0602,9.5572 z"
                     id="path5281"
                     style="fill:#eeedee;fill-opacity:1;fill-rule:nonzero;stroke:none" />
                  <path
                     d="m 8224.0006,8154.7192 c 0.1587,-0.1322 0.3186,-0.2631 0.4733,-0.3701 -1.9088,-2.4773 -4.5169,-4.197 -7.3127,-5.3907 -0.1071,0.1586 -0.2194,0.3397 -0.3318,0.5208 2.7403,1.1699 5.2981,2.8447 7.1712,5.24 z"
                     id="path5283"
                     style="fill:#f0f0f0;fill-opacity:1;fill-rule:nonzero;stroke:none" />
                  <path
                     d="m 8227.5948,8164.2764 c 0.1772,0 0.3556,0 0.5314,0 0,-4.2948 -1.2386,-7.5995 -3.1923,-10.1402 -0.1481,0.028 -0.3027,0.1084 -0.46,0.2142 1.9101,2.4772 3.1209,5.7092 3.1209,9.9273 z"
                     id="path5285"
                     style="fill:#dfdfdf;fill-opacity:1;fill-rule:nonzero;stroke:none" />
                  <path
                     d="m 8224.4739,8154.3491 c 0.1573,-0.1058 0.3119,-0.1864 0.46,-0.2142 -1.9524,-2.5406 -4.62,-4.3186 -7.4779,-5.5585 -0.089,0.088 -0.1891,0.2234 -0.2948,0.382 2.7958,1.1937 5.4039,2.9134 7.3127,5.3907 z"
                     id="path5287"
                     style="fill:#e3e3e3;fill-opacity:1;fill-rule:nonzero;stroke:none" />
                  <path
                     d="m 8216.8294,8149.4792 c 0.2247,-0.3622 0.4494,-0.7244 0.6266,-0.9028 -2.8566,-1.2413 -5.9049,-1.9445 -8.6174,-2.3384 -0.055,0.3 -0.1639,0.6688 -0.2723,1.0376 2.6028,0.3702 5.5241,1.0338 8.2631,2.2036 z"
                     id="path5289"
                     style="fill:#f6f5f5;fill-opacity:1;fill-rule:nonzero;stroke:none" />
                  <path
                     d="m 8208.5663,8147.2756 c 0.1084,-0.3688 0.2168,-0.7376 0.2723,-1.0376 -2.7125,-0.3926 -5.0906,-0.4772 -6.6095,-0.4772 0,0.3556 0,0.7098 0,1.0641 1.4568,0 3.737,0.079 6.3372,0.4507 z"
                     id="path5291"
                     style="fill:#fbfbfb;fill-opacity:1;fill-rule:nonzero;stroke:none" />
                  <path
                     d="m 8228.1262,8164.2751 c 0.3556,0 0.7112,0 1.0655,0 0,-4.1904 -1.1183,-7.5096 -2.9399,-10.1309 -0.5089,-0.032 -1.0178,-0.065 -1.3179,-0.01 1.9537,2.5407 3.1923,5.8454 3.1923,10.1402 z"
                     id="path5293"
                     style="fill:#d3d2d2;fill-opacity:1;fill-rule:nonzero;stroke:none" />
                  <path
                     d="m 8224.9339,8154.1349 c 0.3001,-0.056 0.809,-0.023 1.3179,0.01 -1.8216,-2.6213 -4.3437,-4.5447 -7.1488,-5.9446 -0.7349,0.1005 -1.4712,0.1996 -1.647,0.3768 2.8579,1.2399 5.5255,3.0179 7.4779,5.5585 z"
                     id="path5295"
                     style="fill:#d8d7d8;fill-opacity:1;fill-rule:nonzero;stroke:none" />
                  <path
                     d="m 8217.456,8148.5764 c 0.1758,-0.1772 0.9121,-0.2763 1.647,-0.3768 -2.805,-1.3985 -5.8929,-2.2749 -8.8447,-2.801 -0.6821,0.2696 -1.3655,0.5406 -1.4197,0.8394 2.7125,0.3939 5.7608,1.0971 8.6174,2.3384 z"
                     id="path5297"
                     style="fill:#e4e4e4;fill-opacity:1;fill-rule:nonzero;stroke:none" />
                  <path
                     d="m 8208.8386,8146.238 c 0.054,-0.2988 0.7376,-0.5698 1.4197,-0.8394 -2.9518,-0.5261 -5.7687,-0.7033 -8.0292,-0.7033 0,0.3556 0,0.7112 0,1.0655 1.5189,0 3.897,0.085 6.6095,0.4772 z"
                     id="path5299"
                     style="fill:#efefef;fill-opacity:1;fill-rule:nonzero;stroke:none" />
                  <path
                     d="m 8229.1917,8164.2751 c 0.3556,0 0.7112,0 1.0667,0 0,-4.0859 -1.0006,-7.4197 -2.69,-10.1217 -0.2987,0.055 -0.8077,0.024 -1.3166,-0.01 1.8216,2.6213 2.9399,5.9405 2.9399,10.1309 z"
                     id="path5301"
                     style="fill:#c6c5c5;fill-opacity:1;fill-rule:nonzero;stroke:none" />
                  <path
                     d="m 8226.2518,8154.1442 c 0.5089,0.033 1.0179,0.065 1.3166,0.01 -1.6894,-2.7006 -4.0661,-4.7707 -6.8196,-6.3305 -0.1771,0.1785 -0.9121,0.2776 -1.6458,0.3767 2.8051,1.3999 5.3272,3.3233 7.1488,5.9446 z"
                     id="path5303"
                     style="fill:#cbcacb;fill-opacity:1;fill-rule:nonzero;stroke:none" />
                  <path
                     d="m 8219.103,8148.1996 c 0.7337,-0.099 1.4687,-0.1982 1.6458,-0.3767 -2.7535,-1.5598 -5.8811,-2.6081 -9.0708,-3.2664 -0.056,0.3001 -0.7376,0.5711 -1.4197,0.8421 2.9518,0.5261 6.0397,1.4025 8.8447,2.801 z"
                     id="path5305"
                     style="fill:#d6d6d6;fill-opacity:1;fill-rule:nonzero;stroke:none" />
                  <path
                     d="m 8210.2583,8145.3986 c 0.6821,-0.271 1.3642,-0.542 1.4197,-0.8421 -3.191,-0.6596 -6.4455,-0.9266 -9.4489,-0.9266 0,0.3542 0,0.7098 0,1.0654 2.2605,0 5.0774,0.1772 8.0292,0.7033 z"
                     id="path5307"
                     style="fill:#e2e1e1;fill-opacity:1;fill-rule:nonzero;stroke:none" />
                  <path
                     d="m 8185.6262,8198.9971 c 0,-22.1046 16.6029,-33.4675 16.6029,-51.1068 -8.8169,0 -26.8078,3.0747 -38.3254,14.5989 8.546,8.546 21.7225,19.1449 21.7225,36.5079 0,0 0,0 0,0 z"
                     id="path5309"
                     style="fill:#ffffff;fill-opacity:1;fill-rule:nonzero;stroke:none" />
                  <path
                     d="m 8202.2291,8147.8903 c -8.8169,0 -26.8078,3.0747 -38.3254,14.5989 -0.2327,-0.2339 -0.4918,-0.4943 -0.7522,-0.7548 11.7635,-11.77 30.0809,-14.9095 39.0776,-14.9095 0,0.3556 0,0.7112 0,1.0654 z"
                     id="path5311"
                     style="fill:#ffffff;fill-opacity:1;fill-rule:nonzero;stroke:none" />
                  <path
                     d="m 8202.2291,8146.8249 c -8.9967,0 -27.3141,3.1395 -39.0776,14.9095 -0.2604,-0.2617 -0.5208,-0.5221 -0.7535,-0.7547 12.0107,-12.0134 30.6559,-15.2189 39.8311,-15.2189 0,0.3556 0,0.7098 0,1.0641 z"
                     id="path5313"
                     style="fill:#fcfcfc;fill-opacity:1;fill-rule:nonzero;stroke:none" />
                  <path
                     d="m 8202.2291,8145.7608 c -9.1752,0 -27.8204,3.2055 -39.8311,15.2189 -0.2538,-0.2499 -0.4957,-0.4905 -0.7415,-0.7377 12.1468,-12.1494 30.9824,-15.5467 40.5726,-15.5467 0,0.3556 0,0.7112 0,1.0655 z"
                     id="path5315"
                     style="fill:#f5f4f5;fill-opacity:1;fill-rule:nonzero;stroke:none" />
                  <path
                     d="m 8202.2291,8144.6953 c -9.5902,0 -28.4258,3.3973 -40.5726,15.5467 -0.2459,-0.2472 -0.4957,-0.497 -0.7667,-0.7667 12.2843,-12.2856 31.3353,-15.8454 41.3393,-15.8454 0,0.3542 0,0.7098 0,1.0654 z"
                     id="path5317"
                     style="fill:#e7e6e7;fill-opacity:1;fill-rule:nonzero;stroke:none" />
                  <path
                     d="m 8185.6262,8198.9971 c 0,-17.363 -13.1765,-27.9619 -21.7225,-36.5079 -4.5645,4.5738 -5.889,8.0768 -5.889,15.6486 11.7158,0 27.6115,8.7046 27.6115,20.8593 0,0 0,0 0,0 z"
                     id="path5319"
                     style="fill:#ffffff;fill-opacity:1;fill-rule:nonzero;stroke:none" />
                  <path
                     d="m 8163.9037,8162.4892 c -4.5645,4.5738 -5.889,8.0768 -5.889,15.6486 -0.357,0 -0.7125,0 -1.0681,0 0,-7.864 1.4236,-11.6208 6.2049,-16.4034 0.2604,0.2605 0.5195,0.5209 0.7522,0.7548 z"
                     id="path5321"
                     style="fill:#ffffff;fill-opacity:1;fill-rule:nonzero;stroke:none" />
                  <path
                     d="m 8163.1515,8161.7344 c -4.7813,4.7826 -6.2049,8.5394 -6.2049,16.4034 -0.3556,0 -0.7112,0 -1.0681,0 0,-8.1574 1.5215,-12.1667 6.5195,-17.1581 0.2327,0.2326 0.4931,0.493 0.7535,0.7547 z"
                     id="path5323"
                     style="fill:#fcfcfc;fill-opacity:1;fill-rule:nonzero;stroke:none" />
                  <path
                     d="m 8162.398,8160.9797 c -4.998,4.9914 -6.5195,9.0007 -6.5195,17.1581 -0.3543,0 -0.7085,0 -1.0628,0 0,-8.1482 1.4792,-12.5382 6.8408,-17.8958 0.2458,0.2472 0.4877,0.4878 0.7415,0.7377 z"
                     id="path5325"
                     style="fill:#f5f4f5;fill-opacity:1;fill-rule:nonzero;stroke:none" />
                  <path
                     d="m 8161.6565,8160.242 c -5.3616,5.3576 -6.8408,9.7476 -6.8408,17.8958 -0.3556,0 -0.7099,0 -1.0655,0 0,-8.1389 1.4145,-12.94 7.1396,-18.6625 0.271,0.2697 0.5208,0.5195 0.7667,0.7667 z"
                     id="path5327"
                     style="fill:#e7e6e7;fill-opacity:1;fill-rule:nonzero;stroke:none" />
                  <path
                     d="m 8185.6262,8198.9971 c 0,-12.1547 -15.8957,-20.8593 -27.6115,-20.8593 0,3.5373 0,7.1778 0,11.273 5.347,6.1084 15.3352,9.5625 27.6115,9.5863 0,0 0,0 0,0 z"
                     id="path5329"
                     style="fill:#ffffff;fill-opacity:1;fill-rule:nonzero;stroke:none" />
                  <path
                     d="m 8158.0147,8178.1378 c 0,3.5373 0,7.1778 0,11.273 -0.4138,-0.4706 -0.7985,-0.957 -1.1554,-1.458 0,-3.3431 0.087,-6.7655 0.087,-9.815 0.3556,0 0.7111,0 1.0681,0 z"
                     id="path5331"
                     style="fill:#ffffff;fill-opacity:1;fill-rule:nonzero;stroke:none" />
                  <path
                     d="m 8156.9466,8178.1378 c 0,3.0495 -0.087,6.4719 -0.087,9.815 -0.3556,-0.5037 -0.6834,-1.0205 -0.9808,-1.5546 0,-2.5896 0,-5.6986 0,-8.2604 0.3569,0 0.7125,0 1.0681,0 z"
                     id="path5333"
                     style="fill:#fcfcfc;fill-opacity:1;fill-rule:nonzero;stroke:none" />
                  <path
                     d="m 8155.8785,8178.1378 c 0,2.5618 0,5.6708 0,8.2604 -0.6861,-1.224 -1.2188,-2.5221 -1.5797,-3.8969 0,-1.2941 0.5169,-3.0826 0.5169,-4.3635 0.3543,0 0.7085,0 1.0628,0 z"
                     id="path5335"
                     style="fill:#f5f4f5;fill-opacity:1;fill-rule:nonzero;stroke:none" />
                  <path
                     d="m 8154.8157,8178.1378 c 0,1.2809 -0.5169,3.0694 -0.5169,4.3635 -0.3595,-1.3748 -0.5486,-2.8275 -0.5486,-4.3635 0,0 0,0 0,0 0.3556,0 0.7099,0 1.0655,0 z"
                     id="path5337"
                     style="fill:#e7e6e7;fill-opacity:1;fill-rule:nonzero;stroke:none" />
                </g>
              </g>
            </g>
          </g>
        </g>
      </g>
    </g>
    <g
       transform="matrix(8.325944,0,0,-8.3324763,0,790.85282)"
       id="g5339">
      <g
         clip-path="url(#clipPath5343)"
         id="g5341">
        <g
           id="g5347">
          <g
             clip-path="url(#clipPath5351)"
             id="g5349">
            <g
               id="g5355">
              <g
                 transform="matrix(1,0,0,-1,-8153.7598,8238.542)"
                 id="g5357">
                <g
                   id="g5359">
                  <path
                     d="m 8225.9959,8188.4197 c 0,0 0,0 0,0 0,13.2668 0,32.2017 0,45.4672 -22.1979,0 -40.3656,-29.2027 -40.3656,-34.8877 12.0053,0.017 26.1932,-3.2526 40.3656,-10.5795 z"
                     id="path5361"
                     style="fill:#76afe3;fill-opacity:1;fill-rule:nonzero;stroke:none" />
                  <path
                     d="m 8225.9959,8188.4197 c 0,13.2668 0,32.2017 0,45.4672 0.1773,0 0.3545,0 0.5318,0 0,-13.444 0,-32.2987 0,-45.7441 -0.1773,0.093 -0.3545,0.1851 -0.5318,0.2769 z"
                     id="path5363"
                     style="fill:#76afe3;fill-opacity:1;fill-rule:nonzero;stroke:none" />
                  <path
                     d="m 8226.5277,8188.1428 c 0,13.4454 0,32.3001 0,45.7441 0.1772,0 0.3545,0 0.533,0 0,-13.8347 0,-32.1888 0,-46.0235 -0.1785,0.094 -0.3558,0.1889 -0.533,0.282 z"
                     id="path5365"
                     style="fill:#74acdf;fill-opacity:1;fill-rule:nonzero;stroke:none" />
                  <path
                     d="m 8227.0607,8187.8608 c 0,13.8347 0,32.1888 0,46.0235 0.3545,0 0.7103,0 1.0648,0 0,-14.4079 0,-32.1952 0,-46.5993 -0.3545,0.1928 -0.7103,0.383 -1.0648,0.5732 z"
                     id="path5367"
                     style="fill:#6ea4d4;fill-opacity:1;fill-rule:nonzero;stroke:none" />
                  <path
                     d="m 8228.1255,8187.2876 c 0.7129,-0.392 1.4232,-0.7685 2.1323,-1.1812 0,15.5917 0,32.1939 0,47.7805 -0.7116,0 -1.4232,0 -2.1323,0 0,-14.4079 0,-32.1952 0,-46.5993 z"
                     id="path5369"
                     style="fill:#618fbb;fill-opacity:1;fill-rule:nonzero;stroke:none" />
                  <path
                     d="m 8185.6303,8198.9992 c 0,5.685 18.1677,34.8877 40.3656,34.8877 0,0.2187 -0.185,0.4011 -0.4036,0.4011 0,-19.2688 -39.962,-29.6038 -39.962,-35.2888 0,0 0,0 0,0 z"
                     id="path5371"
                     style="fill:#76afe3;fill-opacity:1;fill-rule:nonzero;stroke:none" />
                  <path
                     d="m 8225.9959,8233.8869 c 0,0.2187 -0.185,0.4011 -0.4036,0.4011 0,0.1772 0,0.3558 0,0.5343 0.4036,0 0.9341,-0.533 0.9341,-0.9354 -0.1773,0 -0.3545,0 -0.5318,0 z"
                     id="path5373"
                     style="fill:#76afe3;fill-opacity:1;fill-rule:nonzero;stroke:none" />
                  <path
                     d="m 8226.5277,8233.8869 c 0,0.4024 -0.5305,0.9354 -0.9341,0.9354 0,0.1773 0,0.3558 0,0.5331 0.8086,0 1.4671,-0.6625 1.4671,-1.4711 -0.1785,0 -0.3558,0 -0.533,0 z"
                     id="path5375"
                     style="fill:#74acdf;fill-opacity:1;fill-rule:nonzero;stroke:none" />
                  <path
                     d="m 8227.0607,8233.8843 c 0,0.8086 -0.6585,1.4711 -1.4671,1.4711 0,0.3558 0,0.7103 0,1.0648 1.3973,0 2.5332,-1.136 2.5332,-2.5333 -0.3545,0 -0.7103,0 -1.0648,0 z"
                     id="path5377"
                     style="fill:#6ea4d4;fill-opacity:1;fill-rule:nonzero;stroke:none" />
                  <path
                     d="m 8228.1255,8233.8869 c 0.7091,0 1.4207,0 2.1323,0 0,2.5734 -2.0921,4.6616 -4.6655,4.6616 0,-0.7038 0,-1.4154 0,-2.1283 1.3973,0 2.5332,-1.136 2.5332,-2.5333 z"
                     id="path5379"
                     style="fill:#618fbb;fill-opacity:1;fill-rule:nonzero;stroke:none" />
                  <path
                     d="m 8185.6303,8198.9992 c 0,5.685 39.962,16.02 39.962,35.2888 -21.7788,0 -45.3909,0 -67.1722,0 0,-19.2688 27.2102,-29.6038 27.2102,-35.2888 0,0 0,0 0,0 z"
                     id="path5381"
                     style="fill:#76afe3;fill-opacity:1;fill-rule:nonzero;stroke:none" />
                  <path
                     d="m 8225.5923,8234.288 c -21.7788,0 -45.3909,0 -67.1722,0 0,0.1772 0,0.3558 0,0.5343 21.7813,0 45.396,0 67.1735,0 0,-0.1785 0,-0.3571 0,-0.5343 z"
                     id="path5383"
                     style="fill:#76afe3;fill-opacity:1;fill-rule:nonzero;stroke:none" />
                  <path
                     d="m 8225.5936,8234.8223 c -21.7775,0 -45.3922,0 -67.1735,0 0,0.1773 0,0.3558 0,0.5331 21.7813,0 45.396,0 67.1735,0 0,-0.1773 0,-0.3558 0,-0.5331 z"
                     id="path5385"
                     style="fill:#74acdf;fill-opacity:1;fill-rule:nonzero;stroke:none" />
                  <path
                     d="m 8225.5936,8235.3554 c -21.7775,0 -45.3922,0 -67.1735,0 0,0.3558 0,0.7103 0,1.0648 21.7813,0 45.3934,0 67.1722,0 0,-0.3545 0,-0.709 0,-1.0648 z"
                     id="path5387"
                     style="fill:#6ea4d4;fill-opacity:1;fill-rule:nonzero;stroke:none" />
                  <path
                     d="m 8225.5923,8236.4202 c 0,0.7129 0,1.4245 0,2.1283 -21.7788,0 -45.3909,0 -67.1722,0 0,-0.7038 0,-1.4154 0,-2.1283 21.7813,0 45.3934,0 67.1722,0 z"
                     id="path5389"
                     style="fill:#618fbb;fill-opacity:1;fill-rule:nonzero;stroke:none" />
                  <path
                     d="m 8185.6303,8198.9992 c 0,5.685 -27.2102,16.02 -27.2102,35.2888 -0.22,0 -0.3985,-0.1824 -0.3985,-0.4011 22.1902,0 27.6087,-29.2027 27.6087,-34.8877 0,0 0,0 0,0 z"
                     id="path5391"
                     style="fill:#76afe3;fill-opacity:1;fill-rule:nonzero;stroke:none" />
                  <path
                     d="m 8158.4201,8234.288 c -0.11,0 -0.2096,-0.047 -0.2808,-0.1178 -0.089,0.088 -0.207,0.2045 -0.3364,0.3351 0.1825,0.1825 0.4153,0.317 0.6172,0.317 0,-0.1785 0,-0.3571 0,-0.5343 z"
                     id="path5393"
                     style="fill:#76afe3;fill-opacity:1;fill-rule:nonzero;stroke:none" />
                  <path
                     d="m 8158.4201,8234.8223 c 0,0.1773 0,0.3558 0,0.5331 -0.2019,0 -0.3946,-0.041 -0.5693,-0.1152 0.089,-0.1721 0.1786,-0.3415 0.2536,-0.5084 0.1061,0.057 0.2148,0.091 0.3157,0.091 z"
                     id="path5395"
                     style="fill:#74acdf;fill-opacity:1;fill-rule:nonzero;stroke:none" />
                  <path
                     d="m 8158.1044,8234.7318 c -0.075,0.1669 -0.1643,0.3363 -0.2536,0.5084 -0.176,-0.075 -0.3338,-0.1837 -0.4671,-0.317 0.1449,-0.1436 0.2886,-0.2872 0.4192,-0.4179 0.091,0.092 0.1954,0.1708 0.3015,0.2265 z"
                     id="path5397"
                     style="fill:#75ade0;fill-opacity:1;fill-rule:nonzero;stroke:none" />
                  <path
                     d="m 8158.1393,8234.1702 c -0.072,-0.074 -0.1177,-0.1746 -0.1177,-0.2833 -0.1786,0 -0.3558,0 -0.5344,0 0,0.2005 0.132,0.4347 0.3157,0.6184 0.1294,-0.1306 0.2472,-0.2471 0.3364,-0.3351 z"
                     id="path5399"
                     style="fill:#76afe3;fill-opacity:1;fill-rule:nonzero;stroke:none" />
                  <path
                     d="m 8157.8029,8234.5053 c -0.1306,0.1307 -0.2743,0.2743 -0.4192,0.4179 -0.1319,-0.1319 -0.2406,-0.2911 -0.3144,-0.4657 0.1708,-0.091 0.3416,-0.1799 0.5072,-0.2549 0.056,0.1074 0.1346,0.2109 0.2264,0.3027 z"
                     id="path5401"
                     style="fill:#78afe2;fill-opacity:1;fill-rule:nonzero;stroke:none" />
                  <path
                     d="m 8157.5765,8234.2026 c -0.1656,0.075 -0.3364,0.1643 -0.5072,0.2549 -0.074,-0.176 -0.1151,-0.3688 -0.1151,-0.5706 0.1772,0 0.3545,0 0.533,0 0,0.1 0.034,0.2083 0.089,0.3157 z"
                     id="path5403"
                     style="fill:#7ab2e4;fill-opacity:1;fill-rule:nonzero;stroke:none" />
                  <path
                     d="m 8158.4201,8235.3554 c 0,0.3558 0,0.7103 0,1.0648 -0.3493,0 -0.6819,-0.071 -0.9859,-0.1993 0.056,-0.2988 0.2355,-0.6404 0.4166,-0.9807 0.1747,0.074 0.3674,0.1152 0.5693,0.1152 z"
                     id="path5405"
                     style="fill:#6ea4d4;fill-opacity:1;fill-rule:nonzero;stroke:none" />
                  <path
                     d="m 8157.8508,8235.2402 c -0.1811,0.3403 -0.361,0.6819 -0.4166,0.9807 -0.3028,-0.1293 -0.5757,-0.3144 -0.8048,-0.5434 0.1786,-0.1772 0.4671,-0.4644 0.7543,-0.7543 0.1333,0.1333 0.2911,0.242 0.4671,0.317 z"
                     id="path5407"
                     style="fill:#72a7d7;fill-opacity:1;fill-rule:nonzero;stroke:none" />
                  <path
                     d="m 8157.3837,8234.9232 c -0.1436,0.1449 -0.2872,0.2899 -0.4179,0.4205 -0.1746,-0.1746 -0.3105,-0.3868 -0.4036,-0.6313 0.1656,-0.076 0.3364,-0.1657 0.5071,-0.2549 0.074,0.1746 0.1825,0.3338 0.3144,0.4657 z"
                     id="path5409"
                     style="fill:#7aaedd;fill-opacity:1;fill-rule:nonzero;stroke:none" />
                  <path
                     d="m 8157.0693,8234.4575 c -0.1707,0.089 -0.3415,0.1785 -0.5071,0.2549 -0.093,-0.2459 -0.1424,-0.5227 -0.1424,-0.8255 0.1786,0 0.3558,0 0.5344,0 0,0.2018 0.041,0.3946 0.1151,0.5706 z"
                     id="path5411"
                     style="fill:#83b5e4;fill-opacity:1;fill-rule:nonzero;stroke:none" />
                  <path
                     d="m 8156.9658,8235.3437 c -0.1306,0.1294 -0.2471,0.2459 -0.3364,0.3338 -0.2303,-0.229 -0.4153,-0.502 -0.5434,-0.8047 0.1501,-0.027 0.3106,-0.087 0.4762,-0.1604 0.093,0.2445 0.229,0.4567 0.4036,0.6313 z"
                     id="path5413"
                     style="fill:#7cabd8;fill-opacity:1;fill-rule:nonzero;stroke:none" />
                  <path
                     d="m 8156.5622,8234.7124 c -0.1656,0.074 -0.3261,0.1332 -0.4762,0.1604 -0.1293,-0.3041 -0.2005,-0.6366 -0.2005,-0.9859 0.1786,0 0.3571,0 0.5343,0 0,0.3028 0.049,0.5796 0.1424,0.8255 z"
                     id="path5415"
                     style="fill:#8bb9e4;fill-opacity:1;fill-rule:nonzero;stroke:none" />
                  <path
                     d="m 8158.4201,8236.4202 c 0,0.3571 0,0.7129 0,1.0674 -0.2484,0 -0.4904,-0.025 -0.7246,-0.074 0.1,-0.3519 0.1993,-0.7025 0.2148,-1.0454 0.1643,0.034 0.3351,0.052 0.5098,0.052 z"
                     id="path5417"
                     style="fill:#618fbb;fill-opacity:1;fill-rule:nonzero;stroke:none" />
                  <path
                     d="m 8157.9103,8236.3684 c -0.015,0.3429 -0.1151,0.6935 -0.2148,1.0454 -0.2328,-0.048 -0.4593,-0.119 -0.6753,-0.2096 0.1798,-0.3415 0.3597,-0.6818 0.414,-0.9833 0.1514,0.063 0.3105,0.1139 0.4761,0.1475 z"
                     id="path5419"
                     style="fill:#6492bd;fill-opacity:1;fill-rule:nonzero;stroke:none" />
                  <path
                     d="m 8157.4342,8236.2209 c -0.054,0.3015 -0.2342,0.6418 -0.414,0.9833 -0.4296,-0.1824 -0.8177,-0.4463 -1.1425,-0.7724 0.286,-0.2872 0.5745,-0.5757 0.7517,-0.7543 0.2291,0.229 0.502,0.4141 0.8048,0.5434 z"
                     id="path5421"
                     style="fill:#6997c2;fill-opacity:1;fill-rule:nonzero;stroke:none" />
                  <path
                     d="m 8156.6294,8235.6775 c -0.1772,0.1786 -0.4657,0.4671 -0.7517,0.7543 -0.326,-0.326 -0.5899,-0.7155 -0.7724,-1.1463 0.3403,-0.1785 0.6806,-0.3584 0.9807,-0.4127 0.1281,0.3027 0.3131,0.5757 0.5434,0.8047 z"
                     id="path5423"
                     style="fill:#7ba8d2;fill-opacity:1;fill-rule:nonzero;stroke:none" />
                  <path
                     d="m 8156.086,8234.8728 c -0.3001,0.054 -0.6404,0.2342 -0.9807,0.4127 -0.091,-0.2148 -0.1617,-0.4412 -0.2096,-0.6741 0.352,-0.1 0.7026,-0.1992 1.0416,-0.2147 0.035,0.1643 0.084,0.3234 0.1487,0.4761 z"
                     id="path5425"
                     style="fill:#8fb9e3;fill-opacity:1;fill-rule:nonzero;stroke:none" />
                  <path
                     d="m 8155.9373,8234.3967 c -0.339,0.016 -0.6896,0.1151 -1.0416,0.2147 -0.048,-0.2341 -0.074,-0.4774 -0.074,-0.7245 0.3545,0 0.709,0 1.0635,0 0,0.1747 0.018,0.3454 0.052,0.5098 z"
                     id="path5427"
                     style="fill:#95bfe8;fill-opacity:1;fill-rule:nonzero;stroke:none" />
                  <path
                     d="m 8158.4201,8237.4876 c 0,0.3558 0,0.709 0,1.0609 -0.3222,0 -0.6353,-0.034 -0.9393,-0.096 0.015,-0.3364 0.1151,-0.6858 0.2147,-1.039 0.2342,0.049 0.4762,0.074 0.7246,0.074 z"
                     id="path5429"
                     style="fill:#5780a7;fill-opacity:1;fill-rule:nonzero;stroke:none" />
                  <path
                     d="m 8157.6955,8237.4138 c -0.1,0.3532 -0.1992,0.7026 -0.2147,1.039 -0.3028,-0.061 -0.5965,-0.1527 -0.8746,-0.2717 0.056,-0.295 0.2354,-0.6353 0.414,-0.9769 0.216,0.091 0.4425,0.1618 0.6753,0.2096 z"
                     id="path5431"
                     style="fill:#5982aa;fill-opacity:1;fill-rule:nonzero;stroke:none" />
                  <path
                     d="m 8157.0202,8237.2042 c -0.1786,0.3416 -0.3584,0.6819 -0.414,0.9769 -0.5577,-0.2355 -1.0597,-0.5771 -1.4815,-0.9989 0.1773,-0.1759 0.4645,-0.4631 0.753,-0.7504 0.3248,0.3261 0.7129,0.59 1.1425,0.7724 z"
                     id="path5433"
                     style="fill:#5f89b1;fill-opacity:1;fill-rule:nonzero;stroke:none" />
                  <path
                     d="m 8155.8777,8236.4318 c -0.2885,0.2873 -0.5757,0.5745 -0.753,0.7504 -0.4217,-0.4217 -0.7646,-0.925 -1.0001,-1.4827 0.3002,-0.053 0.6405,-0.2329 0.9807,-0.414 0.1825,0.4308 0.4464,0.8203 0.7724,1.1463 z"
                     id="path5435"
                     style="fill:#719dc7;fill-opacity:1;fill-rule:nonzero;stroke:none" />
                  <path
                     d="m 8155.1053,8235.2855 c -0.3402,0.1811 -0.6805,0.361 -0.9807,0.414 -0.1177,-0.2781 -0.2096,-0.5705 -0.2717,-0.8733 0.3403,-0.014 0.6909,-0.1151 1.0428,-0.2148 0.048,0.2329 0.1191,0.4593 0.2096,0.6741 z"
                     id="path5437"
                     style="fill:#85b3de;fill-opacity:1;fill-rule:nonzero;stroke:none" />
                  <path
                     d="m 8154.8957,8234.6114 c -0.3519,0.1 -0.7025,0.2006 -1.0428,0.2148 -0.062,-0.304 -0.093,-0.6171 -0.093,-0.9393 0.3532,0 0.7077,0 1.0622,0 0,0.2471 0.026,0.4904 0.074,0.7245 z"
                     id="path5439"
                     style="fill:#8cbae5;fill-opacity:1;fill-rule:nonzero;stroke:none" />
                  <path
                     d="m 8185.6303,8198.9992 c 0,5.685 -5.4185,34.8877 -27.6087,34.8877 0,-12.6211 0,-31.8446 0,-44.4709 0,0 0,0 0,0 5.346,6.1068 15.3343,9.5638 27.6087,9.5832 z"
                     id="path5441"
                     style="fill:#76afe3;fill-opacity:1;fill-rule:nonzero;stroke:none" />
                  <path
                     d="m 8158.0216,8233.8869 c 0,-12.6211 0,-31.8446 0,-44.4709 -0.207,-0.2355 -0.4063,-0.4749 -0.599,-0.7181 0,12.8877 0.065,32.3052 0.065,45.189 0.1786,0 0.3558,0 0.5344,0 z"
                     id="path5443"
                     style="fill:#76afe3;fill-opacity:1;fill-rule:nonzero;stroke:none" />
                  <path
                     d="m 8157.4872,8233.8869 c 0,-12.8838 -0.065,-32.3013 -0.065,-45.189 -0.1928,-0.2432 -0.3778,-0.4904 -0.5564,-0.7414 0,13.4648 0.088,32.4683 0.088,45.9304 0.1772,0 0.3545,0 0.533,0 z"
                     id="path5445"
                     style="fill:#7bb2e4;fill-opacity:1;fill-rule:nonzero;stroke:none" />
                  <path
                     d="m 8156.9542,8233.8869 c 0,-13.4621 -0.088,-32.4656 -0.088,-45.9304 -0.1772,-0.251 -0.348,-0.5058 -0.5123,-0.7633 0,14.0404 0.066,32.6519 0.066,46.6937 0.1786,0 0.3558,0 0.5344,0 z"
                     id="path5447"
                     style="fill:#87b8e6;fill-opacity:1;fill-rule:nonzero;stroke:none" />
                  <path
                     d="m 8156.4198,8233.8869 c 0,-14.0418 -0.066,-32.6533 -0.066,-46.6937 -0.1631,-0.2588 -0.3196,-0.5214 -0.4684,-0.7879 0,14.3031 0,33.1772 0,47.4816 0.1786,0 0.3571,0 0.5343,0 z"
                     id="path5449"
                     style="fill:#92bee8;fill-opacity:1;fill-rule:nonzero;stroke:none" />
                  <path
                     d="m 8155.8855,8233.8869 c 0,-14.3044 0,-33.1785 0,-47.4816 -0.6831,-1.2253 -1.2149,-2.5243 -1.5759,-3.8996 0,16.302 0.5124,35.0779 0.5124,51.3812 0.3545,0 0.709,0 1.0635,0 z"
                     id="path5451"
                     style="fill:#97c1e9;fill-opacity:1;fill-rule:nonzero;stroke:none" />
                  <path
                     d="m 8154.822,8233.8869 c 0,-16.3033 -0.5124,-35.0792 -0.5124,-51.3812 -0.3609,-1.374 -0.5498,-2.8283 -0.5498,-4.364 0,18.301 0,37.4416 0,55.7452 0.3532,0 0.7077,0 1.0622,0 z"
                     id="path5453"
                     style="fill:#90bce8;fill-opacity:1;fill-rule:nonzero;stroke:none" />
                </g>
              </g>
            </g>
          </g>
        </g>
      </g>
    </g>
    <g
       id="g3236"
       transform="translate(0.00823812,-0.13579617)">
      <path
         d="M 585.11738,161.71143 C 559.6842,37.671769 319.03694,29.806911 163.89713,124.32111 v 10.43134 c 154.97745,-79.736299 374.75215,-79.231767 394.79536,35.03898 6.69157,37.82544 -14.57048,77.20964 -52.58249,99.81473 v 29.69695 c 45.73615,-16.76336 92.66684,-71.07452 79.00738,-137.59168 z M 303.14529,378.86009 C 196.05009,388.77882 84.55646,373.19201 68.965381,289.48079 61.253308,248.21761 80.063947,204.44387 105.01355,177.26158 v -14.52509 c -44.92296,39.37587 -69.250286,89.24482 -55.23281,148.16209 17.912187,75.52907 113.66079,118.29359 259.80359,104.0703 57.83059,-5.59026 133.49577,-24.22851 186.10242,-53.1397 v -41.08486 c -47.76844,28.49615 -126.70255,52.0289 -192.54146,58.11577"
         id="path5457"
         style="fill:#127bca;fill-opacity:1;fill-rule:nonzero;stroke:none;stroke-width:8.32921" />
      <path
         d="M 487.03526,143.67487 H 459.0083 v 125.03622 c 0,14.69957 7.0738,27.45484 28.02696,29.48455 V 143.67487"
         id="path5459"
         style="fill:#127bca;fill-opacity:1;fill-rule:nonzero;stroke:none;stroke-width:8.32921" />
      <path
         d="m 152.83944,189.357 h -28.06018 v 81.70576 c 0,14.68358 7.07789,27.4546 28.06018,29.48505 V 189.357"
         id="path5461"
         style="fill:#127bca;fill-opacity:1;fill-rule:nonzero;stroke:none;stroke-width:8.32921" />
      <path
         d="m 124.77926,147.47981 v 26.61209 h 28.0193 v -26.61209 h -28.0193"
         id="path5463"
         style="fill:#127bca;fill-opacity:1;fill-rule:nonzero;stroke:none;stroke-width:8.32921" />
      <path
         d="m 320.94766,299.23395 c -22.69719,0 -32.3164,-15.82329 -32.3164,-31.4261 V 159.33084 h 27.78292 V 189.357 h 20.98213 v 22.47927 h -20.98213 v 54.26684 c 0,6.37934 3.06995,9.93981 9.67242,9.93981 h 11.30971 v 23.19103 h -16.44865"
         id="path5465"
         style="fill:#127bca;fill-opacity:1;fill-rule:nonzero;stroke:none;stroke-width:8.32921" />
      <path
         d="m 394.75882,210.52232 c -9.51331,0 -16.86328,4.91033 -19.90392,11.50957 -1.8541,4.00375 -2.48779,7.04278 -2.74007,11.96627 h 42.88186 c -0.55267,-11.97794 -5.97644,-23.47584 -20.23787,-23.47584 z m -22.64399,42.43497 c 0,14.25254 8.93549,24.74129 24.693,24.74129 12.35071,0 18.43273,-3.43381 25.57148,-10.48875 l 17.10731,16.46172 c -10.91947,10.85455 -22.49828,17.44562 -42.89043,17.44562 -26.66042,0 -52.15105,-14.53275 -52.15105,-56.91098 0,-36.23535 22.25433,-56.70825 51.50104,-56.70825 29.71771,0 46.80097,23.95179 46.80097,55.42263 v 10.03672 h -70.63232"
         id="path5467"
         style="fill:#127bca;fill-opacity:1;fill-rule:nonzero;stroke:none;stroke-width:8.32921" />
      <path
         d="m 228.44701,211.83627 c 8.15551,0 11.53001,4.03225 11.53001,10.54983 v 76.99383 h 27.86427 V 222.2887 c 0,-15.63198 -8.37473,-32.91103 -32.75926,-32.91103 l -57.5013,-0.0208 v 110.02294 h 27.8119 v -87.54366 h 23.05438"
         id="path5469"
         style="fill:#127bca;fill-opacity:1;fill-rule:nonzero;stroke:none;stroke-width:8.32921" />
      <path
         d="m 519.4365,151.95926 c 0,-1.34336 -0.74767,-1.81098 -2.5852,-1.81098 -0.20316,0 -0.81353,0 -1.26055,0 -0.1865,0 -0.41472,0 -0.46376,0 v 3.88577 c 0.27726,0 1.52115,0.0408 1.72431,0.0408 1.86992,0 2.5852,-0.59427 2.5852,-1.85148 v -0.26397 z m 2.76505,9.5846 h -2.07408 c -0.19474,0 -0.34952,-0.16223 -0.41455,-0.31655 l -2.86162,-4.80092 c -0.025,-0.0533 -0.29316,-0.17932 -0.39041,-0.17932 0,0 -0.46375,0 -0.81361,0 -0.21889,0 -0.37375,0 -0.47125,0 v 4.77276 c 0,0.24764 -0.18733,0.52403 -0.46367,0.52403 h -1.87009 c -0.29224,0 -0.47949,-0.27639 -0.47949,-0.52403 v -12.06367 c 0,-0.73235 0.2198,-1.00923 0.87839,-1.10664 0.60946,-0.0533 2.40611,-0.13832 3.40697,-0.13832 3.47933,0 5.52843,1.05398 5.52843,4.24806 v 0.26398 c 0,1.96488 -1.02409,3.04302 -2.52035,3.59638 l 2.9349,4.98023 c 0.025,0.0525 0.0491,0.16682 0.0491,0.30489 0,0.20748 -0.10582,0.43912 -0.43886,0.43912 z m -4.95236,-16.00152 c -5.11363,0 -9.26086,4.19115 -9.26086,9.30896 0,5.11856 4.14723,9.26821 9.26086,9.26821 5.1148,0 9.2935,-4.14965 9.2935,-9.26821 0,-5.11781 -4.1787,-9.30896 -9.2935,-9.30896 z m 0,20.47364 c -6.16278,0 -11.13919,-4.99615 -11.13919,-11.16468 0,-6.17178 4.97641,-11.17643 11.13919,-11.17643 6.19625,0 11.19682,5.00465 11.19682,11.17643 0,6.16853 -5.00057,11.16468 -11.19682,11.16468"
         id="path5471"
         style="fill:#127bca;fill-opacity:1;fill-rule:nonzero;stroke:none;stroke-width:8.32921" />
    </g>
    <path
       d="m 346.09882,668.66439 -1.30876,7.23417 c -0.16343,0.92765 -0.99278,1.66 -1.91105,1.66 h -8.01697 c -0.82934,0 -1.46353,-0.58586 -1.46353,-1.41586 0,-0.0817 0,-0.16323 0,-0.24414 l 1.32532,-7.23417 c 0.13821,-0.90324 1.08163,-1.65975 1.99157,-1.65975 h 7.97634 c 0.81327,0 1.40708,0.56144 1.40708,1.42402 0,0.065 0,0.16249 0,0.23573 z m -3.21981,16.74653 -7.58652,43.15964 c -0.13821,0.91082 -1.06488,1.7574 -1.95926,1.7574 h -7.57819 c -0.84483,0 -1.34131,-0.65051 -1.34131,-1.42402 0,-0.13832 0,-0.25222 0,-0.33338 l 7.58577,-43.15964 c 0.18725,-0.91158 1.0166,-1.6605 1.91097,-1.6605 h 7.5866 c 0.82935,0 1.38194,0.55311 1.38194,1.44052 0,0.0242 0,0.1384 0,0.21998"
       id="path5473"
       style="fill:#ffffff;fill-opacity:1;fill-rule:nonzero;stroke:none;stroke-width:8.32921" />
    <path
       d="m 389.07801,701.65274 -4.69983,26.91782 c -0.15428,0.91082 -1.04815,1.7574 -1.96767,1.7574 h -7.58552 c -0.82935,0 -1.39876,-0.57727 -1.39876,-1.42402 0,-0.11415 0.0899,-0.25222 0.0899,-0.33338 l 4.69908,-26.91782 c 0.30065,-2.0747 0.57707,-3.62154 0.57707,-4.92299 0,-3.23883 -1.40641,-4.30431 -5.96828,-4.30431 -2.79652,0 -6.01625,1.14739 -9.78848,3.00211 l -5.86255,33.14301 c -0.19566,0.91082 -1.07305,1.7574 -1.9755,1.7574 h -7.61932 c -0.82934,0 -1.38202,-0.57727 -1.38202,-1.42402 0,-0.11415 0.0899,-0.25222 0.0899,-0.33338 l 7.60159,-43.15964 c 0.13821,-0.91158 0.96756,-1.6605 1.86243,-1.6605 h 7.17113 c 0.84609,0 1.4145,0.63468 1.4145,1.44052 0,0.0242 0,0.0242 0,0.1384 v 0.0817 l -0.30873,1.71674 c 5.26874,-3.04336 8.79703,-3.93818 13.68469,-3.93818 8.98453,0 11.97587,5.3212 11.97587,12.37614 0,1.91247 -0.19483,3.95468 -0.60954,6.08713"
       id="path5475"
       style="fill:#ffffff;fill-opacity:1;fill-rule:nonzero;stroke:none;stroke-width:8.32921" />
    <path
       d="m 432.2606,686.82677 -0.82935,4.7026 c -0.19491,0.99348 -0.76415,1.56234 -1.5935,1.56234 -0.0816,0 -0.15428,0 -0.25985,0 h -0.0575 c -2.2356,-0.31739 -8.31779,-1.00881 -13.01778,-1.00881 -2.5768,0 -6.35769,0.34254 -6.35769,3.83285 0,1.1148 0.82935,2.19736 2.48796,3.38532 l 9.6347,6.58274 c 4.92729,3.39298 6.08202,6.77855 6.08202,10.37468 0,10.31844 -8.39072,14.72015 -18.20468,14.72015 -2.74015,0 -9.81371,-0.25222 -14.8793,-1.65974 -0.81352,-0.2199 -1.24381,-0.74834 -1.24381,-1.48068 0,-0.0982 0,-0.17932 0,-0.23648 0,-0.10582 0,-0.10582 0,-0.14573 l 0.91844,-4.97232 c 0.16219,-0.83 0.9191,-1.32637 1.70748,-1.32637 0.1134,0 0.18659,0 0.29216,0 3.8709,0.49637 10.7164,0.91141 13.20503,0.91141 4.03242,0 7.0738,-0.74892 7.0738,-4.64586 0,-1.3027 -0.71611,-2.54749 -2.74015,-3.93051 l -10.05774,-6.97353 c -3.12223,-2.09995 -5.33335,-5.83465 -5.33335,-9.78908 0,-10.90379 9.46394,-13.54027 17.41513,-13.54027 4.92005,0 10.03368,0.56094 14.57889,1.70066 0.8132,0.3008 1.17887,0.77258 1.17887,1.52167 0,0.0483 0,0.16224 0,0.24414 0,0.0973 0,0.0973 0,0.17082"
       id="path5477"
       style="fill:#ffffff;fill-opacity:1;fill-rule:nonzero;stroke:none;stroke-width:8.32921" />
    <path
       d="m 457.41752,668.66439 -1.31716,7.23417 c -0.17909,0.92765 -1.00844,1.66 -1.93512,1.66 h -8.00123 c -0.82935,0 -1.46278,-0.58586 -1.46278,-1.41586 0,-0.0817 0,-0.16323 0,-0.24414 l 1.30892,-7.23417 c 0.15386,-0.90324 1.0648,-1.65975 2.00822,-1.65975 h 7.976 c 0.81353,0 1.42315,0.56144 1.42315,1.42402 0,0.065 0,0.16249 0,0.23573 z m -3.25228,16.74653 -7.5866,43.15964 c -0.17068,0.91082 -1.04832,1.7574 -1.96733,1.7574 h -7.58585 c -0.84592,0 -1.30868,-0.65051 -1.30868,-1.42402 0,-0.13832 0,-0.25222 0,-0.33338 l 7.60142,-43.15964 c 0.13821,-0.91158 0.96839,-1.6605 1.84595,-1.6605 h 7.61899 c 0.81278,0 1.3821,0.55311 1.3821,1.44052 0,0.0242 0,0.1384 0,0.21998"
       id="path5479"
       style="fill:#ffffff;fill-opacity:1;fill-rule:nonzero;stroke:none;stroke-width:8.32921" />
    <path
       d="m 482.0455,692.0829 c -7.07364,0 -9.65127,3.83285 -10.9437,11.85611 l -1.08146,6.33126 c -0.30048,1.97738 -0.49614,3.63705 -0.49614,5.10206 0,4.54029 1.90264,6.6964 7.26946,6.6964 2.97561,0 6.33346,-0.24414 7.99207,-0.56153 l 5.0412,-28.84603 c -2.22794,-0.33413 -5.78903,-0.57827 -7.78143,-0.57827 z m 22.88061,-22.93873 -10.16348,57.43276 c -0.23646,1.26129 -0.66699,1.74874 -2.62692,2.21286 -5.34933,1.35911 -11.63451,2.18885 -16.94413,2.18885 -11.4157,0 -16.46547,-7.0791 -16.46547,-16.18483 0,-1.48076 0.15495,-2.9612 0.41463,-4.52354 l 1.06581,-6.33126 c 2.4639,-14.98838 10.13109,-20.74953 23.41672,-20.74953 1.97574,0 4.78092,0.17848 7.74063,0.56094 l 2.6827,-14.60625 c 0.13821,-0.89482 0.95157,-1.65974 1.88674,-1.65974 h 7.57728 c 0.81352,0 1.41549,0.60985 1.41549,1.40752 0,0.1139 0,0.18739 0,0.25222"
       id="path5481"
       style="fill:#ffffff;fill-opacity:1;fill-rule:nonzero;stroke:none;stroke-width:8.32921" />
    <path
       d="m 529.8957,692.60343 c -6.5785,0 -9.63478,4.42712 -10.69218,10.48908 h 17.48099 c 0.17917,-1.12213 0.34985,-2.0747 0.34985,-3.15717 0,-4.76793 -2.57779,-7.33191 -7.13866,-7.33191 z m 17.41613,12.20632 -0.63444,3.92235 c -0.24395,1.35894 -0.82935,2.0747 -1.97575,2.0747 h -26.93709 c -0.17052,1.19671 -0.35777,2.2706 -0.35777,3.40949 0,4.46712 2.26033,7.4374 8.39913,7.4374 6.00034,0 11.70794,-0.57794 15.23731,-0.91133 0.10483,0 0.27634,0 0.34145,0 0.65017,0 1.22716,0.13832 1.22716,0.91133 0,0.057 0,0.21922 0,0.35013 l -0.9917,5.45219 c -0.23546,1.30961 -0.47208,1.86289 -2.04893,2.13961 -5.52935,0.96832 -9.17178,1.38302 -16.58687,1.38302 -7.35022,0 -16.22077,-4.1494 -16.22077,-16.59987 0,-1.46493 0.0483,-3.20525 0.35719,-4.95524 l 0.93508,-5.10206 c 2.71592,-15.45249 10.8711,-21.13199 23.49831,-21.13199 10.97693,0 16.1724,7.25833 16.1724,16.91667 0,1.4891 -0.16252,3.14126 -0.41471,4.7036"
       id="path5483"
       style="fill:#ffffff;fill-opacity:1;fill-rule:nonzero;stroke:none;stroke-width:8.32921" />
    <path
       d="M 584.47935,689.32684 V 671.1761 h -0.13202 l -6.84654,18.15074 h -2.16038 l -6.89776,-18.15074 h -0.10079 v 18.15074 h -3.42889 v -21.84241 h 5.29409 l 6.27882,16.52691 6.16727,-16.52691 h 5.27435 v 21.84241 h -3.44832 z m -30.40959,-18.94268 v 18.94268 h -3.44809 v -18.94268 h -6.52186 v -2.89973 h 16.55299 v 2.89973 h -6.58304"
       id="path5485"
       style="fill:#ffffff;fill-opacity:1;fill-rule:nonzero;stroke:none;stroke-width:10.591;" />
    <g
       id="g4008">
      <path
         d="m 448.08167,568.8451 c 0,-1.44917 -0.76096,-1.9521 -2.68912,-1.9521 -0.20251,0 -0.83637,0 -1.2935,0 -0.20262,0 -0.43119,0 -0.48997,0 v 4.14749 c 0.28736,0 1.58096,0.0435 1.78347,0.0435 1.95326,0 2.68912,-0.6166 2.68912,-1.97851 v -0.26033 z m 2.89197,10.20294 h -2.1569 c -0.20252,0 -0.37989,-0.17327 -0.43106,-0.32047 l -2.99312,-5.13621 c -0.0251,-0.0613 -0.27005,-0.17352 -0.40518,-0.17352 0,0 -0.47343,0 -0.82937,0 -0.2278,0 -0.37134,0 -0.49014,0 v 5.06698 c 0,0.26851 -0.18615,0.56322 -0.49004,0.56322 h -1.95308 c -0.28754,0 -0.47369,-0.29471 -0.47369,-0.56322 v -12.85861 c 0,-0.76328 0.21126,-1.07592 0.90486,-1.17998 0.6336,-0.0605 2.50208,-0.14729 3.53413,-0.14729 3.62671,0 5.74992,1.11928 5.74992,4.54616 v 0.26031 c 0,2.09946 -1.06591,3.24468 -2.6131,3.8347 l 3.04425,5.31025 c 0.0338,0.0605 0.0589,0.18214 0.0589,0.3297 0,0.21663 -0.11861,0.46797 -0.45627,0.46797 z m -5.13243,-17.04863 c -5.33519,0 -9.64769,4.45103 -9.64769,9.90823 0,5.45774 4.3125,9.88238 9.64769,9.88238 5.30126,0 9.63888,-4.42463 9.63888,-9.88238 0,-5.45718 -4.33762,-9.90823 -9.63888,-9.90823 z m 0,21.81246 c -6.42602,0 -11.60095,-5.32705 -11.60095,-11.90423 0,-6.5765 5.17493,-11.91269 11.60095,-11.91269 6.40864,0 11.626,5.33619 11.626,11.91269 0,6.57718 -5.21737,11.90423 -11.626,11.90423"
         id="path5487"
         style="fill:#ffffff;fill-opacity:1;fill-rule:nonzero;stroke:none;stroke-width:8.77062" />
      <path
         d="M 97.838864,636.07479 V 628.441 c 0,-1.36726 -0.572638,-2.39269 -2.29055,-2.39269 0,0 -0.114528,0 -0.229055,0 -4.008464,0.34181 -11.796333,0.9115 -17.866291,0.9115 -9.620309,0 -16.606486,-5.46899 -16.606486,-21.30627 v -16.74878 c 0,-16.17909 6.986177,-21.30627 16.606486,-21.30627 6.069958,0 13.857827,0.56969 17.866291,0.91149 0.114527,0 0.229055,0 0.229055,0 1.717912,0 2.29055,-1.02542 2.29055,-2.39268 v -7.63379 c 0,-1.59512 -1.030748,-2.16481 -2.519605,-2.62056 -1.717913,-0.45575 -9.276728,-1.823 -18.095346,-1.823 -13.743299,0 -32.411281,6.26655 -32.411281,34.86481 v 16.74878 c 0,28.14251 18.667982,34.86481 32.411281,34.86481 8.818618,0 16.377433,-1.36726 18.095346,-1.823 1.488857,-0.45575 2.519605,-1.02544 2.519605,-2.62056 z"
         style="font-weight:500;font-size:114.232px;line-height:1.25;font-family:'Neo Sans Pro';-inkscape-font-specification:'Neo Sans Pro Medium';stroke-width:2.8558;fill:#ffffff"
         id="path3975" />
      <path
         d="m 163.23403,609.86922 v -6.38049 c 0,-16.97665 -9.62031,-28.94007 -27.25754,-28.94007 -17.52271,0 -27.4866,11.16586 -27.4866,28.94007 v 8.43136 c 0,22.44564 16.2629,28.59826 27.71565,28.59826 10.30747,0 14.77405,-0.56969 22.21833,-1.93694 2.0615,-0.34181 2.40508,-1.13938 2.40508,-2.96237 v -7.51986 c 0,-1.13937 -0.91622,-1.70906 -2.06149,-1.70906 -0.11453,0 -0.22906,0 -0.34359,0 -4.81015,0.45575 -12.71255,1.13938 -21.07306,1.13938 -10.99464,0 -13.7433,-7.86168 -13.7433,-14.47003 v -0.34182 h 37.33597 c 1.60338,0 2.29055,-1.02544 2.29055,-2.84843 z m -15.23216,-7.86168 h -24.27982 v -0.45575 c 0,-9.00103 5.15374,-14.01428 12.25444,-14.01428 7.1007,0 12.02538,5.12718 12.02538,14.01428 z"
         style="font-weight:500;font-size:114.232px;line-height:1.25;font-family:'Neo Sans Pro';-inkscape-font-specification:'Neo Sans Pro Medium';stroke-width:2.8558;fill:#ffffff"
         id="path3977" />
      <path
         d="m 191.86584,637.21416 v -82.03483 c 0,-1.25331 -0.91623,-2.27875 -2.17603,-2.27875 h -10.65106 c -1.2598,0 -2.29055,1.02544 -2.29055,2.27875 v 82.03483 c 0,1.25331 1.03075,2.39268 2.29055,2.39268 h 10.65106 c 1.2598,0 2.17603,-1.13937 2.17603,-2.39268 z"
         style="font-weight:500;font-size:114.232px;line-height:1.25;font-family:'Neo Sans Pro';-inkscape-font-specification:'Neo Sans Pro Medium';stroke-width:2.8558;fill:#ffffff"
         id="path3979" />
      <path
         d="m 260.12415,609.86922 v -6.38049 c 0,-16.97665 -9.62031,-28.94007 -27.25754,-28.94007 -17.52272,0 -27.4866,11.16586 -27.4866,28.94007 v 8.43136 c 0,22.44564 16.2629,28.59826 27.71565,28.59826 10.30747,0 14.77405,-0.56969 22.21833,-1.93694 2.0615,-0.34181 2.40508,-1.13938 2.40508,-2.96237 v -7.51986 c 0,-1.13937 -0.91622,-1.70906 -2.06149,-1.70906 -0.11453,0 -0.22906,0 -0.34359,0 -4.81015,0.45575 -12.71255,1.13938 -21.07306,1.13938 -10.99464,0 -13.7433,-7.86168 -13.7433,-14.47003 v -0.34182 h 37.33597 c 1.60338,0 2.29055,-1.02544 2.29055,-2.84843 z m -15.23216,-7.86168 h -24.27983 v -0.45575 c 0,-9.00103 5.15373,-14.01428 12.25445,-14.01428 7.1007,0 12.02538,5.12718 12.02538,14.01428 z"
         style="font-weight:500;font-size:114.232px;line-height:1.25;font-family:'Neo Sans Pro';-inkscape-font-specification:'Neo Sans Pro Medium';stroke-width:2.8558;fill:#ffffff"
         id="path3981" />
      <path
         d="m 306.27867,585.03089 v -8.20348 c 0,-1.25331 -1.03075,-2.27875 -2.29055,-2.27875 -4.5811,0 -10.76559,1.13938 -16.37744,5.469 v -2.39269 c 0,-1.25331 -1.03074,-2.27875 -2.29055,-2.27875 h -9.96389 c -1.2598,0 -2.29055,1.02544 -2.29055,2.27875 v 59.58919 c 0,1.25331 1.03075,2.39268 2.29055,2.39268 h 10.53653 c 1.25981,0 2.29055,-1.13937 2.29055,-2.39268 v -45.80278 c 4.81016,-2.50662 9.62031,-4.10175 15.8048,-4.10175 1.2598,0 2.29055,-1.02542 2.29055,-2.27874 z"
         style="font-weight:500;font-size:114.232px;line-height:1.25;font-family:'Neo Sans Pro';-inkscape-font-specification:'Neo Sans Pro Medium';stroke-width:2.8558;fill:#ffffff"
         id="path3983" />
      <path
         d="m 365.83263,612.14796 v -9.22891 c 0,-16.29304 -9.39125,-28.37039 -27.37207,-28.37039 -17.98081,0 -27.37207,12.07735 -27.37207,28.37039 v 9.22891 c 0,16.29304 9.39126,28.37039 27.37207,28.37039 17.98082,0 27.37207,-12.07735 27.37207,-28.37039 z m -15.11762,0 c 0,9.34286 -4.23752,15.38154 -12.25445,15.38154 -8.01692,0 -12.25444,-6.03868 -12.25444,-15.38154 v -9.22891 c 0,-9.34287 4.23752,-15.38154 12.25444,-15.38154 8.01693,0 12.25445,6.03867 12.25445,15.38154 z"
         style="font-weight:500;font-size:114.232px;line-height:1.25;font-family:'Neo Sans Pro';-inkscape-font-specification:'Neo Sans Pro Medium';stroke-width:2.8558;fill:#ffffff"
         id="path3985" />
      <path
         d="m 431.68586,637.21416 v -37.14355 c 0,-14.47003 -3.32129,-25.52195 -19.81325,-25.52195 -7.55881,0 -11.91086,1.25331 -18.55346,5.469 v -2.39269 c 0,-1.25331 -1.03074,-2.27875 -2.29055,-2.27875 h -9.96389 c -1.2598,0 -2.29055,1.02544 -2.29055,2.27875 v 59.58919 c 0,1.25331 1.03075,2.39268 2.29055,2.39268 h 10.53653 c 1.25981,0 2.29055,-1.13937 2.29055,-2.39268 v -45.80278 c 4.81016,-2.50662 9.04767,-4.10175 12.94161,-4.10175 8.81861,0 9.73484,2.84844 9.73484,12.76098 v 37.14355 c 0,1.25331 1.03075,2.39268 2.29055,2.39268 h 10.53652 c 1.25981,0 2.29055,-1.13937 2.29055,-2.39268 z"
         style="font-weight:500;font-size:114.232px;line-height:1.25;font-family:'Neo Sans Pro';-inkscape-font-specification:'Neo Sans Pro Medium';stroke-width:2.8558;fill:#ffffff"
         id="path3987" />
    </g>
    <path
       d="m 539.85253,605.65354 v -16.74878 c 0,-22.55958 -13.05614,-34.86481 -35.96164,-34.86481 -8.13145,0 -19.12609,0.79756 -22.56191,1.36725 -1.94697,0.34181 -2.97772,1.25331 -2.97772,3.53205 v 76.67979 c 0,2.27875 1.03075,3.19025 2.97772,3.53205 3.43582,0.56969 14.43046,1.36726 22.56191,1.36726 22.9055,0 35.96164,-12.30523 35.96164,-34.86481 z m -15.8048,0 c 0,17.09059 -8.70409,21.53414 -20.15684,21.53414 -4.23751,0 -7.21523,-0.22787 -9.62031,-0.34181 v -59.13344 c 2.40508,-0.11394 5.3828,-0.34182 9.62031,-0.34182 11.45275,0 20.15684,4.44356 20.15684,21.53415 z"
       style="font-weight:500;font-size:114.232px;line-height:1.25;font-family:'Neo Sans Pro';-inkscape-font-specification:'Neo Sans Pro Medium';fill:#ffffff;stroke-width:2.8558"
       id="path3989" />
  </g>
</svg>
