<?xml version="1.0" encoding="UTF-8" standalone="no"?>
<svg
   xmlns:dc="http://purl.org/dc/elements/1.1/"
   xmlns:cc="http://creativecommons.org/ns#"
   xmlns:rdf="http://www.w3.org/1999/02/22-rdf-syntax-ns#"
   xmlns:svg="http://www.w3.org/2000/svg"
   xmlns="http://www.w3.org/2000/svg"
   xmlns:sodipodi="http://sodipodi.sourceforge.net/DTD/sodipodi-0.dtd"
   xmlns:inkscape="http://www.inkscape.org/namespaces/inkscape"
   version="1.0"
   width="638.43359"
   height="796.07605"
   id="svg4473"
   sodipodi:docname="Intel_Inside_(2006).svg"
   inkscape:version="1.0.2 (e86c870879, 2021-01-15)">
  <metadata
     id="metadata268">
    <rdf:RDF>
      <cc:Work
         rdf:about="">
        <dc:format>image/svg+xml</dc:format>
        <dc:type
           rdf:resource="http://purl.org/dc/dcmitype/StillImage" />
        <dc:title />
      </cc:Work>
    </rdf:RDF>
  </metadata>
  <sodipodi:namedview
     pagecolor="#ffffff"
     bordercolor="#666666"
     borderopacity="1"
     objecttolerance="10"
     gridtolerance="10"
     guidetolerance="10"
     inkscape:pageopacity="0"
     inkscape:pageshadow="2"
     inkscape:window-width="1366"
     inkscape:window-height="705"
     id="namedview266"
     showgrid="false"
     fit-margin-top="0"
     fit-margin-left="0"
     fit-margin-right="0"
     fit-margin-bottom="0"
     inkscape:zoom="0.5"
     inkscape:cx="374.30995"
     inkscape:cy="435.83266"
     inkscape:window-x="-8"
     inkscape:window-y="-8"
     inkscape:window-maximized="1"
     inkscape:current-layer="svg4473"
     inkscape:document-rotation="0" />
  <defs
     id="defs4475">
    <clipPath
       id="clipPath6207">
      <path
         d="m 8144.72,8133.26 h 93.54 v 67.72 h -93.54 z"
         id="path6209" />
    </clipPath>
    <clipPath
       id="clipPath6199">
      <path
         d="m 553.589,173.935 c 7.332,-0.015 16.003,1.989 24.665,6.467 0.434,0.22 0.869,0.455 1.304,0.695 0.435,0.234 0.87,0.469 1.299,0.724 0,4.443 0,8.886 0,13.33 0,9.985 -9.785,12.619 -17.127,12.619 -6.113,0 -17.753,-2.179 -25.26,-9.686 -3.498,-3.498 -4.363,-6.432 -4.363,-11.405 0,-1.874 0.46,-3.548 1.3,-5.048 0.365,-0.654 0.799,-1.264 1.304,-1.839 3.269,-3.733 9.371,-5.842 16.878,-5.857"
         id="path6201" />
    </clipPath>
    <clipPath
       id="clipPath6191">
      <path
         d="m 534.107,207.77 h 46.75 v -33.851 h -46.75 z"
         id="path6193" />
    </clipPath>
    <clipPath
       id="clipPath6313">
      <path
         d="m 8144.72,8175.45 h 93.54 v 73.87 h -93.54 z"
         id="path6315" />
    </clipPath>
    <clipPath
       id="clipPath6305">
      <path
         d="m 578.254,180.402 c 0.434,0.22 0.869,0.455 1.304,0.69 0.435,0.239 0.87,0.469 1.299,0.719 0,-9.526 0,-19.671 0,-29.197 0,-1.575 -1.274,-2.849 -2.848,-2.849 -13.31,0 -27.743,0 -41.053,0 -1.574,0 -2.849,1.274 -2.849,2.849 0,11.185 0,22.885 0,34.065 0,-1.874 0.465,-3.548 1.3,-5.048 0.365,-0.654 0.799,-1.264 1.304,-1.839 3.269,-3.733 9.371,-5.847 16.878,-5.857 7.332,-0.015 16.003,1.989 24.665,6.467"
         id="path6307" />
    </clipPath>
    <clipPath
       id="clipPath6297">
      <path
         d="m 534.107,186.679 h 46.75 v -36.914 h -46.75 z"
         id="path6299" />
    </clipPath>
    <clipPath
       id="clipPath6119">
      <path
         d="m 125.218,233.724 v 6.263 c 0.131,-0.021 0.263,-0.04 0.395,-0.06 3.635,-0.56 7.679,-1.365 9.275,-2.33 0.459,-0.279 0.707,-0.569 0.702,-0.844 v -0.035 c -0.09,-0.33 -0.531,-0.675 -1.241,-0.995 -0.715,-0.32 -1.701,-0.614 -2.879,-0.894 -1.744,-0.415 -3.911,-0.78 -6.252,-1.105"
         id="path6121" />
    </clipPath>
    <clipPath
       id="clipPath6111">
      <path
         d="m 124.976,233.549 h 10.795 v 6.7171 h -10.795 z"
         id="path6113" />
    </clipPath>
    <clipPath
       id="clipPath6139">
      <path
         d="m 125.218,232.575 v 1.049 c 3.701,0.51 6.978,1.135 8.843,1.874 0.908,0.36 1.493,0.75 1.624,1.195 l 0.004,0.005 v 0.055 c 0,0.34 -0.283,0.64 -0.751,0.924 -0.467,0.285 -1.129,0.55 -1.921,0.8 -1.588,0.5 -3.701,0.935 -5.816,1.29 -0.666,0.115 -1.333,0.22 -1.983,0.314 v 0.6 c 9.577,-1.039 12.969,-2.344 14.106,-3.243 0.458,-0.36 0.548,-0.645 0.548,-0.83 0,-0.115 -0.036,-0.195 -0.054,-0.22 l -0.009,-0.015 -0.004,-0.01 -0.005,-0.005 c -0.121,-0.395 -0.633,-0.8 -1.511,-1.184 -0.882,-0.39 -2.118,-0.76 -3.679,-1.12 -2.407,-0.545 -5.581,-1.04 -9.392,-1.479"
         id="path6141" />
    </clipPath>
    <clipPath
       id="clipPath6131">
      <path
         d="m 124.976,232.35 h 15.114 v 8.6363 h -15.114 z"
         id="path6133" />
    </clipPath>
    <clipPath
       id="clipPath6159">
      <path
         d="m 125.218,232.475 v 0.05 c 8.765,1.009 14.159,2.329 14.632,3.818 0,0 1.988,2.579 -14.632,4.383 v 0.05 c 5.76,-0.625 9.288,-1.339 11.443,-2.014 1.43,-0.445 2.254,-0.875 2.726,-1.244 0.452,-0.36 0.581,-0.67 0.584,-0.89 v -0.02 c 0,-0.185 -0.076,-0.29 -0.081,-0.295 -0.15,-0.44 -0.683,-0.845 -1.565,-1.229 -2.254,-1 -6.813,-1.885 -13.107,-2.609 m 0,1.194 v 0.055 c 2.341,0.325 4.508,0.69 6.252,1.105 1.178,0.28 2.164,0.574 2.879,0.894 0.71,0.32 1.151,0.665 1.241,0.995 v 0.035 c 0.005,0.275 -0.243,0.565 -0.702,0.844 -1.596,0.965 -5.64,1.77 -9.275,2.33 -0.132,0.02 -0.264,0.039 -0.395,0.06 v 0.044 c 4.82,-0.719 10.55,-1.879 10.422,-3.328 -0.362,-1.265 -4.92,-2.269 -10.422,-3.034"
         id="path6161" />
    </clipPath>
    <clipPath
       id="clipPath6151">
      <path
         d="m 124.976,232.35 h 17.033 v 8.6363 h -17.033 z"
         id="path6153" />
    </clipPath>
    <clipPath
       id="clipPath6179">
      <path
         d="m 125.218,232.525 v 0.05 c 3.811,0.439 6.985,0.934 9.392,1.479 1.561,0.36 2.797,0.73 3.679,1.12 0.878,0.384 1.39,0.789 1.511,1.184 l 0.005,0.005 0.004,0.01 0.009,0.015 c 0.018,0.025 0.054,0.105 0.054,0.22 0,0.185 -0.09,0.47 -0.548,0.83 -1.137,0.899 -4.529,2.204 -14.106,3.243 v 0.045 c 16.62,-1.804 14.632,-4.383 14.632,-4.383 -0.473,-1.489 -5.867,-2.809 -14.632,-3.818 m 0,1.099 v 0.045 c 5.502,0.765 10.06,1.769 10.422,3.034 0.128,1.449 -5.602,2.609 -10.422,3.328 v 0.05 c 0.65,-0.094 1.317,-0.199 1.983,-0.314 2.115,-0.355 4.228,-0.79 5.816,-1.29 0.792,-0.25 1.454,-0.515 1.921,-0.8 0.468,-0.284 0.751,-0.584 0.751,-0.924 v -0.055 l -0.004,-0.005 c -0.131,-0.445 -0.716,-0.835 -1.624,-1.195 -1.865,-0.739 -5.142,-1.364 -8.843,-1.874"
         id="path6181" />
    </clipPath>
    <clipPath
       id="clipPath6171">
      <path
         d="m 124.976,232.35 h 17.033 v 8.6363 h -17.033 z"
         id="path6173" />
    </clipPath>
    <clipPath
       id="clipPath4910">
      <path
         d="M 0,842.04 H 595.44 V 0 H 0 Z"
         id="path4912" />
    </clipPath>
    <clipPath
       id="clipPath4902">
      <path
         d="M 0,841 H 595.276 V -0.89 H 0 Z"
         id="path4904" />
    </clipPath>
    <clipPath
       id="clipPath4894">
      <path
         d="M 0,-0.89 V 841 H 1190.551 V -0.89"
         id="path4896" />
    </clipPath>
    <clipPath
       id="clipPath4954">
      <path
         d="M 0,842.04 H 595.44 V 0 H 0 Z"
         id="path4956" />
    </clipPath>
    <clipPath
       id="clipPath4946">
      <path
         d="M 0,841 H 595.276 V -0.89 H 0 Z"
         id="path4948" />
    </clipPath>
    <clipPath
       id="clipPath4938">
      <path
         d="M 0,-0.89 V 841 H 1190.551 V -0.89"
         id="path4940" />
    </clipPath>
    <clipPath
       id="clipPath4998">
      <path
         d="M 0,842.04 H 595.44 V 0 H 0 Z"
         id="path5000" />
    </clipPath>
    <clipPath
       id="clipPath4990">
      <path
         d="M 0,841 H 595.276 V -0.89 H 0 Z"
         id="path4992" />
    </clipPath>
    <clipPath
       id="clipPath4982">
      <path
         d="M 0,-0.89 V 841 H 1190.551 V -0.89"
         id="path4984" />
    </clipPath>
    <clipPath
       id="clipPath4690">
      <path
         d="M 0,842.04 H 595.44 V 0 H 0 Z"
         id="path4692" />
    </clipPath>
    <clipPath
       id="clipPath4682">
      <path
         d="M 0,841 H 595.276 V -0.89 H 0 Z"
         id="path4684" />
    </clipPath>
    <clipPath
       id="clipPath4674">
      <path
         d="M 0,-0.89 V 841 H 1190.551 V -0.89"
         id="path4676" />
    </clipPath>
    <clipPath
       id="clipPath4734">
      <path
         d="M 0,842.04 H 595.44 V 0 H 0 Z"
         id="path4736" />
    </clipPath>
    <clipPath
       id="clipPath4726">
      <path
         d="M 0,841 H 595.276 V -0.89 H 0 Z"
         id="path4728" />
    </clipPath>
    <clipPath
       id="clipPath4718">
      <path
         d="M 0,-0.89 V 841 H 1190.551 V -0.89"
         id="path4720" />
    </clipPath>
    <clipPath
       id="clipPath4778">
      <path
         d="M 0,842.04 H 595.44 V 0 H 0 Z"
         id="path4780" />
    </clipPath>
    <clipPath
       id="clipPath4770">
      <path
         d="M 0,841 H 595.276 V -0.89 H 0 Z"
         id="path4772" />
    </clipPath>
    <clipPath
       id="clipPath4762">
      <path
         d="M 0,-0.89 V 841 H 1190.551 V -0.89"
         id="path4764" />
    </clipPath>
    <clipPath
       id="clipPath4822">
      <path
         d="M 0,842.04 H 595.44 V 0 H 0 Z"
         id="path4824" />
    </clipPath>
    <clipPath
       id="clipPath4814">
      <path
         d="M 0,841 H 595.276 V -0.89 H 0 Z"
         id="path4816" />
    </clipPath>
    <clipPath
       id="clipPath4806">
      <path
         d="M 0,-0.89 V 841 H 1190.551 V -0.89"
         id="path4808" />
    </clipPath>
    <clipPath
       id="clipPath4866">
      <path
         d="M 0,842.04 H 595.44 V 0 H 0 Z"
         id="path4868" />
    </clipPath>
    <clipPath
       id="clipPath4858">
      <path
         d="M 0,841 H 595.276 V -0.89 H 0 Z"
         id="path4860" />
    </clipPath>
    <clipPath
       id="clipPath4850">
      <path
         d="M 0,-0.89 V 841 H 1190.551 V -0.89"
         id="path4852" />
    </clipPath>
    <clipPath
       id="clipPath2455">
      <path
         d="M 0,0 V 203.28 H 283.44 V 0 Z"
         id="path2457" />
    </clipPath>
    <clipPath
       id="clipPath2447">
      <path
         d="m 44.469,65.962 66.081,-41.485 -0.015,-4.108 9.675,-4.938 h 5.763 l 0.618,1.235 c 0,0 60.105,-7.613 124.944,18.723 0,0 4.734,-2.058 4.734,-2.058 l 10.086,3.91 c 0,0 9.469,40.121 -0.823,61.107 0,0 -5.969,7.613 -5.969,7.613 l -3.088,-0.823 -54.341,60.078 -1.03,10.699 -17.496,15.843 c 0,0 -3.293,4.321 -8.645,-0.206 -5.352,-4.526 -2.058,-7.818 -2.058,-7.818 l 0.411,-4.732 -24.495,-5.761 c 0,0 -1.646,5.349 -7.821,3.703 -6.176,-1.646 -4.117,-5.761 -4.117,-5.761 l -69.574,-16.46 c 0,0 -0.411,6.173 -6.587,4.732 -6.175,-1.44 -4.734,-6.995 -4.734,-6.995 l -23.465,-5.761 -9.057,7.407 c 0,0 -7.411,2.88 -10.704,-3.909 -3.293,-6.79 -6.587,-46.088 -0.618,-70.572 0,0 16.879,-11.934 16.879,-11.934 z"
         id="path2449" />
    </clipPath>
    <clipPath
       id="clipPath2439">
      <path
         d="M -141.72,-12.207 V 94.901 H 7.624 V -12.207 Z"
         id="path2441" />
    </clipPath>
    <clipPath
       clipPathUnits="userSpaceOnUse"
       id="clipPath286">
      <path
         d="M 200.412,555.525 H 119.34 v -7.839 h 81.072 v 7.839"
         id="path284" />
    </clipPath>
    <clipPath
       clipPathUnits="userSpaceOnUse"
       id="clipPath302">
      <path
         d="m 204.921,555.597 h -2.313 v -6.273 h 2.313 v 6.273"
         id="path300" />
    </clipPath>
    <clipPath
       clipPathUnits="userSpaceOnUse"
       id="clipPath314">
      <path
         d="m 282.681,555.597 h -77.76 1.962 v -6.273 h -1.962 v -1.638 h 77.76 v 7.911"
         id="path312" />
    </clipPath>
    <clipPath
       clipPathUnits="userSpaceOnUse"
       id="clipPath326">
      <path
         d="m 206.883,555.597 h -1.962 v -6.273 h 1.962 v 6.273"
         id="path324" />
    </clipPath>
    <clipPath
       clipPathUnits="userSpaceOnUse"
       id="clipPath342">
      <path
         d="M 285.687,542.601 H 119.088 v -7.911 h 166.599 v 7.911"
         id="path340" />
    </clipPath>
    <clipPath
       clipPathUnits="userSpaceOnUse"
       id="clipPath358">
      <path
         d="M 288.405,529.569 H 119.286 v -7.875 h 169.119 v 7.875"
         id="path356" />
    </clipPath>
    <clipPath
       clipPathUnits="userSpaceOnUse"
       id="clipPath374">
      <path
         d="M 288.405,529.569 H 119.286 v -7.875 h 169.119 v 7.875"
         id="path372" />
    </clipPath>
    <clipPath
       clipPathUnits="userSpaceOnUse"
       id="clipPath390">
      <path
         d="M 288.405,529.569 H 119.286 v -7.875 h 169.119 v 7.875"
         id="path388" />
    </clipPath>
    <clipPath
       clipPathUnits="userSpaceOnUse"
       id="clipPath406">
      <path
         d="M 288.405,529.569 H 119.286 v -7.875 h 169.119 v 7.875"
         id="path404" />
    </clipPath>
    <clipPath
       clipPathUnits="userSpaceOnUse"
       id="clipPath422">
      <path
         d="M 288.405,529.569 H 119.286 v -7.875 h 169.119 v 7.875"
         id="path420" />
    </clipPath>
    <clipPath
       clipPathUnits="userSpaceOnUse"
       id="clipPath440">
      <path
         d="M 271.935,516.573 H 119.097 v -7.875 h 152.838 v 7.875"
         id="path438" />
    </clipPath>
    <clipPath
       clipPathUnits="userSpaceOnUse"
       id="clipPath456">
      <path
         d="M 271.935,516.573 H 119.097 v -7.875 h 152.838 v 7.875"
         id="path454" />
    </clipPath>
    <clipPath
       clipPathUnits="userSpaceOnUse"
       id="clipPath474">
      <path
         d="m 262.593,490.599 h -143.37 v -7.911 h 143.37 v 7.911"
         id="path472" />
    </clipPath>
    <clipPath
       clipPathUnits="userSpaceOnUse"
       id="clipPath490">
      <path
         d="m 262.593,490.599 h -143.37 v -7.911 h 143.37 v 7.911"
         id="path488" />
    </clipPath>
    <clipPath
       clipPathUnits="userSpaceOnUse"
       id="clipPath506">
      <path
         d="m 267.264,490.599 h -4.275 v -6.282 h 2.277 v 6.255 h 1.998 v 0.027"
         id="path504" />
    </clipPath>
    <clipPath
       clipPathUnits="userSpaceOnUse"
       id="clipPath518">
      <path
         d="m 292.743,490.572 h -25.479 v -6.255 h -1.998 v -1.629 h 27.477 v 7.884"
         id="path516" />
    </clipPath>
    <clipPath
       clipPathUnits="userSpaceOnUse"
       id="clipPath530">
      <path
         d="m 267.264,490.572 h -1.998 v -6.255 h 1.998 v 6.255"
         id="path528" />
    </clipPath>
    <clipPath
       clipPathUnits="userSpaceOnUse"
       id="clipPath546">
      <path
         d="M 56.142,462.924 H 45.486 v -6.219 h 10.656 v 6.219"
         id="path544" />
    </clipPath>
    <clipPath
       clipPathUnits="userSpaceOnUse"
       id="clipPath562">
      <path
         d="m 58.941,464.598 h -2.313 v -6.282 h 2.313 v 6.282"
         id="path560" />
    </clipPath>
    <clipPath
       clipPathUnits="userSpaceOnUse"
       id="clipPath574">
      <path
         d="M 289.251,465.354 H 58.941 v -0.756 h 1.962 v -6.282 h -1.962 v -1.611 h 230.31 v 8.649"
         id="path572" />
    </clipPath>
    <clipPath
       clipPathUnits="userSpaceOnUse"
       id="clipPath586">
      <path
         d="m 60.903,464.598 h -1.962 v -6.282 h 1.962 v 6.282"
         id="path584" />
    </clipPath>
    <clipPath
       clipPathUnits="userSpaceOnUse"
       id="clipPath602">
      <path
         d="M 263.115,451.593 H 45.36 v -7.911 h 217.755 v 7.911"
         id="path600" />
    </clipPath>
    <clipPath
       clipPathUnits="userSpaceOnUse"
       id="clipPath614">
      <path
         d="m 267.678,451.593 h -4.275 v -6.273 h 2.322 v 6.255 h 1.953 v 0.018"
         id="path612" />
    </clipPath>
    <clipPath
       clipPathUnits="userSpaceOnUse"
       id="clipPath626">
      <path
         d="m 290.151,451.575 h -22.473 v -6.255 h -1.953 v -1.638 h 24.426 v 7.893"
         id="path624" />
    </clipPath>
    <clipPath
       clipPathUnits="userSpaceOnUse"
       id="clipPath638">
      <path
         d="m 267.678,451.575 h -1.953 v -6.255 h 1.953 v 6.255"
         id="path636" />
    </clipPath>
    <clipPath
       clipPathUnits="userSpaceOnUse"
       id="clipPath654">
      <path
         d="M 280.449,438.597 H 45.486 v -7.911 h 234.963 v 7.911"
         id="path652" />
    </clipPath>
    <clipPath
       clipPathUnits="userSpaceOnUse"
       id="clipPath672">
      <path
         d="M 121.167,425.574 H 45.36 v -7.884 h 75.807 v 7.884"
         id="path670" />
    </clipPath>
    <clipPath
       clipPathUnits="userSpaceOnUse"
       id="clipPath688">
      <path
         d="M 102.114,412.524 H 45.351 v -6.264 h 56.763 v 6.264"
         id="path686" />
    </clipPath>
    <clipPath
       clipPathUnits="userSpaceOnUse"
       id="clipPath704">
      <path
         d="M 102.114,412.524 H 45.351 v -6.264 h 56.763 v 6.264"
         id="path702" />
    </clipPath>
    <clipPath
       clipPathUnits="userSpaceOnUse"
       id="clipPath716">
      <path
         d="M 102.114,412.524 H 45.351 v -6.264 h 56.763 v 6.264"
         id="path714" />
    </clipPath>
    <clipPath
       clipPathUnits="userSpaceOnUse"
       id="clipPath732">
      <path
         d="M 102.114,412.524 H 45.351 v -6.264 h 56.763 v 6.264"
         id="path730" />
    </clipPath>
    <clipPath
       clipPathUnits="userSpaceOnUse"
       id="clipPath748">
      <path
         d="M 102.114,412.524 H 45.351 v -6.264 h 56.763 v 6.264"
         id="path746" />
    </clipPath>
    <clipPath
       clipPathUnits="userSpaceOnUse"
       id="clipPath760">
      <path
         d="M 292.311,412.596 H 104.382 v -7.911 h 187.929 v 7.911"
         id="path758" />
    </clipPath>
    <clipPath
       clipPathUnits="userSpaceOnUse"
       id="clipPath776">
      <path
         d="M 292.311,412.596 H 104.382 v -7.911 h 187.929 v 7.911"
         id="path774" />
    </clipPath>
    <clipPath
       clipPathUnits="userSpaceOnUse"
       id="clipPath792">
      <path
         d="M 125.352,399.591 H 45.549 v -7.911 h 79.803 v 7.911"
         id="path790" />
    </clipPath>
    <clipPath
       clipPathUnits="userSpaceOnUse"
       id="clipPath808">
      <path
         d="M 125.352,399.591 H 45.549 v -7.911 h 79.803 v 7.911"
         id="path806" />
    </clipPath>
    <clipPath
       clipPathUnits="userSpaceOnUse"
       id="clipPath820">
      <path
         d="m 129.843,399.591 h -4.275 v -6.273 h 2.268 v 6.255 h 2.007 v 0.018"
         id="path818" />
    </clipPath>
    <clipPath
       clipPathUnits="userSpaceOnUse"
       id="clipPath832">
      <path
         d="M 291.258,399.573 H 129.843 v -6.255 h -2.007 v -1.638 h 163.422 v 7.893"
         id="path830" />
    </clipPath>
    <clipPath
       clipPathUnits="userSpaceOnUse"
       id="clipPath844">
      <path
         d="m 129.843,399.573 h -2.007 v -6.255 h 2.007 v 6.255"
         id="path842" />
    </clipPath>
    <clipPath
       clipPathUnits="userSpaceOnUse"
       id="clipPath856">
      <path
         d="M 84.312,386.595 H 45.288 v -6.336 h 39.024 v 6.336"
         id="path854" />
    </clipPath>
    <clipPath
       clipPathUnits="userSpaceOnUse"
       id="clipPath872">
      <path
         d="M 84.312,386.595 H 45.288 v -6.336 h 39.024 v 6.336"
         id="path870" />
    </clipPath>
    <clipPath
       clipPathUnits="userSpaceOnUse"
       id="clipPath888">
      <path
         d="M 84.312,386.595 H 45.288 v -6.336 h 39.024 v 6.336"
         id="path886" />
    </clipPath>
    <clipPath
       clipPathUnits="userSpaceOnUse"
       id="clipPath904">
      <path
         d="M 84.312,386.595 H 45.288 v -6.336 h 39.024 v 6.336"
         id="path902" />
    </clipPath>
    <clipPath
       clipPathUnits="userSpaceOnUse"
       id="clipPath916">
      <path
         d="M 84.312,386.595 H 45.288 v -6.336 h 39.024 v 6.336"
         id="path914" />
    </clipPath>
    <clipPath
       clipPathUnits="userSpaceOnUse"
       id="clipPath932">
      <path
         d="M 238.968,386.568 H 86.436 v -7.884 h 152.532 v 7.884"
         id="path930" />
    </clipPath>
    <clipPath
       clipPathUnits="userSpaceOnUse"
       id="clipPath948">
      <path
         d="M 238.968,386.568 H 86.436 v -7.884 h 152.532 v 7.884"
         id="path946" />
    </clipPath>
    <clipPath
       clipPathUnits="userSpaceOnUse"
       id="clipPath964">
      <path
         d="M 238.968,386.568 H 86.436 v -7.884 h 152.532 v 7.884"
         id="path962" />
    </clipPath>
    <clipPath
       clipPathUnits="userSpaceOnUse"
       id="clipPath980">
      <path
         d="M 238.968,386.568 H 86.436 v -7.884 h 152.532 v 7.884"
         id="path978" />
    </clipPath>
    <clipPath
       clipPathUnits="userSpaceOnUse"
       id="clipPath1000">
      <path
         d="M 289.215,356.58 H 45.432 v -7.875 h 243.783 v 7.875"
         id="path998" />
    </clipPath>
    <clipPath
       clipPathUnits="userSpaceOnUse"
       id="clipPath1016">
      <path
         d="M 289.215,356.58 H 45.432 v -7.875 h 243.783 v 7.875"
         id="path1014" />
    </clipPath>
    <clipPath
       clipPathUnits="userSpaceOnUse"
       id="clipPath1032">
      <path
         d="M 289.215,356.58 H 45.432 v -7.875 h 243.783 v 7.875"
         id="path1030" />
    </clipPath>
    <clipPath
       clipPathUnits="userSpaceOnUse"
       id="clipPath1048">
      <path
         d="M 289.215,356.58 H 45.432 v -7.875 h 243.783 v 7.875"
         id="path1046" />
    </clipPath>
    <clipPath
       clipPathUnits="userSpaceOnUse"
       id="clipPath1064">
      <path
         d="M 289.215,356.58 H 45.432 v -7.875 h 243.783 v 7.875"
         id="path1062" />
    </clipPath>
    <clipPath
       clipPathUnits="userSpaceOnUse"
       id="clipPath1080">
      <path
         d="M 289.215,356.58 H 45.432 v -7.875 h 243.783 v 7.875"
         id="path1078" />
    </clipPath>
    <clipPath
       clipPathUnits="userSpaceOnUse"
       id="clipPath1096">
      <path
         d="M 289.215,356.58 H 45.432 v -7.875 h 243.783 v 7.875"
         id="path1094" />
    </clipPath>
    <clipPath
       clipPathUnits="userSpaceOnUse"
       id="clipPath1112">
      <path
         d="M 289.215,356.58 H 45.432 v -7.875 h 243.783 v 7.875"
         id="path1110" />
    </clipPath>
    <clipPath
       clipPathUnits="userSpaceOnUse"
       id="clipPath1128">
      <path
         d="M 290.673,343.584 H 45.558 V 335.7 h 245.115 v 7.884"
         id="path1126" />
    </clipPath>
    <clipPath
       clipPathUnits="userSpaceOnUse"
       id="clipPath1146">
      <path
         d="M 286.713,330.606 H 45.198 v -7.083 h 241.515 v 7.083"
         id="path1144" />
    </clipPath>
    <clipPath
       clipPathUnits="userSpaceOnUse"
       id="clipPath1162">
      <path
         d="M 291.87,317.601 H 45.369 V 309.69 H 291.87 v 7.911"
         id="path1160" />
    </clipPath>
    <clipPath
       clipPathUnits="userSpaceOnUse"
       id="clipPath1180">
      <path
         d="M 70.344,304.578 H 45.486 v -7.884 h 24.858 v 7.884"
         id="path1178" />
    </clipPath>
    <clipPath
       clipPathUnits="userSpaceOnUse"
       id="clipPath1196">
      <path
         d="M 70.344,304.578 H 45.486 v -7.884 h 24.858 v 7.884"
         id="path1194" />
    </clipPath>
    <clipPath
       clipPathUnits="userSpaceOnUse"
       id="clipPath1212">
      <path
         d="M 70.344,304.578 H 45.486 v -7.884 h 24.858 v 7.884"
         id="path1210" />
    </clipPath>
    <clipPath
       clipPathUnits="userSpaceOnUse"
       id="clipPath1230">
      <path
         d="M 274.995,291.6 H 45.036 v -7.893 h 229.959 v 7.893"
         id="path1228" />
    </clipPath>
    <clipPath
       clipPathUnits="userSpaceOnUse"
       id="clipPath1246">
      <path
         d="M 289.674,278.604 H 45.369 v -7.902 h 244.305 v 7.902"
         id="path1244" />
    </clipPath>
    <clipPath
       clipPathUnits="userSpaceOnUse"
       id="clipPath1262">
      <path
         d="M 289.674,278.604 H 45.369 v -7.902 h 244.305 v 7.902"
         id="path1260" />
    </clipPath>
    <clipPath
       clipPathUnits="userSpaceOnUse"
       id="clipPath1278">
      <path
         d="M 289.674,278.604 H 45.369 v -7.902 h 244.305 v 7.902"
         id="path1276" />
    </clipPath>
    <clipPath
       clipPathUnits="userSpaceOnUse"
       id="clipPath1294">
      <path
         d="M 288.999,265.608 H 45.36 v -7.902 h 243.639 v 7.902"
         id="path1292" />
    </clipPath>
    <clipPath
       clipPathUnits="userSpaceOnUse"
       id="clipPath1312">
      <path
         d="m 246.798,252.603 h -201.6 v -7.893 h 201.6 v 7.893"
         id="path1310" />
    </clipPath>
    <clipPath
       clipPathUnits="userSpaceOnUse"
       id="clipPath1328">
      <path
         d="m 246.798,252.603 h -201.6 v -7.893 h 201.6 v 7.893"
         id="path1326" />
    </clipPath>
    <clipPath
       clipPathUnits="userSpaceOnUse"
       id="clipPath1344">
      <path
         d="m 246.798,252.603 h -201.6 v -7.893 h 201.6 v 7.893"
         id="path1342" />
    </clipPath>
    <clipPath
       clipPathUnits="userSpaceOnUse"
       id="clipPath1356">
      <path
         d="m 246.798,252.603 h -201.6 v -7.893 h 201.6 v 7.893"
         id="path1354" />
    </clipPath>
    <clipPath
       clipPathUnits="userSpaceOnUse"
       id="clipPath1374">
      <path
         d="M 280.071,226.575 H 45.558 v -7.866 h 234.513 v 7.866"
         id="path1372" />
    </clipPath>
    <clipPath
       clipPathUnits="userSpaceOnUse"
       id="clipPath1390">
      <path
         d="M 280.071,226.575 H 45.558 v -7.866 h 234.513 v 7.866"
         id="path1388" />
    </clipPath>
    <clipPath
       clipPathUnits="userSpaceOnUse"
       id="clipPath1402">
      <path
         d="M 280.071,226.575 H 45.558 v -7.866 h 234.513 v 7.866"
         id="path1400" />
    </clipPath>
    <clipPath
       clipPathUnits="userSpaceOnUse"
       id="clipPath1418">
      <path
         d="M 280.071,226.575 H 45.558 v -7.866 h 234.513 v 7.866"
         id="path1416" />
    </clipPath>
    <clipPath
       clipPathUnits="userSpaceOnUse"
       id="clipPath1434">
      <path
         d="M 280.071,226.575 H 45.558 v -7.866 h 234.513 v 7.866"
         id="path1432" />
    </clipPath>
    <clipPath
       clipPathUnits="userSpaceOnUse"
       id="clipPath1450">
      <path
         d="M 280.071,226.575 H 45.558 v -7.866 h 234.513 v 7.866"
         id="path1448" />
    </clipPath>
    <clipPath
       clipPathUnits="userSpaceOnUse"
       id="clipPath1466">
      <path
         d="M 280.071,226.575 H 45.558 v -7.866 h 234.513 v 7.866"
         id="path1464" />
    </clipPath>
    <clipPath
       clipPathUnits="userSpaceOnUse"
       id="clipPath1482">
      <path
         d="M 280.071,226.575 H 45.558 v -7.866 h 234.513 v 7.866"
         id="path1480" />
    </clipPath>
    <clipPath
       clipPathUnits="userSpaceOnUse"
       id="clipPath1500">
      <path
         d="M 283.041,213.579 H 45.486 v -7.884 h 237.555 v 7.884"
         id="path1498" />
    </clipPath>
    <clipPath
       clipPathUnits="userSpaceOnUse"
       id="clipPath1516">
      <path
         d="M 283.041,213.579 H 45.486 v -7.884 h 237.555 v 7.884"
         id="path1514" />
    </clipPath>
    <clipPath
       clipPathUnits="userSpaceOnUse"
       id="clipPath1532">
      <path
         d="M 283.041,213.579 H 45.486 v -7.884 h 237.555 v 7.884"
         id="path1530" />
    </clipPath>
    <clipPath
       clipPathUnits="userSpaceOnUse"
       id="clipPath1548">
      <path
         d="M 288.252,200.601 H 45.369 v -7.911 h 242.883 v 7.911"
         id="path1546" />
    </clipPath>
    <clipPath
       clipPathUnits="userSpaceOnUse"
       id="clipPath1564">
      <path
         d="M 288.252,200.601 H 45.369 v -7.911 h 242.883 v 7.911"
         id="path1562" />
    </clipPath>
    <clipPath
       clipPathUnits="userSpaceOnUse"
       id="clipPath1584">
      <path
         d="M 289.917,174.573 H 45.036 v -7.866 h 244.881 v 7.866"
         id="path1582" />
    </clipPath>
    <clipPath
       clipPathUnits="userSpaceOnUse"
       id="clipPath1600">
      <path
         d="M 289.917,174.573 H 45.036 v -7.866 h 244.881 v 7.866"
         id="path1598" />
    </clipPath>
    <clipPath
       clipPathUnits="userSpaceOnUse"
       id="clipPath1616">
      <path
         d="M 289.917,174.573 H 45.036 v -7.866 h 244.881 v 7.866"
         id="path1614" />
    </clipPath>
    <clipPath
       clipPathUnits="userSpaceOnUse"
       id="clipPath1632">
      <path
         d="M 289.917,174.573 H 45.036 v -7.866 h 244.881 v 7.866"
         id="path1630" />
    </clipPath>
    <clipPath
       clipPathUnits="userSpaceOnUse"
       id="clipPath1648">
      <path
         d="M 289.917,174.573 H 45.036 v -7.866 h 244.881 v 7.866"
         id="path1646" />
    </clipPath>
    <clipPath
       clipPathUnits="userSpaceOnUse"
       id="clipPath1664">
      <path
         d="M 289.917,174.573 H 45.036 v -7.866 h 244.881 v 7.866"
         id="path1662" />
    </clipPath>
    <clipPath
       clipPathUnits="userSpaceOnUse"
       id="clipPath1680">
      <path
         d="M 289.917,174.573 H 45.036 v -7.866 h 244.881 v 7.866"
         id="path1678" />
    </clipPath>
    <clipPath
       clipPathUnits="userSpaceOnUse"
       id="clipPath1696">
      <path
         d="M 289.917,174.573 H 45.036 v -7.866 h 244.881 v 7.866"
         id="path1694" />
    </clipPath>
    <clipPath
       clipPathUnits="userSpaceOnUse"
       id="clipPath1712">
      <path
         d="M 289.917,174.573 H 45.036 v -7.866 h 244.881 v 7.866"
         id="path1710" />
    </clipPath>
    <clipPath
       clipPathUnits="userSpaceOnUse"
       id="clipPath1730">
      <path
         d="M 90.135,161.577 H 45.486 v -7.875 h 44.649 v 7.875"
         id="path1728" />
    </clipPath>
    <clipPath
       clipPathUnits="userSpaceOnUse"
       id="clipPath1746">
      <path
         d="M 90.135,161.577 H 45.486 v -7.875 h 44.649 v 7.875"
         id="path1744" />
    </clipPath>
    <clipPath
       clipPathUnits="userSpaceOnUse"
       id="clipPath1758">
      <path
         d="M 95.085,161.604 H 90.81 v -6.282 h 2.313 v 6.255 h 1.962 v 0.027"
         id="path1756" />
    </clipPath>
    <clipPath
       clipPathUnits="userSpaceOnUse"
       id="clipPath1770">
      <path
         d="M 288.855,161.577 H 95.085 v -6.255 h -1.962 v -1.629 h 195.732 v 7.884"
         id="path1768" />
    </clipPath>
    <clipPath
       clipPathUnits="userSpaceOnUse"
       id="clipPath1782">
      <path
         d="m 95.085,161.577 h -1.962 v -6.255 h 1.962 v 6.255"
         id="path1780" />
    </clipPath>
    <clipPath
       clipPathUnits="userSpaceOnUse"
       id="clipPath1802">
      <path
         d="M 292.743,118.602 H 45.558 v -7.911 h 247.185 v 7.911"
         id="path1800" />
    </clipPath>
    <clipPath
       clipPathUnits="userSpaceOnUse"
       id="clipPath1818">
      <path
         d="M 292.743,118.602 H 45.558 v -7.911 h 247.185 v 7.911"
         id="path1816" />
    </clipPath>
    <clipPath
       clipPathUnits="userSpaceOnUse"
       id="clipPath1834">
      <path
         d="M 292.743,118.602 H 45.558 v -7.911 h 247.185 v 7.911"
         id="path1832" />
    </clipPath>
    <clipPath
       clipPathUnits="userSpaceOnUse"
       id="clipPath1852">
      <path
         d="M 288.531,105.579 H 45.486 v -7.875 h 243.045 v 7.875"
         id="path1850" />
    </clipPath>
    <clipPath
       clipPathUnits="userSpaceOnUse"
       id="clipPath1868">
      <path
         d="M 288.531,105.579 H 45.486 v -7.875 h 243.045 v 7.875"
         id="path1866" />
    </clipPath>
    <clipPath
       clipPathUnits="userSpaceOnUse"
       id="clipPath1884">
      <path
         d="M 288.531,105.579 H 45.486 v -7.875 h 243.045 v 7.875"
         id="path1882" />
    </clipPath>
    <clipPath
       clipPathUnits="userSpaceOnUse"
       id="clipPath1900">
      <path
         d="M 288.531,105.579 H 45.486 v -7.875 h 243.045 v 7.875"
         id="path1898" />
    </clipPath>
    <clipPath
       clipPathUnits="userSpaceOnUse"
       id="clipPath1916">
      <path
         d="M 288.531,105.579 H 45.486 v -7.875 h 243.045 v 7.875"
         id="path1914" />
    </clipPath>
    <clipPath
       clipPathUnits="userSpaceOnUse"
       id="clipPath1934">
      <path
         d="M 226.908,92.601 H 45.261 V 84.69 h 181.647 v 7.911"
         id="path1932" />
    </clipPath>
    <clipPath
       clipPathUnits="userSpaceOnUse"
       id="clipPath1950">
      <path
         d="M 226.908,92.601 H 45.261 V 84.69 h 181.647 v 7.911"
         id="path1948" />
    </clipPath>
    <clipPath
       clipPathUnits="userSpaceOnUse"
       id="clipPath1962">
      <path
         d="m 229.212,92.601 h -2.214 v -6.273 h 2.214 v 6.273"
         id="path1960" />
    </clipPath>
    <clipPath
       clipPathUnits="userSpaceOnUse"
       id="clipPath1974">
      <path
         d="m 291.942,92.601 h -62.73 2.061 v -6.273 h -2.061 v -1.62 h 62.73 v 7.893"
         id="path1972" />
    </clipPath>
    <clipPath
       clipPathUnits="userSpaceOnUse"
       id="clipPath1986">
      <path
         d="m 231.273,92.601 h -2.061 v -6.273 h 2.061 v 6.273"
         id="path1984" />
    </clipPath>
    <clipPath
       clipPathUnits="userSpaceOnUse"
       id="clipPath1998">
      <path
         d="M 292.356,79.578 H 45.36 v -7.866 h 246.996 v 7.866"
         id="path1996" />
    </clipPath>
    <clipPath
       clipPathUnits="userSpaceOnUse"
       id="clipPath2014">
      <path
         d="M 292.356,79.578 H 45.36 v -7.866 h 246.996 v 7.866"
         id="path2012" />
    </clipPath>
    <clipPath
       clipPathUnits="userSpaceOnUse"
       id="clipPath2030">
      <path
         d="M 292.356,79.578 H 45.36 v -7.866 h 246.996 v 7.866"
         id="path2028" />
    </clipPath>
    <clipPath
       clipPathUnits="userSpaceOnUse"
       id="clipPath2046">
      <path
         d="M 292.356,79.578 H 45.36 v -7.866 h 246.996 v 7.866"
         id="path2044" />
    </clipPath>
    <clipPath
       clipPathUnits="userSpaceOnUse"
       id="clipPath2062">
      <path
         d="M 292.356,79.578 H 45.36 v -7.866 h 246.996 v 7.866"
         id="path2060" />
    </clipPath>
    <clipPath
       clipPathUnits="userSpaceOnUse"
       id="clipPath2078">
      <path
         d="M 292.356,79.578 H 45.36 v -7.866 h 246.996 v 7.866"
         id="path2076" />
    </clipPath>
    <clipPath
       clipPathUnits="userSpaceOnUse"
       id="clipPath2096">
      <path
         d="M 272.358,53.577 H 45.369 v -7.884 h 226.989 v 7.884"
         id="path2094" />
    </clipPath>
    <clipPath
       clipPathUnits="userSpaceOnUse"
       id="clipPath2112">
      <path
         d="M 272.358,53.577 H 45.369 v -7.884 h 226.989 v 7.884"
         id="path2110" />
    </clipPath>
    <clipPath
       clipPathUnits="userSpaceOnUse"
       id="clipPath2128">
      <path
         d="M 272.358,53.577 H 45.369 v -7.884 h 226.989 v 7.884"
         id="path2126" />
    </clipPath>
    <clipPath
       clipPathUnits="userSpaceOnUse"
       id="clipPath2144">
      <path
         d="M 272.358,53.577 H 45.369 v -7.884 h 226.989 v 7.884"
         id="path2142" />
    </clipPath>
    <clipPath
       clipPathUnits="userSpaceOnUse"
       id="clipPath2160">
      <path
         d="M 272.358,53.577 H 45.369 v -7.884 h 226.989 v 7.884"
         id="path2158" />
    </clipPath>
    <clipPath
       clipPathUnits="userSpaceOnUse"
       id="clipPath2176">
      <path
         d="M 272.358,53.577 H 45.369 v -7.884 h 226.989 v 7.884"
         id="path2174" />
    </clipPath>
    <clipPath
       clipPathUnits="userSpaceOnUse"
       id="clipPath2194">
      <path
         d="M 528.156,555.606 H 308.988 v -7.902 h 219.168 v 7.902"
         id="path2192" />
    </clipPath>
    <clipPath
       clipPathUnits="userSpaceOnUse"
       id="clipPath2210">
      <path
         d="M 528.156,555.606 H 308.988 v -7.902 h 219.168 v 7.902"
         id="path2208" />
    </clipPath>
    <clipPath
       clipPathUnits="userSpaceOnUse"
       id="clipPath2228">
      <path
         d="m 407.961,542.529 h -99.423 v -7.686 h 99.423 v 7.686"
         id="path2226" />
    </clipPath>
    <clipPath
       clipPathUnits="userSpaceOnUse"
       id="clipPath2244">
      <path
         d="m 407.961,542.529 h -99.423 v -7.686 h 99.423 v 7.686"
         id="path2242" />
    </clipPath>
    <clipPath
       clipPathUnits="userSpaceOnUse"
       id="clipPath2260">
      <path
         d="m 407.961,542.529 h -99.423 v -7.686 h 99.423 v 7.686"
         id="path2258" />
    </clipPath>
    <clipPath
       clipPathUnits="userSpaceOnUse"
       id="clipPath2276">
      <path
         d="m 407.961,542.529 h -99.423 v -7.686 h 99.423 v 7.686"
         id="path2274" />
    </clipPath>
    <clipPath
       clipPathUnits="userSpaceOnUse"
       id="clipPath2292">
      <path
         d="m 407.961,542.529 h -99.423 v -7.686 h 99.423 v 7.686"
         id="path2290" />
    </clipPath>
    <clipPath
       clipPathUnits="userSpaceOnUse"
       id="clipPath2308">
      <path
         d="m 414.486,542.601 h -4.275 v -6.273 h 2.349 v 6.255 h 1.926 v 0.018"
         id="path2306" />
    </clipPath>
    <clipPath
       clipPathUnits="userSpaceOnUse"
       id="clipPath2320">
      <path
         d="M 548.865,542.583 H 414.486 v -6.255 h -1.926 v -0.063 h 136.305 v 6.318"
         id="path2318" />
    </clipPath>
    <clipPath
       clipPathUnits="userSpaceOnUse"
       id="clipPath2332">
      <path
         d="m 414.486,542.583 h -1.926 v -6.255 h 1.926 v 6.255"
         id="path2330" />
    </clipPath>
    <clipPath
       clipPathUnits="userSpaceOnUse"
       id="clipPath2348">
      <path
         d="M 547.722,529.605 H 308.988 v -7.902 h 238.734 v 7.902"
         id="path2346" />
    </clipPath>
    <clipPath
       clipPathUnits="userSpaceOnUse"
       id="clipPath2366">
      <path
         d="M 545.481,516.6 H 308.988 v -7.911 h 236.493 v 7.911"
         id="path2364" />
    </clipPath>
    <clipPath
       clipPathUnits="userSpaceOnUse"
       id="clipPath2384">
      <path
         d="M 537.372,503.604 H 308.304 v -7.911 h 229.068 v 7.911"
         id="path2382" />
    </clipPath>
    <clipPath
       clipPathUnits="userSpaceOnUse"
       id="clipPath2404">
      <path
         d="M 543.069,477.576 H 308.862 v -7.875 h 234.207 v 7.875"
         id="path2402" />
    </clipPath>
    <clipPath
       clipPathUnits="userSpaceOnUse"
       id="clipPath2420">
      <path
         d="M 543.069,477.576 H 308.862 v -7.875 h 234.207 v 7.875"
         id="path2418" />
    </clipPath>
    <clipPath
       clipPathUnits="userSpaceOnUse"
       id="clipPath2436">
      <path
         d="M 543.069,477.576 H 308.862 v -7.875 h 234.207 v 7.875"
         id="path2434" />
    </clipPath>
    <clipPath
       clipPathUnits="userSpaceOnUse"
       id="clipPath2454">
      <path
         d="M 537.66,464.598 H 308.988 v -7.902 H 537.66 v 7.902"
         id="path2452" />
    </clipPath>
    <clipPath
       clipPathUnits="userSpaceOnUse"
       id="clipPath2470">
      <path
         d="M 537.66,464.598 H 308.988 v -7.902 H 537.66 v 7.902"
         id="path2468" />
    </clipPath>
    <clipPath
       clipPathUnits="userSpaceOnUse"
       id="clipPath2488">
      <path
         d="m 551.502,451.575 h -242.64 v -7.884 h 242.64 v 7.884"
         id="path2486" />
    </clipPath>
    <clipPath
       clipPathUnits="userSpaceOnUse"
       id="clipPath2504">
      <path
         d="m 551.502,451.575 h -242.64 v -7.884 h 242.64 v 7.884"
         id="path2502" />
    </clipPath>
    <clipPath
       clipPathUnits="userSpaceOnUse"
       id="clipPath2520">
      <path
         d="m 551.502,451.575 h -242.64 v -7.884 h 242.64 v 7.884"
         id="path2518" />
    </clipPath>
    <clipPath
       clipPathUnits="userSpaceOnUse"
       id="clipPath2532">
      <path
         d="m 551.502,451.575 h -242.64 v -7.884 h 242.64 v 7.884"
         id="path2530" />
    </clipPath>
    <clipPath
       clipPathUnits="userSpaceOnUse"
       id="clipPath2548">
      <path
         d="m 551.502,451.575 h -242.64 v -7.884 h 242.64 v 7.884"
         id="path2546" />
    </clipPath>
    <clipPath
       clipPathUnits="userSpaceOnUse"
       id="clipPath2566">
      <path
         d="M 551.772,438.597 H 308.988 v -7.911 h 242.784 v 7.911"
         id="path2564" />
    </clipPath>
    <clipPath
       clipPathUnits="userSpaceOnUse"
       id="clipPath2582">
      <path
         d="M 551.772,438.597 H 308.988 v -7.911 h 242.784 v 7.911"
         id="path2580" />
    </clipPath>
    <clipPath
       clipPathUnits="userSpaceOnUse"
       id="clipPath2600">
      <path
         d="M 543.528,425.601 H 308.862 v -7.893 h 234.666 v 7.893"
         id="path2598" />
    </clipPath>
    <clipPath
       clipPathUnits="userSpaceOnUse"
       id="clipPath2616">
      <path
         d="M 543.528,425.601 H 308.862 v -7.893 h 234.666 v 7.893"
         id="path2614" />
    </clipPath>
    <clipPath
       clipPathUnits="userSpaceOnUse"
       id="clipPath2632">
      <path
         d="M 543.528,425.601 H 308.862 v -7.893 h 234.666 v 7.893"
         id="path2630" />
    </clipPath>
    <clipPath
       clipPathUnits="userSpaceOnUse"
       id="clipPath2652">
      <path
         d="m 379.512,399.573 h -70.974 v -6.309 h 70.974 v 6.309"
         id="path2650" />
    </clipPath>
    <clipPath
       clipPathUnits="userSpaceOnUse"
       id="clipPath2668">
      <path
         d="m 385.983,399.6 h -4.275 v -6.282 h 2.313 v 6.255 h 1.962 v 0.027"
         id="path2666" />
    </clipPath>
    <clipPath
       clipPathUnits="userSpaceOnUse"
       id="clipPath2680">
      <path
         d="M 542.637,399.573 H 385.983 v -6.255 h -1.962 v -1.611 h 158.616 v 7.866"
         id="path2678" />
    </clipPath>
    <clipPath
       clipPathUnits="userSpaceOnUse"
       id="clipPath2692">
      <path
         d="m 385.983,399.573 h -1.962 v -6.255 h 1.962 v 6.255"
         id="path2690" />
    </clipPath>
    <clipPath
       clipPathUnits="userSpaceOnUse"
       id="clipPath2710">
      <path
         d="M 551.817,373.599 H 308.862 v -7.902 h 242.955 v 7.902"
         id="path2708" />
    </clipPath>
    <clipPath
       clipPathUnits="userSpaceOnUse"
       id="clipPath2726">
      <path
         d="M 551.817,373.599 H 308.862 v -7.902 h 242.955 v 7.902"
         id="path2724" />
    </clipPath>
    <clipPath
       clipPathUnits="userSpaceOnUse"
       id="clipPath2746">
      <path
         d="M 449.334,347.571 H 308.988 v -7.875 h 140.346 v 7.875"
         id="path2744" />
    </clipPath>
    <clipPath
       clipPathUnits="userSpaceOnUse"
       id="clipPath2762">
      <path
         d="M 449.334,347.571 H 308.988 v -7.875 h 140.346 v 7.875"
         id="path2760" />
    </clipPath>
    <clipPath
       clipPathUnits="userSpaceOnUse"
       id="clipPath2780">
      <path
         d="M 486.135,334.575 H 308.538 v -7.884 h 177.597 v 7.884"
         id="path2778" />
    </clipPath>
    <clipPath
       clipPathUnits="userSpaceOnUse"
       id="clipPath2796">
      <path
         d="M 486.135,334.575 H 308.538 v -7.884 h 177.597 v 7.884"
         id="path2794" />
    </clipPath>
    <clipPath
       clipPathUnits="userSpaceOnUse"
       id="clipPath2812">
      <path
         d="M 486.135,334.575 H 308.538 v -7.884 h 177.597 v 7.884"
         id="path2810" />
    </clipPath>
    <clipPath
       clipPathUnits="userSpaceOnUse"
       id="clipPath2828">
      <path
         d="m 492.597,334.602 h -4.275 v -6.282 h 2.313 v 6.201 h 1.962 v 0.081"
         id="path2826" />
    </clipPath>
    <clipPath
       clipPathUnits="userSpaceOnUse"
       id="clipPath2840">
      <path
         d="m 539.28,334.521 h -46.683 v -6.201 h -1.962 v -1.62 h 48.645 v 7.821"
         id="path2838" />
    </clipPath>
    <clipPath
       clipPathUnits="userSpaceOnUse"
       id="clipPath2852">
      <path
         d="m 492.597,334.521 h -1.962 v -6.201 h 1.962 v 6.201"
         id="path2850" />
    </clipPath>
    <clipPath
       clipPathUnits="userSpaceOnUse"
       id="clipPath2864">
      <path
         d="M 548.964,321.597 H 308.988 v -7.893 h 239.976 v 7.893"
         id="path2862" />
    </clipPath>
    <clipPath
       clipPathUnits="userSpaceOnUse"
       id="clipPath2880">
      <path
         d="M 548.964,321.597 H 308.988 v -7.893 h 239.976 v 7.893"
         id="path2878" />
    </clipPath>
    <clipPath
       clipPathUnits="userSpaceOnUse"
       id="clipPath2896">
      <path
         d="M 548.964,321.597 H 308.988 v -7.893 h 239.976 v 7.893"
         id="path2894" />
    </clipPath>
    <clipPath
       clipPathUnits="userSpaceOnUse"
       id="clipPath2914">
      <path
         d="M 545.526,308.601 H 308.763 v -7.902 h 236.763 v 7.902"
         id="path2912" />
    </clipPath>
    <clipPath
       clipPathUnits="userSpaceOnUse"
       id="clipPath2930">
      <path
         d="M 545.526,308.601 H 308.763 v -7.902 h 236.763 v 7.902"
         id="path2928" />
    </clipPath>
    <clipPath
       clipPathUnits="userSpaceOnUse"
       id="clipPath2946">
      <path
         d="M 545.526,308.601 H 308.763 v -7.902 h 236.763 v 7.902"
         id="path2944" />
    </clipPath>
    <clipPath
       clipPathUnits="userSpaceOnUse"
       id="clipPath2964">
      <path
         d="M 547.794,295.569 H 308.988 v -7.875 h 238.806 v 7.875"
         id="path2962" />
    </clipPath>
    <clipPath
       clipPathUnits="userSpaceOnUse"
       id="clipPath2980">
      <path
         d="M 547.794,295.569 H 308.988 v -7.875 h 238.806 v 7.875"
         id="path2978" />
    </clipPath>
    <clipPath
       clipPathUnits="userSpaceOnUse"
       id="clipPath2996">
      <path
         d="M 547.794,295.569 H 308.988 v -7.875 h 238.806 v 7.875"
         id="path2994" />
    </clipPath>
    <clipPath
       clipPathUnits="userSpaceOnUse"
       id="clipPath3012">
      <path
         d="M 547.794,295.569 H 308.988 v -7.875 h 238.806 v 7.875"
         id="path3010" />
    </clipPath>
    <clipPath
       clipPathUnits="userSpaceOnUse"
       id="clipPath3028">
      <path
         d="M 547.794,295.569 H 308.988 v -7.875 h 238.806 v 7.875"
         id="path3026" />
    </clipPath>
    <clipPath
       clipPathUnits="userSpaceOnUse"
       id="clipPath3044">
      <path
         d="M 547.794,295.569 H 308.988 v -7.875 h 238.806 v 7.875"
         id="path3042" />
    </clipPath>
    <clipPath
       clipPathUnits="userSpaceOnUse"
       id="clipPath3060">
      <path
         d="M 547.794,295.569 H 308.988 v -7.875 h 238.806 v 7.875"
         id="path3058" />
    </clipPath>
    <clipPath
       clipPathUnits="userSpaceOnUse"
       id="clipPath3076">
      <path
         d="M 547.794,295.569 H 308.988 v -7.875 h 238.806 v 7.875"
         id="path3074" />
    </clipPath>
    <clipPath
       clipPathUnits="userSpaceOnUse"
       id="clipPath3094">
      <path
         d="M 438.273,282.6 H 308.988 v -7.911 h 129.285 v 7.911"
         id="path3092" />
    </clipPath>
    <clipPath
       clipPathUnits="userSpaceOnUse"
       id="clipPath3110">
      <path
         d="M 438.273,282.6 H 308.988 v -7.911 h 129.285 v 7.911"
         id="path3108" />
    </clipPath>
    <clipPath
       clipPathUnits="userSpaceOnUse"
       id="clipPath3122">
      <path
         d="m 442.863,282.6 h -4.275 v -6.282 h 2.313 v 6.255 h 1.962 v 0.027"
         id="path3120" />
    </clipPath>
    <clipPath
       clipPathUnits="userSpaceOnUse"
       id="clipPath3134">
      <path
         d="m 466.893,282.573 h -24.03 v -6.255 h -1.962 v -1.629 h 25.992 v 7.884"
         id="path3132" />
    </clipPath>
    <clipPath
       clipPathUnits="userSpaceOnUse"
       id="clipPath3146">
      <path
         d="m 442.863,282.573 h -1.962 v -6.255 h 1.962 v 6.255"
         id="path3144" />
    </clipPath>
    <clipPath
       clipPathUnits="userSpaceOnUse"
       id="clipPath3166">
      <path
         d="M 550.602,252.603 H 308.763 v -7.911 h 241.839 v 7.911"
         id="path3164" />
    </clipPath>
    <clipPath
       clipPathUnits="userSpaceOnUse"
       id="clipPath3184">
      <path
         d="M 549.108,239.607 H 308.862 v -7.911 h 240.246 v 7.911"
         id="path3182" />
    </clipPath>
    <clipPath
       clipPathUnits="userSpaceOnUse"
       id="clipPath3200">
      <path
         d="M 549.108,239.607 H 308.862 v -7.911 h 240.246 v 7.911"
         id="path3198" />
    </clipPath>
    <clipPath
       clipPathUnits="userSpaceOnUse"
       id="clipPath3216">
      <path
         d="M 544.446,226.602 H 308.988 v -7.893 h 235.458 v 7.893"
         id="path3214" />
    </clipPath>
    <clipPath
       clipPathUnits="userSpaceOnUse"
       id="clipPath3232">
      <path
         d="M 544.446,226.602 H 308.988 v -7.893 h 235.458 v 7.893"
         id="path3230" />
    </clipPath>
    <clipPath
       clipPathUnits="userSpaceOnUse"
       id="clipPath3248">
      <path
         d="M 544.446,226.602 H 308.988 v -7.893 h 235.458 v 7.893"
         id="path3246" />
    </clipPath>
    <clipPath
       clipPathUnits="userSpaceOnUse"
       id="clipPath3266">
      <path
         d="M 550.242,213.606 H 308.7 v -7.902 h 241.542 v 7.902"
         id="path3264" />
    </clipPath>
    <clipPath
       clipPathUnits="userSpaceOnUse"
       id="clipPath3282">
      <path
         d="M 549.171,200.601 H 309.105 v -7.911 h 240.066 v 7.911"
         id="path3280" />
    </clipPath>
    <clipPath
       clipPathUnits="userSpaceOnUse"
       id="clipPath3300">
      <path
         d="m 377.901,187.605 h -68.913 v -7.911 h 68.913 v 7.911"
         id="path3298" />
    </clipPath>
    <clipPath
       clipPathUnits="userSpaceOnUse"
       id="clipPath3318">
      <path
         d="M 557.073,174.6 H 308.538 v -7.911 h 248.535 v 7.911"
         id="path3316" />
    </clipPath>
    <clipPath
       clipPathUnits="userSpaceOnUse"
       id="clipPath3336">
      <path
         d="M 553.437,161.604 H 308.7 v -7.911 h 244.737 v 7.911"
         id="path3334" />
    </clipPath>
    <clipPath
       clipPathUnits="userSpaceOnUse"
       id="clipPath3352">
      <path
         d="M 553.437,161.604 H 308.7 v -7.911 h 244.737 v 7.911"
         id="path3350" />
    </clipPath>
    <clipPath
       clipPathUnits="userSpaceOnUse"
       id="clipPath3368">
      <path
         d="M 553.437,161.604 H 308.7 v -7.911 h 244.737 v 7.911"
         id="path3366" />
    </clipPath>
    <clipPath
       clipPathUnits="userSpaceOnUse"
       id="clipPath3380">
      <path
         d="m 315.666,148.599 h -6.804 v -6.327 h 6.804 v 6.327"
         id="path3378" />
    </clipPath>
    <clipPath
       clipPathUnits="userSpaceOnUse"
       id="clipPath3392">
      <path
         d="m 318.366,148.599 h -2.331 v -6.273 h 2.331 v 6.273"
         id="path3390" />
    </clipPath>
    <clipPath
       clipPathUnits="userSpaceOnUse"
       id="clipPath3404">
      <path
         d="m 544.311,148.599 h -225.945 1.944 v -6.273 h -1.944 v -1.638 h 225.945 v 7.911"
         id="path3402" />
    </clipPath>
    <clipPath
       clipPathUnits="userSpaceOnUse"
       id="clipPath3416">
      <path
         d="m 320.31,148.599 h -1.944 v -6.273 h 1.944 v 6.273"
         id="path3414" />
    </clipPath>
    <clipPath
       clipPathUnits="userSpaceOnUse"
       id="clipPath3432">
      <path
         d="m 544.428,135.576 h -235.44 v -7.875 h 235.44 v 7.875"
         id="path3430" />
    </clipPath>
    <clipPath
       clipPathUnits="userSpaceOnUse"
       id="clipPath3448">
      <path
         d="m 544.428,135.576 h -235.44 v -7.875 h 235.44 v 7.875"
         id="path3446" />
    </clipPath>
    <clipPath
       clipPathUnits="userSpaceOnUse"
       id="clipPath3464">
      <path
         d="m 544.428,135.576 h -235.44 v -7.875 h 235.44 v 7.875"
         id="path3462" />
    </clipPath>
    <clipPath
       clipPathUnits="userSpaceOnUse"
       id="clipPath3480">
      <path
         d="m 544.428,135.576 h -235.44 v -7.875 h 235.44 v 7.875"
         id="path3478" />
    </clipPath>
    <clipPath
       clipPathUnits="userSpaceOnUse"
       id="clipPath3500">
      <path
         d="m 360.729,109.602 h -2.277 v -6.282 h 2.277 v 6.282"
         id="path3498" />
    </clipPath>
    <clipPath
       clipPathUnits="userSpaceOnUse"
       id="clipPath3512">
      <path
         d="m 554.634,109.602 h -193.905 1.998 v -6.282 h -1.998 v -1.62 h 193.905 v 7.902"
         id="path3510" />
    </clipPath>
    <clipPath
       clipPathUnits="userSpaceOnUse"
       id="clipPath3524">
      <path
         d="m 362.727,109.602 h -1.998 v -6.282 h 1.998 v 6.282"
         id="path3522" />
    </clipPath>
    <clipPath
       clipPathUnits="userSpaceOnUse"
       id="clipPath3540">
      <path
         d="m 403.632,96.606 h -4.275 v -6.282 h 2.277 v 6.255 h 1.998 v 0.027"
         id="path3538" />
    </clipPath>
    <clipPath
       clipPathUnits="userSpaceOnUse"
       id="clipPath3552">
      <path
         d="M 541.233,96.579 H 403.632 v -6.255 h -1.998 v -1.638 h 139.599 v 7.893"
         id="path3550" />
    </clipPath>
    <clipPath
       clipPathUnits="userSpaceOnUse"
       id="clipPath3564">
      <path
         d="m 403.632,96.579 h -1.998 v -6.255 h 1.998 v 6.255"
         id="path3562" />
    </clipPath>
    <clipPath
       clipPathUnits="userSpaceOnUse"
       id="clipPath3584">
      <path
         d="M 551.871,66.609 H 308.763 v -7.902 h 243.108 v 7.902"
         id="path3582" />
    </clipPath>
    <clipPath
       clipPathUnits="userSpaceOnUse"
       id="clipPath3600">
      <path
         d="M 551.871,66.609 H 308.763 v -7.902 h 243.108 v 7.902"
         id="path3598" />
    </clipPath>
    <clipPath
       clipPathUnits="userSpaceOnUse"
       id="clipPath3616">
      <path
         d="M 554.796,53.577 H 309.123 v -7.884 h 245.673 v 7.884"
         id="path3614" />
    </clipPath>
    <clipPath
       clipPathUnits="userSpaceOnUse"
       id="clipPath3632">
      <path
         d="M 554.796,53.577 H 309.123 v -7.884 h 245.673 v 7.884"
         id="path3630" />
    </clipPath>
    <clipPath
       clipPathUnits="userSpaceOnUse"
       id="clipPath3648">
      <path
         d="M 554.796,53.577 H 309.123 v -7.884 h 245.673 v 7.884"
         id="path3646" />
    </clipPath>
    <clipPath
       clipPathUnits="userSpaceOnUse"
       id="clipPath3670">
      <path
         d="m 133.452,620.091 h -88.02 v -6.786 h 88.02 v 6.786"
         id="path3668" />
    </clipPath>
    <clipPath
       clipPathUnits="userSpaceOnUse"
       id="clipPath3686">
      <path
         d="m 133.452,620.091 h -88.02 v -6.786 h 88.02 v 6.786"
         id="path3684" />
    </clipPath>
    <clipPath
       clipPathUnits="userSpaceOnUse"
       id="clipPath3702">
      <path
         d="m 133.452,620.091 h -88.02 v -6.786 h 88.02 v 6.786"
         id="path3700" />
    </clipPath>
    <clipPath
       clipPathUnits="userSpaceOnUse"
       id="clipPath3714">
      <path
         d="m 135.621,620.091 h -1.764 v -5.382 h 1.764 v 5.382"
         id="path3712" />
    </clipPath>
    <clipPath
       clipPathUnits="userSpaceOnUse"
       id="clipPath3726">
      <path
         d="m 151.524,620.091 h -15.903 1.485 v -5.382 h -1.485 v -0.045 h 15.903 v 5.427"
         id="path3724" />
    </clipPath>
    <clipPath
       clipPathUnits="userSpaceOnUse"
       id="clipPath3738">
      <path
         d="m 137.106,620.091 h -1.485 v -5.382 h 1.485 v 5.382"
         id="path3736" />
    </clipPath>
    <clipPath
       clipPathUnits="userSpaceOnUse"
       id="clipPath3754">
      <path
         d="M 147.357,611.091 H 45.432 v -6.786 h 101.925 v 6.786"
         id="path3752" />
    </clipPath>
    <clipPath
       clipPathUnits="userSpaceOnUse"
       id="clipPath3772">
      <path
         d="M 110.988,602.091 H 45.432 v -6.102 h 65.556 v 6.102"
         id="path3770" />
    </clipPath>
    <clipPath
       clipPathUnits="userSpaceOnUse"
       id="clipPath3788">
      <path
         d="M 110.988,602.091 H 45.432 v -6.102 h 65.556 v 6.102"
         id="path3786" />
    </clipPath>
    <clipPath
       clipPathUnits="userSpaceOnUse"
       id="clipPath3804">
      <path
         d="m 49.455,716.364 c 0,0 -4.32,0 -4.32,-4.32 v -70.902 c 0,0 0,-4.32 4.32,-4.32 h 101.133 c 0,0 4.329,0 4.329,4.32 v 70.902 c 0,0 0,4.32 -4.329,4.32 H 49.455"
         id="path3802" />
    </clipPath>
    <clipPath
       clipPathUnits="userSpaceOnUse"
       id="clipPath3816">
      <path
         d="m 180.891,716.364 c 0,0 -4.32,0 -4.32,-4.32 v -70.902 c 0,0 0,-4.32 4.32,-4.32 h 101.664 c 0,0 4.32,0 4.32,4.32 v 70.902 c 0,0 0,4.32 -4.32,4.32 H 180.891"
         id="path3814" />
    </clipPath>
    <clipPath
       clipPathUnits="userSpaceOnUse"
       id="clipPath3828">
      <path
         d="m 312.921,716.364 c 0,0 -4.32,0 -4.32,-4.32 v -70.902 c 0,0 0,-4.32 4.32,-4.32 h 100.638 c 0,0 4.32,0 4.32,4.32 v 70.902 c 0,0 0,4.32 -4.32,4.32 H 312.921"
         id="path3826" />
    </clipPath>
    <clipPath
       clipPathUnits="userSpaceOnUse"
       id="clipPath3840">
      <path
         d="m 444.069,716.364 c 0,0 -4.32,0 -4.32,-4.32 v -70.902 c 0,0 0,-4.32 4.32,-4.32 h 101.232 c 0,0 4.32,0 4.32,4.32 v 70.902 c 0,0 0,4.32 -4.32,4.32 H 444.069"
         id="path3838" />
    </clipPath>
    <clipPath
       clipPathUnits="userSpaceOnUse"
       id="clipPath3858">
      <path
         d="M 285.453,620.091 H 177.057 v -6.786 h 108.396 v 6.786"
         id="path3856" />
    </clipPath>
    <clipPath
       clipPathUnits="userSpaceOnUse"
       id="clipPath3874">
      <path
         d="M 285.453,620.091 H 177.057 v -6.786 h 108.396 v 6.786"
         id="path3872" />
    </clipPath>
    <clipPath
       clipPathUnits="userSpaceOnUse"
       id="clipPath3890">
      <path
         d="M 285.453,620.091 H 177.057 v -6.786 h 108.396 v 6.786"
         id="path3888" />
    </clipPath>
    <clipPath
       clipPathUnits="userSpaceOnUse"
       id="clipPath3906">
      <path
         d="M 285.453,620.091 H 177.057 v -6.786 h 108.396 v 6.786"
         id="path3904" />
    </clipPath>
    <clipPath
       clipPathUnits="userSpaceOnUse"
       id="clipPath3924">
      <path
         d="m 278.361,611.091 h -101.52 v -6.786 h 101.52 v 6.786"
         id="path3922" />
    </clipPath>
    <clipPath
       clipPathUnits="userSpaceOnUse"
       id="clipPath3940">
      <path
         d="m 278.361,611.091 h -101.52 v -6.786 h 101.52 v 6.786"
         id="path3938" />
    </clipPath>
    <clipPath
       clipPathUnits="userSpaceOnUse"
       id="clipPath3958">
      <path
         d="m 247.905,602.091 h -70.848 v -6.786 h 70.848 v 6.786"
         id="path3956" />
    </clipPath>
    <clipPath
       clipPathUnits="userSpaceOnUse"
       id="clipPath3976">
      <path
         d="M 410.409,629.091 H 308.853 v -6.786 h 101.556 v 6.786"
         id="path3974" />
    </clipPath>
    <clipPath
       clipPathUnits="userSpaceOnUse"
       id="clipPath3992">
      <path
         d="M 410.409,629.091 H 308.853 v -6.786 h 101.556 v 6.786"
         id="path3990" />
    </clipPath>
    <clipPath
       clipPathUnits="userSpaceOnUse"
       id="clipPath4008">
      <path
         d="M 410.409,629.091 H 308.853 v -6.786 h 101.556 v 6.786"
         id="path4006" />
    </clipPath>
    <clipPath
       clipPathUnits="userSpaceOnUse"
       id="clipPath4024">
      <path
         d="m 399.105,620.091 h -90 v -6.786 h 90 v 6.786"
         id="path4022" />
    </clipPath>
    <clipPath
       clipPathUnits="userSpaceOnUse"
       id="clipPath4040">
      <path
         d="m 399.105,620.091 h -90 v -6.786 h 90 v 6.786"
         id="path4038" />
    </clipPath>
    <clipPath
       clipPathUnits="userSpaceOnUse"
       id="clipPath4058">
      <path
         d="m 415.863,611.091 h -106.83 v -6.786 h 106.83 v 6.786"
         id="path4056" />
    </clipPath>
    <clipPath
       clipPathUnits="userSpaceOnUse"
       id="clipPath4076">
      <path
         d="M 412.164,602.091 H 308.925 v -6.786 h 103.239 v 6.786"
         id="path4074" />
    </clipPath>
    <clipPath
       clipPathUnits="userSpaceOnUse"
       id="clipPath4092">
      <path
         d="M 412.164,602.091 H 308.925 v -6.786 h 103.239 v 6.786"
         id="path4090" />
    </clipPath>
    <clipPath
       clipPathUnits="userSpaceOnUse"
       id="clipPath4108">
      <path
         d="M 412.164,602.091 H 308.925 v -6.786 h 103.239 v 6.786"
         id="path4106" />
    </clipPath>
    <clipPath
       clipPathUnits="userSpaceOnUse"
       id="clipPath4124">
      <path
         d="m 528.795,629.091 h -88.659 v -6.786 h 88.659 v 6.786"
         id="path4122" />
    </clipPath>
    <clipPath
       clipPathUnits="userSpaceOnUse"
       id="clipPath4140">
      <path
         d="m 528.795,629.091 h -88.659 v -6.786 h 88.659 v 6.786"
         id="path4138" />
    </clipPath>
    <clipPath
       clipPathUnits="userSpaceOnUse"
       id="clipPath4156">
      <path
         d="m 528.795,629.091 h -88.659 v -6.786 h 88.659 v 6.786"
         id="path4154" />
    </clipPath>
    <clipPath
       clipPathUnits="userSpaceOnUse"
       id="clipPath4174">
      <path
         d="M 542.061,620.091 H 440.307 v -6.786 h 101.754 v 6.786"
         id="path4172" />
    </clipPath>
    <clipPath
       clipPathUnits="userSpaceOnUse"
       id="clipPath4190">
      <path
         d="M 542.061,620.091 H 440.307 v -6.786 h 101.754 v 6.786"
         id="path4188" />
    </clipPath>
    <clipPath
       clipPathUnits="userSpaceOnUse"
       id="clipPath4206">
      <path
         d="M 542.061,620.091 H 440.307 v -6.786 h 101.754 v 6.786"
         id="path4204" />
    </clipPath>
    <clipPath
       clipPathUnits="userSpaceOnUse"
       id="clipPath4224">
      <path
         d="m 539.379,611.091 h -99.18 v -6.786 h 99.18 v 6.786"
         id="path4222" />
    </clipPath>
    <clipPath
       clipPathUnits="userSpaceOnUse"
       id="clipPath4242">
      <path
         d="M 544.383,602.091 H 440.271 v -6.102 h 104.112 v 6.102"
         id="path4240" />
    </clipPath>
    <clipPath
       clipPathUnits="userSpaceOnUse"
       id="clipPath4258">
      <path
         d="M 544.383,602.091 H 440.271 v -6.102 h 104.112 v 6.102"
         id="path4256" />
    </clipPath>
    <clipPath
       clipPathUnits="userSpaceOnUse"
       id="clipPath4280">
      <path
         d="m 49.662,555.183 c 0,0 -4.32,0 -4.32,-4.32 v -62.73 c 0,0 0,-4.32 4.32,-4.32 h 56.187 c 0,0 4.32,0 4.32,4.32 v 62.73 c 0,0 0,4.32 -4.32,4.32 H 49.662"
         id="path4278" />
    </clipPath>
    <clipPath
       clipPathUnits="userSpaceOnUse"
       id="clipPath4292">
      <path
         d="m 74.871,649.467 c 0.468,-0.009 0.936,-0.027 1.395,-0.045 0.468,-0.009 0.927,-0.027 1.386,-0.027 4.437,0.009 8.424,0.288 12.555,1.035 1.782,0.315 3.591,0.729 5.472,1.233 3.843,1.044 7.2,2.295 10.134,3.699 5.805,2.781 9.936,6.156 12.861,9.693 1.368,1.656 2.457,3.339 3.33,5.013 0.549,1.035 1.008,2.061 1.395,3.078 0.63,1.683 1.089,3.321 1.386,4.887 v 1.71 c -0.459,-0.261 -0.918,-0.522 -1.386,-0.783 -0.468,-0.252 -0.927,-0.504 -1.395,-0.747 -2.907,-1.512 -5.823,-2.772 -8.685,-3.78 -5.85,-2.052 -11.52,-3.06 -16.623,-3.177 -0.351,-0.009 -0.684,-0.009 -1.026,-0.009 -8.01,0.018 -14.526,2.295 -18.018,6.309 -0.531,0.621 -0.999,1.287 -1.386,1.989 -0.9,1.611 -1.395,3.537 -1.395,5.562 v -35.64"
         id="path4290" />
    </clipPath>
    <clipPath
       clipPathUnits="userSpaceOnUse"
       id="clipPath4300">
      <path
         d="m 74.88,685.098 h 49.905 V 649.404 H 74.88 v 35.694"
         id="path4298" />
    </clipPath>
    <clipPath
       clipPathUnits="userSpaceOnUse"
       id="clipPath4306">
      <path
         d="m 74.876,649.43 h 49.887 v 35.671 H 74.876 Z"
         id="path4304" />
    </clipPath>
    <clipPath
       clipPathUnits="userSpaceOnUse"
       id="clipPath4598">
      <path
         d="m 95.67,671.247 c 0.342,0 0.675,0 1.026,0.009 5.103,0.117 10.773,1.125 16.623,3.177 2.862,1.008 5.778,2.268 8.685,3.78 0.468,0.243 0.927,0.495 1.395,0.747 0.468,0.27 0.927,0.522 1.386,0.783 v 14.346 c 0,10.755 -10.44,13.599 -18.288,13.599 -6.516,0 -18.954,-2.349 -26.964,-10.44 -3.735,-3.762 -4.662,-6.786 -4.662,-12.141 0,-2.025 0.495,-3.951 1.395,-5.562 0.387,-0.702 0.855,-1.368 1.386,-1.989 3.492,-4.014 10.008,-6.291 18.018,-6.309"
         id="path4596" />
    </clipPath>
    <clipPath
       clipPathUnits="userSpaceOnUse"
       id="clipPath4606">
      <path
         d="m 74.88,707.688 h 49.905 V 671.256 H 74.88 v 36.432"
         id="path4604" />
    </clipPath>
    <clipPath
       clipPathUnits="userSpaceOnUse"
       id="clipPath4612">
      <path
         d="m 74.876,671.278 h 49.887 v 36.406 H 74.876 Z"
         id="path4610" />
    </clipPath>
    <clipPath
       clipPathUnits="userSpaceOnUse"
       id="clipPath4724">
      <path
         d="m 122.004,670.086 c 0.549,1.035 1.008,2.061 1.395,3.078 0.63,1.683 1.089,3.33 1.386,4.887 v -29.79 c 0,-1.692 -1.359,-3.078 -3.042,-3.078 h -43.83 c -1.674,0 -3.042,1.386 -3.042,3.078 v 1.224 c 0.468,-0.018 0.936,-0.027 1.395,-0.045 0.468,-0.018 0.927,-0.027 1.386,-0.027 4.437,0.009 8.415,0.288 12.555,1.035 1.773,0.315 3.582,0.72 5.463,1.233 3.843,1.035 7.2,2.295 10.134,3.69 5.805,2.79 9.936,6.156 12.87,9.702 1.359,1.647 2.457,3.33 3.33,5.013"
         id="path4722" />
    </clipPath>
    <clipPath
       clipPathUnits="userSpaceOnUse"
       id="clipPath4732">
      <path
         d="m 74.88,678.051 h 49.905 V 645.183 H 74.88 v 32.868"
         id="path4730" />
    </clipPath>
    <clipPath
       clipPathUnits="userSpaceOnUse"
       id="clipPath4738">
      <path
         d="m 74.876,645.216 h 49.888 v 32.836 H 74.876 Z"
         id="path4736-2" />
    </clipPath>
    <clipPath
       clipPathUnits="userSpaceOnUse"
       id="clipPath4904">
      <path
         d="m 74.889,686.043 c 0,-2.025 0.486,-3.825 1.377,-5.436 0.387,-0.702 0.855,-1.368 1.386,-1.989 3.492,-4.014 10.008,-6.309 18.018,-6.309 7.839,0 17.091,2.115 26.334,6.939 0.468,0.243 0.936,0.486 1.395,0.747 0.459,0.261 0.927,0.522 1.386,0.783 v -1.053 c -0.459,-0.261 -0.918,-0.522 -1.386,-0.774 -0.459,-0.261 -0.927,-0.513 -1.395,-0.756 -2.907,-1.512 -5.814,-2.763 -8.685,-3.771 -5.841,-2.052 -11.511,-3.069 -16.614,-3.186 -0.36,-0.009 -0.675,-0.009 -1.035,-0.009 -8.01,0 -14.526,2.286 -18.018,6.318 -0.531,0.612 -0.999,1.278 -1.386,1.98 -0.9,1.611 -1.395,3.411 -1.395,5.463 0,0.378 0,0.603 0.018,1.053"
         id="path4902" />
    </clipPath>
    <clipPath
       clipPathUnits="userSpaceOnUse"
       id="clipPath4912">
      <path
         d="m 74.871,686.043 h 49.914 V 671.229 H 74.871 v 14.814"
         id="path4910" />
    </clipPath>
    <clipPath
       clipPathUnits="userSpaceOnUse"
       id="clipPath4918">
      <path
         d="m 74.868,671.258 h 49.895 v 14.785 H 74.868 Z"
         id="path4916" />
    </clipPath>
    <clipPath
       clipPathUnits="userSpaceOnUse"
       id="clipPath955">
      <path
         d="M 0,0 H 792 V 594 H 0 Z"
         id="path953" />
    </clipPath>
    <clipPath
       clipPathUnits="userSpaceOnUse"
       id="clipPath963">
      <path
         d="m 101.8125,-244.6875 v 92.8125 h 234 v -92.8125 z"
         id="path961" />
    </clipPath>
    <clipPath
       clipPathUnits="userSpaceOnUse"
       id="clipPath971">
      <path
         d="M 0,75.67731 V 0 h 189.83298 v 75.67731"
         id="path969" />
    </clipPath>
    <clipPath
       clipPathUnits="userSpaceOnUse"
       id="clipPath1065">
      <path
         d="M -225,18 V 178.875 H -9 V 18 Z"
         id="path1063" />
    </clipPath>
    <clipPath
       clipPathUnits="userSpaceOnUse"
       id="clipPath1073">
      <path
         d="M 0,0 V 288 H 432 V 0 Z"
         id="path1071" />
    </clipPath>
    <clipPath
       clipPathUnits="userSpaceOnUse"
       id="clipPath1117">
      <path
         d="m 172.125,171 v 99 h 82.6875 v -99 z"
         id="path1115" />
    </clipPath>
    <clipPath
       clipPathUnits="userSpaceOnUse"
       id="clipPath1125">
      <path
         d="m 31.8736,39.52829 c 12.00537,-0.01959 26.19238,3.25394 40.36569,10.57471 0.70801,0.36621 1.4194,0.751 2.1309,1.1372 0.71039,0.38672 1.4218,0.76612 2.12979,1.18363 0,7.26758 0,14.53457 0,21.80368 0,16.33108 -16.01019,20.63089 -28.0258,20.63089 -10.00299,0 -29.05179,-3.55713 -41.33551,-15.83399 C 1.41455,73.30609 0,68.50681 0,60.37451 0,57.30463 0.75534,54.56732 2.13037,52.12009 2.72556,51.05423 3.43652,50.0488 4.26172,49.1084 9.60742,43.00482 19.59821,39.54782 31.8736,39.52829"
         id="path1123" />
    </clipPath>
    <clipPath
       clipPathUnits="userSpaceOnUse"
       id="clipPath1133">
      <path
         d="M 0,39.5087 V 94.8584 H 76.49998 V 39.5087 Z"
         id="path1131" />
    </clipPath>
    <clipPath
       clipPathUnits="userSpaceOnUse"
       id="clipPath1241">
      <path
         d="m 72.23929,50.103 v 0 c 0.70801,0.36523 1.4194,0.74801 2.1309,1.13571 0.71039,0.3858 1.4218,0.76611 2.12979,1.17578 0,-15.5806 0,-32.17529 0,-47.75629 C 76.49998,2.0849 74.40819,0 71.83499,0 50.05719,0 26.44339,0 4.66455,0 2.08691,0 0,2.0849 0,4.6582 0,22.95209 0,42.08301 0,60.37451 0,57.30463 0.76318,54.56781 2.13037,52.11859 2.72556,51.05423 3.43652,50.0488 4.26172,49.10641 9.60742,43.0029 19.59821,39.54581 31.8736,39.52829 43.87897,39.5087 58.06598,42.78018 72.23929,50.103"
         id="path1239" />
    </clipPath>
    <clipPath
       clipPathUnits="userSpaceOnUse"
       id="clipPath1249">
      <path
         d="M 0,0 V 60.37451 H 76.49998 V 0 Z"
         id="path1247" />
    </clipPath>
  </defs>
  <g
     id="g1945">
    <path
       id="path1141"
       style="display:inline;opacity:1;fill:#ffffff;fill-opacity:1;fill-rule:nonzero;stroke:none;stroke-width:8.3687"
       d="M 404.5293,0 C 321.05633,0 162.08058,29.866968 59.566406,132.88867 11.796505,180.88204 0,221.15258 0,289.39649 c 0,12.88243 1.5522968,25.0574 4.5742188,36.58789 3.0006861,11.52823 7.4501132,22.4122 13.1816402,32.67187 v 0.004 c 2.484469,4.47457 5.215617,8.82495 8.175782,13.0293 0,-28.03404 0.726562,-56.71524 0.726562,-82.29297 h 0.002 c 0,25.57773 -0.726562,54.25893 -0.726562,82.29297 2.95933,4.22449 6.168275,8.30354 9.625,12.25781 44.602766,51.22007 127.992279,80.23144 230.423829,80.39844 100.19662,0.14266 218.58552,-27.30523 336.8711,-88.74415 1.48968,-0.76954 2.9587,-1.55801 4.44921,-2.33007 v -0.0215 c 1.46965,-0.79136 2.95871,-1.57857 4.44922,-2.39258 v 0.0195 c 1.46965,-0.79136 2.96066,-1.60374 4.45117,-2.39258 v 0.0215 c 1.46966,-0.81234 2.95871,-1.62154 4.44922,-2.43554 v -0.0215 -96.44531 c 2.96017,-0.81401 5.91875,-1.60112 8.87891,-2.4336 v 0.006 c -2.953,0.82861 -5.90636,1.61821 -8.85937,2.42774 v 96.43554 c 2.95379,-1.61942 5.90707,-3.21894 8.88085,-4.85937 2.96017,-1.64482 5.91875,-3.31055 8.87891,-5.05859 v -91.49024 -91.49219 c 0,-34.25749 -8.36224,-62.20816 -22.45703,-84.873045 C 601.87981,65.621712 582.05173,48.265724 559.07812,35.195312 536.10367,22.10392 510.00317,13.321305 483.38672,7.7851563 456.74941,2.2699879 429.59348,0 404.5293,0 Z m 216.14258,366.03906 c -0.006,0.003 -0.0132,0.006 -0.0195,0.01 h 0.0195 z M 435.62109,19.164062 c 4.98059,0.404025 10.23811,0.925223 15.70313,1.59375 -5.46502,-0.668183 -10.72254,-1.189675 -15.70313,-1.59375 z M 459.66797,21.875 c -0.22533,1.268858 -0.5581,2.662807 -0.95117,4.140626 -13.86717,-1.925421 -26.6842,-2.87502 -37.39844,-3.316408 10.71424,0.440699 23.53127,1.388889 37.39844,3.316407 0.39224,-1.477817 0.725,-2.871767 0.95117,-4.140625 z m -38.79102,5.326171 c 6.26818,0.280233 13.28106,0.74808 20.82032,1.496094 5.02617,0.498677 10.2871,1.122395 15.71484,1.898438 -5.42774,-0.775204 -10.68867,-1.399919 -15.71484,-1.898438 -7.53926,-0.747779 -14.55214,-1.215447 -20.82032,-1.496094 z m 27.41602,6.890625 c 2.55856,0.319174 5.16524,0.670404 7.81445,1.060547 21.23524,3.142775 45.0997,8.679463 67.49414,18.294922 22.39527,9.594481 43.31964,23.266984 58.65625,42.664063 0.003,-0.0023 0.006,-0.0055 0.01,-0.0078 14.35323,18.182982 23.79724,41.394532 24.92187,71.005862 C 604.85741,105.91233 566.98695,72.054905 523.60156,53.447265 498.40782,42.641674 471.34779,36.978338 448.29297,34.091796 Z m 110.45312,1.373047 c -0.64122,0.437397 -1.70803,0.815371 -3.05664,1.154297 1.34861,-0.339098 2.41542,-0.716839 3.05664,-1.154297 z m -13.41211,2.873047 c -2.29742,0.31155 -4.59682,0.624443 -6.65234,0.970703 2.05552,-0.34621 4.35492,-0.658524 6.65234,-0.970703 z m -8.61718,1.328125 c -1.24318,0.248559 -2.342,0.517405 -3.22071,0.816406 0.87871,-0.29887 1.97753,-0.567953 3.22071,-0.816406 z m 65.35156,44.464844 c 0.9941,1.327849 1.96679,2.677633 2.91602,4.050781 0,0 -0.002,0 -0.002,0 -0.94902,-1.372825 -1.92019,-2.723235 -2.91406,-4.050781 z m -3.23047,3.736328 c 0.95207,0.02255 1.95863,0.06849 2.99219,0.125 -3.10067,-0.167575 -5.95756,-0.23245 -7.83594,0.107422 14.78402,19.318491 24.6685,43.886611 26.38867,75.146491 -1.72348,-31.24974 -11.608,-55.8109 -26.38867,-75.125006 -1.23804,0.250991 -2.51692,0.911452 -3.81641,1.802735 -0.004,-0.0047 -0.008,-0.0089 -0.0117,-0.01367 1.30358,-0.895418 2.5863,-1.560468 3.82812,-1.810547 1.25225,-0.230778 2.93961,-0.277529 4.84375,-0.232422 z m -11.29492,23.496093 c 0.72094,1.25572 1.42111,2.53072 2.09765,3.82813 -0.67631,-1.29702 -1.37698,-2.57276 -2.09765,-3.82813 z m 11.51953,28.93946 c 0.58115,2.35952 1.09615,4.77573 1.54883,7.24218 -0.45285,-2.46715 -0.96743,-4.88199 -1.54883,-7.24218 z" />
    <path
       id="path1257"
       style="display:inline;opacity:1;fill:#0066ff;fill-opacity:1;fill-rule:nonzero;stroke:none;stroke-width:8.3687"
       d="m 0,289.40235 v 467.58007 h 0.00390625 c 0,2.69045 0.25015433,5.33004 0.76757813,7.86524 0.51492022,2.5352 1.28640852,4.99287 2.26367182,7.34766 1.9812325,4.65666 4.8116138,8.87517 8.3359378,12.41992 3.525158,3.5439 7.718186,6.38862 12.375,8.38086 2.34176,0.98354 4.78657,1.75704 7.308594,2.27734 5.8e-5,-0.001 -5.9e-5,-0.003 0,-0.004 2.54706,0.5203 5.171239,0.80664 7.847656,0.80664 H 599.48047 c 21.48393,0 38.95312,-17.51645 38.95312,-39.09375 V 356.20508 c -5.91782,3.44069 -11.8623,6.62317 -17.77929,9.85742 v -0.0273 c -1.49219,0.8308 -2.98486,1.62937 -4.45118,2.43164 v 0.0273 c -1.49217,0.80563 -2.98485,1.60398 -4.45117,2.40625 -1.49218,0.80562 -2.98486,1.57665 -4.45117,2.37891 v 0.0254 c -1.49218,0.77206 -2.95752,1.55249 -4.42383,2.30273 v -0.0254 C 484.57551,437.05282 366.17069,464.5071 265.98242,464.34766 163.53084,464.19241 80.170257,435.1908 35.556641,383.96485 c -0.874613,-0.98353 -1.724005,-1.99241 -2.546875,-3.00196 -0.826209,-1.0087 -1.647478,-2.01779 -2.445313,-3.02734 0,108.0921 0.542969,270.95477 0.542969,379.04687 h -0.002 c 0,-108.0921 -0.542969,-270.95477 -0.542969,-379.04687 -1.593662,-2.04086 -3.134565,-4.10788 -4.625,-6.22656 0,-0.002 0,-0.005 0,-0.008 -1.493018,-2.09546 -2.907822,-4.24334 -4.271484,-6.41601 0,117.794 0.542968,273.90327 0.542968,391.69726 h -0.0039 c 0,0 0,-0.002 0,-0.002 h -0.002 c -6e-6,-117.79378 -0.542969,-273.90192 -0.542969,-391.69531 -0.666886,-1.08552 -1.335743,-2.1698 -1.978515,-3.28125 0,-10e-4 0,-0.003 0,-0.004 -0.667644,-1.08592 -1.286247,-2.19973 -1.929688,-3.3125 -2.855758,-5.14812 -5.376518,-10.4255 -7.589756,-15.88444 C 7.9755761,337.36981 6.0976522,331.75578 4.6054688,325.98633 3.0874141,320.21689 1.930166,314.29284 1.1582031,308.21289 0.39041293,302.10777 0,295.84482 0,289.40235 Z m 616.20312,467.55468 h 4.45118 v 0.0254 h -4.42578 z M 17.75,756.98242 h 0.002 2.238281 0.002 c 0,0 0,0.002 0,0.002 h -2.236329 c 0,0.74748 0.04142,1.4887 0.119141,2.22265 -0.07888,-0.7347 -0.125,-1.47636 -0.125,-2.22461 z m 17.806641,0 c 0,0.22963 0.02394,0.45505 0.06836,0.67188 0.133071,0.64957 0.455748,1.23032 0.908203,1.68359 -0.461723,-0.44547 -0.777323,-1.03627 -0.908203,-1.68359 -0.04418,-0.21849 -0.06836,-0.44337 -0.06836,-0.67188 z m 571.716799,0 h 0.0254 c -0.0215,3.38634 -4.40551,7.81446 -7.79297,7.81446 v -0.002 c 3.384,-0.0217 7.74612,-4.43449 7.76758,-7.8125 z m -573.783206,0.89454 c 0.09471,0.3084 0.232014,0.62412 0.404297,0.93945 -0.172127,-0.31533 -0.309783,-0.63105 -0.404297,-0.93945 z m 3.060547,1.47656 c 0.603453,0.59616 1.432692,0.9668 2.351563,0.9668 -0.917887,0 -1.760615,-0.35457 -2.351563,-0.9668 z m -9.482422,0.69726 c 0.153183,0.58287 0.334522,1.15213 0.564453,1.69141 h -0.0039 c -0.228913,-0.53689 -0.409446,-1.10879 -0.560547,-1.69141 z m -4.55664,0.55469 c 0.06848,0.38512 0.159958,0.75002 0.246093,1.11914 -0.08578,-0.36727 -0.177423,-0.73018 -0.246093,-1.11328 -0.719585,0.17608 -1.441111,0.30948 -2.158203,0.41016 -3.41e-4,-0.002 3.4e-4,-0.004 0,-0.006 0.719589,-0.10066 1.441118,-0.2257 2.158203,-0.41016 z m -2.160157,0.41406 c -0.721055,0.13427 -1.444392,0.23438 -2.162109,0.23438 0.720221,-0.0252 1.444392,-0.1085 2.162109,-0.23438 z m -2.1875,0.0879 c 0.0094,0.048 0.01566,0.0966 0.02539,0.14454 -0.0013,4e-5 -0.0026,-5e-5 -0.0039,0 -0.0094,-0.0477 -0.01235,-0.0968 -0.02148,-0.14454 z m -4.296874,0.76563 c 0.269769,1.20277 0.641863,2.40487 1.103515,3.56445 -0.462082,-1.15958 -0.834372,-2.36168 -1.103515,-3.56445 z m 0,0 c -1.440685,0.33302 -2.930754,0.75301 -4.3964849,1.16406 1.4657309,-0.4169 2.9557999,-0.82853 4.3964849,-1.16406 z m 19.863281,0.28516 c 0.578579,0.57204 1.210819,1.08695 1.865234,1.50585 -0.652126,-0.41363 -1.289392,-0.92052 -1.865234,-1.50585 z m -10.820313,0.22265 c 0.139366,0.51604 0.294757,1.01974 0.476563,1.50977 0,0 -0.002,0 -0.002,0 -1.309467,0.59901 -2.593933,1.0662 -3.810547,1.31054 0.576514,-0.12993 1.18668,-0.29111 1.779297,-0.50781 0,0 0,0.002 0,0.002 0.668771,-0.23478 1.339166,-0.49452 2.03125,-0.80469 -0.180839,-0.49011 -0.335441,-0.99363 -0.47461,-1.50977 z M 9.46875,763.03711 c 0.4114353,1.96622 1.005294,3.85504 1.748047,5.66602 1.441276,-0.75024 2.856561,-1.5001 4.246094,-2.1211 -1.389533,0.62017 -2.804818,1.37422 -4.246094,2.1211 -0.746091,-1.81098 -1.3391153,-3.6998 -1.748047,-5.66602 z m 24.671875,5.27735 c 1.466312,0.62184 3.089271,0.95703 4.761719,0.95703 v 0.002 c -0.823706,0 -1.669531,-0.0749 -2.470703,-0.23438 v -0.002 c -0.797834,-0.17623 -1.5733,-0.41215 -2.291016,-0.72265 z m -6.230469,1.89648 c 1.207275,0.97784 2.577585,1.76232 4.121094,2.34766 -1.543509,-0.58219 -2.913819,-1.36883 -4.121094,-2.34766 z m -20.9121091,0.63867 c -1.0227466,0.46827 -2.0317415,0.85971 -3.0039063,1.125 0.9721648,-0.26584 1.9811597,-0.65925 3.0039063,-1.125 z m 16.9550781,1.13867 c -1.467147,1.47446 -3.884676,3.88052 -6.277344,6.3125 1.184233,-1.21599 2.391909,-2.43081 3.472657,-3.51757 1.106619,-1.08591 2.061933,-2.04805 2.804687,-2.79493 z m 11.320313,1.44922 c 1.157526,0.2098 2.367894,0.31055 3.628906,0.31055 v 0.004 c -1.261012,0 -2.471379,-0.10075 -3.628906,-0.31055 -0.308647,1.47464 -0.533638,2.92109 -0.617188,4.34375 0.05003,-1.42205 0.308755,-2.86977 0.617188,-4.34375 2.65e-4,-10e-4 -2.66e-4,-0.003 0,-0.004 z m 564.207032,0.31055 h 0.0254 v 4.47656 c -0.009,10e-6 -0.0169,0 -0.0254,0 z m -569.015626,3.75 c -0.452599,1.6179 -1.247196,3.35219 -2.140625,5.12695 0.892777,-1.77476 1.686885,-3.50905 2.140625,-5.12695 z m -4.351563,9.41601 c -0.897667,1.77457 -1.699348,3.50917 -2.144531,5.12696 0.443756,-1.61779 1.246049,-3.35239 2.144531,-5.12696 z" />
    <g
       id="g1806"
       style="opacity:1"
       transform="translate(0,0.0234375)">
      <path
         d="M 586.53578,162.6472 C 561.04256,37.779998 319.8205,29.875735 164.31111,125.00601 v 10.50651 c 155.34231,-80.268438 375.62315,-79.768783 395.73332,35.24799 6.71992,38.09502 -14.6173,77.72762 -52.71806,100.49397 v 29.88781 c 45.85978,-16.90627 92.89686,-71.5531 79.20941,-138.49509 z M 303.8871,381.21378 c -107.34299,9.96951 -219.127392,-5.6998 -234.747248,-89.98746 -7.709615,-41.52984 11.13713,-85.5749 36.133288,-112.94263 v -14.6287 C 60.256603,203.32862 35.85982,253.49542 49.910046,312.77181 67.889105,388.8067 163.84702,431.85623 310.33829,417.55581 368.32055,411.9172 444.14818,393.15044 496.8987,364.04064 v -41.32029 c -47.90168,28.65512 -127.03322,52.37572 -193.0116,58.49343"
         style="fill:#127bca;fill-opacity:1;fill-rule:nonzero;stroke:none;stroke-width:8.3687"
         id="path1427" />
      <path
         d="M 488.20673,144.49859 H 460.1097 v 125.85443 c 0,14.79982 7.1064,27.63819 28.09703,29.67474 V 144.49859"
         style="fill:#127bca;fill-opacity:1;fill-rule:nonzero;stroke:none;stroke-width:8.3687"
         id="path1429" />
      <path
         d="m 153.22765,190.4654 h -28.14202 v 82.2392 c 0,14.79235 7.10298,27.6345 28.14202,29.67542 V 190.4654"
         style="fill:#127bca;fill-opacity:1;fill-rule:nonzero;stroke:none;stroke-width:8.3687"
         id="path1431" />
      <path
         d="M 125.08563,148.32195 V 175.104 h 28.09261 v -26.78205 h -28.09261"
         style="fill:#127bca;fill-opacity:1;fill-rule:nonzero;stroke:none;stroke-width:8.3687"
         id="path1433" />
      <path
         d="m 321.7197,301.06828 c -22.73919,0 -32.3798,-15.91544 -32.3798,-31.62495 V 160.24191 h 27.85651 v 30.22349 h 21.00248 v 22.62705 h -21.00248 v 54.63398 c 0,6.43333 3.06799,9.96138 9.68167,9.96138 h 11.32081 v 23.38047 H 321.7197"
         style="fill:#127bca;fill-opacity:1;fill-rule:nonzero;stroke:none;stroke-width:8.3687"
         id="path1435" />
      <path
         d="m 395.70462,211.76484 c -9.51125,0 -16.88287,4.93789 -19.93066,11.61291 -1.87015,4.00387 -2.51451,7.08118 -2.74226,12.01471 h 42.99099 c -0.55398,-12.03905 -5.98609,-23.62762 -20.31807,-23.62762 z M 373.0317,254.5032 c 0,14.32501 8.93641,24.88892 24.73127,24.88892 12.39964,0 18.49606,-3.44581 25.64319,-10.56391 l 17.13933,16.5549 c -10.94527,10.93626 -22.55476,17.57847 -42.97889,17.57847 -26.73153,0 -52.30228,-14.63643 -52.30228,-57.29255 0,-36.47698 22.31507,-57.08417 51.63806,-57.08417 29.78859,0 46.89929,24.13524 46.89929,55.79366 V 254.5032 H 373.0317"
         style="fill:#127bca;fill-opacity:1;fill-rule:nonzero;stroke:none;stroke-width:8.3687"
         id="path1437" />
      <path
         d="m 229.0102,213.09245 c 8.15352,0 11.56835,4.07352 11.56835,10.63331 v 77.48182 h 27.90158 v -77.59989 c 0,-15.72738 -8.37459,-33.10973 -32.84048,-33.10973 l -57.6158,-0.0327 v 110.74218 h 27.88889 v -88.11513 h 23.09746"
         style="fill:#127bca;fill-opacity:1;fill-rule:nonzero;stroke:none;stroke-width:8.3687"
         id="path1439" />
      <path
         d="m 520.69585,152.83344 c 0,-1.35689 -0.76169,-1.83195 -2.59938,-1.83195 -0.20789,0 -0.81461,0 -1.25117,0 -0.2078,0 -0.41569,0 -0.48479,0 v 3.91323 c 0.27699,0 1.52807,0.0453 1.73596,0.0453 1.86589,0 2.59938,-0.60254 2.59938,-1.8808 z m 2.77164,9.63728 h -2.07795 c -0.20856,0 -0.36712,-0.14778 -0.43656,-0.31117 l -2.85651,-4.83131 c -0.0325,-0.0697 -0.28133,-0.19646 -0.39909,-0.19646 0,0 -0.46468,0 -0.8111,0 -0.2078,0 -0.3672,0 -0.45667,0 v 4.81881 c 0,0.25436 -0.20346,0.52013 -0.48053,0.52013 h -1.87441 c -0.27708,0 -0.48488,-0.26577 -0.48488,-0.52013 v -12.14554 c 0,-0.73379 0.2487,-1.02063 0.90057,-1.10203 0.59495,-0.0696 2.39592,-0.15189 3.39822,-0.15189 3.47993,0 5.54228,1.04488 5.54228,4.28231 v 0.2458 c 0,1.99912 -1.02325,3.06506 -2.52712,3.60953 l 2.93855,5.01602 c 0.0409,0.0696 0.0734,0.20023 0.0734,0.33979 0,0.20896 -0.12276,0.42614 -0.44824,0.42614 z m -4.95975,-16.09159 c -5.12575,0 -9.27858,4.20444 -9.27858,9.34717 0,5.15432 4.15283,9.32158 9.27858,9.32158 5.12683,0 9.32372,-4.16726 9.32372,-9.32158 0,-5.14273 -4.19689,-9.34717 -9.32372,-9.34717 z m 0,20.61156 c -6.1939,0 -11.18137,-5.0401 -11.18137,-11.26439 0,-6.2002 4.98747,-11.22771 11.18137,-11.22771 6.18571,0 11.22317,5.02751 11.22317,11.22771 0,6.22429 -5.03746,11.26439 -11.22317,11.26439"
         style="fill:#127bca;fill-opacity:1;fill-rule:nonzero;stroke:none;stroke-width:8.3687"
         id="path1441" />
    </g>
    <g
       id="g1924"
       style="opacity:1;fill:#ffffff">
      <path
         id="path8414"
         style="fill:#ffffff;fill-opacity:1;fill-rule:nonzero;stroke:none;stroke-width:5.29998"
         d="m 563.0668,532.84539 v 21.06211 h -4.04919 v -21.06211 h -7.60016 v -3.25417 h 19.29191 v 3.25417 z m 35.24484,21.06211 v -20.19821 h -0.11661 l -7.93406,20.19821 h -2.54928 l -7.96056,-20.19821 h -0.17491 v 20.19821 h -3.96969 v -24.31628 h 6.20098 l 7.27156,18.47571 7.17088,-18.47571 h 6.11616 v 24.31628 z" />
      <path
         id="path8426"
         style="fill:#ffffff;fill-opacity:1;fill-rule:nonzero;stroke:none;stroke-width:8.31213"
         d="m 107.65449,578.09308 v 0.58186 l -17.147939,97.31849 c -0.207804,1.01409 -0.723147,2.00324 -1.579304,2.72638 -0.989147,0.79796 -1.928418,1.18034 -3.00068,1.18034 H 68.845122 c -0.797962,0 -1.579304,-0.29924 -2.102966,-0.92266 -0.473804,-0.73146 -0.856156,-1.3715 -0.856156,-2.22765 v -0.75641 l 17.27263,-97.31849 c 0.207805,-1.16371 0.598476,-1.96998 1.396438,-2.72638 0.781342,-0.66497 1.77879,-1.0307 2.784556,-1.0307 h 17.073126 c 2.1861,0 3.24174,1.0307 3.24174,3.17522 m 7.28974,-37.75372 v 0.51534 l -2.97574,16.36661 c -0.19948,1.19694 -0.79796,1.9949 -1.61256,2.70145 -0.79796,0.68991 -1.78711,1.07226 -2.70144,1.07226 H 89.500785 c -0.789661,0 -1.562685,-0.3408 -2.310771,-0.8811 -0.664971,-0.57353 -1.055642,-1.305 -1.055642,-2.25257 v -0.64004 l 3.042237,-16.36661 c 0.132991,-0.98913 0.731466,-1.87022 1.720614,-2.63495 0.81458,-0.73146 1.803728,-1.13875 2.784574,-1.13875 h 18.087213 c 2.03647,0 3.17522,1.04732 3.17522,3.25836" />
      <path
         id="path8430"
         style="fill:#ffffff;fill-opacity:1;fill-rule:nonzero;stroke:none;stroke-width:8.31213"
         d="m 198.9473,676.02087 c -0.19118,1.04732 -0.79796,1.96998 -1.56268,2.78457 -0.97251,0.77303 -1.80373,1.11382 -2.94249,1.11382 h -17.13964 c -2.00321,0 -2.98406,-1.07226 -2.98406,-3.19186 v -0.70653 l 10.59798,-60.57885 c 0.51537,-2.40222 0.78967,-4.93742 0.78967,-7.44767 0,-4.62986 -1.26345,-8.02122 -3.84022,-10.23225 -2.50196,-2.1861 -6.68295,-3.34148 -12.31028,-3.34148 -5.1452,0 -11.32113,0.66497 -18.08721,1.99492 l -14.08906,79.60533 c -0.133,1.04732 -0.6151,1.96998 -1.61257,2.78457 -0.78964,0.77303 -1.77049,1.11382 -2.76793,1.11382 h -17.06483 c -2.01983,0 -3.00898,-1.07226 -3.00898,-3.19186 v -0.70653 l 16.49959,-93.91884 c 0.2743,-1.82035 1.77879,-3.02562 4.23919,-3.69059 6.28398,-1.67074 12.82562,-2.89263 19.866,-3.66565 6.94895,-0.78966 13.71503,-1.18032 20.25669,-1.18032 12.65107,0 21.97729,2.72638 27.75422,8.00458 5.8185,5.25327 8.72774,13.12487 8.72774,23.53167 0,3.08379 -0.40729,7.53079 -1.19695,13.14979 z" />
      <path
         id="path8434"
         style="fill:#ffffff;fill-opacity:1;fill-rule:nonzero;stroke:none;stroke-width:8.31213"
         d="m 253.85863,681.3822 c -6.54166,0 -12.65939,-0.66497 -18.2119,-1.99492 -5.56082,-1.3715 -10.32367,-2.9425 -14.28856,-4.72129 -2.07804,-1.04732 -3.06717,-2.21104 -3.06717,-3.4994 0,-0.12479 0,-0.31588 0.0666,-0.51537 0,-0.18286 0.12459,-0.46548 0.12459,-0.87277 l 1.80375,-10.53979 c 0.20781,-1.0889 0.47379,-1.90348 0.84784,-2.44376 0.5486,-0.44886 1.12214,-0.78966 1.9201,-0.78966 0.59847,0 1.07226,0.14959 1.47955,0.19119 4.07296,1.13875 7.53081,1.97827 10.24887,2.57675 2.63494,0.7481 5.74369,1.26344 8.94386,1.73725 3.39135,0.44885 6.60815,0.74808 10.1325,0.74808 4.95403,0 8.94386,-0.74808 11.72842,-2.21103 2.76795,-1.45462 4.13945,-4.16438 4.13945,-8.14589 0,-3.09211 -1.96998,-6.05123 -6.13437,-9.05191 l -22.65057,-15.57696 c -3.77371,-2.70144 -6.66634,-5.94318 -8.87735,-9.84157 -2.16948,-3.86514 -3.22513,-8.02951 -3.22513,-12.40171 0,-7.66378 1.84531,-13.77321 5.75202,-18.27838 3.78202,-4.48025 8.53655,-7.65548 14.50468,-9.44259 5.74367,-1.79542 12.11909,-2.74301 18.93504,-2.74301 6.47515,0 12.44327,0.68991 18.06228,1.87024 5.56081,1.23851 10.53978,2.85105 14.82885,4.6548 2.07803,0.89771 3.19186,2.01153 3.19186,3.49108 0,0.49874 -0.13299,0.90603 -0.19118,1.37152 l -1.99491,10.79747 c -0.1496,2.03647 -1.19696,3.19184 -2.98406,3.19184 -0.58184,0 -1.11382,-0.16619 -1.38812,-0.2078 -11.32945,-3.34978 -21.04634,-5.02053 -29.00105,-5.02053 -9.87482,0 -14.69586,2.85107 -14.69586,8.52825 0,2.51859 1.77879,5.07041 5.41952,7.62224 l 21.86091,14.90366 c 5.17014,3.49941 8.73606,7.14844 10.72266,10.92214 2.00323,3.77372 2.99237,7.95472 2.99237,12.55134 0,7.52249 -1.85362,13.68178 -5.43614,18.66075 -3.70722,4.95404 -8.68618,8.64462 -14.91198,10.93876 -6.15097,2.33572 -13.09992,3.54098 -20.64734,3.54098" />
      <path
         id="path8438"
         style="fill:#ffffff;fill-opacity:1;fill-rule:nonzero;stroke:none;stroke-width:8.31213"
         d="m 351.04494,578.09308 v 0.58186 l -16.96508,97.31849 c -0.19118,1.01409 -0.79796,2.00324 -1.77879,2.72638 -0.79798,0.79796 -1.78711,1.18034 -2.79287,1.18034 H 312.327 c -0.81458,0 -1.47955,-0.29924 -2.07803,-0.92266 -0.58185,-0.73146 -0.93097,-1.3715 -0.93097,-2.22765 v -0.75641 l 17.23108,-97.31849 c 0.19116,-1.16371 0.66497,-1.96998 1.46293,-2.72638 0.92265,-0.66497 1.77049,-1.0307 2.78456,-1.0307 h 17.18119 c 2.01985,0 3.06718,1.0307 3.06718,3.17522 m 7.36456,-37.75372 v 0.51534 l -3.05056,16.36661 c -0.21612,1.19694 -0.60679,1.9949 -1.52113,2.70145 -0.88939,0.68991 -1.80373,1.07226 -2.79287,1.07226 h -18.08721 c -0.84784,0 -1.57931,-0.3408 -2.21934,-0.8811 -0.8229,-0.57353 -1.01409,-1.305 -1.01409,-2.25257 v -0.64004 l 2.98406,-16.36661 c 0.0666,-0.98913 0.64004,-1.87022 1.57931,-2.63495 0.86446,-0.73146 1.80373,-1.13875 2.79287,-1.13875 h 18.06228 c 2.1861,0 3.26668,1.04732 3.26668,3.25836" />
      <path
         id="path8442"
         style="fill:#ffffff;fill-opacity:1;fill-rule:nonzero;stroke:none;stroke-width:8.31213"
         d="m 463.0907,541.37006 v 0.57354 l -22.98305,129.6361 c -0.24938,1.43799 -0.84784,2.44376 -1.57931,3.09211 -0.64835,0.74809 -2.26091,1.34656 -4.42207,1.86192 -6.50008,1.67074 -13.06668,2.78456 -19.63326,3.64902 -6.40867,0.78966 -12.69263,1.18033 -18.52776,1.18033 -12.31857,0 -21.58661,-3.36641 -27.8041,-10.09094 -6.28397,-6.64139 -9.35115,-15.52708 -9.35115,-26.3744 0,-2.91757 0.22443,-6.37542 0.86446,-10.28213 l 2.52689,-14.22205 c 1.45463,-8.72776 3.58254,-15.98425 6.35048,-21.66143 2.78457,-5.81851 6.37541,-10.58137 10.81408,-14.38001 4.56337,-3.7737 9.65039,-6.47516 15.6102,-8.25395 5.75199,-1.65412 12.5347,-2.52689 20.05718,-2.52689 5.38627,0 11.13826,0.46548 17.48044,1.34658 l 5.9681,-32.97426 c 0.20781,-1.07226 0.59848,-1.95336 1.58762,-2.67651 0.78966,-0.73146 1.65412,-1.0972 2.59339,-1.0972 h 17.26431 c 0.58184,0 1.08058,0.108 1.62087,0.4156 0.44054,0.29923 0.83121,0.59847 1.17201,1.17201 0.19949,0.43223 0.39067,0.98915 0.39067,1.61256 m -34.15457,53.60498 c -2.98406,-0.40731 -5.91825,-0.77304 -8.88567,-0.96421 -2.85107,-0.21612 -5.82681,-0.29923 -8.59475,-0.29923 -5.17016,0 -9.54234,0.92263 -12.71758,2.85105 -3.39135,1.82036 -5.88499,4.69635 -7.68872,8.47007 -1.8453,3.82358 -3.24174,8.86073 -4.3722,15.36084 l -2.44376,14.22205 c -0.79796,4.43869 -1.13875,8.26227 -1.13875,11.53725 0,5.23664 1.20525,8.99374 3.7072,11.41257 2.60171,2.49363 6.76609,3.67397 12.72589,3.67397 7.73859,0 13.70671,-0.47381 18.07889,-1.26345 z" />
      <path
         id="path8446"
         style="fill:#ffffff;fill-opacity:1;fill-rule:nonzero;stroke:none;stroke-width:8.31213"
         d="m 503.67346,681.3822 c -6.0263,0 -11.53725,-0.77303 -16.3001,-2.38559 -4.77947,-1.47955 -8.81087,-3.92333 -12.37677,-7.14011 -3.51604,-3.19187 -6.17593,-7.16508 -7.95472,-11.81988 -1.80373,-4.62986 -2.79287,-10.01612 -2.79287,-16.00086 0,-4.18099 0.28261,-7.9381 0.98914,-11.11332 l 2.07803,-11.68687 c 2.92587,-16.89026 8.86075,-29.0426 17.61343,-36.47366 8.81917,-7.45599 20.65566,-11.19645 35.36814,-11.19645 11.91128,0 20.92164,3.54098 27.189,10.51486 6.17591,7.03207 9.36777,16.24191 9.36777,27.6046 0,3.15862 -0.42391,6.73284 -1.01408,10.68111 l -1.51281,8.95216 c -0.47379,3.16693 -2.06141,4.69636 -4.43867,4.69636 h -60.71186 c -0.59848,4.26413 -0.88108,6.8409 -0.88108,7.63054 0,5.4777 1.58762,9.65871 4.62986,12.50978 3.11705,2.78455 8.66956,4.23087 16.44141,4.23087 9.38439,0 20.45616,-1.9118 32.84125,-5.81849 0.31586,-0.17459 0.93927,-0.19119 1.71229,-0.19119 1.19696,0 1.83699,0.64003 1.83699,1.90348 0,0.47379 -0.0582,0.90603 -0.18287,1.28839 l -2.04479,11.90298 c -0.19116,1.18031 -0.59847,2.10297 -1.20525,2.76794 -0.59847,0.58184 -1.77049,1.31332 -3.68229,2.1944 -3.26666,1.305 -6.56658,2.4022 -9.82494,3.36641 -3.29991,0.85616 -7.27312,1.80375 -11.83649,2.51027 -4.63816,0.68991 -9.01034,1.07227 -13.30772,1.07227 m 28.91792,-70.07964 c 0,-5.36964 -1.3715,-9.44258 -4.15606,-12.22714 -2.79287,-2.89263 -6.75776,-4.28906 -11.92792,-4.28906 -13.24123,0 -21.26244,7.93807 -24.18001,23.6314 h 39.34135 c 0.59848,-2.78457 0.92264,-5.18678 0.92264,-7.1152" />
    </g>
  </g>
</svg>
