<?xml version="1.0" encoding="UTF-8" standalone="no"?>
<svg
   xmlns:dc="http://purl.org/dc/elements/1.1/"
   xmlns:cc="http://creativecommons.org/ns#"
   xmlns:rdf="http://www.w3.org/1999/02/22-rdf-syntax-ns#"
   xmlns:svg="http://www.w3.org/2000/svg"
   xmlns="http://www.w3.org/2000/svg"
   xmlns:sodipodi="http://sodipodi.sourceforge.net/DTD/sodipodi-0.dtd"
   xmlns:inkscape="http://www.inkscape.org/namespaces/inkscape"
   version="1.1"
   id="Layer_1"
   width="552.16406"
   height="751.15845"
   viewBox="0 0 552.16407 751.15843"
   overflow="visible"
   enable-background="new 0 0 543.813 640.976"
   xml:space="preserve"
   sodipodi:docname="Intel_Pentium_III_Xeon.svg"
   inkscape:version="1.0 (4035a4f, 2020-05-01)"><metadata
   id="metadata71"><rdf:RDF><cc:Work
       rdf:about=""><dc:format>image/svg+xml</dc:format><dc:type
         rdf:resource="http://purl.org/dc/dcmitype/StillImage" /><dc:title></dc:title></cc:Work></rdf:RDF></metadata><defs
   id="defs69" /><sodipodi:namedview
   inkscape:pagecheckerboard="true"
   inkscape:document-rotation="0"
   pagecolor="#ffffff"
   bordercolor="#666666"
   borderopacity="1"
   objecttolerance="10"
   gridtolerance="10"
   guidetolerance="10"
   inkscape:pageopacity="0"
   inkscape:pageshadow="2"
   inkscape:window-width="1440"
   inkscape:window-height="872"
   id="namedview67"
   showgrid="false"
   inkscape:zoom="0.56878801"
   inkscape:cx="437.26509"
   inkscape:cy="326.2151"
   inkscape:window-x="0"
   inkscape:window-y="28"
   inkscape:window-maximized="0"
   inkscape:current-layer="Layer_1" />
<g
   id="g64"
   transform="translate(8.3510908,-1.3142443e-4)">
	
	<path
   fill-rule="evenodd"
   clip-rule="evenodd"
   d="m 313.398,614.491 v -52.086 h 15.008 v 7.945 0 c 4.414,-6.18 8.828,-9.711 17.656,-8.828 7.063,0.883 9.711,3.531 13.242,7.945 4.414,-4.414 8.828,-8.828 20.305,-7.945 12.359,1.766 15.008,8.828 15.891,16.773 v 36.195 h -15.008 v -35.313 c -0.883,-4.414 -4.414,-5.297 -7.945,-6.18 -7.945,0 -10.594,6.18 -10.594,9.711 v 31.781 h -15.008 v -35.313 c 0,-3.531 -3.531,-6.18 -8.828,-6.18 -5.297,0 -9.711,3.531 -9.711,9.711 v 31.781 h -15.008 z"
   id="path4" />
	<path
   fill-rule="evenodd"
   clip-rule="evenodd"
   d="m 122.711,562.405 h 15.008 v 7.945 0 c 3.531,-5.297 8.828,-8.828 14.125,-8.828 13.242,0 22.953,5.297 22.953,18.539 v 34.43 h -15.008 v -30.898 c 0,-4.414 -0.883,-9.711 -11.475,-9.711 -8.83,0 -10.596,4.414 -10.596,7.945 v 32.664 H 122.71 v -52.086 z"
   id="path6" />
	<path
   fill-rule="evenodd"
   clip-rule="evenodd"
   d="m 300.156,614.491 h -15.008 v -6.18 0 c -4.414,6.18 -8.828,7.945 -14.125,7.945 -7.945,0.883 -22.07,-0.883 -22.07,-17.656 v -36.195 h 15.008 v 32.664 c 0,4.414 -0.883,9.711 10.594,9.711 8.828,-0.883 10.594,-5.297 10.594,-8.828 v -33.547 h 15.008 v 52.086 z"
   id="path8" />
	<path
   fill-rule="evenodd"
   clip-rule="evenodd"
   d="m 188.039,557.991 v -13.242 h 15.008 v 13.242 h 8.828 v 9.711 h -8.828 v 32.664 c 0,1.766 0,5.297 2.648,5.297 h 6.18 v 9.711 c -2.648,0.883 -5.295,1.766 -7.945,1.766 -1.766,0 -4.414,0 -6.18,-0.883 -5.297,-1.766 -9.711,-5.297 -9.711,-12.359 v -36.195 h -7.063 v -9.711 h 7.063 z"
   id="path10" />
	<path
   id="polygon12"
   style="clip-rule:evenodd;fill-rule:evenodd"
   d="m 220.703,562.405 h 15.008 v 52.086 h -15.008 z" />
	<path
   id="polygon14"
   style="clip-rule:evenodd;fill-rule:evenodd"
   d="m 220.703,544.749 h 15.008 v 13.242 h -15.008 z" />
	<path
   fill-rule="evenodd"
   clip-rule="evenodd"
   d="m 15.008,562.405 v 7.945 c 3.533,-4.414 7.063,-8.828 16.773,-8.828 10.594,0 22.953,9.711 22.953,29.133 0,15.008 -8.828,25.602 -24.719,25.602 -7.063,0 -11.475,-2.648 -15.008,-7.063 v 31.781 H 0 v -78.57 z m 0,27.367 c 0,8.828 4.414,15.891 12.359,15.891 7.945,0 12.359,-7.945 12.359,-15.891 0,-7.946 -3.531,-15.891 -12.359,-15.891 -8.826,10e-4 -12.359,7.946 -12.359,15.891 z"
   id="path16" />
	<path
   fill-rule="evenodd"
   clip-rule="evenodd"
   d="M 113.883,593.304 H 75.922 c 0.885,7.063 6.18,12.359 11.477,12.359 5.297,0 8.828,-1.766 11.477,-7.063 h 13.242 c -2.648,10.594 -12.359,17.656 -23.836,17.656 -15.889,0 -26.482,-13.242 -26.482,-26.484 0,-20.305 15.008,-28.25 26.482,-28.25 11.476,0 27.366,9.711 25.601,31.782 z M 87.398,572.116 c -7.063,0 -11.477,7.063 -11.477,10.594 h 23.836 c 10e-4,-3.531 -3.53,-10.594 -12.359,-10.594 z"
   id="path18" />
	<path
   id="polygon20"
   style="clip-rule:evenodd;fill:#61bb46;fill-rule:evenodd"
   d="m 461.711,611.843 18.539,-94.461 h -20.305 l -18.539,94.461 z" />
	<path
   id="polygon22"
   style="clip-rule:evenodd;fill-rule:evenodd"
   d="m 438.758,622.437 -3.531,18.539 h 20.304 l 3.532,-18.539 z" />
	<path
   id="polygon24"
   style="clip-rule:evenodd;fill:#61bb46;fill-rule:evenodd"
   d="m 493.492,611.843 18.539,-94.461 h -20.304 l -18.539,94.461 z" />
	<path
   id="polygon26"
   style="clip-rule:evenodd;fill-rule:evenodd"
   d="m 470.539,622.437 -3.531,18.539 h 20.305 l 3.531,-18.539 z" />
	<path
   id="polygon28"
   style="clip-rule:evenodd;fill:#61bb46;fill-rule:evenodd"
   d="m 524.391,611.843 19.422,-94.461 h -20.305 l -19.422,94.461 z" />
	<path
   id="polygon30"
   style="clip-rule:evenodd;fill-rule:evenodd"
   d="m 502.32,622.437 -3.531,18.539 h 20.305 l 3.531,-18.539 z" />
	<path
   fill-rule="evenodd"
   clip-rule="evenodd"
   fill="#007dc5"
   d="m 459.945,74.21 8.828,-60.031 c 0,0 -73.273,-26.484 -180.977,-7.061 C 180.977,26.54 100.641,90.103 66.211,123.649 31.781,157.195 -5.297,218.991 0.885,300.212 7.063,384.077 59.148,441.46 114.766,469.71 c 54.734,28.25 149.195,42.375 233.063,14.125 25.602,-8.828 129.773,-38.844 174.797,-138.602 38.844,-85.633 7.945,-156.258 7.945,-156.258 0,0 -33.548,-105.052 -161.555,-118.294 v 48.553 c 0,0 75.922,1.768 117.414,55.619 40.609,52.086 44.141,102.404 15.008,158.904 -10.594,20.305 -69.742,126.242 -240.125,133.305 -12.359,0.883 -129.773,6.18 -197.75,-74.156 -56.5,-66.211 -44.141,-120.063 -40.609,-138.6 0.883,-6.18 6.182,-21.188 10.596,-28.25 C 47.672,193.39 83.867,137.774 147.43,105.11 241.891,56.553 308.102,38.014 395.5,50.376 c 9.711,1.766 46.789,8.826 64.445,23.834 z m -83.867,25.602 c 0,-8.826 7.945,-16.771 16.773,-16.771 8.828,0 16.773,7.945 16.773,16.771 0,9.713 -7.945,16.775 -16.773,16.775 -8.828,0 -16.773,-7.063 -16.773,-16.775 z"
   id="path32" />
	<path
   fill-rule="evenodd"
   clip-rule="evenodd"
   fill="#007dc5"
   d="m 391.969,215.462 c 0,0 0,-0.885 0.883,-1.766 0.883,-0.883 1.766,-2.65 5.297,-3.531 5.297,-0.883 11.477,-1.768 19.422,3.531 v 0 c 0.883,0 0.883,0.881 1.766,0.881 0,0.885 0.883,2.648 0,5.299 0,5.297 -3.531,141.248 -3.531,141.248 v 0 c 0,0.883 0,0.883 0,0.883 -0.883,0.883 -1.766,1.766 -3.531,1.766 -2.648,0.883 -10.594,0 -11.477,-1.766 h -0.883 l -0.883,-0.883 c -0.883,-0.883 -0.883,-1.766 -0.883,-2.648 v -18.539 -0.883 c -0.883,0 -0.883,-0.883 -0.883,-0.883 -0.883,-0.883 -1.766,-0.883 -3.531,0.883 0,0.883 -2.648,3.531 -4.414,7.945 -2.648,3.531 -5.297,7.945 -7.945,10.594 0,0 -6.18,5.297 -13.242,2.648 0,0 0,-0.883 -0.883,-0.883 -1.766,-0.883 -2.648,-1.766 -4.414,-3.531 -2.648,-3.531 -6.18,-9.711 -7.063,-20.305 -1.766,-20.303 0.883,-51.201 13.242,-61.795 0,-0.885 0.883,-0.885 1.766,-2.648 0.883,-0.883 2.648,-1.768 4.414,-3.531 4.414,-3.533 10.594,-7.064 17.656,-7.947 0.883,0 0.883,-0.881 0.883,-0.881 l -1.766,-42.377 c 0,0 0,0 0,-0.881 z m 1.765,66.209 c -0.883,-1.766 -2.648,-1.766 -4.414,0.885 -0.883,0.883 -11.477,11.477 -12.359,40.607 0,0.883 0,2.648 0,5.297 0,2.649 0,5.297 0.883,6.18 0.883,0.883 3.531,0.883 7.945,-3.531 0.883,-1.766 1.766,-2.648 2.648,-3.531 1.766,-1.766 2.648,-2.648 3.531,-4.414 1.766,-2.648 2.648,-5.297 1.766,-9.709 l 0.883,-29.133 v -0.883 c 0,-0.883 -0.883,-1.768 -0.883,-1.768 z"
   id="path34" />
	<path
   fill-rule="evenodd"
   clip-rule="evenodd"
   fill="#007dc5"
   d="m 450.234,286.968 c -1.766,0.883 -2.648,1.768 -2.648,3.531 0,1.766 0,5.299 0,7.947 0,3.531 0,6.178 0.883,8.826 0,0 0,0 0,0.885 0.883,0 0.883,0.883 1.766,0.883 1.766,1.766 3.531,1.766 7.063,0.881 0,0 0,-0.881 0.883,-0.881 0.883,-0.883 1.766,-1.768 3.531,-2.648 1.766,-2.65 5.297,-5.297 6.18,-8.828 0.883,-0.883 5.297,-7.947 14.125,-1.766 0,0 0,0 0.883,0.883 0.883,0 1.766,0.883 1.766,1.766 1.766,1.766 1.766,4.412 0,8.826 -0.883,1.768 -1.766,3.533 -2.648,4.416 0,0.883 -0.883,1.766 -1.766,3.531 -1.766,2.646 -3.531,5.295 -7.063,7.943 -5.297,4.414 -13.242,7.945 -24.719,6.18 -0.883,0 -1.766,0 -4.414,-0.883 -1.766,-0.883 -5.297,-2.648 -7.945,-6.178 -6.18,-5.297 -11.477,-16.775 -10.594,-36.195 0,0 2.648,-37.961 18.539,-49.439 0,0 0.883,-0.881 1.766,-1.764 1.766,-0.885 3.531,-2.65 6.18,-3.533 5.297,-1.766 12.359,-3.529 20.305,0.883 15.008,7.064 8.828,25.604 6.18,32.666 -2.648,7.062 -10.594,20.305 -22.07,22.068 H 452 c 0,0 0,0 -0.883,0 z m 16.774,-31.78 c 0.883,-2.648 0.883,-6.182 -1.766,-7.947 0,0 -5.297,-1.766 -11.477,9.713 -5.297,14.125 -3.531,20.303 -3.531,20.303 0.883,0 0.883,0.885 0.883,0 0,0 10.594,-3.529 14.125,-15.889 0,-0.885 0.883,-2.648 1.766,-6.18 z"
   id="path36" />
	<path
   fill-rule="evenodd"
   clip-rule="evenodd"
   fill="#007dc5"
   d="m 347.828,280.79 c 0.883,0 0.883,0 0.883,0 0,0.881 0.883,1.766 0.883,1.766 0,1.766 -1.766,82.1 -1.766,82.1 0,0 0,5.297 -2.648,6.18 -3.531,0.883 -13.242,0.883 -15.891,-1.766 v 0 c -0.883,0 -0.883,-0.883 -1.766,-0.883 0,-0.883 -0.883,-1.766 -0.883,-3.531 l -2.648,-88.279 14.125,-0.885 z"
   id="path38" />
	<path
   fill-rule="evenodd"
   clip-rule="evenodd"
   fill="#007dc5"
   d="m 314.281,284.321 c 0.883,0 0.883,0 0.883,0 0,0.883 0,1.766 0,1.766 0,1.764 -0.883,2.648 -1.766,4.412 -0.883,0.885 -1.766,1.766 -3.531,4.414 -1.766,1.768 -3.531,4.416 -6.18,7.064 -4.414,6.18 -7.945,11.477 -10.594,13.242 v 0 c -0.883,0.881 -0.883,0.881 -0.883,0.881 0,0.885 -0.883,1.766 -0.883,3.533 0,1.766 0.883,3.529 2.648,4.412 4.414,1.766 16.773,10.594 22.07,22.07 0,0 0.883,0.883 0.883,1.766 0,0.883 0.883,2.648 0.883,4.414 0,4.414 0,9.711 -2.648,15.008 -3.531,5.297 -7.945,12.359 -12.359,17.656 -3.531,5.297 -7.063,9.711 -7.063,10.594 -0.883,0 -8.828,6.18 -15.008,1.766 0,0 -0.883,-0.883 -1.766,-0.883 -0.883,-0.883 -1.766,-1.766 -3.529,-3.531 -1.768,-1.766 -3.533,-5.297 0,-9.711 l 18.537,-26.484 c 0,-0.883 0.883,-1.766 1.766,-3.531 0.883,-1.765 0.883,-4.414 -1.766,-6.18 -4.414,-3.531 -22.953,-23.836 -22.953,-24.717 v -0.883 h -0.883 c 0,0 0,-0.885 -0.883,-0.885 0,-1.766 -0.883,-2.648 -0.883,-4.414 -1.766,-2.646 -1.766,-7.061 0.883,-10.594 3.531,-5.295 7.945,-12.359 13.242,-18.539 4.414,-6.178 10.594,-11.477 16.773,-14.125 0,0 0.883,0 2.648,-0.881 1.766,0 3.531,-0.883 5.297,0 3.534,1.767 6.182,7.063 7.065,12.36 z"
   id="path40" />
	<path
   fill-rule="evenodd"
   clip-rule="evenodd"
   fill="#007dc5"
   d="m 224.234,326.694 v 0 c 0,0.883 0,0.883 0.883,0.883 0.883,0.883 1.766,0 2.648,-0.883 v 0 -0.883 c 0,0 0.883,-0.883 0.883,-1.766 0,-0.883 0.883,-3.531 1.766,-5.297 1.768,-4.412 4.416,-8.828 9.711,-9.709 0,0 14.125,-4.416 19.422,6.18 0,0.881 0,0.881 0.883,3.529 0.883,1.766 1.766,5.297 3.531,10.594 1.766,11.477 3.531,32.664 2.648,67.094 0,0 0,7.945 -4.414,9.711 0,0 0,0 -0.883,0 0,0 -0.883,0.883 -2.648,0.883 -1.765,0 -4.414,0 -7.945,-2.648 h -0.881 l -0.885,-0.883 c -0.883,-0.883 -2.648,-2.648 -2.648,-4.414 0,0 -5.297,-54.734 -6.18,-60.031 -0.883,-2.648 -1.766,-4.414 -3.531,-5.297 -1.764,-0.883 -3.531,-0.883 -4.412,1.766 0,0 -3.533,4.414 -6.182,10.594 -3.531,7.063 -6.18,15.008 -6.18,23.836 0.883,17.656 1.768,28.25 1.768,28.25 v 0 c 0,0.883 0,0.883 0,1.766 0,0.883 -0.885,1.766 -1.768,2.648 -2.646,1.766 -10.594,4.414 -15.891,1.766 0,0 0,0 -0.883,-0.883 0,0 0,0 -0.883,0 -0.883,-0.883 -1.766,-2.648 -1.766,-4.414 l -2.648,-94.461 h 26.484 v 22.069 z"
   id="path42" />
	<path
   fill-rule="evenodd"
   clip-rule="evenodd"
   fill="#007dc5"
   d="m 178.33,320.515 c -0.885,0 -1.768,0.885 -3.533,0 -2.648,-1.766 -12.359,-8.826 -12.359,-8.826 0,0 0,0 0,-0.883 -0.883,0 -0.883,0 -0.883,-0.885 -0.883,-0.881 -0.883,-1.764 0,-3.529 2.648,-3.533 8.828,-11.479 8.828,-12.359 0.883,-0.885 1.766,-1.768 3.533,0 2.646,0.881 14.123,8.826 14.123,8.826 0,0 0.883,0.883 0.883,1.766 0.883,0 0.883,1.768 0,2.648 -1.766,2.648 -9.711,12.361 -9.711,12.361 v 0 c -0.881,0.881 -0.881,0.881 -0.881,0.881 z"
   id="path44" />
	<path
   fill-rule="evenodd"
   clip-rule="evenodd"
   fill="#007dc5"
   d="m 185.391,331.108 v 0 c 0.883,0.883 0.883,1.766 0.883,1.766 0,1.766 -1.766,81.219 -1.766,81.219 0,0 0,5.297 -2.648,6.18 -3.529,0.883 -12.359,0.883 -15.008,-0.883 0,-0.883 -0.883,-0.883 -0.883,-0.883 -0.883,0 -0.883,-0.883 -1.766,-0.883 -0.881,-0.883 -1.766,-2.648 -1.766,-3.531 l -1.766,-87.398 h 14.125 z"
   id="path46" />
	
	<path
   fill-rule="evenodd"
   clip-rule="evenodd"
   fill="#007dc5"
   d="m 256.016,196.923 c -0.883,0 -2.648,0.881 -2.648,3.531 0,1.766 0,4.414 0,7.943 0,2.648 0,6.18 0.883,7.945 v 0.883 c 0.883,0.885 0.883,1.766 1.766,1.766 1.766,0.885 3.531,1.766 7.063,0 0,0 0,0 0.883,-0.881 0.883,0 1.766,-0.885 3.531,-1.768 2.648,-2.646 5.297,-5.297 6.18,-9.709 0.883,0 6.18,-7.063 14.125,-0.885 h 0.883 c 0.883,0.885 1.766,1.768 1.766,2.648 1.766,1.768 1.766,4.416 0,8.828 -0.883,1.766 -1.766,2.65 -1.766,4.414 -0.883,0.885 -1.766,1.766 -2.648,3.533 -1.766,2.648 -3.531,5.297 -6.18,7.061 -5.297,5.299 -13.242,8.83 -25.602,7.064 0,0 -1.766,0 -3.531,-0.883 -2.648,-1.768 -6.18,-3.531 -8.828,-6.182 -6.18,-6.178 -11.477,-16.771 -10.594,-36.193 0,0 2.648,-38.844 18.541,-49.438 0,0 0.881,-0.885 1.764,-1.768 1.766,-1.766 3.531,-2.646 6.18,-3.529 5.297,-2.648 12.359,-3.531 20.305,0 15.008,7.945 8.828,26.484 6.18,33.547 -2.648,6.18 -10.594,19.422 -22.07,22.07 h -4.414 c 0,0 0,0 -0.883,0 h -0.886 z m 16.773,-31.783 c 0.883,-2.648 0.883,-6.178 -1.766,-7.943 0,0 -5.297,-2.648 -10.594,9.711 -6.18,13.24 -3.531,20.303 -3.531,20.303 v 0 c 0,0 10.594,-3.529 14.125,-16.771 0.883,-0.002 1.766,-2.65 1.766,-5.3 z"
   id="path50" />
	<path
   fill-rule="evenodd"
   clip-rule="evenodd"
   fill="#007dc5"
   d="m 195.102,115.702 c 0.883,0 0.883,-0.883 0.883,-0.883 0,-0.881 0.883,-1.764 3.531,-1.764 h 18.539 c 0,0 5.297,0 5.297,5.297 0,6.18 -0.883,14.123 -0.883,14.123 0,0 0,0 0,0.885 0,0 0,0 0.883,0.883 0,0.881 0.883,0.881 2.648,0 2.648,-0.883 15.008,-5.297 15.008,-5.297 v 0 c 0.883,0 0.883,0 1.766,-0.885 1.766,0 2.648,0 4.414,1.766 2.65,2.648 1.766,7.947 1.766,7.947 0,0 0,2.648 -1.766,3.531 -2.648,1.764 -24.719,10.594 -24.719,10.594 v 0 l -1.766,110.35 v 0 c 0,0.885 0,0.885 0,0.885 0,0.881 -0.883,1.766 -1.766,2.648 0,0 -0.883,0 -1.764,0.881 -0.885,0.885 -2.65,1.768 -4.416,1.768 -2.648,0.881 -7.063,1.766 -11.477,-1.768 0,0 -3.531,-2.648 -3.531,-6.18 l -1.766,-96.225 c 0,0 0,-0.885 -0.883,0 l -22.07,8.826 c -1.766,-1.766 -15.008,-9.711 -15.008,-16.771 v 0 c 0,-0.883 0,-0.883 0,-0.883 0,-0.883 0,-0.883 0.883,-0.883 1.766,0 10.594,-3.531 19.424,-6.18 8.826,-2.65 17.654,-5.299 17.654,-5.299 v -0.881 -25.602 c 0.001,0.002 -0.881,0.002 -0.881,-0.883 z"
   id="path52" />
	<path
   fill-rule="evenodd"
   clip-rule="evenodd"
   fill="#007dc5"
   d="m 142.133,201.335 v 0 c 0.883,0 0.883,0.885 0.883,0.885 0,0 0.883,0 1.766,-0.885 0,0 0.885,-0.881 0.885,-2.646 0,-0.885 0.881,-2.648 1.764,-5.299 1.766,-3.529 5.297,-7.943 10.594,-9.709 0,0 0.883,-0.883 2.648,-0.883 0.883,0 3.531,0 5.297,0 4.414,0 7.947,1.766 10.594,5.295 0.883,0.883 1.768,3.533 3.531,7.064 2.648,7.943 7.063,27.367 4.414,75.039 0,0 0,1.766 0,3.531 -0.883,2.648 -1.766,5.297 -4.414,6.178 v 0 c 0,0 0,0 -0.883,0 -0.881,0.885 -1.766,0.885 -2.648,0.885 -1.766,0 -5.297,0 -8.828,-2.648 0,0 -3.531,-1.766 -4.412,-6.18 0,0 -5.299,-52.086 -6.182,-57.385 -1.766,-5.295 -5.297,-7.943 -7.061,-4.412 0,0 -2.65,4.412 -6.182,11.475 -2.648,6.182 -6.18,15.008 -5.297,22.953 0,17.656 0.883,26.486 0.883,26.486 0,0 0,0.883 0,1.764 0,1.766 -0.883,2.648 -1.766,3.533 -2.646,2.648 -10.594,4.414 -16.773,1.766 v 0 c -0.881,-0.885 -0.881,-0.885 -1.766,-1.766 -0.883,-0.885 -1.766,-1.768 -1.766,-4.414 l -2.648,-93.578 h 27.367 z"
   id="path54" />
	<path
   fill-rule="evenodd"
   clip-rule="evenodd"
   fill="#007dc5"
   d="m 104.172,222.524 c 0.885,0 0.885,0 0.885,0 0,0.881 0.881,0.881 0.881,1.766 0,1.766 -1.766,77.688 -1.766,77.688 0,0 0,1.764 -0.883,2.646 0,1.768 -0.883,2.648 -2.648,3.533 -2.648,0.883 -12.359,0.883 -15.008,-1.766 v 0 0 c -0.883,0 -0.883,0 -1.766,-0.885 0,0 -0.883,-1.766 -0.883,-3.529 L 81.218,218.991 94.46,218.11 Z"
   id="path56" />
	<path
   fill-rule="evenodd"
   clip-rule="evenodd"
   fill="#007dc5"
   d="m 92.695,208.397 v 0 c 0,0.885 0,0.885 -0.881,0.885 -0.885,0 -1.766,0 -2.65,-0.885 -1.766,-1.764 -11.477,-12.357 -12.357,-13.24 0,-0.883 -0.885,-0.883 -0.885,-1.768 0,-0.881 0.885,-0.881 0.885,-1.764 1.764,-0.885 12.357,-9.711 12.357,-9.711 0,0 0,0 0,-0.883 h 0.885 c 0.881,0 1.766,0 3.529,0.883 0.883,0.883 2.648,2.648 5.297,5.295 1.766,1.766 4.414,4.416 5.297,7.064 0.885,0 0.885,0.883 0.885,0.883 0.881,0.883 0.881,0.883 0,1.766 -0.885,0.881 -3.533,3.531 -7.064,6.178 -2.649,2.649 -5.298,5.297 -5.298,5.297 z"
   id="path58" />
	<path
   fill-rule="evenodd"
   clip-rule="evenodd"
   fill="#007dc5"
   d="m 333.703,243.71 c 0,-0.881 0.883,-0.881 0.883,-0.881 0,0 0,0 0.883,0 0.883,0 1.766,0 3.531,0.881 0,0.883 0.883,0.883 2.648,1.766 0.883,0.883 1.766,1.766 3.531,2.65 2.648,1.766 4.414,3.529 6.18,6.18 l 0.883,0.883 c 0,0 0,0 0,0.883 v 0.883 c -0.883,0.883 -3.531,4.414 -6.18,7.061 -2.648,2.648 -4.414,6.182 -4.414,6.182 -0.883,0 -2.648,1.766 -4.414,0 -2.648,-1.766 -12.359,-9.713 -13.242,-10.596 0,0 -0.883,-0.881 -0.883,-1.764 0.883,-0.883 0.883,-0.883 0.883,-1.766 0.883,0 3.531,-3.531 5.297,-7.064 2.649,-2.65 4.414,-5.298 4.414,-5.298 z"
   id="path60" />
	<path
   fill-rule="evenodd"
   clip-rule="evenodd"
   fill="#007dc5"
   d="m 291.328,82.157 c 0,-2.648 0,-4.414 4.414,-6.182 3.531,-0.881 15.008,-0.881 23.836,1.768 0,0 2.648,0.881 2.648,7.061 0,5.299 -0.883,141.252 -0.883,141.252 0,0 -1.766,6.178 -4.414,7.943 -1.766,0.885 -8.828,1.768 -11.477,0 0,0 -4.414,0 -4.414,-6.178 -0.882,-6.181 -9.71,-145.664 -9.71,-145.664 z"
   id="path62" />
</g>
<g
   aria-label="xeon"
   id="text75"
   style="font-size:120px;line-height:1.25;font-family:'Helvetica Medium';-inkscape-font-specification:'Helvetica Medium, '"
   transform="translate(8.3510908,-1.3142443e-4)"><path
     d="m 148.6073,697.34344 h 15.87891 l 14.82421,-22.4414 15.58594,22.4414 h 15.70313 l -23.20313,-32.87109 20.80078,-28.47656 h -15.46875 l -13.18359,18.98437 -12.71484,-18.98437 h -16.28907 l 20.80078,29.17969 z"
     id="path941" /><path
     d="m 266.38074,670.09735 q 0.23437,-1.58203 0.23437,-4.45312 0,-8.4375 -3.63281,-15.58594 -3.57422,-7.14844 -10.19531,-11.36719 -6.6211,-4.21875 -15.23438,-4.21875 -8.73047,0 -15.46875,4.39453 -6.73828,4.33594 -10.37109,11.71875 -3.57422,7.38281 -3.57422,16.17188 0,9.43359 3.51562,16.75781 3.51563,7.32422 10.25391,11.42578 6.79688,4.10156 16.11328,4.10156 10.19531,0 17.75391,-5.625 7.61719,-5.50781 9.90234,-15.29297 h -12.77344 q -3.39843,10.19532 -14.88281,10.19532 -5.33203,0 -9.02344,-2.46094 -3.6914,-2.51953 -5.50781,-6.67969 -1.75781,-4.16015 -1.75781,-9.08203 z m -44.64844,-8.96484 q 0.35156,-6.91407 4.6875,-11.42578 4.33594,-4.57032 11.13281,-4.57032 6.67969,0 10.83985,4.6875 4.21875,4.62891 4.57031,11.3086 z"
     id="path943" /><path
     d="m 301.94714,688.32001 q -5.39062,0 -9.3164,-3.04688 -3.92578,-3.04687 -5.91797,-8.02734 -1.99219,-4.98047 -1.99219,-10.48828 0,-5.56641 1.99219,-10.54688 1.99219,-4.98047 5.85937,-8.02734 3.92578,-3.04688 9.375,-3.04688 5.56641,0 9.49219,3.04688 3.92578,3.04687 5.91797,8.02734 1.99219,4.98047 1.99219,10.54688 0,5.50781 -1.99219,10.48828 -1.99219,4.98047 -5.97656,8.02734 -3.92578,3.04688 -9.4336,3.04688 z m 0,10.72265 q 9.55078,0 16.58203,-4.10156 7.03125,-4.16016 10.72266,-11.48437 3.75,-7.32422 3.75,-16.69922 0,-9.49219 -3.69141,-16.75782 -3.6914,-7.32421 -10.72265,-11.42578 -7.03125,-4.10156 -16.64063,-4.10156 -9.55078,0 -16.46484,4.10156 -6.91406,4.10157 -10.48828,11.42578 -3.69141,7.32422 -3.69141,16.75782 0,9.3164 3.69141,16.64062 3.57422,7.38281 10.48828,11.54297 6.97266,4.10156 16.46484,4.10156 z"
     id="path945" /><path
     d="m 342.43542,697.34344 v -61.34765 h 12.59766 l 0.23438,9.25781 q 2.87109,-5.15625 7.79296,-7.96875 4.98047,-2.8125 11.01563,-2.8125 10.07812,0 15.82031,5.33203 5.80078,5.27344 5.80078,15.52735 v 42.01171 h -13.30078 v -38.55468 q -0.17578,-7.20703 -3.16406,-10.42969 -2.98828,-3.22266 -9.08203,-3.22266 -6.38672,0 -10.42969,4.57032 -3.98437,4.51171 -3.98437,11.36718 v 36.26953 z"
     id="path947" /></g><path
   id="rect77"
   style="fill:#000000;stroke:#000000;stroke-width:0;stroke-miterlimit:4;stroke-dasharray:none"
   d="m 506.33974,666.97588 h 5.11107 v 78.02918 h -5.11107 z" /><g
   aria-label="P    R    O    C    E    S    S    O    R"
   id="text908"
   style="font-size:28px;line-height:1.25;font-family:'Helvetica Medium';-inkscape-font-specification:'Helvetica Medium, '"
   transform="translate(8.3510908,-1.3142443e-4)"><path
     d="m 0.99186707,713.21381 v 6.49414 H 6.0641327 q 1.3671875,0 2.3925781,-0.76563 1.0253906,-0.7793 1.0253906,-2.48828 0,-3.24023 -3.3359375,-3.24023 z m -3.36328127,16.93945 v -19.82422 h 8.6269531 q 2.5703125,0 4.0605471,0.9707 1.503906,0.95703 2.050781,2.35157 0.560547,1.39453 0.560547,2.85742 0,1.44922 -0.560547,2.83008 -0.546875,1.36718 -2.037109,2.31054 -1.4902347,0.94336 -4.0605472,0.94336 H 0.99186707 v 7.56055 z"
     id="path916" /><path
     d="m 47.859055,713.21381 v 6.15234 h 5.6875 q 1.613281,0 2.488281,-0.80664 0.875,-0.80664 0.875,-2.32422 0,-1.75 -0.916016,-2.37891 -0.916015,-0.64257 -2.501953,-0.64257 z m -3.363282,16.93945 v -19.82422 h 9.324219 q 3.171875,0 4.839844,1.4082 1.667969,1.40821 1.667969,3.99219 0,2.40625 -1.080079,3.51367 -0.58789,0.60157 -1.326171,1.06641 -0.738282,0.46484 -0.875,0.46484 1.189453,0.15039 2.064453,1.09375 0.888672,0.95703 0.888672,3.07617 0,0.0547 0,0.10938 0,4.01953 1.080078,5.09961 h -3.732422 q -0.492188,-0.82031 -0.492188,-2.88477 0,-1.92773 -0.328125,-3.0625 -0.328125,-1.13476 -1.175781,-1.68164 -0.833984,-0.54687 -2.392578,-0.54687 h -5.099609 v 8.17578 z"
     id="path918" /><path
     d="m 100.97429,709.90521 q -2.146485,0 -3.910157,0.80664 -1.75,0.80664 -2.994141,2.24219 -1.230469,1.43555 -1.886719,3.33594 -0.65625,1.88672 -0.65625,4.0332 0,2.0918 0.642578,3.96484 0.65625,1.87305 1.900391,3.3086 1.244141,1.42187 3.007813,2.21484 1.763671,0.79297 3.896485,0.79297 2.13281,0 3.89648,-0.79297 1.76368,-0.80664 2.99414,-2.21484 1.2168,-1.42188 1.85938,-3.28125 0.65625,-1.85938 0.65625,-3.99219 0,-2.17383 -0.65625,-4.06055 -0.64258,-1.88671 -1.87305,-3.30859 -1.21679,-1.43555 -2.98047,-2.24219 -1.75,-0.80664 -3.89648,-0.80664 z m 0,2.80274 q 1.44922,0 2.57031,0.6289 1.1211,0.61524 1.87305,1.70899 0.73828,1.08008 1.10742,2.44726 0.38281,1.35352 0.38281,2.80274 0,1.42187 -0.36914,2.77539 -0.38281,1.33984 -1.13476,2.43359 -0.75196,1.08008 -1.87305,1.70899 -1.12109,0.61523 -2.55664,0.61523 -1.927735,0 -3.308595,-1.06641 -1.380859,-1.0664 -2.078125,-2.80273 -0.697265,-1.73633 -0.697265,-3.66406 0,-1.43555 0.396484,-2.80274 0.396484,-1.36718 1.162109,-2.44726 0.765625,-1.08008 1.914063,-1.70899 1.148437,-0.6289 2.611329,-0.6289 z"
     id="path920" /><path
     d="m 159.05241,716.68646 q -0.17773,-2.09179 -1.3125,-3.62304 -1.13476,-1.54493 -2.95312,-2.35157 -1.81836,-0.80664 -3.99219,-0.80664 -2.16015,0 -3.91015,0.80664 -1.75,0.80664 -2.99415,2.24219 -1.23046,1.43555 -1.88671,3.33594 -0.65625,1.88672 -0.65625,4.0332 0,2.0918 0.64257,3.96484 0.65625,1.87305 1.90039,3.3086 1.24415,1.42187 2.99415,2.21484 1.76367,0.79297 3.91015,0.79297 1.73633,0 3.22656,-0.57422 1.50391,-0.57422 2.61133,-1.62695 1.10742,-1.06641 1.75,-2.5293 0.64258,-1.47656 0.72461,-3.22656 h -3.29492 q -0.15039,1.44922 -0.7793,2.63867 -0.61523,1.17578 -1.70898,1.85938 -1.08008,0.68359 -2.5293,0.68359 -1.9414,0 -3.32226,-1.06641 -1.36719,-1.0664 -2.06446,-2.80273 -0.69726,-1.73633 -0.69726,-3.66406 0,-1.95508 0.69726,-3.69141 0.69727,-1.75 2.06446,-2.81641 1.38086,-1.08007 3.32226,-1.08007 1.9961,0 3.17188,1.0664 1.17578,1.05274 1.72265,2.91211 z"
     id="path922" /><path
     d="m 191.18132,730.15326 v -19.82422 h 14.08203 v 3.04883 H 194.5446 v 5.18164 h 9.93945 v 2.83008 h -9.93945 v 5.79687 h 10.88281 v 2.9668 z"
     id="path924" /><path
     d="m 236.12077,723.53607 q 0.0547,2.36524 1.14844,3.96485 1.10742,1.58593 2.93945,2.35156 1.83204,0.75195 4.12891,0.75195 2.06445,0 3.8418,-0.64258 1.77734,-0.65625 2.85742,-2.03711 1.08008,-1.38086 1.08008,-3.45898 0,-1.05274 -0.41016,-2.06445 -0.41016,-1.02539 -1.25781,-1.81836 -0.84766,-0.80664 -2.06445,-1.2168 -0.51954,-0.15039 -3.04883,-0.80664 -2.51563,-0.64258 -2.63867,-0.69727 -2.37891,-0.61523 -2.37891,-2.55664 0,-1.35351 1.10742,-1.96875 1.10742,-0.6289 2.54297,-0.6289 1.2168,0 2.13281,0.36914 0.92969,0.35547 1.47656,1.13476 0.56055,0.7793 0.64258,2.02344 h 3.36328 q 0,-2.00977 -0.99804,-3.43164 -0.98438,-1.43555 -2.69336,-2.16016 -1.70899,-0.73828 -3.81446,-0.73828 -1.83203,0 -3.47265,0.65625 -1.64063,0.64258 -2.63867,1.96875 -0.99805,1.3125 -0.99805,3.19922 0,1.92774 0.95703,3.04883 0.9707,1.10742 2.31055,1.59961 1.3125,0.49219 3.5957,1.05273 2.2832,0.56055 3.24024,0.99805 1.65429,0.49219 1.65429,2.43359 0,0.75196 -0.4375,1.43555 -0.4375,0.66992 -1.38086,1.10742 -0.92968,0.42383 -2.35156,0.42383 -2.20117,0 -3.56836,-1.06641 -1.35351,-1.0664 -1.35351,-3.22656 z"
     id="path926" /><path
     d="m 282.93327,723.53607 q 0.0547,2.36524 1.14844,3.96485 1.10742,1.58593 2.93945,2.35156 1.83204,0.75195 4.12891,0.75195 2.06445,0 3.8418,-0.64258 1.77734,-0.65625 2.85742,-2.03711 1.08008,-1.38086 1.08008,-3.45898 0,-1.05274 -0.41016,-2.06445 -0.41016,-1.02539 -1.25781,-1.81836 -0.84766,-0.80664 -2.06445,-1.2168 -0.51954,-0.15039 -3.04883,-0.80664 -2.51563,-0.64258 -2.63867,-0.69727 -2.37891,-0.61523 -2.37891,-2.55664 0,-1.35351 1.10742,-1.96875 1.10742,-0.6289 2.54297,-0.6289 1.2168,0 2.13281,0.36914 0.92969,0.35547 1.47656,1.13476 0.56055,0.7793 0.64258,2.02344 h 3.36328 q 0,-2.00977 -0.99804,-3.43164 -0.98438,-1.43555 -2.69336,-2.16016 -1.70899,-0.73828 -3.81446,-0.73828 -1.83203,0 -3.47265,0.65625 -1.64063,0.64258 -2.63867,1.96875 -0.99805,1.3125 -0.99805,3.19922 0,1.92774 0.95703,3.04883 0.9707,1.10742 2.31055,1.59961 1.3125,0.49219 3.5957,1.05273 2.2832,0.56055 3.24024,0.99805 1.65429,0.49219 1.65429,2.43359 0,0.75196 -0.4375,1.43555 -0.4375,0.66992 -1.38086,1.10742 -0.92968,0.42383 -2.35156,0.42383 -2.20117,0 -3.56836,-1.06641 -1.35351,-1.0664 -1.35351,-3.22656 z"
     id="path928" /><path
     d="m 339.3571,709.90521 q -2.14648,0 -3.91015,0.80664 -1.75,0.80664 -2.99415,2.24219 -1.23046,1.43555 -1.88671,3.33594 -0.65625,1.88672 -0.65625,4.0332 0,2.0918 0.64257,3.96484 0.65625,1.87305 1.90039,3.3086 1.24415,1.42187 3.00782,2.21484 1.76367,0.79297 3.89648,0.79297 2.13281,0 3.89649,-0.79297 1.76367,-0.80664 2.99414,-2.21484 1.21679,-1.42188 1.85937,-3.28125 0.65625,-1.85938 0.65625,-3.99219 0,-2.17383 -0.65625,-4.06055 -0.64258,-1.88671 -1.87305,-3.30859 -1.21679,-1.43555 -2.98046,-2.24219 -1.75,-0.80664 -3.89649,-0.80664 z m 0,2.80274 q 1.44922,0 2.57031,0.6289 1.1211,0.61524 1.87305,1.70899 0.73828,1.08008 1.10742,2.44726 0.38282,1.35352 0.38282,2.80274 0,1.42187 -0.36915,2.77539 -0.38281,1.33984 -1.13476,2.43359 -0.75195,1.08008 -1.87305,1.70899 -1.12109,0.61523 -2.55664,0.61523 -1.92773,0 -3.30859,-1.06641 -1.38086,-1.0664 -2.07813,-2.80273 -0.69726,-1.73633 -0.69726,-3.66406 0,-1.43555 0.39648,-2.80274 0.39649,-1.36718 1.16211,-2.44726 0.76563,-1.08008 1.91406,-1.70899 1.14844,-0.6289 2.61133,-0.6289 z"
     id="path930" /><path
     d="m 384.0778,713.21381 v 6.15234 h 5.6875 q 1.61329,0 2.48829,-0.80664 0.875,-0.80664 0.875,-2.32422 0,-1.75 -0.91602,-2.37891 -0.91602,-0.64257 -2.50195,-0.64257 z m -3.36328,16.93945 v -19.82422 h 9.32422 q 3.17188,0 4.83985,1.4082 1.66796,1.40821 1.66796,3.99219 0,2.40625 -1.08007,3.51367 -0.58789,0.60157 -1.32618,1.06641 -0.73828,0.46484 -0.875,0.46484 1.18946,0.15039 2.06446,1.09375 0.88867,0.95703 0.88867,3.07617 0,0.0547 0,0.10938 0,4.01953 1.08008,5.09961 h -3.73242 q -0.49219,-0.82031 -0.49219,-2.88477 0,-1.92773 -0.32813,-3.0625 -0.32812,-1.13476 -1.17578,-1.68164 -0.83398,-0.54687 -2.39258,-0.54687 h -5.09961 v 8.17578 z"
     id="path932" /></g><path
   id="rect910"
   style="fill:#000000;stroke:#000000;stroke-width:0;stroke-miterlimit:4;stroke-dasharray:none"
   d="M 15.383555,738.85162 H 506.33976 v 6.15343 H 15.383555 Z" /><path
   id="path912"
   style="fill:#000000;stroke:#000000;stroke-width:0;stroke-miterlimit:4;stroke-dasharray:none"
   d="M 16.702181,742.14806 A 8.3510904,9.0103865 0 0 1 8.3510909,751.15845 8.3510904,9.0103865 0 0 1 5.0000064e-7,742.14806 8.3510904,9.0103865 0 0 1 8.3510909,733.13768 a 8.3510904,9.0103865 0 0 1 8.3510901,9.01038 z" /><path
   d="m 402.13559,99.275827 q 1.82291,0 2.8776,-0.729167 1.06771,-0.729168 1.06771,-2.630212 0,-2.044273 -1.48437,-2.786462 -0.79428,-0.390625 -2.1224,-0.390625 h -6.32814 v 6.536466 z m -8.58074,-8.763032 h 8.85417 q 2.18751,0 3.60678,0.638022 2.69531,1.22396 2.69531,4.518235 0,1.718752 -0.71614,2.812503 -0.70313,1.093752 -1.97917,1.757815 1.11979,0.45573 1.67969,1.19792 0.57292,0.74219 0.63802,2.40886 l 0.0911,2.56511 q 0.0391,1.09375 0.18229,1.6276 0.23437,0.91146 0.83333,1.17188 v 0.42969 h -3.17708 q -0.13021,-0.2474 -0.20834,-0.63802 -0.0781,-0.39063 -0.13021,-1.51042 l -0.15625,-3.19011 q -0.0911,-1.875 -1.39323,-2.51302 -0.74219,-0.35157 -2.33073,-0.35157 h -5.89845 v 8.20314 h -2.59114 z"
   id="path61"
   style="font-size:26.6667px;line-height:1.25;font-family:Helvetica;-inkscape-font-specification:Helvetica;fill:#007dc5;fill-opacity:1" /></svg>
