<?xml version="1.0" encoding="UTF-8" standalone="no"?>
<svg
   xmlns:dc="http://purl.org/dc/elements/1.1/"
   xmlns:cc="http://creativecommons.org/ns#"
   xmlns:rdf="http://www.w3.org/1999/02/22-rdf-syntax-ns#"
   xmlns:svg="http://www.w3.org/2000/svg"
   xmlns="http://www.w3.org/2000/svg"
   xmlns:sodipodi="http://sodipodi.sourceforge.net/DTD/sodipodi-0.dtd"
   xmlns:inkscape="http://www.inkscape.org/namespaces/inkscape"
   version="1.0"
   width="637.79529"
   height="791.68878"
   id="svg4473"
   sodipodi:docname="Intel Pentium Dual-Core (2008).svg"
   inkscape:version="1.0.2 (e86c870879, 2021-01-15, custom)">
  <metadata
     id="metadata268">
    <rdf:RDF>
      <cc:Work
         rdf:about="">
        <dc:format>image/svg+xml</dc:format>
        <dc:type
           rdf:resource="http://purl.org/dc/dcmitype/StillImage" />
        <dc:title></dc:title>
      </cc:Work>
    </rdf:RDF>
  </metadata>
  <sodipodi:namedview
     pagecolor="#ffffff"
     bordercolor="#666666"
     borderopacity="1"
     objecttolerance="10"
     gridtolerance="10"
     guidetolerance="10"
     inkscape:pageopacity="0"
     inkscape:pageshadow="2"
     inkscape:window-width="1440"
     inkscape:window-height="837"
     id="namedview266"
     showgrid="false"
     fit-margin-top="0"
     fit-margin-left="0"
     fit-margin-right="0"
     fit-margin-bottom="0"
     inkscape:zoom="0.69942997"
     inkscape:cx="318.89765"
     inkscape:cy="395.8444"
     inkscape:window-x="-8"
     inkscape:window-y="-8"
     inkscape:window-maximized="1"
     inkscape:current-layer="svg4473" />
  <defs
     id="defs4475">
    <clipPath
       id="clipPath6207">
      <path
         d="m 8144.72,8133.26 h 93.54 v 67.72 h -93.54 z"
         id="path6209" />
    </clipPath>
    <clipPath
       id="clipPath6199">
      <path
         d="m 553.589,173.935 c 7.332,-0.015 16.003,1.989 24.665,6.467 0.434,0.22 0.869,0.455 1.304,0.695 0.435,0.234 0.87,0.469 1.299,0.724 0,4.443 0,8.886 0,13.33 0,9.985 -9.785,12.619 -17.127,12.619 -6.113,0 -17.753,-2.179 -25.26,-9.686 -3.498,-3.498 -4.363,-6.432 -4.363,-11.405 0,-1.874 0.46,-3.548 1.3,-5.048 0.365,-0.654 0.799,-1.264 1.304,-1.839 3.269,-3.733 9.371,-5.842 16.878,-5.857"
         id="path6201" />
    </clipPath>
    <clipPath
       id="clipPath6191">
      <path
         d="m 534.107,207.77 h 46.75 v -33.851 h -46.75 z"
         id="path6193" />
    </clipPath>
    <clipPath
       id="clipPath6313">
      <path
         d="m 8144.72,8175.45 h 93.54 v 73.87 h -93.54 z"
         id="path6315" />
    </clipPath>
    <clipPath
       id="clipPath6305">
      <path
         d="m 578.254,180.402 c 0.434,0.22 0.869,0.455 1.304,0.69 0.435,0.239 0.87,0.469 1.299,0.719 0,-9.526 0,-19.671 0,-29.197 0,-1.575 -1.274,-2.849 -2.848,-2.849 -13.31,0 -27.743,0 -41.053,0 -1.574,0 -2.849,1.274 -2.849,2.849 0,11.185 0,22.885 0,34.065 0,-1.874 0.465,-3.548 1.3,-5.048 0.365,-0.654 0.799,-1.264 1.304,-1.839 3.269,-3.733 9.371,-5.847 16.878,-5.857 7.332,-0.015 16.003,1.989 24.665,6.467"
         id="path6307" />
    </clipPath>
    <clipPath
       id="clipPath6297">
      <path
         d="m 534.107,186.679 h 46.75 v -36.914 h -46.75 z"
         id="path6299" />
    </clipPath>
    <clipPath
       id="clipPath6119">
      <path
         d="m 125.218,233.724 v 6.263 c 0.131,-0.021 0.263,-0.04 0.395,-0.06 3.635,-0.56 7.679,-1.365 9.275,-2.33 0.459,-0.279 0.707,-0.569 0.702,-0.844 v -0.035 c -0.09,-0.33 -0.531,-0.675 -1.241,-0.995 -0.715,-0.32 -1.701,-0.614 -2.879,-0.894 -1.744,-0.415 -3.911,-0.78 -6.252,-1.105"
         id="path6121" />
    </clipPath>
    <clipPath
       id="clipPath6111">
      <path
         d="m 124.976,233.549 h 10.795 v 6.7171 h -10.795 z"
         id="path6113" />
    </clipPath>
    <clipPath
       id="clipPath6139">
      <path
         d="m 125.218,232.575 v 1.049 c 3.701,0.51 6.978,1.135 8.843,1.874 0.908,0.36 1.493,0.75 1.624,1.195 l 0.004,0.005 v 0.055 c 0,0.34 -0.283,0.64 -0.751,0.924 -0.467,0.285 -1.129,0.55 -1.921,0.8 -1.588,0.5 -3.701,0.935 -5.816,1.29 -0.666,0.115 -1.333,0.22 -1.983,0.314 v 0.6 c 9.577,-1.039 12.969,-2.344 14.106,-3.243 0.458,-0.36 0.548,-0.645 0.548,-0.83 0,-0.115 -0.036,-0.195 -0.054,-0.22 l -0.009,-0.015 -0.004,-0.01 -0.005,-0.005 c -0.121,-0.395 -0.633,-0.8 -1.511,-1.184 -0.882,-0.39 -2.118,-0.76 -3.679,-1.12 -2.407,-0.545 -5.581,-1.04 -9.392,-1.479"
         id="path6141" />
    </clipPath>
    <clipPath
       id="clipPath6131">
      <path
         d="m 124.976,232.35 h 15.114 v 8.6363 h -15.114 z"
         id="path6133" />
    </clipPath>
    <clipPath
       id="clipPath6159">
      <path
         d="m 125.218,232.475 v 0.05 c 8.765,1.009 14.159,2.329 14.632,3.818 0,0 1.988,2.579 -14.632,4.383 v 0.05 c 5.76,-0.625 9.288,-1.339 11.443,-2.014 1.43,-0.445 2.254,-0.875 2.726,-1.244 0.452,-0.36 0.581,-0.67 0.584,-0.89 v -0.02 c 0,-0.185 -0.076,-0.29 -0.081,-0.295 -0.15,-0.44 -0.683,-0.845 -1.565,-1.229 -2.254,-1 -6.813,-1.885 -13.107,-2.609 m 0,1.194 v 0.055 c 2.341,0.325 4.508,0.69 6.252,1.105 1.178,0.28 2.164,0.574 2.879,0.894 0.71,0.32 1.151,0.665 1.241,0.995 v 0.035 c 0.005,0.275 -0.243,0.565 -0.702,0.844 -1.596,0.965 -5.64,1.77 -9.275,2.33 -0.132,0.02 -0.264,0.039 -0.395,0.06 v 0.044 c 4.82,-0.719 10.55,-1.879 10.422,-3.328 -0.362,-1.265 -4.92,-2.269 -10.422,-3.034"
         id="path6161" />
    </clipPath>
    <clipPath
       id="clipPath6151">
      <path
         d="m 124.976,232.35 h 17.033 v 8.6363 h -17.033 z"
         id="path6153" />
    </clipPath>
    <clipPath
       id="clipPath6179">
      <path
         d="m 125.218,232.525 v 0.05 c 3.811,0.439 6.985,0.934 9.392,1.479 1.561,0.36 2.797,0.73 3.679,1.12 0.878,0.384 1.39,0.789 1.511,1.184 l 0.005,0.005 0.004,0.01 0.009,0.015 c 0.018,0.025 0.054,0.105 0.054,0.22 0,0.185 -0.09,0.47 -0.548,0.83 -1.137,0.899 -4.529,2.204 -14.106,3.243 v 0.045 c 16.62,-1.804 14.632,-4.383 14.632,-4.383 -0.473,-1.489 -5.867,-2.809 -14.632,-3.818 m 0,1.099 v 0.045 c 5.502,0.765 10.06,1.769 10.422,3.034 0.128,1.449 -5.602,2.609 -10.422,3.328 v 0.05 c 0.65,-0.094 1.317,-0.199 1.983,-0.314 2.115,-0.355 4.228,-0.79 5.816,-1.29 0.792,-0.25 1.454,-0.515 1.921,-0.8 0.468,-0.284 0.751,-0.584 0.751,-0.924 v -0.055 l -0.004,-0.005 c -0.131,-0.445 -0.716,-0.835 -1.624,-1.195 -1.865,-0.739 -5.142,-1.364 -8.843,-1.874"
         id="path6181" />
    </clipPath>
    <clipPath
       id="clipPath6171">
      <path
         d="m 124.976,232.35 h 17.033 v 8.6363 h -17.033 z"
         id="path6173" />
    </clipPath>
    <clipPath
       id="clipPath4910">
      <path
         d="M 0,842.04 H 595.44 V 0 H 0 Z"
         id="path4912" />
    </clipPath>
    <clipPath
       id="clipPath4902">
      <path
         d="M 0,841 H 595.276 V -0.89 H 0 Z"
         id="path4904" />
    </clipPath>
    <clipPath
       id="clipPath4894">
      <path
         d="M 0,-0.89 V 841 H 1190.551 V -0.89"
         id="path4896" />
    </clipPath>
    <clipPath
       id="clipPath4954">
      <path
         d="M 0,842.04 H 595.44 V 0 H 0 Z"
         id="path4956" />
    </clipPath>
    <clipPath
       id="clipPath4946">
      <path
         d="M 0,841 H 595.276 V -0.89 H 0 Z"
         id="path4948" />
    </clipPath>
    <clipPath
       id="clipPath4938">
      <path
         d="M 0,-0.89 V 841 H 1190.551 V -0.89"
         id="path4940" />
    </clipPath>
    <clipPath
       id="clipPath4998">
      <path
         d="M 0,842.04 H 595.44 V 0 H 0 Z"
         id="path5000" />
    </clipPath>
    <clipPath
       id="clipPath4990">
      <path
         d="M 0,841 H 595.276 V -0.89 H 0 Z"
         id="path4992" />
    </clipPath>
    <clipPath
       id="clipPath4982">
      <path
         d="M 0,-0.89 V 841 H 1190.551 V -0.89"
         id="path4984" />
    </clipPath>
    <clipPath
       id="clipPath4690">
      <path
         d="M 0,842.04 H 595.44 V 0 H 0 Z"
         id="path4692" />
    </clipPath>
    <clipPath
       id="clipPath4682">
      <path
         d="M 0,841 H 595.276 V -0.89 H 0 Z"
         id="path4684" />
    </clipPath>
    <clipPath
       id="clipPath4674">
      <path
         d="M 0,-0.89 V 841 H 1190.551 V -0.89"
         id="path4676" />
    </clipPath>
    <clipPath
       id="clipPath4734">
      <path
         d="M 0,842.04 H 595.44 V 0 H 0 Z"
         id="path4736" />
    </clipPath>
    <clipPath
       id="clipPath4726">
      <path
         d="M 0,841 H 595.276 V -0.89 H 0 Z"
         id="path4728" />
    </clipPath>
    <clipPath
       id="clipPath4718">
      <path
         d="M 0,-0.89 V 841 H 1190.551 V -0.89"
         id="path4720" />
    </clipPath>
    <clipPath
       id="clipPath4778">
      <path
         d="M 0,842.04 H 595.44 V 0 H 0 Z"
         id="path4780" />
    </clipPath>
    <clipPath
       id="clipPath4770">
      <path
         d="M 0,841 H 595.276 V -0.89 H 0 Z"
         id="path4772" />
    </clipPath>
    <clipPath
       id="clipPath4762">
      <path
         d="M 0,-0.89 V 841 H 1190.551 V -0.89"
         id="path4764" />
    </clipPath>
    <clipPath
       id="clipPath4822">
      <path
         d="M 0,842.04 H 595.44 V 0 H 0 Z"
         id="path4824" />
    </clipPath>
    <clipPath
       id="clipPath4814">
      <path
         d="M 0,841 H 595.276 V -0.89 H 0 Z"
         id="path4816" />
    </clipPath>
    <clipPath
       id="clipPath4806">
      <path
         d="M 0,-0.89 V 841 H 1190.551 V -0.89"
         id="path4808" />
    </clipPath>
    <clipPath
       id="clipPath4866">
      <path
         d="M 0,842.04 H 595.44 V 0 H 0 Z"
         id="path4868" />
    </clipPath>
    <clipPath
       id="clipPath4858">
      <path
         d="M 0,841 H 595.276 V -0.89 H 0 Z"
         id="path4860" />
    </clipPath>
    <clipPath
       id="clipPath4850">
      <path
         d="M 0,-0.89 V 841 H 1190.551 V -0.89"
         id="path4852" />
    </clipPath>
    <clipPath
       id="clipPath2455">
      <path
         d="M 0,0 V 203.28 H 283.44 V 0 Z"
         id="path2457" />
    </clipPath>
    <clipPath
       id="clipPath2447">
      <path
         d="m 44.469,65.962 66.081,-41.485 -0.015,-4.108 9.675,-4.938 h 5.763 l 0.618,1.235 c 0,0 60.105,-7.613 124.944,18.723 0,0 4.734,-2.058 4.734,-2.058 l 10.086,3.91 c 0,0 9.469,40.121 -0.823,61.107 0,0 -5.969,7.613 -5.969,7.613 l -3.088,-0.823 -54.341,60.078 -1.03,10.699 -17.496,15.843 c 0,0 -3.293,4.321 -8.645,-0.206 -5.352,-4.526 -2.058,-7.818 -2.058,-7.818 l 0.411,-4.732 -24.495,-5.761 c 0,0 -1.646,5.349 -7.821,3.703 -6.176,-1.646 -4.117,-5.761 -4.117,-5.761 l -69.574,-16.46 c 0,0 -0.411,6.173 -6.587,4.732 -6.175,-1.44 -4.734,-6.995 -4.734,-6.995 l -23.465,-5.761 -9.057,7.407 c 0,0 -7.411,2.88 -10.704,-3.909 -3.293,-6.79 -6.587,-46.088 -0.618,-70.572 0,0 16.879,-11.934 16.879,-11.934 z"
         id="path2449" />
    </clipPath>
    <clipPath
       id="clipPath2439">
      <path
         d="M -141.72,-12.207 V 94.901 H 7.624 V -12.207 Z"
         id="path2441" />
    </clipPath>
  </defs>
  <g
     transform="translate(-1573.138,26.167465)"
     id="layer1">
    <g
       transform="translate(35.433076,53.092613)"
       id="g11336">
      <g
         transform="matrix(13.6737,0,0,-13.6737,-5766.9641,2760.2704)"
         clip-path="url(#clipPath6191)"
         id="g6189">
        <g
           id="g6195">
          <g
             clip-path="url(#clipPath6199)"
             id="g6197">
            <g
               transform="matrix(0.4998,0,0,-0.4998,-3536.518,4272.667)"
               id="g6203">
              <g
                 clip-path="url(#clipPath6207)"
                 id="g6205">
                <path
                   d="m 8183.6924,8200.9528 c 14.6777,0.024 32.0247,-3.9782 49.3557,-12.9361 0,-5.2824 0,-13.8254 0,-29.5141 -17.2621,0 -49.3557,23.8295 -49.3557,42.4502 0,0 0,0 0,0 z"
                   id="path6211"
                   style="fill:#ffffff;fill-opacity:1;fill-rule:nonzero;stroke:none" />
                <path
                   d="m 8233.0481,8188.0167 c 0,-5.2824 0,-13.8254 0,-29.5141 0.2162,0 0.4341,0 0.6504,0 0,14.5464 0,23.4113 0,29.176 -0.2163,0.1138 -0.4342,0.2275 -0.6504,0.3381 z"
                   id="path6213"
                   style="fill:#ffffff;fill-opacity:1;fill-rule:nonzero;stroke:none" />
                <path
                   d="m 8233.6985,8187.6786 c 0,-5.7647 0,-14.6296 0,-29.176 0.2179,0 0.4358,0 0.6521,0 0,12.0293 0,22.0046 0,28.8284 -0.2163,0.1153 -0.4342,0.2307 -0.6521,0.346 z"
                   id="path6215"
                   style="fill:#f7f7f8;fill-opacity:1;fill-rule:nonzero;stroke:none" />
                <path
                   d="m 8234.3506,8187.3326 c 0,-6.8238 0,-16.7991 0,-28.8284 0.2163,0 0.4342,0 0.6521,0 0,9.5139 0,20.5931 0,28.4775 -0.2179,0.1169 -0.4358,0.2339 -0.6521,0.3509 z"
                   id="path6217"
                   style="fill:#ebecec;fill-opacity:1;fill-rule:nonzero;stroke:none" />
                <path
                   d="m 8235.0027,8186.9817 c 0,-7.8844 0,-18.9636 0,-28.4775 0.2179,0 0.4342,0 0.6505,0 0,8.3715 0,19.7583 0,28.1234 -0.2163,0.1186 -0.4326,0.2371 -0.6505,0.3557 z"
                   id="path6219"
                   style="fill:#dddedf;fill-opacity:1;fill-rule:nonzero;stroke:none" />
                <path
                   d="m 8235.6532,8186.626 c 0,-8.3651 0,-19.7519 0,-28.1234 0.4342,0 0.8668,0 1.3026,0 0,8.6311 0,18.7858 0,27.412 -0.4358,0.2387 -0.87,0.4743 -1.3058,0.7114 z"
                   id="path6221"
                   style="fill:#d1d3d4;fill-opacity:1;fill-rule:nonzero;stroke:none" />
                <path
                   d="m 8236.959,8185.9146 c 0,-8.6262 0,-18.7809 0,-27.412 0.4342,0 0.8684,0 1.3026,0 0,8.8922 0,17.786 0,26.675 -0.4326,0.2548 -0.8668,0.4983 -1.2994,0.737 z"
                   id="path6223"
                   style="fill:#c5c6c8;fill-opacity:1;fill-rule:nonzero;stroke:none" />
                <path
                   d="m 8183.6924,8200.9528 c 0,-18.6207 32.0936,-42.4502 49.3557,-42.4502 0,-18.5871 -22.2418,-20.0339 -29.0591,-20.0339 0,21.5672 -20.2966,35.4631 -20.2966,62.4841 0,0 0,0 0,0 z"
                   id="path6225"
                   style="fill:#ffffff;fill-opacity:1;fill-rule:nonzero;stroke:none" />
                <path
                   d="m 8233.0481,8158.5026 c 0,-9.2927 -5.5597,-14.3012 -11.9717,-16.9865 0.1074,-0.1089 0.2291,-0.274 0.3605,-0.4662 6.5626,2.8006 12.2616,7.9709 12.2616,17.4527 -0.2163,0 -0.4342,0 -0.6504,0 z"
                   id="path6227"
                   style="fill:#ffffff;fill-opacity:1;fill-rule:nonzero;stroke:none" />
                <path
                   d="m 8233.6985,8158.5026 c 0,-9.4818 -5.699,-14.6521 -12.2616,-17.4527 0.1298,-0.1939 0.266,-0.4166 0.4038,-0.6377 6.7004,2.8599 12.5099,8.1936 12.5099,18.092 -0.2163,0 -0.4342,0 -0.6521,0 z"
                   id="path6229"
                   style="fill:#f7f7f8;fill-opacity:1;fill-rule:nonzero;stroke:none" />
                <path
                   d="m 8221.0764,8141.5161 c -6.4136,-2.6853 -13.6779,-3.0474 -17.0874,-3.0474 0,-0.2163 0,-0.4325 0,-0.6504 3.4575,0 10.8837,0.4309 17.4479,3.2316 -0.1314,0.1922 -0.2531,0.3573 -0.3605,0.4662 z"
                   id="path6231"
                   style="fill:#ffffff;fill-opacity:1;fill-rule:nonzero;stroke:none" />
                <path
                   d="m 8221.4369,8141.0499 c -6.5642,-2.8007 -13.9904,-3.2316 -17.4479,-3.2316 0,-0.2163 0,-0.4326 0,-0.6505 3.5617,0 11.1513,0.3845 17.8517,3.2444 -0.1378,0.2211 -0.274,0.4438 -0.4038,0.6377 z"
                   id="path6233"
                   style="fill:#fafbfb;fill-opacity:1;fill-rule:nonzero;stroke:none" />
                <path
                   d="m 8234.3506,8158.5042 c 0.2163,0 0.4342,0 0.6521,0 0,-5.1575 -1.4804,-9.1101 -3.8148,-12.1382 -0.1907,0.1298 -0.3861,0.2916 -0.58,0.4534 2.2895,2.9272 3.7427,6.7356 3.7427,11.6848 z"
                   id="path6235"
                   style="fill:#ebecec;fill-opacity:1;fill-rule:nonzero;stroke:none" />
                <path
                   d="m 8230.6079,8146.8194 c 0.1939,-0.1618 0.3893,-0.3236 0.58,-0.4534 -2.3344,-3.0282 -5.5244,-5.1319 -8.9419,-6.5899 -0.1297,0.1923 -0.2675,0.415 -0.4053,0.6361 3.3502,1.4292 6.4777,3.4784 8.7672,6.4072 z"
                   id="path6237"
                   style="fill:#edeeef;fill-opacity:1;fill-rule:nonzero;stroke:none" />
                <path
                   d="m 8235.0027,8158.5042 c 0.2179,0 0.4342,0 0.6505,0 0,-5.2504 -1.5141,-9.2911 -3.9013,-12.3978 -0.1843,0.034 -0.3733,0.1314 -0.564,0.2612 2.3344,3.0281 3.8148,6.9807 3.8148,12.1382 z"
                   id="path6239"
                   style="fill:#dddedf;fill-opacity:1;fill-rule:nonzero;stroke:none" />
                <path
                   d="m 8231.1879,8146.366 c 0.1907,-0.1298 0.3797,-0.2275 0.564,-0.2612 -2.3889,-3.1066 -5.651,-5.2808 -9.1454,-6.7965 -0.1073,0.1089 -0.2307,0.274 -0.3605,0.4678 3.4175,1.458 6.6075,3.5617 8.9419,6.5899 z"
                   id="path6241"
                   style="fill:#e1e2e3;fill-opacity:1;fill-rule:nonzero;stroke:none" />
                <path
                   d="m 8221.8407,8140.4122 c 0.2756,-0.4438 0.5495,-0.886 0.7658,-1.1039 -3.4928,-1.5173 -7.2195,-2.3777 -10.536,-2.8583 -0.067,0.3653 -0.2003,0.8171 -0.3317,1.2689 3.1788,0.4534 6.7517,1.2641 10.1019,2.6933 z"
                   id="path6243"
                   style="fill:#f3f3f3;fill-opacity:1;fill-rule:nonzero;stroke:none" />
                <path
                   d="m 8211.7388,8137.7189 c 0.1314,-0.4518 0.2644,-0.9036 0.3317,-1.2689 -3.3166,-0.4807 -6.2246,-0.5832 -8.0815,-0.5832 0,0.4342 0,0.8668 0,1.301 1.78,0 4.5679,0.096 7.7498,0.5511 z"
                   id="path6245"
                   style="fill:#f8f8f9;fill-opacity:1;fill-rule:nonzero;stroke:none" />
                <path
                   d="m 8235.6532,8158.5026 c 0.4342,0 0.8668,0 1.3026,0 0,-5.1238 -1.3699,-9.1806 -3.5969,-12.3866 -0.6217,-0.038 -1.2417,-0.08 -1.607,-0.011 2.3872,3.1067 3.9013,7.1474 3.9013,12.3978 z"
                   id="path6247"
                   style="fill:#d1d3d4;fill-opacity:1;fill-rule:nonzero;stroke:none" />
                <path
                   d="m 8231.7519,8146.1048 c 0.3653,-0.069 0.9853,-0.027 1.607,0.011 -2.2271,-3.2044 -5.3113,-5.5564 -8.74,-7.2691 -0.8972,0.1233 -1.7945,0.2435 -2.0124,0.4614 3.4944,1.5157 6.7565,3.6899 9.1454,6.7965 z"
                   id="path6249"
                   style="fill:#d6d7d9;fill-opacity:1;fill-rule:nonzero;stroke:none" />
                <path
                   d="m 8222.6065,8139.3083 c 0.2179,-0.2179 1.1152,-0.3381 2.0124,-0.4614 -3.4303,-1.7112 -7.2035,-2.7815 -10.8116,-3.4255 -0.8348,0.3316 -1.6695,0.6617 -1.7368,1.0286 3.3165,0.4806 7.0432,1.341 10.536,2.8583 z"
                   id="path6251"
                   style="fill:#e2e3e4;fill-opacity:1;fill-rule:nonzero;stroke:none" />
                <path
                   d="m 8212.0705,8136.45 c 0.067,-0.3669 0.902,-0.697 1.7368,-1.0286 -3.6098,-0.6425 -7.0529,-0.8588 -9.8183,-0.8588 0,0.4358 0,0.87 0,1.3042 1.8569,0 4.7649,0.1025 8.0815,0.5832 z"
                   id="path6253"
                   style="fill:#ededee;fill-opacity:1;fill-rule:nonzero;stroke:none" />
                <path
                   d="m 8236.9558,8158.5026 c 0.4342,0 0.8684,0 1.3026,0 0,-4.9956 -1.2225,-9.0716 -3.2877,-12.3738 -0.3669,0.067 -0.9886,0.027 -1.6118,-0.013 2.227,3.206 3.5969,7.2628 3.5969,12.3866 z"
                   id="path6255"
                   style="fill:#c5c6c8;fill-opacity:1;fill-rule:nonzero;stroke:none" />
                <path
                   d="m 8233.3589,8146.116 c 0.6232,0.04 1.2449,0.08 1.6118,0.013 -2.0652,-3.3037 -4.9716,-5.8352 -8.3378,-7.7418 -0.2179,0.2179 -1.1152,0.3397 -2.014,0.4599 3.4287,1.7127 6.5129,4.0647 8.74,7.2691 z"
                   id="path6257"
                   style="fill:#cacbcd;fill-opacity:1;fill-rule:nonzero;stroke:none" />
                <path
                   d="m 8224.6189,8138.8469 c 0.8988,-0.1202 1.7961,-0.242 2.014,-0.4599 -3.3663,-1.9066 -7.1891,-3.1883 -11.0905,-3.9942 -0.067,0.3669 -0.902,0.6985 -1.7351,1.0286 3.6081,0.644 7.3813,1.7143 10.8116,3.4255 z"
                   id="path6259"
                   style="fill:#d4d6d7;fill-opacity:1;fill-rule:nonzero;stroke:none" />
                <path
                   d="m 8213.8073,8135.4214 c 0.8331,-0.3301 1.6679,-0.6617 1.7351,-1.0286 -3.9013,-0.806 -7.8796,-1.1328 -11.5534,-1.1328 0,0.4326 0,0.8684 0,1.3026 2.7654,0 6.2085,0.2163 9.8183,0.8588 z"
                   id="path6261"
                   style="fill:#dfe0e1;fill-opacity:1;fill-rule:nonzero;stroke:none" />
                <path
                   d="m 8183.6924,8200.9528 c 0,-27.021 20.2966,-40.9169 20.2966,-62.4841 -10.778,0 -32.7745,3.7604 -46.8579,17.8501 10.448,10.4496 26.5613,23.4049 26.5613,44.634 0,0 0,0 0,0 z"
                   id="path6263"
                   style="fill:#ffffff;fill-opacity:1;fill-rule:nonzero;stroke:none" />
                <path
                   d="m 8203.989,8138.4687 c -10.778,0 -32.7745,3.7604 -46.8579,17.8501 -0.2836,-0.2852 -0.6024,-0.604 -0.9196,-0.9228 14.3845,-14.3894 36.78,-18.2282 47.7775,-18.2282 0,0.4342 0,0.8684 0,1.3009 z"
                   id="path6265"
                   style="fill:#ffffff;fill-opacity:1;fill-rule:nonzero;stroke:none" />
                <path
                   d="m 8203.989,8137.1678 c -10.9975,0 -33.393,3.8388 -47.7775,18.2282 -0.3189,-0.3189 -0.6377,-0.6377 -0.9213,-0.9229 14.6858,-14.689 37.4818,-18.6063 48.6988,-18.6063 0,0.4342 0,0.8668 0,1.301 z"
                   id="path6267"
                   style="fill:#fafbfb;fill-opacity:1;fill-rule:nonzero;stroke:none" />
                <path
                   d="m 8203.989,8135.8668 c -11.217,0 -34.013,3.9173 -48.6988,18.6063 -0.3108,-0.306 -0.6056,-0.6008 -0.9068,-0.902 14.8523,-14.8556 37.8823,-19.0085 49.6056,-19.0085 0,0.4358 0,0.87 0,1.3042 z"
                   id="path6269"
                   style="fill:#f2f2f3;fill-opacity:1;fill-rule:nonzero;stroke:none" />
                <path
                   d="m 8203.989,8134.5626 c -11.7233,0 -34.7533,4.1529 -49.6056,19.0085 -0.2996,-0.3013 -0.6057,-0.6089 -0.9357,-0.9389 15.019,-15.019 38.3101,-19.3722 50.5413,-19.3722 0,0.4326 0,0.8684 0,1.3026 z"
                   id="path6271"
                   style="fill:#e4e5e6;fill-opacity:1;fill-rule:nonzero;stroke:none" />
                <path
                   d="m 8183.6924,8200.9528 c 0,-21.2291 -16.1133,-34.1844 -26.5613,-44.634 -5.582,5.5917 -7.2002,9.876 -7.2002,19.1319 14.3268,0 33.7615,10.6418 33.7615,25.5021 0,0 0,0 0,0 z"
                   id="path6273"
                   style="fill:#ffffff;fill-opacity:1;fill-rule:nonzero;stroke:none" />
                <path
                   d="m 8157.1311,8156.3188 c -5.582,5.5917 -7.2002,9.876 -7.2002,19.1319 -0.4358,0 -0.87,0 -1.3042,0 0,-9.6148 1.74,-14.2067 7.5848,-20.0547 0.3172,0.3188 0.636,0.6376 0.9196,0.9228 z"
                   id="path6275"
                   style="fill:#ffffff;fill-opacity:1;fill-rule:nonzero;stroke:none" />
                <path
                   d="m 8156.2115,8155.396 c -5.8448,5.848 -7.5848,10.4399 -7.5848,20.0547 -0.4342,0 -0.87,0 -1.3058,0 0,-9.9721 1.8617,-14.8732 7.9693,-20.9776 0.2836,0.2852 0.6024,0.604 0.9213,0.9229 z"
                   id="path6277"
                   style="fill:#fafbfb;fill-opacity:1;fill-rule:nonzero;stroke:none" />
                <path
                   d="m 8155.2902,8154.4731 c -6.1076,6.1044 -7.9693,11.0055 -7.9693,20.9776 -0.4342,0 -0.8668,0 -1.301,0 0,-9.9609 1.8105,-15.3299 8.3635,-21.8796 0.3012,0.3012 0.596,0.596 0.9068,0.902 z"
                   id="path6279"
                   style="fill:#f2f2f3;fill-opacity:1;fill-rule:nonzero;stroke:none" />
                <path
                   d="m 8154.3834,8153.5711 c -6.553,6.5497 -8.3635,11.9187 -8.3635,21.8796 -0.4326,0 -0.8668,0 -1.301,0 0,-9.9513 1.7288,-15.8217 8.7288,-22.8185 0.33,0.33 0.6361,0.6376 0.9357,0.9389 z"
                   id="path6281"
                   style="fill:#e4e5e6;fill-opacity:1;fill-rule:nonzero;stroke:none" />
                <path
                   d="m 8183.6924,8200.9528 c 0,-14.8603 -19.4347,-25.5021 -33.7615,-25.5021 0,4.3243 0,8.7784 0,13.7837 6.5369,7.4662 18.7521,11.6912 33.7615,11.7184 0,0 0,0 0,0 z"
                   id="path6283"
                   style="fill:#ffffff;fill-opacity:1;fill-rule:nonzero;stroke:none" />
                <path
                   d="m 8149.9309,8175.4507 c 0,4.3243 0,8.7784 0,13.7837 -0.5047,-0.5736 -0.9758,-1.168 -1.4116,-1.7833 0,-4.0856 0.1074,-8.2705 0.1074,-12.0004 0.4342,0 0.8684,0 1.3042,0 z"
                   id="path6285"
                   style="fill:#ffffff;fill-opacity:1;fill-rule:nonzero;stroke:none" />
                <path
                   d="m 8148.6267,8175.4507 c 0,3.7299 -0.1074,7.9148 -0.1074,12.0004 -0.4358,-0.6136 -0.8347,-1.2481 -1.1984,-1.9018 0,-3.1659 0,-6.9631 0,-10.0986 0.4358,0 0.8716,0 1.3058,0 z"
                   id="path6287"
                   style="fill:#fafbfb;fill-opacity:1;fill-rule:nonzero;stroke:none" />
                <path
                   d="m 8147.3209,8175.4507 c 0,3.1355 0,6.9327 0,10.0986 -0.8396,-1.4964 -1.4901,-3.0826 -1.9307,-4.7633 0,-1.583 0.6297,-3.7684 0.6297,-5.3353 0.4342,0 0.8668,0 1.301,0 z"
                   id="path6289"
                   style="fill:#f2f2f3;fill-opacity:1;fill-rule:nonzero;stroke:none" />
                <path
                   d="m 8146.0199,8175.4507 c 0,1.5669 -0.6297,3.7523 -0.6297,5.3353 -0.4406,-1.6807 -0.6713,-3.4576 -0.6713,-5.3353 0,0 0,0 0,0 0.4342,0 0.8684,0 1.301,0 z"
                   id="path6291"
                   style="fill:#e4e5e6;fill-opacity:1;fill-rule:nonzero;stroke:none" />
              </g>
            </g>
          </g>
        </g>
      </g>
      <g
         transform="matrix(13.6737,0,0,-13.6737,-5766.9641,2760.2704)"
         id="g6293">
        <g
           clip-path="url(#clipPath6297)"
           id="g6295">
          <g
             id="g6301">
            <g
               clip-path="url(#clipPath6305)"
               id="g6303">
              <g
                 transform="matrix(0.4998,0,0,-0.4998,-3536.518,4272.667)"
                 id="g6309">
                <g
                   clip-path="url(#clipPath6313)"
                   id="g6311">
                  <path
                     d="m 8233.0474,8188.0163 c 0,0 0,0 0,0 0,16.2211 0,39.3734 0,55.5962 -27.1422,0 -49.3561,-35.7092 -49.3561,-42.6595 14.6779,0.022 32.0241,-3.9787 49.3561,-12.9367 z"
                     id="path6317"
                     style="fill:#1492d1;fill-opacity:1;fill-rule:nonzero;stroke:none" />
                  <path
                     d="m 8233.0474,8188.0163 c 0,16.2211 0,39.3734 0,55.5962 0.217,0 0.4341,0 0.6495,0 0,-16.4398 0,-39.4932 0,-55.9314 -0.2154,0.1134 -0.4325,0.2267 -0.6495,0.3368 z"
                     id="path6319"
                     style="fill:#1492d1;fill-opacity:1;fill-rule:nonzero;stroke:none" />
                  <path
                     d="m 8233.6969,8187.6795 c 0,16.4382 0,39.4916 0,55.9314 0.2187,0 0.4357,0 0.6527,0 0,-16.9202 0,-39.3591 0,-56.2745 -0.217,0.1149 -0.434,0.2298 -0.6527,0.3447 z"
                     id="path6321"
                     style="fill:#148dca;fill-opacity:1;fill-rule:nonzero;stroke:none" />
                  <path
                     d="m 8234.3496,8187.3348 c 0,16.9154 0,39.3543 0,56.2745 0.2171,0 0.4341,0 0.6528,0 0,-17.3974 0,-39.2298 0,-56.624 -0.2187,0.1165 -0.4357,0.233 -0.6528,0.3495 z"
                     id="path6323"
                     style="fill:#1484bd;fill-opacity:1;fill-rule:nonzero;stroke:none" />
                  <path
                     d="m 8235.0024,8186.9853 c 0,17.3942 0,39.2266 0,56.624 0.217,0 0.4325,0 0.6495,0 0,-17.616 0,-39.3687 0,-56.9783 -0.217,0.1165 -0.4325,0.2346 -0.6495,0.3511 z"
                     id="path6325"
                     style="fill:#1279ae;fill-opacity:1;fill-rule:nonzero;stroke:none" />
                  <path
                     d="m 8235.6519,8186.6342 c 0.8714,-0.4804 1.7396,-0.9416 2.6062,-1.4459 0,19.0635 0,39.3671 0,58.4242 -0.8698,0 -1.7396,0 -2.6062,0 0,-17.616 0,-39.3687 0,-56.9783 z"
                     id="path6327"
                     style="fill:#0e6f9f;fill-opacity:1;fill-rule:nonzero;stroke:none" />
                  <path
                     d="m 8183.6913,8200.953 c 0,6.9503 22.2139,42.6595 49.3561,42.6595 0,0.2665 -0.2235,0.4899 -0.4932,0.4899 0,-23.5624 -48.8629,-36.1991 -48.8629,-43.1494 0,0 0,0 0,0 z"
                     id="path6329"
                     style="fill:#1492d1;fill-opacity:1;fill-rule:nonzero;stroke:none" />
                  <path
                     d="m 8233.0474,8243.6125 c 0,0.2665 -0.2235,0.4899 -0.4932,0.4899 0,0.2171 0,0.4341 0,0.6528 0.4932,0 1.1395,-0.6512 1.1395,-1.1443 -0.2154,0 -0.4325,0 -0.6495,0 z"
                     id="path6331"
                     style="fill:#1492d1;fill-opacity:1;fill-rule:nonzero;stroke:none" />
                  <path
                     d="m 8233.6969,8243.6109 c 0,0.4931 -0.6463,1.1443 -1.1395,1.1443 0,0.217 0,0.4341 0,0.6511 0.9879,0 1.7922,-0.8091 1.7922,-1.797 -0.217,0 -0.434,0 -0.6527,0 z"
                     id="path6333"
                     style="fill:#148dca;fill-opacity:1;fill-rule:nonzero;stroke:none" />
                  <path
                     d="m 8234.3496,8243.6093 c 0,0.9879 -0.8043,1.797 -1.7922,1.797 0,0.2187 0,0.4357 0,0.6528 1.4826,0 2.445,-0.9672 2.445,-2.4498 -0.2187,0 -0.4357,0 -0.6528,0 z"
                     id="path6335"
                     style="fill:#1484bd;fill-opacity:1;fill-rule:nonzero;stroke:none" />
                  <path
                     d="m 8235.0024,8243.6093 c 0,1.4826 -0.9624,2.4498 -2.445,2.4498 0,0.2154 0,0.4325 0,0.6479 1.7077,0 3.0977,-1.3869 3.0977,-3.0945 -0.217,0 -0.4325,0 -0.6495,0 z"
                     id="path6337"
                     style="fill:#1279ae;fill-opacity:1;fill-rule:nonzero;stroke:none" />
                  <path
                     d="m 8235.6519,8243.6125 c 0.8666,0 1.7364,0 2.6062,0 0,3.1456 -2.5567,5.6975 -5.7039,5.6975 0,-0.8602 0,-1.7284 0,-2.603 1.7077,0 3.0977,-1.3869 3.0977,-3.0945 z"
                     id="path6339"
                     style="fill:#0e6f9f;fill-opacity:1;fill-rule:nonzero;stroke:none" />
                  <path
                     d="m 8183.6913,8200.953 c 0,6.9503 48.8629,19.587 48.8629,43.1494 -26.6299,0 -55.5036,0 -82.1335,0 0,-23.5624 33.2706,-36.1991 33.2706,-43.1494 0,0 0,0 0,0 z"
                     id="path6341"
                     style="fill:#1492d1;fill-opacity:1;fill-rule:nonzero;stroke:none" />
                  <path
                     d="m 8232.5542,8244.1024 c -26.6299,0 -55.5036,0 -82.1335,0 0,0.2171 0,0.4341 0,0.6528 26.6299,0 55.5036,0 82.1367,0 0,-0.2187 0,-0.4357 0,-0.6528 z"
                     id="path6343"
                     style="fill:#1492d1;fill-opacity:1;fill-rule:nonzero;stroke:none" />
                  <path
                     d="m 8232.5574,8244.7552 c -26.6331,0 -55.5068,0 -82.1367,0 0,0.217 0,0.4341 0,0.6511 26.6299,0 55.5036,0 82.1367,0 0,-0.217 0,-0.4341 0,-0.6511 z"
                     id="path6345"
                     style="fill:#148dca;fill-opacity:1;fill-rule:nonzero;stroke:none" />
                  <path
                     d="m 8232.5574,8245.4063 c -26.6331,0 -55.5068,0 -82.1367,0 0,0.2187 0,0.4357 0,0.6528 26.6299,0 55.5036,0 82.1367,0 0,-0.2171 0,-0.4341 0,-0.6528 z"
                     id="path6347"
                     style="fill:#1484bd;fill-opacity:1;fill-rule:nonzero;stroke:none" />
                  <path
                     d="m 8232.5574,8246.0591 c -26.6331,0 -55.5068,0 -82.1367,0 0,0.2154 0,0.4325 0,0.6479 26.6299,0 55.5036,0 82.1335,0 0,-0.2154 0,-0.4325 0,-0.6479 z"
                     id="path6349"
                     style="fill:#1279ae;fill-opacity:1;fill-rule:nonzero;stroke:none" />
                  <path
                     d="m 8232.5542,8246.707 c 0,0.8746 0,1.7428 0,2.603 -26.6299,0 -55.5036,0 -82.1335,0 0,-0.8602 0,-1.7284 0,-2.603 26.6299,0 55.5036,0 82.1335,0 z"
                     id="path6351"
                     style="fill:#0e6f9f;fill-opacity:1;fill-rule:nonzero;stroke:none" />
                  <path
                     d="m 8183.6913,8200.953 c 0,6.9503 -33.2706,19.587 -33.2706,43.1494 -0.2713,0 -0.49,-0.2234 -0.49,-0.4899 27.1358,0 33.7606,-35.7092 33.7606,-42.6595 0,0 0,0 0,0 z"
                     id="path6353"
                     style="fill:#1492d1;fill-opacity:1;fill-rule:nonzero;stroke:none" />
                  <path
                     d="m 8150.4207,8244.1024 c -0.1357,0 -0.2585,-0.056 -0.3463,-0.1452 -0.1101,0.1085 -0.2522,0.2522 -0.4102,0.4102 0.2219,0.225 0.5075,0.3878 0.7565,0.3878 0,-0.2187 0,-0.4357 0,-0.6528 z"
                     id="path6355"
                     style="fill:#1492d1;fill-opacity:1;fill-rule:nonzero;stroke:none" />
                  <path
                     d="m 8150.4207,8244.7552 c 0,0.217 0,0.4341 0,0.6511 -0.2474,0 -0.4836,-0.049 -0.6974,-0.1404 0.1085,-0.2091 0.2186,-0.4182 0.3096,-0.6192 0.1309,0.069 0.2633,0.1085 0.3878,0.1085 z"
                     id="path6357"
                     style="fill:#148dca;fill-opacity:1;fill-rule:nonzero;stroke:none" />
                  <path
                     d="m 8150.0329,8244.6467 c -0.091,0.201 -0.2011,0.4101 -0.3096,0.6192 -0.2155,-0.091 -0.4086,-0.2234 -0.5714,-0.3862 0.1772,-0.1772 0.3527,-0.3527 0.5123,-0.5123 0.1101,0.1133 0.2378,0.209 0.3687,0.2793 z"
                     id="path6359"
                     style="fill:#188eca;fill-opacity:1;fill-rule:nonzero;stroke:none" />
                  <path
                     d="m 8150.0744,8243.9572 c -0.089,-0.089 -0.1437,-0.2107 -0.1437,-0.3447 -0.2186,0 -0.4356,0 -0.6527,0 0,0.2458 0.1628,0.5314 0.3862,0.7549 0.158,-0.158 0.3001,-0.3017 0.4102,-0.4102 z"
                     id="path6361"
                     style="fill:#1492d1;fill-opacity:1;fill-rule:nonzero;stroke:none" />
                  <path
                     d="m 8149.6642,8244.3674 c -0.1596,0.1596 -0.3351,0.3351 -0.5123,0.5123 -0.1628,-0.1628 -0.2936,-0.3559 -0.3846,-0.5714 0.2091,-0.1085 0.4181,-0.2186 0.6192,-0.3096 0.069,0.1309 0.166,0.257 0.2777,0.3687 z"
                     id="path6363"
                     style="fill:#1e90cd;fill-opacity:1;fill-rule:nonzero;stroke:none" />
                  <path
                     d="m 8149.3865,8243.9987 c -0.2011,0.091 -0.4101,0.2011 -0.6192,0.3096 -0.091,-0.2138 -0.1404,-0.4484 -0.1404,-0.6958 0.217,0 0.4341,0 0.6511,0 0,0.1229 0.04,0.2553 0.1085,0.3862 z"
                     id="path6365"
                     style="fill:#2594d1;fill-opacity:1;fill-rule:nonzero;stroke:none" />
                  <path
                     d="m 8150.4207,8245.4063 c 0,0.2187 0,0.4357 0,0.6528 -0.3719,0 -0.7102,-0.061 -1.0086,-0.174 0.091,-0.2011 0.2011,-0.4101 0.3112,-0.6192 0.2138,0.091 0.45,0.1404 0.6974,0.1404 z"
                     id="path6367"
                     style="fill:#1484bd;fill-opacity:1;fill-rule:nonzero;stroke:none" />
                  <path
                     d="m 8149.7233,8245.2659 c -0.1101,0.2091 -0.2203,0.4181 -0.3112,0.6192 -0.2985,-0.1133 -0.5586,-0.2809 -0.7709,-0.4931 0.1596,-0.1596 0.3352,-0.3352 0.5107,-0.5123 0.1628,0.1628 0.3559,0.2952 0.5714,0.3862 z"
                     id="path6369"
                     style="fill:#1d87c0;fill-opacity:1;fill-rule:nonzero;stroke:none" />
                  <path
                     d="m 8150.4207,8246.0591 c 0,0.2154 0,0.4325 0,0.6479 -0.2139,0 -0.4213,-0.022 -0.624,-0.062 0.01,-0.2059 0.045,-0.4182 0.093,-0.632 0.1691,0.03 0.3463,0.046 0.5314,0.046 z"
                     id="path6371"
                     style="fill:#1279ae;fill-opacity:1;fill-rule:nonzero;stroke:none" />
                  <path
                     d="m 8149.8893,8246.0128 c -0.048,0.2138 -0.083,0.4261 -0.093,0.632 -0.2011,-0.041 -0.3958,-0.1022 -0.5809,-0.1804 0.034,-0.1819 0.1053,-0.3782 0.1963,-0.5793 0.15,0.056 0.3096,0.099 0.4772,0.1277 z"
                     id="path6373"
                     style="fill:#147baf;fill-opacity:1;fill-rule:nonzero;stroke:none" />
                  <path
                     d="m 8149.4121,8245.8851 c -0.091,0.2011 -0.1628,0.3974 -0.1963,0.5793 -0.3703,-0.1564 -0.7054,-0.383 -0.9863,-0.6639 0.1101,-0.1069 0.2521,-0.2505 0.4117,-0.4085 0.2123,0.2122 0.4724,0.3798 0.7709,0.4931 z"
                     id="path6375"
                     style="fill:#217fb4;fill-opacity:1;fill-rule:nonzero;stroke:none" />
                  <path
                     d="m 8149.1519,8244.8797 c -0.1755,0.1771 -0.3511,0.3527 -0.5107,0.5123 -0.2138,-0.2139 -0.3798,-0.4724 -0.4931,-0.7709 0.2027,-0.093 0.4101,-0.2027 0.6192,-0.3128 0.091,0.2155 0.2218,0.4086 0.3846,0.5714 z"
                     id="path6377"
                     style="fill:#308fc8;fill-opacity:1;fill-rule:nonzero;stroke:none" />
                  <path
                     d="m 8148.7673,8244.3083 c -0.2091,0.1101 -0.4165,0.2203 -0.6192,0.3128 -0.1133,-0.3 -0.174,-0.6384 -0.174,-1.0086 0.2171,0 0.4341,0 0.6528,0 0,0.2474 0.049,0.482 0.1404,0.6958 z"
                     id="path6379"
                     style="fill:#4097d1;fill-opacity:1;fill-rule:nonzero;stroke:none" />
                  <path
                     d="m 8148.6412,8245.392 c -0.1596,0.158 -0.3016,0.3016 -0.4117,0.4085 -0.2809,-0.2809 -0.5075,-0.6128 -0.6655,-0.9847 0.1851,-0.033 0.3814,-0.1037 0.5841,-0.1947 0.1133,0.2985 0.2793,0.557 0.4931,0.7709 z"
                     id="path6381"
                     style="fill:#3c8dc2;fill-opacity:1;fill-rule:nonzero;stroke:none" />
                  <path
                     d="m 8148.1481,8244.6211 c -0.2027,0.091 -0.399,0.1612 -0.5841,0.1947 -0.078,-0.1851 -0.1389,-0.3798 -0.1804,-0.5809 0.2091,-0.01 0.4214,-0.043 0.6352,-0.093 0.029,0.1692 0.073,0.3288 0.1293,0.4788 z"
                     id="path6383"
                     style="fill:#519bd1;fill-opacity:1;fill-rule:nonzero;stroke:none" />
                  <path
                     d="m 8148.0188,8244.1423 c -0.2138,0.05 -0.4261,0.085 -0.6352,0.093 -0.042,-0.2011 -0.064,-0.4086 -0.064,-0.6224 0.2186,0 0.4373,0 0.6543,0 0,0.1835 0.016,0.3623 0.045,0.5298 z"
                     id="path6385"
                     style="fill:#59a0d6;fill-opacity:1;fill-rule:nonzero;stroke:none" />
                  <path
                     d="m 8150.4207,8246.707 c 0,0.4373 0,0.873 0,1.3071 -0.3032,0 -0.6001,-0.032 -0.8873,-0.091 0.1228,-0.4293 0.2457,-0.8602 0.2633,-1.2783 0.2027,0.04 0.4101,0.062 0.624,0.062 z"
                     id="path6387"
                     style="fill:#0e6f9f;fill-opacity:1;fill-rule:nonzero;stroke:none" />
                  <path
                     d="m 8149.7967,8246.6448 c -0.018,0.4181 -0.1405,0.849 -0.2633,1.2783 -0.2857,-0.057 -0.5618,-0.1436 -0.8251,-0.2569 0.2202,-0.415 0.4404,-0.8347 0.5075,-1.2018 0.1851,0.078 0.3798,0.1389 0.5809,0.1804 z"
                     id="path6389"
                     style="fill:#1471a2;fill-opacity:1;fill-rule:nonzero;stroke:none" />
                  <path
                     d="m 8149.2158,8246.4644 c -0.067,0.3671 -0.2873,0.7868 -0.5075,1.2018 -0.5267,-0.2235 -1.0007,-0.5458 -1.3981,-0.9432 0.3511,-0.3511 0.7038,-0.7038 0.9193,-0.9225 0.2809,0.2809 0.616,0.5075 0.9863,0.6639 z"
                     id="path6391"
                     style="fill:#2077a8;fill-opacity:1;fill-rule:nonzero;stroke:none" />
                  <path
                     d="m 8148.2295,8245.8005 c -0.1085,0.1101 -0.2506,0.2522 -0.4086,0.4118 -0.3479,-0.3479 -0.6352,-0.7565 -0.8363,-1.1986 0.2011,-0.091 0.3974,-0.1628 0.5794,-0.1979 0.158,0.3719 0.3846,0.7038 0.6655,0.9847 z"
                     id="path6393"
                     style="fill:#3d89bc;fill-opacity:1;fill-rule:nonzero;stroke:none" />
                  <path
                     d="m 8147.564,8244.8158 c -0.182,0.035 -0.3783,0.107 -0.5794,0.1979 -0.1005,-0.2202 -0.1787,-0.45 -0.2314,-0.6862 0.2123,-0.046 0.423,-0.081 0.6304,-0.093 0.042,0.2011 0.1022,0.3958 0.1804,0.5809 z"
                     id="path6395"
                     style="fill:#599cd0;fill-opacity:1;fill-rule:nonzero;stroke:none" />
                  <path
                     d="m 8147.3836,8244.2349 c -0.2074,0.011 -0.4181,0.046 -0.6304,0.093 -0.054,-0.2346 -0.083,-0.474 -0.083,-0.715 0.2171,0 0.4325,0 0.6496,0 0,0.2138 0.022,0.4213 0.064,0.6224 z"
                     id="path6397"
                     style="fill:#60a3d7;fill-opacity:1;fill-rule:nonzero;stroke:none" />
                  <path
                     d="m 8147.8209,8246.2123 c -0.1596,0.158 -0.3351,0.3351 -0.5107,0.5107 -0.399,-0.399 -0.7214,-0.873 -0.9432,-1.3997 0.2075,-0.1085 0.4166,-0.2186 0.6176,-0.3096 0.2011,0.4421 0.4884,0.8507 0.8363,1.1986 z"
                     id="path6399"
                     style="fill:#3b85b6;fill-opacity:1;fill-rule:nonzero;stroke:none" />
                  <path
                     d="m 8146.9846,8245.0137 c -0.201,0.091 -0.4101,0.2011 -0.6176,0.3096 -0.1117,-0.2633 -0.1995,-0.5394 -0.2569,-0.8251 0.2154,-0.061 0.4293,-0.1213 0.6431,-0.1707 0.053,0.2362 0.1309,0.466 0.2314,0.6862 z"
                     id="path6401"
                     style="fill:#549acd;fill-opacity:1;fill-rule:nonzero;stroke:none" />
                  <path
                     d="m 8146.7532,8244.3275 c -0.2138,0.049 -0.4277,0.1101 -0.6431,0.1707 -0.059,-0.2856 -0.089,-0.5825 -0.089,-0.8857 0.217,0 0.4325,0 0.6495,0 0,0.241 0.029,0.4804 0.083,0.715 z"
                     id="path6403"
                     style="fill:#5da1d5;fill-opacity:1;fill-rule:nonzero;stroke:none" />
                  <path
                     d="m 8150.4207,8248.0141 c 0,0.4325 0,0.865 0,1.2959 -0.3942,0 -0.7788,-0.041 -1.1491,-0.1165 0.019,-0.4102 0.1405,-0.8395 0.2618,-1.2704 0.2872,0.059 0.5841,0.091 0.8873,0.091 z"
                     id="path6405"
                     style="fill:#045f89;fill-opacity:1;fill-rule:nonzero;stroke:none" />
                  <path
                     d="m 8149.5334,8247.9231 c -0.1213,0.4309 -0.2426,0.8602 -0.2618,1.2704 -0.3718,-0.075 -0.7293,-0.1883 -1.0709,-0.332 0.069,-0.3622 0.2873,-0.7772 0.5076,-1.1953 0.2633,0.1133 0.5394,0.1995 0.8251,0.2569 z"
                     id="path6407"
                     style="fill:#08628d;fill-opacity:1;fill-rule:nonzero;stroke:none" />
                  <path
                     d="m 8148.7083,8247.6662 c -0.2203,0.4181 -0.4389,0.8331 -0.5076,1.1953 -0.6814,-0.2888 -1.2959,-0.7054 -1.8129,-1.2209 0.2186,-0.2154 0.5697,-0.5649 0.9224,-0.9176 0.3974,0.3974 0.8714,0.7197 1.3981,0.9432 z"
                     id="path6409"
                     style="fill:#166996;fill-opacity:1;fill-rule:nonzero;stroke:none" />
                  <path
                     d="m 8147.3102,8246.723 c -0.1771,0.1755 -0.3527,0.3511 -0.5123,0.5091 -0.4484,-0.4485 -0.8043,-0.9879 -1.0501,-1.5991 0.2027,-0.089 0.4101,-0.1995 0.6192,-0.3097 0.2218,0.5267 0.5442,1.0007 0.9432,1.3997 z"
                     id="path6411"
                     style="fill:#337fb0;fill-opacity:1;fill-rule:nonzero;stroke:none" />
                  <path
                     d="m 8146.367,8245.3233 c -0.2091,0.1102 -0.4165,0.2203 -0.6192,0.3097 -0.1229,-0.3049 -0.2171,-0.6273 -0.2809,-0.9656 0.2139,-0.048 0.4277,-0.1085 0.6432,-0.1692 0.057,0.2857 0.1452,0.5618 0.2569,0.8251 z"
                     id="path6413"
                     style="fill:#4b95ca;fill-opacity:1;fill-rule:nonzero;stroke:none" />
                  <path
                     d="m 8146.1101,8244.4982 c -0.2155,0.061 -0.4293,0.1213 -0.6432,0.1692 -0.064,-0.3367 -0.097,-0.6894 -0.097,-1.0549 0.2171,0 0.4341,0 0.6512,0 0,0.3032 0.03,0.6001 0.089,0.8857 z"
                     id="path6415"
                     style="fill:#529dd4;fill-opacity:1;fill-rule:nonzero;stroke:none" />
                  <path
                     d="m 8146.7979,8247.2321 c -0.158,0.1596 -0.3016,0.3016 -0.4101,0.4085 -0.5155,-0.5154 -0.9321,-1.1283 -1.2209,-1.8113 0.1819,-0.032 0.3782,-0.1054 0.5809,-0.1963 0.2458,0.6112 0.6017,1.1506 1.0501,1.5991 z"
                     id="path6417"
                     style="fill:#2679aa;fill-opacity:1;fill-rule:nonzero;stroke:none" />
                  <path
                     d="m 8145.7478,8245.633 c -0.2027,0.091 -0.399,0.1643 -0.5809,0.1963 -0.1453,-0.34 -0.257,-0.6991 -0.332,-1.0693 0.2075,-0.01 0.4181,-0.043 0.632,-0.093 0.064,0.3383 0.158,0.6607 0.2809,0.9656 z"
                     id="path6419"
                     style="fill:#398fc6;fill-opacity:1;fill-rule:nonzero;stroke:none" />
                  <path
                     d="m 8145.4669,8244.6674 c -0.2139,0.049 -0.4245,0.085 -0.632,0.093 -0.077,-0.3703 -0.1149,-0.7549 -0.1149,-1.1475 0.2155,0 0.4325,0 0.6495,0 0,0.3655 0.034,0.7182 0.097,1.0549 z"
                     id="path6421"
                     style="fill:#3f96d0;fill-opacity:1;fill-rule:nonzero;stroke:none" />
                  <path
                     d="m 8183.6913,8200.953 c 0,6.9503 -6.6248,42.6595 -33.7606,42.6595 0,-15.436 0,-38.941 0,-54.3785 0,0 0,0 0,0 6.537,7.4658 18.7508,11.695 33.7606,11.719 z"
                     id="path6423"
                     style="fill:#1492d1;fill-opacity:1;fill-rule:nonzero;stroke:none" />
                  <path
                     d="m 8149.9307,8243.6125 c 0,-15.436 0,-38.941 0,-54.3785 -0.2521,-0.2857 -0.4963,-0.5793 -0.7325,-0.8762 0,15.7567 0.08,39.498 0.08,55.2547 0.2171,0 0.4341,0 0.6527,0 z"
                     id="path6425"
                     style="fill:#1492d1;fill-opacity:1;fill-rule:nonzero;stroke:none" />
                  <path
                     d="m 8149.278,8243.6125 c 0,-15.7567 -0.08,-39.498 -0.08,-55.2547 -0.2346,-0.2968 -0.4612,-0.5985 -0.6783,-0.9065 0,16.4622 0.107,39.6975 0.107,56.1612 0.217,0 0.4341,0 0.6511,0 z"
                     id="path6427"
                     style="fill:#2895d2;fill-opacity:1;fill-rule:nonzero;stroke:none" />
                  <path
                     d="m 8148.6269,8243.6125 c 0,-16.4637 -0.107,-39.699 -0.107,-56.1612 -0.2186,-0.3064 -0.4277,-0.6176 -0.6272,-0.9336 0,17.1643 0.081,39.9257 0.081,57.0948 0.2171,0 0.4341,0 0.6528,0 z"
                     id="path6429"
                     style="fill:#459cd6;fill-opacity:1;fill-rule:nonzero;stroke:none" />
                  <path
                     d="m 8147.9741,8243.6125 c 0,-17.1691 -0.081,-39.9305 -0.081,-57.0948 -0.1995,-0.316 -0.391,-0.6368 -0.5729,-0.9624 0,17.4852 0,40.5657 0,58.0572 0.2186,0 0.4373,0 0.6543,0 z"
                     id="path6431"
                     style="fill:#5ca3d9;fill-opacity:1;fill-rule:nonzero;stroke:none" />
                  <path
                     d="m 8147.3198,8243.6125 c 0,-17.4915 0,-40.572 0,-58.0572 -0.4166,-0.75 -0.7884,-1.5225 -1.1108,-2.3173 0,18.2512 0.4612,42.1201 0.4612,60.3745 0.2171,0 0.4325,0 0.6496,0 z"
                     id="path6433"
                     style="fill:#64a6db;fill-opacity:1;fill-rule:nonzero;stroke:none" />
                  <path
                     d="m 8146.6702,8243.6125 c 0,-18.2544 -0.4612,-42.1233 -0.4612,-60.3745 -0.3224,-0.7947 -0.5953,-1.6119 -0.8155,-2.4529 0,19.9317 0.6272,42.8909 0.6272,62.8274 0.217,0 0.4325,0 0.6495,0 z"
                     id="path6435"
                     style="fill:#61a5da;fill-opacity:1;fill-rule:nonzero;stroke:none" />
                  <path
                     d="m 8146.0207,8243.6125 c 0,-19.9365 -0.6272,-42.8957 -0.6272,-62.8274 -0.2203,-0.8395 -0.3894,-1.7045 -0.5027,-2.5934 0,21.6122 0.4787,43.8006 0.4787,65.4208 0.2171,0 0.4341,0 0.6512,0 z"
                     id="path6437"
                     style="fill:#57a1d8;fill-opacity:1;fill-rule:nonzero;stroke:none" />
                  <path
                     d="m 8145.3695,8243.6125 c 0,-21.6202 -0.4787,-43.8086 -0.4787,-65.4208 -0.1149,-0.889 -0.1708,-1.8034 -0.1708,-2.7419 0,22.3767 0,45.7796 0,68.1627 0.2155,0 0.4325,0 0.6495,0 z"
                     id="path6439"
                     style="fill:#429ad5;fill-opacity:1;fill-rule:nonzero;stroke:none" />
                </g>
              </g>
            </g>
          </g>
        </g>
      </g>
      <g
         transform="matrix(13.6737,0,0,-13.6737,2123.5675,81.387745)"
         id="g6441">
        <path
           d="M 0,0 C -1.869,9.101 -19.532,9.676 -30.922,2.744 V 1.979 c 11.375,5.848 27.508,5.813 28.978,-2.569 0.495,-2.774 -1.07,-5.662 -3.859,-7.322 v -2.179 C -2.444,-8.861 1,-4.878 0,0 Z m -20.701,-15.923 c -7.857,-0.73 -16.043,0.415 -17.188,6.552 -0.565,3.029 0.815,6.237 2.644,8.231 v 1.065 c -3.294,-2.889 -5.083,-6.542 -4.053,-10.865 1.314,-5.538 8.346,-8.677 19.072,-7.632 4.243,0.41 9.795,1.774 13.659,3.898 v 3.014 c -3.504,-2.094 -9.301,-3.818 -14.134,-4.263"
           id="path6443"
           style="fill:#007dc5;fill-opacity:1;fill-rule:nonzero;stroke:none" />
        <g
           transform="translate(-7.202,1.325)"
           id="g6445">
          <path
             d="m 0,0 h -2.059 v -9.171 c 0,-1.08 0.52,-2.014 2.059,-2.159 V 0"
             id="path6447"
             style="fill:#007dc5;fill-opacity:1;fill-rule:nonzero;stroke:none" />
          <g
             transform="translate(-24.529,-3.349)"
             id="g6449">
            <path
               d="m 0,0 h -2.059 v -5.993 c 0,-1.079 0.52,-2.014 2.059,-2.164 V 0"
               id="path6451"
               style="fill:#007dc5;fill-opacity:1;fill-rule:nonzero;stroke:none" />
            <g
               transform="translate(-545.328,-193.891)"
               id="g6453">
              <path
                 d="m 543.268,195.011 h 2.0541 v 1.9491 h -2.0541 z"
                 id="path6455"
                 style="fill:#007dc5;fill-opacity:1;fill-rule:nonzero;stroke:none" />
              <g
                 transform="translate(557.667,185.83)"
                 id="g6457">
                <path
                   d="m 0,0 c -1.664,0 -2.374,1.159 -2.374,2.304 v 7.957 h 2.039 V 8.062 H 1.204 V 6.412 H -0.335 V 2.434 c 0,-0.47 0.225,-0.73 0.71,-0.73 H 1.204 V 0 H 0"
                   id="path6459"
                   style="fill:#007dc5;fill-opacity:1;fill-rule:nonzero;stroke:none" />
                <g
                   transform="translate(5.418,6.507)"
                   id="g6461">
                  <path
                     d="m 0,0 c -0.7,0 -1.24,-0.36 -1.464,-0.845 -0.135,-0.289 -0.18,-0.514 -0.2,-0.874 H 1.484 C 1.444,-0.845 1.044,0 0,0 Z m -1.664,-3.114 c 0,-1.044 0.654,-1.814 1.814,-1.814 0.91,0 1.354,0.255 1.874,0.77 l 1.26,-1.205 C 2.479,-6.162 1.629,-6.642 0.135,-6.642 c -1.959,0 -3.828,1.064 -3.828,4.173 0,2.659 1.634,4.158 3.778,4.158 2.184,0 3.433,-1.759 3.433,-4.063 v -0.74 h -5.182"
                     id="path6463"
                     style="fill:#007dc5;fill-opacity:1;fill-rule:nonzero;stroke:none" />
                  <g
                     transform="translate(-12.21,-0.095)"
                     id="g6465">
                    <path
                       d="m 0,0 c 0.6,0 0.85,-0.295 0.85,-0.775 v -5.647 h 2.044 v 5.657 c 0,1.145 -0.615,2.409 -2.404,2.409 l -4.223,0.005 v -8.071 h 2.044 V 0 H 0"
                       id="path6467"
                       style="fill:#007dc5;fill-opacity:1;fill-rule:nonzero;stroke:none" />
                    <g
                       transform="translate(21.361,4.393)"
                       id="g6469">
                      <path
                         d="m 0,0 c 0,0.095 -0.055,0.13 -0.19,0.13 -0.015,0 -0.06,0 -0.09,0 -0.015,0 -0.035,0 -0.035,0 v -0.285 c 0.02,0 0.11,-0.005 0.125,-0.005 0.135,0 0.19,0.045 0.19,0.14 z M 0.2,-0.705 H 0.05 c -0.015,0 -0.025,0.01 -0.03,0.025 l -0.21,0.35 c -0.005,0.005 -0.02,0.015 -0.03,0.015 0,0 -0.035,0 -0.06,0 -0.015,0 -0.025,0 -0.035,0 v -0.35 c 0,-0.02 -0.01,-0.04 -0.03,-0.04 h -0.14 c -0.02,0 -0.035,0.02 -0.035,0.04 V 0.22 c 0,0.05 0.015,0.07 0.065,0.08 0.045,0.005 0.175,0.01 0.25,0.01 C 0.05,0.31 0.2,0.23 0.2,0 V -0.02 C 0.2,-0.165 0.125,-0.245 0.015,-0.285 L 0.23,-0.65 C 0.235,-0.655 0.235,-0.665 0.235,-0.675 0.235,-0.69 0.23,-0.705 0.2,-0.705 Z M -0.16,0.47 c -0.375,0 -0.68,-0.31 -0.68,-0.685 0,-0.375 0.305,-0.68 0.68,-0.68 0.375,0 0.68,0.305 0.68,0.68 0,0.375 -0.305,0.685 -0.68,0.685 z m 0,-1.505 c -0.455,0 -0.82,0.37 -0.82,0.82 0,0.455 0.365,0.82 0.82,0.82 0.455,0 0.82,-0.365 0.82,-0.82 0,-0.45 -0.365,-0.82 -0.82,-0.82"
                         id="path6471"
                         style="fill:#007dc5;fill-opacity:1;fill-rule:nonzero;stroke:none" />
                      <g
                         transform="translate(-10.67,-37.909)"
                         id="g6473">
                        <path
                           d="m 0,0 -0.095,-0.53 c -0.01,-0.07 -0.07,-0.12 -0.14,-0.12 H -0.82 c -0.065,0 -0.11,0.04 -0.11,0.1 0,0.005 0,0.01 0,0.02 L -0.835,0 c 0.015,0.065 0.08,0.12 0.15,0.12 H -0.1 C -0.04,0.12 0,0.08 0,0.02 0,0.015 0,0.005 0,0 Z M -0.235,-1.229 -0.79,-4.393 c -0.01,-0.07 -0.08,-0.13 -0.145,-0.13 h -0.559 c -0.06,0 -0.095,0.045 -0.095,0.105 0,0.01 0,0.02 0,0.025 l 0.555,3.164 c 0.014,0.065 0.074,0.125 0.139,0.125 h 0.56 c 0.06,0 0.1,-0.04 0.1,-0.105 0,-0.005 0,-0.01 0,-0.02"
                           id="path6475"
                           style="fill:#ffffff;fill-opacity:1;fill-rule:nonzero;stroke:none" />
                        <g
                           transform="translate(3.158,-2.419)"
                           id="g6477">
                          <path
                             d="m 0,0 -0.345,-1.974 c -0.015,-0.07 -0.08,-0.13 -0.145,-0.13 h -0.56 c -0.06,0 -0.099,0.045 -0.099,0.105 0,0.005 0.004,0.02 0.004,0.025 L -0.8,0 c 0.02,0.15 0.04,0.265 0.04,0.36 0,0.235 -0.1,0.315 -0.435,0.315 -0.204,0 -0.439,-0.085 -0.719,-0.22 l -0.43,-2.429 c -0.015,-0.07 -0.08,-0.13 -0.145,-0.13 h -0.56 c -0.06,0 -0.1,0.045 -0.1,0.105 0,0.005 0.005,0.02 0.005,0.025 l 0.56,3.164 c 0.01,0.064 0.07,0.124 0.135,0.124 h 0.53 c 0.06,0 0.1,-0.05 0.1,-0.104 0,-0.006 0,-0.006 0,-0.011 V 1.19 L -1.844,1.065 c 0.39,0.224 0.649,0.289 1.009,0.289 0.66,0 0.875,-0.389 0.875,-0.909 C 0.04,0.305 0.03,0.155 0,0"
                             id="path6479"
                             style="fill:#ffffff;fill-opacity:1;fill-rule:nonzero;stroke:none" />
                          <g
                             transform="translate(3.169,1.09)"
                             id="g6481">
                            <path
                               d="M 0,0 -0.065,-0.345 C -0.075,-0.42 -0.12,-0.46 -0.18,-0.46 c -0.005,0 -0.01,0 -0.015,0 h -0.01 c -0.16,0.02 -0.61,0.07 -0.955,0.07 -0.189,0 -0.464,-0.025 -0.464,-0.28 0,-0.08 0.06,-0.16 0.18,-0.25 l 0.709,-0.479 c 0.365,-0.25 0.445,-0.5 0.445,-0.765 0,-0.755 -0.615,-1.08 -1.334,-1.08 -0.205,0 -0.72,0.02 -1.095,0.125 -0.06,0.015 -0.09,0.055 -0.09,0.11 0,0.005 0,0.01 0,0.015 0,0.01 0,0.01 0,0.01 l 0.07,0.365 c 0.01,0.06 0.065,0.095 0.125,0.095 0.005,0 0.01,0 0.02,0 0.285,-0.035 0.785,-0.065 0.97,-0.065 0.295,0 0.52,0.055 0.52,0.34 0,0.1 -0.056,0.19 -0.2,0.29 l -0.74,0.51 c -0.23,0.155 -0.395,0.429 -0.395,0.719 0,0.8 0.7,0.995 1.279,0.995 0.365,0 0.74,-0.04 1.07,-0.125 C -0.03,0.12 0,0.08 0,0.03 0,0.025 0,0.015 0,0.01 0,0.005 0,0.005 0,0"
                               id="path6483"
                               style="fill:#ffffff;fill-opacity:1;fill-rule:nonzero;stroke:none" />
                            <g
                               transform="translate(1.844,1.329)"
                               id="g6485">
                              <path
                                 d="M 0,0 -0.095,-0.53 C -0.11,-0.6 -0.17,-0.65 -0.235,-0.65 h -0.59 c -0.06,0 -0.11,0.04 -0.11,0.1 0,0.005 0,0.01 0,0.02 l 0.1,0.53 c 0.01,0.065 0.075,0.12 0.145,0.12 h 0.585 C -0.045,0.12 0,0.08 0,0.02 0,0.015 0,0.005 0,0 Z m -0.235,-1.229 -0.56,-3.164 c -0.01,-0.07 -0.08,-0.13 -0.145,-0.13 h -0.554 c -0.065,0 -0.1,0.045 -0.1,0.105 0,0.01 0,0.02 0,0.025 l 0.559,3.164 c 0.01,0.065 0.07,0.125 0.14,0.125 h 0.555 c 0.06,0 0.105,-0.04 0.105,-0.105 0,-0.005 0,-0.01 0,-0.02"
                                 id="path6487"
                                 style="fill:#ffffff;fill-opacity:1;fill-rule:nonzero;stroke:none" />
                              <g
                                 transform="translate(1.809,-1.719)"
                                 id="g6489">
                                <path
                                   d="m 0,0 c -0.52,0 -0.705,-0.28 -0.805,-0.865 l -0.08,-0.469 c -0.02,-0.145 -0.035,-0.265 -0.035,-0.375 0,-0.33 0.14,-0.49 0.535,-0.49 0.215,0 0.465,0.02 0.585,0.045 L 0.57,-0.04 C 0.41,-0.015 0.145,0 0,0 Z M 1.679,1.684 0.93,-2.529 c -0.015,-0.09 -0.045,-0.125 -0.19,-0.165 -0.395,-0.095 -0.855,-0.16 -1.245,-0.16 -0.839,0 -1.209,0.52 -1.209,1.19 0,0.11 0.015,0.215 0.03,0.33 l 0.08,0.469 c 0.18,1.095 0.744,1.52 1.719,1.52 0.145,0 0.35,-0.015 0.57,-0.04 L 0.88,1.684 c 0.01,0.065 0.07,0.12 0.14,0.12 h 0.554 c 0.06,0 0.105,-0.045 0.105,-0.1 0,-0.01 0,-0.015 0,-0.02"
                                   id="path6491"
                                   style="fill:#ffffff;fill-opacity:1;fill-rule:nonzero;stroke:none" />
                                <g
                                   transform="translate(3.514,-0.035)"
                                   id="g6493">
                                <path
                                   d="M 0,0 C -0.485,0 -0.71,-0.325 -0.79,-0.77 H 0.495 C 0.51,-0.69 0.52,-0.62 0.52,-0.54 0.52,-0.19 0.335,0 0,0 Z M 1.279,-0.895 1.229,-1.184 C 1.21,-1.284 1.169,-1.339 1.085,-1.339 H -0.89 c -0.015,-0.085 -0.03,-0.165 -0.03,-0.245 0,-0.33 0.17,-0.55 0.62,-0.55 0.44,0 0.855,0.045 1.115,0.07 0.01,0 0.02,0 0.025,0 0.05,0 0.09,-0.015 0.09,-0.07 0,-0.005 0,-0.015 0,-0.025 l -0.07,-0.4 C 0.84,-2.654 0.825,-2.694 0.71,-2.714 0.305,-2.789 0.035,-2.819 -0.51,-2.819 c -0.539,0 -1.189,0.305 -1.189,1.22 0,0.105 0.005,0.235 0.025,0.365 l 0.07,0.374 c 0.2,1.13 0.799,1.55 1.724,1.55 0.805,0 1.189,-0.535 1.189,-1.24 0,-0.11 -0.015,-0.23 -0.03,-0.345"
                                   id="path6495"
                                   style="fill:#ffffff;fill-opacity:1;fill-rule:nonzero;stroke:none" />
                                <g
                                   transform="translate(-35.395,-1.165)"
                                   id="g6497">
                                <path
                                   d="m 0,0 v 0.715 c 0,0.3 -0.045,0.544 -0.14,0.724 -0.095,0.185 -0.225,0.315 -0.39,0.39 -0.165,0.075 -0.365,0.115 -0.59,0.115 -0.214,0 -0.409,-0.005 -0.584,-0.015 v -3.143 c 0.11,-0.01 0.305,-0.015 0.584,-0.015 0.35,0 0.625,0.095 0.825,0.279 C -0.1,-0.76 0,-0.445 0,0 Z m 0.48,0 c 0,-0.55 -0.14,-0.96 -0.42,-1.229 -0.28,-0.275 -0.675,-0.41 -1.18,-0.41 -0.07,0 -0.159,0 -0.274,0.005 -0.115,0.005 -0.22,0.01 -0.315,0.015 -0.09,0.005 -0.16,0.01 -0.205,0.01 -0.04,0.005 -0.095,0.01 -0.165,0.02 -0.075,0.01 -0.11,0.055 -0.11,0.135 v 3.623 c 0,0.075 0.035,0.12 0.11,0.13 0.075,0.01 0.145,0.02 0.22,0.025 0.075,0.005 0.18,0.01 0.325,0.02 0.14,0.005 0.28,0.01 0.414,0.01 0.51,0 0.9,-0.135 1.18,-0.41 C 0.34,1.674 0.48,1.265 0.48,0.71 V 0"
                                   id="path6499"
                                   style="fill:#ffffff;fill-opacity:1;fill-rule:nonzero;stroke:none" />
                                <g
                                   transform="translate(1.005,-0.534)"
                                   id="g6501">
                                <path
                                   d="m 0,0 v 1.724 c 0,0.035 0.01,0.055 0.03,0.08 0.02,0.02 0.045,0.03 0.075,0.03 H 0.36 c 0.025,0 0.05,-0.01 0.075,-0.03 0.015,-0.025 0.03,-0.045 0.03,-0.08 V 0 c 0,-0.26 0.045,-0.445 0.14,-0.55 0.095,-0.105 0.255,-0.16 0.47,-0.16 0.079,0 0.189,0.01 0.324,0.03 0.14,0.015 0.255,0.04 0.355,0.065 v 2.339 c 0,0.03 0.01,0.055 0.03,0.075 0.02,0.02 0.045,0.035 0.08,0.035 h 0.255 c 0.03,0 0.055,-0.01 0.075,-0.03 0.02,-0.025 0.025,-0.045 0.025,-0.08 v -2.539 c 0,-0.065 -0.03,-0.11 -0.095,-0.125 -0.42,-0.11 -0.785,-0.165 -1.094,-0.165 -0.255,0 -0.465,0.04 -0.615,0.13 C 0.26,-0.89 0.155,-0.765 0.09,-0.605 0.03,-0.445 0,-0.245 0,0"
                                   id="path6503"
                                   style="fill:#ffffff;fill-opacity:1;fill-rule:nonzero;stroke:none" />
                                <g
                                   transform="translate(4.368,-0.695)"
                                   id="g6505">
                                <path
                                   d="m 0,0 v 1.03 h -0.395 c -0.165,0 -0.3,-0.01 -0.4,-0.025 -0.1,-0.02 -0.18,-0.05 -0.24,-0.09 C -1.09,0.87 -1.134,0.82 -1.159,0.76 -1.184,0.695 -1.194,0.615 -1.194,0.515 V 0.47 c 0,-0.125 0.02,-0.225 0.054,-0.3 0.04,-0.075 0.11,-0.13 0.21,-0.165 0.1,-0.035 0.24,-0.05 0.42,-0.05 0.07,0 0.14,0 0.205,0.005 0.065,0.005 0.125,0.01 0.175,0.015 0.055,0.01 0.095,0.02 0.13,0.025 z m 0.46,-0.17 c 0,-0.065 -0.025,-0.105 -0.075,-0.12 -0.14,-0.04 -0.28,-0.07 -0.42,-0.09 -0.14,-0.02 -0.295,-0.03 -0.475,-0.03 -0.41,0 -0.704,0.07 -0.884,0.21 -0.18,0.135 -0.27,0.355 -0.27,0.66 v 0.05 c 0,0.195 0.04,0.355 0.125,0.485 0.085,0.125 0.22,0.215 0.405,0.279 0.184,0.06 0.434,0.09 0.739,0.09 H 0 v 0.21 c 0,0.22 -0.045,0.37 -0.13,0.455 -0.085,0.085 -0.23,0.13 -0.435,0.13 -0.16,0 -0.3,-0.01 -0.415,-0.035 -0.115,-0.02 -0.244,-0.055 -0.394,-0.1 -0.035,-0.01 -0.065,-0.01 -0.09,0.005 -0.02,0.015 -0.035,0.035 -0.035,0.065 v 0.205 c 0,0.04 0.025,0.075 0.075,0.095 0.08,0.035 0.2,0.07 0.359,0.11 0.16,0.04 0.325,0.06 0.5,0.06 0.685,0 1.025,-0.335 1.025,-0.99 V -0.17"
                                   id="path6507"
                                   style="fill:#ffffff;fill-opacity:1;fill-rule:nonzero;stroke:none" />
                                <g
                                   transform="translate(1.534,-0.27)"
                                   id="g6509">
                                <path
                                   d="m 0,0 c 0,-0.03 -0.01,-0.055 -0.025,-0.075 -0.015,-0.02 -0.04,-0.03 -0.07,-0.03 H -0.37 c -0.025,0 -0.05,0.01 -0.065,0.03 -0.02,0.02 -0.03,0.045 -0.03,0.075 v 3.763 c 0,0.025 0.01,0.045 0.025,0.065 0.015,0.025 0.04,0.03 0.07,0.03 h 0.275 c 0.03,0 0.055,-0.005 0.07,-0.025 C -0.01,3.813 0,3.788 0,3.763 V 0"
                                   id="path6511"
                                   style="fill:#ffffff;fill-opacity:1;fill-rule:nonzero;stroke:none" />
                                <g
                                   transform="translate(1.724,1.319)"
                                   id="g6513">
                                <path
                                   d="M 0,0 C 0,-0.06 -0.035,-0.09 -0.105,-0.09 H -1.15 c -0.07,0 -0.099,0.03 -0.099,0.09 v 0.245 c 0,0.03 0.004,0.05 0.024,0.065 0.02,0.02 0.045,0.03 0.075,0.03 h 1.045 C -0.035,0.34 0,0.31 0,0.245 V 0"
                                   id="path6515"
                                   style="fill:#ffffff;fill-opacity:1;fill-rule:nonzero;stroke:none" />
                                <g
                                   transform="translate(0.445,0.165)"
                                   id="g6517">
                                <path
                                   d="m 0,0 v 0.735 c 0,0.589 0.135,1.009 0.4,1.259 0.265,0.25 0.6,0.375 1.009,0.375 0.11,0 0.22,-0.015 0.335,-0.04 C 1.859,2.309 1.964,2.279 2.059,2.244 2.159,2.209 2.234,2.179 2.289,2.149 2.324,2.124 2.344,2.099 2.344,2.064 V 1.804 C 2.344,1.784 2.334,1.769 2.319,1.759 2.299,1.749 2.279,1.749 2.254,1.754 2.159,1.794 2.029,1.829 1.854,1.874 1.679,1.919 1.534,1.934 1.409,1.934 0.79,1.934 0.48,1.539 0.48,0.74 V 0.01 c 0,-0.29 0.04,-0.53 0.12,-0.705 0.075,-0.18 0.185,-0.305 0.32,-0.384 0.135,-0.075 0.299,-0.115 0.489,-0.115 0.215,0 0.495,0.06 0.845,0.174 0.03,0.015 0.05,0.015 0.065,0.006 0.02,-0.011 0.025,-0.026 0.025,-0.051 v -0.259 c 0,-0.035 -0.02,-0.06 -0.055,-0.08 -0.055,-0.03 -0.13,-0.06 -0.23,-0.095 C 1.964,-1.534 1.859,-1.564 1.744,-1.589 1.629,-1.614 1.519,-1.624 1.409,-1.624 1,-1.624 0.665,-1.499 0.4,-1.249 0.135,-1.005 0,-0.585 0,0"
                                   id="path6519"
                                   style="fill:#ffffff;fill-opacity:1;fill-rule:nonzero;stroke:none" />
                                <g
                                   transform="translate(4.558,-0.339)"
                                   id="g6521">
                                <path
                                   d="m 0,0 v 0.4 c 0,0.185 -0.025,0.345 -0.075,0.475 -0.05,0.13 -0.13,0.23 -0.235,0.304 -0.105,0.071 -0.24,0.105 -0.4,0.105 -0.239,0 -0.419,-0.08 -0.534,-0.229 C -1.359,0.9 -1.419,0.685 -1.419,0.4 V 0 c 0,-0.585 0.235,-0.88 0.709,-0.88 0.24,0 0.415,0.075 0.535,0.23 C -0.06,-0.5 0,-0.28 0,0 Z m 0.465,0 c 0,-0.395 -0.1,-0.71 -0.305,-0.94 -0.2,-0.229 -0.49,-0.344 -0.87,-0.344 -0.379,0 -0.669,0.115 -0.869,0.344 -0.205,0.23 -0.305,0.545 -0.305,0.94 v 0.4 c 0,0.395 0.1,0.71 0.305,0.939 0.2,0.235 0.49,0.35 0.869,0.35 0.38,0 0.67,-0.115 0.87,-0.35 C 0.365,1.11 0.465,0.795 0.465,0.4 V 0"
                                   id="path6523"
                                   style="fill:#ffffff;fill-opacity:1;fill-rule:nonzero;stroke:none" />
                                <g
                                   transform="translate(2.049,1.689)"
                                   id="g6525">
                                <path
                                   d="M 0,0 C 0.135,0 0.255,-0.005 0.355,-0.02 0.395,-0.03 0.42,-0.04 0.43,-0.055 0.44,-0.07 0.445,-0.1 0.445,-0.13 V -0.32 C 0.445,-0.36 0.44,-0.385 0.425,-0.395 0.41,-0.41 0.385,-0.415 0.345,-0.41 0.225,-0.405 0.11,-0.4 0,-0.4 c -0.22,0 -0.43,-0.025 -0.63,-0.08 v -2.354 c 0,-0.025 -0.01,-0.05 -0.035,-0.075 -0.02,-0.02 -0.045,-0.03 -0.07,-0.03 h -0.26 c -0.025,0 -0.05,0.01 -0.07,0.03 -0.02,0.02 -0.029,0.045 -0.029,0.075 v 2.554 c 0,0.065 0.029,0.105 0.094,0.125 0.2,0.055 0.38,0.095 0.54,0.12 C -0.3,-0.01 -0.145,0 0,0"
                                   id="path6527"
                                   style="fill:#ffffff;fill-opacity:1;fill-rule:nonzero;stroke:none" />
                                <g
                                   transform="translate(2.489,-1.28)"
                                   id="g6529">
                                <path
                                   d="M 0,0 V 0.05 C 0,0.24 -0.03,0.4 -0.08,0.525 -0.13,0.65 -0.205,0.735 -0.305,0.79 -0.41,0.845 -0.535,0.875 -0.695,0.875 -1.165,0.875 -1.4,0.6 -1.4,0.05 V 0 Z m -0.67,-1.289 c 0.12,0 0.235,0.01 0.345,0.035 0.115,0.02 0.225,0.05 0.33,0.09 0.11,0.034 0.195,0.064 0.26,0.089 0.04,0.015 0.065,0.02 0.09,0.006 0.02,-0.015 0.03,-0.04 0.03,-0.071 v -0.214 c 0,-0.04 -0.02,-0.07 -0.07,-0.1 -0.305,-0.16 -0.635,-0.24 -0.985,-0.24 -0.22,0 -0.42,0.04 -0.6,0.115 -0.174,0.08 -0.319,0.215 -0.429,0.4 -0.11,0.189 -0.165,0.439 -0.165,0.749 v 0.475 c 0,0.38 0.1,0.685 0.305,0.9 0.205,0.225 0.494,0.335 0.864,0.335 0.25,0 0.465,-0.05 0.635,-0.155 0.175,-0.1 0.31,-0.24 0.395,-0.43 0.085,-0.185 0.13,-0.4 0.13,-0.65 V -0.24 c 0,-0.08 -0.03,-0.115 -0.1,-0.115 H -1.4 V -0.43 c 0,-0.305 0.061,-0.525 0.175,-0.659 0.12,-0.13 0.305,-0.2 0.555,-0.2"
                                   id="path6531"
                                   style="fill:#ffffff;fill-opacity:1;fill-rule:nonzero;stroke:none" />
                                <g
                                   transform="translate(20.346,1.715)"
                                   id="g6533">
                                <path
                                   d="M 0,0 V 1.025 H -0.01 L -0.41,0 H -0.54 L -0.945,1.025 H -0.95 V 0 H -1.149 V 1.234 H -0.84 L -0.47,0.3 -0.11,1.234 H 0.205 V 0 Z M -1.789,1.069 V 0 h -0.205 v 1.069 h -0.385 v 0.165 h 0.975 V 1.069 h -0.385"
                                   id="path6535"
                                   style="fill:#ffffff;fill-opacity:1;fill-rule:nonzero;stroke:none" />
                                <g
                                   transform="translate(-36.614,8.786)"
                                   id="g6537">
                                <path
                                   d="m 0,0 v 0.095 c 0,0.45 -0.13,0.77 -0.395,0.965 -0.26,0.195 -0.675,0.289 -1.229,0.289 -0.35,0 -0.675,-0.015 -0.965,-0.045 v -2.568 c 0.35,-0.025 0.67,-0.035 0.965,-0.035 0.384,0 0.699,0.045 0.934,0.145 0.235,0.089 0.415,0.229 0.525,0.419 C -0.055,-0.545 0,-0.3 0,0 Z m 1.494,0 c 0,-0.89 -0.289,-1.534 -0.864,-1.934 -0.58,-0.4 -1.33,-0.595 -2.259,-0.595 -0.055,0 -0.18,0 -0.375,0.01 -0.195,0.01 -0.32,0.015 -0.38,0.02 -0.06,0 -0.13,0.005 -0.205,0.01 v -2.834 c 0,-0.06 -0.02,-0.11 -0.065,-0.15 -0.04,-0.04 -0.085,-0.065 -0.145,-0.065 h -1.079 c -0.055,0 -0.1,0.025 -0.145,0.065 -0.05,0.04 -0.07,0.095 -0.07,0.15 v 7.452 c 0,0.105 0.025,0.18 0.085,0.225 0.06,0.05 0.145,0.08 0.26,0.1 0.594,0.095 1.299,0.145 2.124,0.145 0.929,0 1.679,-0.195 2.254,-0.585 C 1.205,1.619 1.494,0.985 1.494,0.095 V 0"
                                   id="path6539"
                                   style="fill:#ffffff;fill-opacity:1;fill-rule:nonzero;stroke:none" />
                                <g
                                   transform="translate(5.793,-1.959)"
                                   id="g6541">
                                <path
                                   d="m 0,0 v 0.045 c 0,0.435 -0.105,0.765 -0.31,0.99 -0.205,0.224 -0.48,0.339 -0.835,0.339 -0.225,0 -0.424,-0.05 -0.599,-0.15 -0.175,-0.095 -0.31,-0.239 -0.41,-0.439 -0.095,-0.195 -0.15,-0.44 -0.15,-0.74 V 0 Z m -0.98,-3.664 c -0.454,0 -0.889,0.086 -1.309,0.255 -0.415,0.165 -0.76,0.455 -1.04,0.86 -0.274,0.405 -0.414,0.94 -0.414,1.604 v 0.8 c 0,0.555 0.105,1.04 0.304,1.459 0.205,0.42 0.5,0.74 0.895,0.96 0.39,0.225 0.86,0.33 1.399,0.33 0.545,0 1.01,-0.115 1.4,-0.35 C 0.645,2.024 0.94,1.704 1.14,1.289 1.339,0.875 1.439,0.4 1.439,-0.14 V -0.745 C 1.439,-0.93 1.364,-1.02 1.224,-1.02 h -3.538 v -0.03 c 0,-0.409 0.105,-0.744 0.31,-0.994 0.205,-0.255 0.585,-0.385 1.139,-0.385 0.3,0 0.63,0.03 0.98,0.095 0.355,0.06 0.645,0.125 0.87,0.195 0.149,0.05 0.224,-0.005 0.224,-0.165 v -0.64 c 0,-0.07 -0.015,-0.13 -0.054,-0.165 -0.035,-0.04 -0.095,-0.08 -0.17,-0.12 -0.225,-0.115 -0.51,-0.215 -0.87,-0.305 -0.355,-0.084 -0.72,-0.13 -1.095,-0.13"
                                   id="path6543"
                                   style="fill:#ffffff;fill-opacity:1;fill-rule:nonzero;stroke:none" />
                                <g
                                   transform="translate(7.382,-3.349)"
                                   id="g6545">
                                <path
                                   d="M 0,0 C 0,-0.055 -0.02,-0.11 -0.065,-0.155 -0.11,-0.205 -0.16,-0.23 -0.215,-0.23 h -0.999 c -0.06,0 -0.11,0.025 -0.15,0.075 -0.04,0.045 -0.06,0.1 -0.06,0.155 v 3.574 c 0,0.284 -0.035,0.509 -0.1,0.679 -0.07,0.17 -0.18,0.29 -0.34,0.37 -0.155,0.075 -0.37,0.115 -0.65,0.115 -0.33,0 -0.685,-0.04 -1.064,-0.115 V 0 c 0,-0.065 -0.02,-0.12 -0.06,-0.16 -0.04,-0.045 -0.095,-0.07 -0.155,-0.07 h -0.995 c -0.06,0 -0.115,0.025 -0.155,0.075 -0.045,0.045 -0.06,0.1 -0.06,0.155 v 5.413 c 0,0.105 0.07,0.18 0.215,0.215 0.36,0.1 0.75,0.18 1.165,0.24 0.409,0.054 0.799,0.084 1.154,0.084 0.85,0 1.474,-0.184 1.874,-0.559 C -0.195,5.018 0,4.413 0,3.583 V 0"
                                   id="path6547"
                                   style="fill:#ffffff;fill-opacity:1;fill-rule:nonzero;stroke:none" />
                                <g
                                   transform="translate(4.448,-0.045)"
                                   id="g6549">
                                <path
                                   d="m 0,0 c 0,-0.105 -0.07,-0.17 -0.205,-0.19 -0.305,-0.055 -0.585,-0.08 -0.85,-0.08 -0.434,0 -0.769,0.045 -1.014,0.13 -0.24,0.09 -0.425,0.255 -0.54,0.505 -0.115,0.245 -0.175,0.61 -0.175,1.089 v 3.399 l -0.899,0.155 c -0.14,0.025 -0.215,0.095 -0.215,0.22 v 0.485 c 0,0.059 0.02,0.11 0.06,0.154 0.04,0.04 0.095,0.06 0.155,0.06 h 0.899 v 0.89 c 0,0.12 0.075,0.19 0.22,0.215 l 1.005,0.175 h 0.045 c 0.115,0 0.17,-0.055 0.17,-0.165 V 5.927 h 1.094 c 0.07,0 0.12,-0.02 0.16,-0.055 0.04,-0.045 0.06,-0.095 0.06,-0.159 v -0.64 c 0,-0.06 -0.02,-0.115 -0.065,-0.155 -0.04,-0.04 -0.09,-0.065 -0.155,-0.065 H -1.344 V 1.454 c 0,-0.27 0.025,-0.434 0.074,-0.504 0.046,-0.065 0.16,-0.1 0.35,-0.1 h 0.695 C -0.075,0.85 0,0.795 0,0.685 V 0"
                                   id="path6551"
                                   style="fill:#ffffff;fill-opacity:1;fill-rule:nonzero;stroke:none" />
                                <g
                                   transform="translate(2.149,0.045)"
                                   id="g6553">
                                <path
                                   d="m 0,0 c 0,-0.065 -0.025,-0.12 -0.06,-0.16 -0.045,-0.045 -0.095,-0.07 -0.155,-0.07 h -0.999 c -0.06,0 -0.11,0.025 -0.155,0.075 -0.04,0.045 -0.06,0.1 -0.06,0.155 v 5.668 c 0,0.06 0.02,0.105 0.06,0.155 0.045,0.039 0.095,0.06 0.155,0.06 h 0.999 C -0.15,5.883 -0.1,5.862 -0.06,5.828 -0.02,5.783 0,5.733 0,5.668 Z m 0.03,6.907 c 0,-0.065 -0.02,-0.115 -0.065,-0.155 -0.04,-0.04 -0.09,-0.06 -0.15,-0.06 h -1.049 c -0.055,0 -0.105,0.02 -0.155,0.06 -0.05,0.04 -0.075,0.09 -0.075,0.155 v 0.955 c 0,0.055 0.025,0.11 0.075,0.15 0.05,0.045 0.1,0.065 0.155,0.065 h 1.049 c 0.06,0 0.11,-0.02 0.15,-0.06 C 0.01,7.972 0.03,7.922 0.03,7.862 V 6.907"
                                   id="path6555"
                                   style="fill:#ffffff;fill-opacity:1;fill-rule:nonzero;stroke:none" />
                                <g
                                   transform="translate(1.139,5.653)"
                                   id="g6557">
                                <path
                                   d="M 0,0 C 0,0.06 0.015,0.11 0.06,0.16 0.1,0.205 0.15,0.23 0.21,0.23 H 1.209 C 1.274,0.23 1.319,0.205 1.365,0.165 1.404,0.12 1.424,0.07 1.424,0 v -3.568 c 0,-0.215 0.02,-0.39 0.055,-0.535 0.035,-0.145 0.09,-0.265 0.175,-0.36 0.085,-0.095 0.195,-0.165 0.335,-0.205 0.135,-0.045 0.31,-0.07 0.525,-0.07 0.355,0 0.71,0.04 1.064,0.12 V 0 c 0,0.06 0.02,0.11 0.06,0.16 0.04,0.045 0.09,0.07 0.15,0.07 h 1 C 4.843,0.23 4.893,0.205 4.938,0.16 4.983,0.11 5.003,0.06 5.003,0 v -5.413 c 0,-0.105 -0.075,-0.18 -0.215,-0.215 -0.39,-0.105 -0.785,-0.184 -1.184,-0.239 -0.4,-0.055 -0.78,-0.085 -1.135,-0.085 -0.435,0 -0.8,0.045 -1.104,0.135 -0.3,0.089 -0.555,0.234 -0.76,0.424 -0.21,0.195 -0.36,0.44 -0.46,0.735 C 0.045,-4.358 0,-4.003 0,-3.583 V 0"
                                   id="path6559"
                                   style="fill:#ffffff;fill-opacity:1;fill-rule:nonzero;stroke:none" />
                                <g
                                   transform="translate(10.716,-5.653)"
                                   id="g6561">
                                <path
                                   d="M 0,0 C 0,-0.065 -0.02,-0.12 -0.06,-0.16 -0.1,-0.205 -0.155,-0.23 -0.215,-0.23 h -0.994 c -0.065,0 -0.115,0.025 -0.155,0.075 -0.04,0.045 -0.06,0.1 -0.06,0.155 v 3.574 c 0,0.289 -0.035,0.519 -0.095,0.684 -0.055,0.165 -0.165,0.285 -0.315,0.365 -0.15,0.075 -0.36,0.115 -0.635,0.115 -0.215,0 -0.45,-0.035 -0.71,-0.105 V 0 c 0,-0.065 -0.02,-0.12 -0.06,-0.16 -0.04,-0.045 -0.09,-0.07 -0.155,-0.07 h -0.994 c -0.065,0 -0.115,0.025 -0.155,0.075 -0.04,0.045 -0.06,0.1 -0.06,0.155 v 5.413 c 0,0.095 0.07,0.17 0.215,0.215 0.275,0.1 0.605,0.175 0.984,0.234 0.38,0.06 0.715,0.09 1,0.09 0.74,0 1.295,-0.139 1.669,-0.414 0.27,0.115 0.565,0.215 0.89,0.295 0.32,0.079 0.635,0.119 0.939,0.119 0.685,0 1.205,-0.189 1.555,-0.569 0.35,-0.38 0.525,-0.98 0.525,-1.8 V 0 c 0,-0.065 -0.02,-0.12 -0.06,-0.16 -0.04,-0.045 -0.095,-0.07 -0.16,-0.07 H 1.959 c -0.06,0 -0.115,0.025 -0.155,0.075 -0.04,0.045 -0.06,0.1 -0.06,0.155 v 3.574 c 0,0.289 -0.025,0.514 -0.08,0.684 C 1.609,4.423 1.514,4.543 1.384,4.623 1.249,4.698 1.07,4.738 0.835,4.738 0.545,4.738 0.23,4.668 -0.105,4.533 -0.035,4.233 0,3.918 0,3.579 V 0"
                                   id="path6563"
                                   style="fill:#ffffff;fill-opacity:1;fill-rule:nonzero;stroke:none" />
                                <g
                                   transform="translate(3.838,6.837)"
                                   id="g6565">
                                <path
                                   d="m 0,0 c 0,0.095 -0.055,0.13 -0.19,0.13 -0.015,0 -0.06,0 -0.095,0 -0.015,0 -0.03,0 -0.03,0 v -0.285 c 0.015,0 0.11,-0.005 0.125,-0.005 0.135,0 0.19,0.045 0.19,0.14 z M 0.2,-0.705 H 0.05 c -0.015,0 -0.025,0.01 -0.03,0.025 l -0.21,0.35 c -0.005,0.005 -0.02,0.015 -0.03,0.015 0,0 -0.035,0 -0.06,0 -0.015,0 -0.025,0 -0.035,0 V -0.67 c 0,-0.015 -0.01,-0.035 -0.035,-0.035 h -0.135 c -0.02,0 -0.035,0.02 -0.035,0.035 v 0.885 c 0,0.055 0.015,0.075 0.065,0.085 0.045,0.005 0.175,0.01 0.25,0.01 C 0.05,0.31 0.2,0.23 0.2,0 V -0.02 C 0.2,-0.165 0.125,-0.245 0.015,-0.285 L 0.23,-0.65 c 0,-0.005 0.005,-0.015 0.005,-0.025 0,-0.015 -0.01,-0.03 -0.035,-0.03 z M -0.16,0.47 c -0.375,0 -0.68,-0.31 -0.68,-0.685 0,-0.375 0.305,-0.68 0.68,-0.68 0.375,0 0.68,0.305 0.68,0.68 0,0.375 -0.305,0.685 -0.68,0.685 z m 0,-1.505 c -0.455,0 -0.82,0.365 -0.82,0.82 0,0.455 0.365,0.82 0.82,0.82 0.455,0 0.82,-0.365 0.82,-0.82 0,-0.455 -0.365,-0.82 -0.82,-0.82"
                                   id="path6567"
                                   style="fill:#ffffff;fill-opacity:1;fill-rule:nonzero;stroke:none" />
                                </g>
                                </g>
                                </g>
                                </g>
                                </g>
                                </g>
                                </g>
                                </g>
                                </g>
                                </g>
                                </g>
                                </g>
                                </g>
                                </g>
                                </g>
                                </g>
                                </g>
                                </g>
                                </g>
                              </g>
                            </g>
                          </g>
                        </g>
                      </g>
                    </g>
                  </g>
                </g>
              </g>
            </g>
          </g>
        </g>
      </g>
    </g>
  </g>
</svg>
