<?xml version="1.0" encoding="UTF-8" standalone="no"?>
<svg
   xmlns:dc="http://purl.org/dc/elements/1.1/"
   xmlns:cc="http://creativecommons.org/ns#"
   xmlns:rdf="http://www.w3.org/1999/02/22-rdf-syntax-ns#"
   xmlns:svg="http://www.w3.org/2000/svg"
   xmlns="http://www.w3.org/2000/svg"
   xmlns:sodipodi="http://sodipodi.sourceforge.net/DTD/sodipodi-0.dtd"
   xmlns:inkscape="http://www.inkscape.org/namespaces/inkscape"
   version="1.0"
   width="637.79529"
   height="791.68878"
   id="svg4473"
   sodipodi:docname="Intel Pentium (2008).svg"
   inkscape:version="1.0.2 (e86c870879, 2021-01-15, custom)">
  <metadata
     id="metadata268">
    <rdf:RDF>
      <cc:Work
         rdf:about="">
        <dc:format>image/svg+xml</dc:format>
        <dc:type
           rdf:resource="http://purl.org/dc/dcmitype/StillImage" />
        <dc:title></dc:title>
      </cc:Work>
    </rdf:RDF>
  </metadata>
  <sodipodi:namedview
     pagecolor="#ffffff"
     bordercolor="#666666"
     borderopacity="1"
     objecttolerance="10"
     gridtolerance="10"
     guidetolerance="10"
     inkscape:pageopacity="0"
     inkscape:pageshadow="2"
     inkscape:window-width="1440"
     inkscape:window-height="837"
     id="namedview266"
     showgrid="false"
     fit-margin-top="0"
     fit-margin-left="0"
     fit-margin-right="0"
     fit-margin-bottom="0"
     inkscape:zoom="0.69942997"
     inkscape:cx="318.89765"
     inkscape:cy="395.8444"
     inkscape:window-x="-8"
     inkscape:window-y="-8"
     inkscape:window-maximized="1"
     inkscape:current-layer="svg4473" />
  <defs
     id="defs4475">
    <clipPath
       id="clipPath6207">
      <path
         d="m 8144.72,8133.26 h 93.54 v 67.72 h -93.54 z"
         id="path6209" />
    </clipPath>
    <clipPath
       id="clipPath6199">
      <path
         d="m 553.589,173.935 c 7.332,-0.015 16.003,1.989 24.665,6.467 0.434,0.22 0.869,0.455 1.304,0.695 0.435,0.234 0.87,0.469 1.299,0.724 0,4.443 0,8.886 0,13.33 0,9.985 -9.785,12.619 -17.127,12.619 -6.113,0 -17.753,-2.179 -25.26,-9.686 -3.498,-3.498 -4.363,-6.432 -4.363,-11.405 0,-1.874 0.46,-3.548 1.3,-5.048 0.365,-0.654 0.799,-1.264 1.304,-1.839 3.269,-3.733 9.371,-5.842 16.878,-5.857"
         id="path6201" />
    </clipPath>
    <clipPath
       id="clipPath6191">
      <path
         d="m 534.107,207.77 h 46.75 v -33.851 h -46.75 z"
         id="path6193" />
    </clipPath>
    <clipPath
       id="clipPath6313">
      <path
         d="m 8144.72,8175.45 h 93.54 v 73.87 h -93.54 z"
         id="path6315" />
    </clipPath>
    <clipPath
       id="clipPath6305">
      <path
         d="m 578.254,180.402 c 0.434,0.22 0.869,0.455 1.304,0.69 0.435,0.239 0.87,0.469 1.299,0.719 0,-9.526 0,-19.671 0,-29.197 0,-1.575 -1.274,-2.849 -2.848,-2.849 -13.31,0 -27.743,0 -41.053,0 -1.574,0 -2.849,1.274 -2.849,2.849 0,11.185 0,22.885 0,34.065 0,-1.874 0.465,-3.548 1.3,-5.048 0.365,-0.654 0.799,-1.264 1.304,-1.839 3.269,-3.733 9.371,-5.847 16.878,-5.857 7.332,-0.015 16.003,1.989 24.665,6.467"
         id="path6307" />
    </clipPath>
    <clipPath
       id="clipPath6297">
      <path
         d="m 534.107,186.679 h 46.75 v -36.914 h -46.75 z"
         id="path6299" />
    </clipPath>
    <clipPath
       id="clipPath6119">
      <path
         d="m 125.218,233.724 v 6.263 c 0.131,-0.021 0.263,-0.04 0.395,-0.06 3.635,-0.56 7.679,-1.365 9.275,-2.33 0.459,-0.279 0.707,-0.569 0.702,-0.844 v -0.035 c -0.09,-0.33 -0.531,-0.675 -1.241,-0.995 -0.715,-0.32 -1.701,-0.614 -2.879,-0.894 -1.744,-0.415 -3.911,-0.78 -6.252,-1.105"
         id="path6121" />
    </clipPath>
    <clipPath
       id="clipPath6111">
      <path
         d="m 124.976,233.549 h 10.795 v 6.7171 h -10.795 z"
         id="path6113" />
    </clipPath>
    <clipPath
       id="clipPath6139">
      <path
         d="m 125.218,232.575 v 1.049 c 3.701,0.51 6.978,1.135 8.843,1.874 0.908,0.36 1.493,0.75 1.624,1.195 l 0.004,0.005 v 0.055 c 0,0.34 -0.283,0.64 -0.751,0.924 -0.467,0.285 -1.129,0.55 -1.921,0.8 -1.588,0.5 -3.701,0.935 -5.816,1.29 -0.666,0.115 -1.333,0.22 -1.983,0.314 v 0.6 c 9.577,-1.039 12.969,-2.344 14.106,-3.243 0.458,-0.36 0.548,-0.645 0.548,-0.83 0,-0.115 -0.036,-0.195 -0.054,-0.22 l -0.009,-0.015 -0.004,-0.01 -0.005,-0.005 c -0.121,-0.395 -0.633,-0.8 -1.511,-1.184 -0.882,-0.39 -2.118,-0.76 -3.679,-1.12 -2.407,-0.545 -5.581,-1.04 -9.392,-1.479"
         id="path6141" />
    </clipPath>
    <clipPath
       id="clipPath6131">
      <path
         d="m 124.976,232.35 h 15.114 v 8.6363 h -15.114 z"
         id="path6133" />
    </clipPath>
    <clipPath
       id="clipPath6159">
      <path
         d="m 125.218,232.475 v 0.05 c 8.765,1.009 14.159,2.329 14.632,3.818 0,0 1.988,2.579 -14.632,4.383 v 0.05 c 5.76,-0.625 9.288,-1.339 11.443,-2.014 1.43,-0.445 2.254,-0.875 2.726,-1.244 0.452,-0.36 0.581,-0.67 0.584,-0.89 v -0.02 c 0,-0.185 -0.076,-0.29 -0.081,-0.295 -0.15,-0.44 -0.683,-0.845 -1.565,-1.229 -2.254,-1 -6.813,-1.885 -13.107,-2.609 m 0,1.194 v 0.055 c 2.341,0.325 4.508,0.69 6.252,1.105 1.178,0.28 2.164,0.574 2.879,0.894 0.71,0.32 1.151,0.665 1.241,0.995 v 0.035 c 0.005,0.275 -0.243,0.565 -0.702,0.844 -1.596,0.965 -5.64,1.77 -9.275,2.33 -0.132,0.02 -0.264,0.039 -0.395,0.06 v 0.044 c 4.82,-0.719 10.55,-1.879 10.422,-3.328 -0.362,-1.265 -4.92,-2.269 -10.422,-3.034"
         id="path6161" />
    </clipPath>
    <clipPath
       id="clipPath6151">
      <path
         d="m 124.976,232.35 h 17.033 v 8.6363 h -17.033 z"
         id="path6153" />
    </clipPath>
    <clipPath
       id="clipPath6179">
      <path
         d="m 125.218,232.525 v 0.05 c 3.811,0.439 6.985,0.934 9.392,1.479 1.561,0.36 2.797,0.73 3.679,1.12 0.878,0.384 1.39,0.789 1.511,1.184 l 0.005,0.005 0.004,0.01 0.009,0.015 c 0.018,0.025 0.054,0.105 0.054,0.22 0,0.185 -0.09,0.47 -0.548,0.83 -1.137,0.899 -4.529,2.204 -14.106,3.243 v 0.045 c 16.62,-1.804 14.632,-4.383 14.632,-4.383 -0.473,-1.489 -5.867,-2.809 -14.632,-3.818 m 0,1.099 v 0.045 c 5.502,0.765 10.06,1.769 10.422,3.034 0.128,1.449 -5.602,2.609 -10.422,3.328 v 0.05 c 0.65,-0.094 1.317,-0.199 1.983,-0.314 2.115,-0.355 4.228,-0.79 5.816,-1.29 0.792,-0.25 1.454,-0.515 1.921,-0.8 0.468,-0.284 0.751,-0.584 0.751,-0.924 v -0.055 l -0.004,-0.005 c -0.131,-0.445 -0.716,-0.835 -1.624,-1.195 -1.865,-0.739 -5.142,-1.364 -8.843,-1.874"
         id="path6181" />
    </clipPath>
    <clipPath
       id="clipPath6171">
      <path
         d="m 124.976,232.35 h 17.033 v 8.6363 h -17.033 z"
         id="path6173" />
    </clipPath>
    <clipPath
       id="clipPath4910">
      <path
         d="M 0,842.04 H 595.44 V 0 H 0 Z"
         id="path4912" />
    </clipPath>
    <clipPath
       id="clipPath4902">
      <path
         d="M 0,841 H 595.276 V -0.89 H 0 Z"
         id="path4904" />
    </clipPath>
    <clipPath
       id="clipPath4894">
      <path
         d="M 0,-0.89 V 841 H 1190.551 V -0.89"
         id="path4896" />
    </clipPath>
    <clipPath
       id="clipPath4954">
      <path
         d="M 0,842.04 H 595.44 V 0 H 0 Z"
         id="path4956" />
    </clipPath>
    <clipPath
       id="clipPath4946">
      <path
         d="M 0,841 H 595.276 V -0.89 H 0 Z"
         id="path4948" />
    </clipPath>
    <clipPath
       id="clipPath4938">
      <path
         d="M 0,-0.89 V 841 H 1190.551 V -0.89"
         id="path4940" />
    </clipPath>
    <clipPath
       id="clipPath4998">
      <path
         d="M 0,842.04 H 595.44 V 0 H 0 Z"
         id="path5000" />
    </clipPath>
    <clipPath
       id="clipPath4990">
      <path
         d="M 0,841 H 595.276 V -0.89 H 0 Z"
         id="path4992" />
    </clipPath>
    <clipPath
       id="clipPath4982">
      <path
         d="M 0,-0.89 V 841 H 1190.551 V -0.89"
         id="path4984" />
    </clipPath>
    <clipPath
       id="clipPath4690">
      <path
         d="M 0,842.04 H 595.44 V 0 H 0 Z"
         id="path4692" />
    </clipPath>
    <clipPath
       id="clipPath4682">
      <path
         d="M 0,841 H 595.276 V -0.89 H 0 Z"
         id="path4684" />
    </clipPath>
    <clipPath
       id="clipPath4674">
      <path
         d="M 0,-0.89 V 841 H 1190.551 V -0.89"
         id="path4676" />
    </clipPath>
    <clipPath
       id="clipPath4734">
      <path
         d="M 0,842.04 H 595.44 V 0 H 0 Z"
         id="path4736" />
    </clipPath>
    <clipPath
       id="clipPath4726">
      <path
         d="M 0,841 H 595.276 V -0.89 H 0 Z"
         id="path4728" />
    </clipPath>
    <clipPath
       id="clipPath4718">
      <path
         d="M 0,-0.89 V 841 H 1190.551 V -0.89"
         id="path4720" />
    </clipPath>
    <clipPath
       id="clipPath4778">
      <path
         d="M 0,842.04 H 595.44 V 0 H 0 Z"
         id="path4780" />
    </clipPath>
    <clipPath
       id="clipPath4770">
      <path
         d="M 0,841 H 595.276 V -0.89 H 0 Z"
         id="path4772" />
    </clipPath>
    <clipPath
       id="clipPath4762">
      <path
         d="M 0,-0.89 V 841 H 1190.551 V -0.89"
         id="path4764" />
    </clipPath>
    <clipPath
       id="clipPath4822">
      <path
         d="M 0,842.04 H 595.44 V 0 H 0 Z"
         id="path4824" />
    </clipPath>
    <clipPath
       id="clipPath4814">
      <path
         d="M 0,841 H 595.276 V -0.89 H 0 Z"
         id="path4816" />
    </clipPath>
    <clipPath
       id="clipPath4806">
      <path
         d="M 0,-0.89 V 841 H 1190.551 V -0.89"
         id="path4808" />
    </clipPath>
    <clipPath
       id="clipPath4866">
      <path
         d="M 0,842.04 H 595.44 V 0 H 0 Z"
         id="path4868" />
    </clipPath>
    <clipPath
       id="clipPath4858">
      <path
         d="M 0,841 H 595.276 V -0.89 H 0 Z"
         id="path4860" />
    </clipPath>
    <clipPath
       id="clipPath4850">
      <path
         d="M 0,-0.89 V 841 H 1190.551 V -0.89"
         id="path4852" />
    </clipPath>
    <clipPath
       id="clipPath2455">
      <path
         d="M 0,0 V 203.28 H 283.44 V 0 Z"
         id="path2457" />
    </clipPath>
    <clipPath
       id="clipPath2447">
      <path
         d="m 44.469,65.962 66.081,-41.485 -0.015,-4.108 9.675,-4.938 h 5.763 l 0.618,1.235 c 0,0 60.105,-7.613 124.944,18.723 0,0 4.734,-2.058 4.734,-2.058 l 10.086,3.91 c 0,0 9.469,40.121 -0.823,61.107 0,0 -5.969,7.613 -5.969,7.613 l -3.088,-0.823 -54.341,60.078 -1.03,10.699 -17.496,15.843 c 0,0 -3.293,4.321 -8.645,-0.206 -5.352,-4.526 -2.058,-7.818 -2.058,-7.818 l 0.411,-4.732 -24.495,-5.761 c 0,0 -1.646,5.349 -7.821,3.703 -6.176,-1.646 -4.117,-5.761 -4.117,-5.761 l -69.574,-16.46 c 0,0 -0.411,6.173 -6.587,4.732 -6.175,-1.44 -4.734,-6.995 -4.734,-6.995 l -23.465,-5.761 -9.057,7.407 c 0,0 -7.411,2.88 -10.704,-3.909 -3.293,-6.79 -6.587,-46.088 -0.618,-70.572 0,0 16.879,-11.934 16.879,-11.934 z"
         id="path2449" />
    </clipPath>
    <clipPath
       id="clipPath2439">
      <path
         d="M -141.72,-12.207 V 94.901 H 7.624 V -12.207 Z"
         id="path2441" />
    </clipPath>
  </defs>
  <g
     id="g1887">
    <g
       transform="matrix(13.6737,0,0,-13.6737,-7304.669,2839.5305)"
       clip-path="url(#clipPath6191)"
       id="g6189">
      <g
         id="g6195">
        <g
           clip-path="url(#clipPath6199)"
           id="g6197">
          <g
             transform="matrix(0.4998,0,0,-0.4998,-3536.518,4272.667)"
             id="g6203">
            <g
               clip-path="url(#clipPath6207)"
               id="g6205">
              <path
                 d="m 8183.6924,8200.9528 c 14.6777,0.024 32.0247,-3.9782 49.3557,-12.9361 0,-5.2824 0,-13.8254 0,-29.5141 -17.2621,0 -49.3557,23.8295 -49.3557,42.4502 0,0 0,0 0,0 z"
                 id="path6211"
                 style="fill:#ffffff;fill-opacity:1;fill-rule:nonzero;stroke:none" />
              <path
                 d="m 8233.0481,8188.0167 c 0,-5.2824 0,-13.8254 0,-29.5141 0.2162,0 0.4341,0 0.6504,0 0,14.5464 0,23.4113 0,29.176 -0.2163,0.1138 -0.4342,0.2275 -0.6504,0.3381 z"
                 id="path6213"
                 style="fill:#ffffff;fill-opacity:1;fill-rule:nonzero;stroke:none" />
              <path
                 d="m 8233.6985,8187.6786 c 0,-5.7647 0,-14.6296 0,-29.176 0.2179,0 0.4358,0 0.6521,0 0,12.0293 0,22.0046 0,28.8284 -0.2163,0.1153 -0.4342,0.2307 -0.6521,0.346 z"
                 id="path6215"
                 style="fill:#f7f7f8;fill-opacity:1;fill-rule:nonzero;stroke:none" />
              <path
                 d="m 8234.3506,8187.3326 c 0,-6.8238 0,-16.7991 0,-28.8284 0.2163,0 0.4342,0 0.6521,0 0,9.5139 0,20.5931 0,28.4775 -0.2179,0.1169 -0.4358,0.2339 -0.6521,0.3509 z"
                 id="path6217"
                 style="fill:#ebecec;fill-opacity:1;fill-rule:nonzero;stroke:none" />
              <path
                 d="m 8235.0027,8186.9817 c 0,-7.8844 0,-18.9636 0,-28.4775 0.2179,0 0.4342,0 0.6505,0 0,8.3715 0,19.7583 0,28.1234 -0.2163,0.1186 -0.4326,0.2371 -0.6505,0.3557 z"
                 id="path6219"
                 style="fill:#dddedf;fill-opacity:1;fill-rule:nonzero;stroke:none" />
              <path
                 d="m 8235.6532,8186.626 c 0,-8.3651 0,-19.7519 0,-28.1234 0.4342,0 0.8668,0 1.3026,0 0,8.6311 0,18.7858 0,27.412 -0.4358,0.2387 -0.87,0.4743 -1.3058,0.7114 z"
                 id="path6221"
                 style="fill:#d1d3d4;fill-opacity:1;fill-rule:nonzero;stroke:none" />
              <path
                 d="m 8236.959,8185.9146 c 0,-8.6262 0,-18.7809 0,-27.412 0.4342,0 0.8684,0 1.3026,0 0,8.8922 0,17.786 0,26.675 -0.4326,0.2548 -0.8668,0.4983 -1.2994,0.737 z"
                 id="path6223"
                 style="fill:#c5c6c8;fill-opacity:1;fill-rule:nonzero;stroke:none" />
              <path
                 d="m 8183.6924,8200.9528 c 0,-18.6207 32.0936,-42.4502 49.3557,-42.4502 0,-18.5871 -22.2418,-20.0339 -29.0591,-20.0339 0,21.5672 -20.2966,35.4631 -20.2966,62.4841 0,0 0,0 0,0 z"
                 id="path6225"
                 style="fill:#ffffff;fill-opacity:1;fill-rule:nonzero;stroke:none" />
              <path
                 d="m 8233.0481,8158.5026 c 0,-9.2927 -5.5597,-14.3012 -11.9717,-16.9865 0.1074,-0.1089 0.2291,-0.274 0.3605,-0.4662 6.5626,2.8006 12.2616,7.9709 12.2616,17.4527 -0.2163,0 -0.4342,0 -0.6504,0 z"
                 id="path6227"
                 style="fill:#ffffff;fill-opacity:1;fill-rule:nonzero;stroke:none" />
              <path
                 d="m 8233.6985,8158.5026 c 0,-9.4818 -5.699,-14.6521 -12.2616,-17.4527 0.1298,-0.1939 0.266,-0.4166 0.4038,-0.6377 6.7004,2.8599 12.5099,8.1936 12.5099,18.092 -0.2163,0 -0.4342,0 -0.6521,0 z"
                 id="path6229"
                 style="fill:#f7f7f8;fill-opacity:1;fill-rule:nonzero;stroke:none" />
              <path
                 d="m 8221.0764,8141.5161 c -6.4136,-2.6853 -13.6779,-3.0474 -17.0874,-3.0474 0,-0.2163 0,-0.4325 0,-0.6504 3.4575,0 10.8837,0.4309 17.4479,3.2316 -0.1314,0.1922 -0.2531,0.3573 -0.3605,0.4662 z"
                 id="path6231"
                 style="fill:#ffffff;fill-opacity:1;fill-rule:nonzero;stroke:none" />
              <path
                 d="m 8221.4369,8141.0499 c -6.5642,-2.8007 -13.9904,-3.2316 -17.4479,-3.2316 0,-0.2163 0,-0.4326 0,-0.6505 3.5617,0 11.1513,0.3845 17.8517,3.2444 -0.1378,0.2211 -0.274,0.4438 -0.4038,0.6377 z"
                 id="path6233"
                 style="fill:#fafbfb;fill-opacity:1;fill-rule:nonzero;stroke:none" />
              <path
                 d="m 8234.3506,8158.5042 c 0.2163,0 0.4342,0 0.6521,0 0,-5.1575 -1.4804,-9.1101 -3.8148,-12.1382 -0.1907,0.1298 -0.3861,0.2916 -0.58,0.4534 2.2895,2.9272 3.7427,6.7356 3.7427,11.6848 z"
                 id="path6235"
                 style="fill:#ebecec;fill-opacity:1;fill-rule:nonzero;stroke:none" />
              <path
                 d="m 8230.6079,8146.8194 c 0.1939,-0.1618 0.3893,-0.3236 0.58,-0.4534 -2.3344,-3.0282 -5.5244,-5.1319 -8.9419,-6.5899 -0.1297,0.1923 -0.2675,0.415 -0.4053,0.6361 3.3502,1.4292 6.4777,3.4784 8.7672,6.4072 z"
                 id="path6237"
                 style="fill:#edeeef;fill-opacity:1;fill-rule:nonzero;stroke:none" />
              <path
                 d="m 8235.0027,8158.5042 c 0.2179,0 0.4342,0 0.6505,0 0,-5.2504 -1.5141,-9.2911 -3.9013,-12.3978 -0.1843,0.034 -0.3733,0.1314 -0.564,0.2612 2.3344,3.0281 3.8148,6.9807 3.8148,12.1382 z"
                 id="path6239"
                 style="fill:#dddedf;fill-opacity:1;fill-rule:nonzero;stroke:none" />
              <path
                 d="m 8231.1879,8146.366 c 0.1907,-0.1298 0.3797,-0.2275 0.564,-0.2612 -2.3889,-3.1066 -5.651,-5.2808 -9.1454,-6.7965 -0.1073,0.1089 -0.2307,0.274 -0.3605,0.4678 3.4175,1.458 6.6075,3.5617 8.9419,6.5899 z"
                 id="path6241"
                 style="fill:#e1e2e3;fill-opacity:1;fill-rule:nonzero;stroke:none" />
              <path
                 d="m 8221.8407,8140.4122 c 0.2756,-0.4438 0.5495,-0.886 0.7658,-1.1039 -3.4928,-1.5173 -7.2195,-2.3777 -10.536,-2.8583 -0.067,0.3653 -0.2003,0.8171 -0.3317,1.2689 3.1788,0.4534 6.7517,1.2641 10.1019,2.6933 z"
                 id="path6243"
                 style="fill:#f3f3f3;fill-opacity:1;fill-rule:nonzero;stroke:none" />
              <path
                 d="m 8211.7388,8137.7189 c 0.1314,-0.4518 0.2644,-0.9036 0.3317,-1.2689 -3.3166,-0.4807 -6.2246,-0.5832 -8.0815,-0.5832 0,0.4342 0,0.8668 0,1.301 1.78,0 4.5679,0.096 7.7498,0.5511 z"
                 id="path6245"
                 style="fill:#f8f8f9;fill-opacity:1;fill-rule:nonzero;stroke:none" />
              <path
                 d="m 8235.6532,8158.5026 c 0.4342,0 0.8668,0 1.3026,0 0,-5.1238 -1.3699,-9.1806 -3.5969,-12.3866 -0.6217,-0.038 -1.2417,-0.08 -1.607,-0.011 2.3872,3.1067 3.9013,7.1474 3.9013,12.3978 z"
                 id="path6247"
                 style="fill:#d1d3d4;fill-opacity:1;fill-rule:nonzero;stroke:none" />
              <path
                 d="m 8231.7519,8146.1048 c 0.3653,-0.069 0.9853,-0.027 1.607,0.011 -2.2271,-3.2044 -5.3113,-5.5564 -8.74,-7.2691 -0.8972,0.1233 -1.7945,0.2435 -2.0124,0.4614 3.4944,1.5157 6.7565,3.6899 9.1454,6.7965 z"
                 id="path6249"
                 style="fill:#d6d7d9;fill-opacity:1;fill-rule:nonzero;stroke:none" />
              <path
                 d="m 8222.6065,8139.3083 c 0.2179,-0.2179 1.1152,-0.3381 2.0124,-0.4614 -3.4303,-1.7112 -7.2035,-2.7815 -10.8116,-3.4255 -0.8348,0.3316 -1.6695,0.6617 -1.7368,1.0286 3.3165,0.4806 7.0432,1.341 10.536,2.8583 z"
                 id="path6251"
                 style="fill:#e2e3e4;fill-opacity:1;fill-rule:nonzero;stroke:none" />
              <path
                 d="m 8212.0705,8136.45 c 0.067,-0.3669 0.902,-0.697 1.7368,-1.0286 -3.6098,-0.6425 -7.0529,-0.8588 -9.8183,-0.8588 0,0.4358 0,0.87 0,1.3042 1.8569,0 4.7649,0.1025 8.0815,0.5832 z"
                 id="path6253"
                 style="fill:#ededee;fill-opacity:1;fill-rule:nonzero;stroke:none" />
              <path
                 d="m 8236.9558,8158.5026 c 0.4342,0 0.8684,0 1.3026,0 0,-4.9956 -1.2225,-9.0716 -3.2877,-12.3738 -0.3669,0.067 -0.9886,0.027 -1.6118,-0.013 2.227,3.206 3.5969,7.2628 3.5969,12.3866 z"
                 id="path6255"
                 style="fill:#c5c6c8;fill-opacity:1;fill-rule:nonzero;stroke:none" />
              <path
                 d="m 8233.3589,8146.116 c 0.6232,0.04 1.2449,0.08 1.6118,0.013 -2.0652,-3.3037 -4.9716,-5.8352 -8.3378,-7.7418 -0.2179,0.2179 -1.1152,0.3397 -2.014,0.4599 3.4287,1.7127 6.5129,4.0647 8.74,7.2691 z"
                 id="path6257"
                 style="fill:#cacbcd;fill-opacity:1;fill-rule:nonzero;stroke:none" />
              <path
                 d="m 8224.6189,8138.8469 c 0.8988,-0.1202 1.7961,-0.242 2.014,-0.4599 -3.3663,-1.9066 -7.1891,-3.1883 -11.0905,-3.9942 -0.067,0.3669 -0.902,0.6985 -1.7351,1.0286 3.6081,0.644 7.3813,1.7143 10.8116,3.4255 z"
                 id="path6259"
                 style="fill:#d4d6d7;fill-opacity:1;fill-rule:nonzero;stroke:none" />
              <path
                 d="m 8213.8073,8135.4214 c 0.8331,-0.3301 1.6679,-0.6617 1.7351,-1.0286 -3.9013,-0.806 -7.8796,-1.1328 -11.5534,-1.1328 0,0.4326 0,0.8684 0,1.3026 2.7654,0 6.2085,0.2163 9.8183,0.8588 z"
                 id="path6261"
                 style="fill:#dfe0e1;fill-opacity:1;fill-rule:nonzero;stroke:none" />
              <path
                 d="m 8183.6924,8200.9528 c 0,-27.021 20.2966,-40.9169 20.2966,-62.4841 -10.778,0 -32.7745,3.7604 -46.8579,17.8501 10.448,10.4496 26.5613,23.4049 26.5613,44.634 0,0 0,0 0,0 z"
                 id="path6263"
                 style="fill:#ffffff;fill-opacity:1;fill-rule:nonzero;stroke:none" />
              <path
                 d="m 8203.989,8138.4687 c -10.778,0 -32.7745,3.7604 -46.8579,17.8501 -0.2836,-0.2852 -0.6024,-0.604 -0.9196,-0.9228 14.3845,-14.3894 36.78,-18.2282 47.7775,-18.2282 0,0.4342 0,0.8684 0,1.3009 z"
                 id="path6265"
                 style="fill:#ffffff;fill-opacity:1;fill-rule:nonzero;stroke:none" />
              <path
                 d="m 8203.989,8137.1678 c -10.9975,0 -33.393,3.8388 -47.7775,18.2282 -0.3189,-0.3189 -0.6377,-0.6377 -0.9213,-0.9229 14.6858,-14.689 37.4818,-18.6063 48.6988,-18.6063 0,0.4342 0,0.8668 0,1.301 z"
                 id="path6267"
                 style="fill:#fafbfb;fill-opacity:1;fill-rule:nonzero;stroke:none" />
              <path
                 d="m 8203.989,8135.8668 c -11.217,0 -34.013,3.9173 -48.6988,18.6063 -0.3108,-0.306 -0.6056,-0.6008 -0.9068,-0.902 14.8523,-14.8556 37.8823,-19.0085 49.6056,-19.0085 0,0.4358 0,0.87 0,1.3042 z"
                 id="path6269"
                 style="fill:#f2f2f3;fill-opacity:1;fill-rule:nonzero;stroke:none" />
              <path
                 d="m 8203.989,8134.5626 c -11.7233,0 -34.7533,4.1529 -49.6056,19.0085 -0.2996,-0.3013 -0.6057,-0.6089 -0.9357,-0.9389 15.019,-15.019 38.3101,-19.3722 50.5413,-19.3722 0,0.4326 0,0.8684 0,1.3026 z"
                 id="path6271"
                 style="fill:#e4e5e6;fill-opacity:1;fill-rule:nonzero;stroke:none" />
              <path
                 d="m 8183.6924,8200.9528 c 0,-21.2291 -16.1133,-34.1844 -26.5613,-44.634 -5.582,5.5917 -7.2002,9.876 -7.2002,19.1319 14.3268,0 33.7615,10.6418 33.7615,25.5021 0,0 0,0 0,0 z"
                 id="path6273"
                 style="fill:#ffffff;fill-opacity:1;fill-rule:nonzero;stroke:none" />
              <path
                 d="m 8157.1311,8156.3188 c -5.582,5.5917 -7.2002,9.876 -7.2002,19.1319 -0.4358,0 -0.87,0 -1.3042,0 0,-9.6148 1.74,-14.2067 7.5848,-20.0547 0.3172,0.3188 0.636,0.6376 0.9196,0.9228 z"
                 id="path6275"
                 style="fill:#ffffff;fill-opacity:1;fill-rule:nonzero;stroke:none" />
              <path
                 d="m 8156.2115,8155.396 c -5.8448,5.848 -7.5848,10.4399 -7.5848,20.0547 -0.4342,0 -0.87,0 -1.3058,0 0,-9.9721 1.8617,-14.8732 7.9693,-20.9776 0.2836,0.2852 0.6024,0.604 0.9213,0.9229 z"
                 id="path6277"
                 style="fill:#fafbfb;fill-opacity:1;fill-rule:nonzero;stroke:none" />
              <path
                 d="m 8155.2902,8154.4731 c -6.1076,6.1044 -7.9693,11.0055 -7.9693,20.9776 -0.4342,0 -0.8668,0 -1.301,0 0,-9.9609 1.8105,-15.3299 8.3635,-21.8796 0.3012,0.3012 0.596,0.596 0.9068,0.902 z"
                 id="path6279"
                 style="fill:#f2f2f3;fill-opacity:1;fill-rule:nonzero;stroke:none" />
              <path
                 d="m 8154.3834,8153.5711 c -6.553,6.5497 -8.3635,11.9187 -8.3635,21.8796 -0.4326,0 -0.8668,0 -1.301,0 0,-9.9513 1.7288,-15.8217 8.7288,-22.8185 0.33,0.33 0.6361,0.6376 0.9357,0.9389 z"
                 id="path6281"
                 style="fill:#e4e5e6;fill-opacity:1;fill-rule:nonzero;stroke:none" />
              <path
                 d="m 8183.6924,8200.9528 c 0,-14.8603 -19.4347,-25.5021 -33.7615,-25.5021 0,4.3243 0,8.7784 0,13.7837 6.5369,7.4662 18.7521,11.6912 33.7615,11.7184 0,0 0,0 0,0 z"
                 id="path6283"
                 style="fill:#ffffff;fill-opacity:1;fill-rule:nonzero;stroke:none" />
              <path
                 d="m 8149.9309,8175.4507 c 0,4.3243 0,8.7784 0,13.7837 -0.5047,-0.5736 -0.9758,-1.168 -1.4116,-1.7833 0,-4.0856 0.1074,-8.2705 0.1074,-12.0004 0.4342,0 0.8684,0 1.3042,0 z"
                 id="path6285"
                 style="fill:#ffffff;fill-opacity:1;fill-rule:nonzero;stroke:none" />
              <path
                 d="m 8148.6267,8175.4507 c 0,3.7299 -0.1074,7.9148 -0.1074,12.0004 -0.4358,-0.6136 -0.8347,-1.2481 -1.1984,-1.9018 0,-3.1659 0,-6.9631 0,-10.0986 0.4358,0 0.8716,0 1.3058,0 z"
                 id="path6287"
                 style="fill:#fafbfb;fill-opacity:1;fill-rule:nonzero;stroke:none" />
              <path
                 d="m 8147.3209,8175.4507 c 0,3.1355 0,6.9327 0,10.0986 -0.8396,-1.4964 -1.4901,-3.0826 -1.9307,-4.7633 0,-1.583 0.6297,-3.7684 0.6297,-5.3353 0.4342,0 0.8668,0 1.301,0 z"
                 id="path6289"
                 style="fill:#f2f2f3;fill-opacity:1;fill-rule:nonzero;stroke:none" />
              <path
                 d="m 8146.0199,8175.4507 c 0,1.5669 -0.6297,3.7523 -0.6297,5.3353 -0.4406,-1.6807 -0.6713,-3.4576 -0.6713,-5.3353 0,0 0,0 0,0 0.4342,0 0.8684,0 1.301,0 z"
                 id="path6291"
                 style="fill:#e4e5e6;fill-opacity:1;fill-rule:nonzero;stroke:none" />
            </g>
          </g>
        </g>
      </g>
    </g>
    <g
       transform="matrix(13.6737,0,0,-13.6737,-7304.669,2839.5305)"
       id="g6293">
      <g
         clip-path="url(#clipPath6297)"
         id="g6295">
        <g
           id="g6301">
          <g
             clip-path="url(#clipPath6305)"
             id="g6303">
            <g
               transform="matrix(0.4998,0,0,-0.4998,-3536.518,4272.667)"
               id="g6309">
              <g
                 clip-path="url(#clipPath6313)"
                 id="g6311">
                <path
                   d="m 8233.0474,8188.0163 c 0,0 0,0 0,0 0,16.2211 0,39.3734 0,55.5962 -27.1422,0 -49.3561,-35.7092 -49.3561,-42.6595 14.6779,0.022 32.0241,-3.9787 49.3561,-12.9367 z"
                   id="path6317"
                   style="fill:#1492d1;fill-opacity:1;fill-rule:nonzero;stroke:none" />
                <path
                   d="m 8233.0474,8188.0163 c 0,16.2211 0,39.3734 0,55.5962 0.217,0 0.4341,0 0.6495,0 0,-16.4398 0,-39.4932 0,-55.9314 -0.2154,0.1134 -0.4325,0.2267 -0.6495,0.3368 z"
                   id="path6319"
                   style="fill:#1492d1;fill-opacity:1;fill-rule:nonzero;stroke:none" />
                <path
                   d="m 8233.6969,8187.6795 c 0,16.4382 0,39.4916 0,55.9314 0.2187,0 0.4357,0 0.6527,0 0,-16.9202 0,-39.3591 0,-56.2745 -0.217,0.1149 -0.434,0.2298 -0.6527,0.3447 z"
                   id="path6321"
                   style="fill:#148dca;fill-opacity:1;fill-rule:nonzero;stroke:none" />
                <path
                   d="m 8234.3496,8187.3348 c 0,16.9154 0,39.3543 0,56.2745 0.2171,0 0.4341,0 0.6528,0 0,-17.3974 0,-39.2298 0,-56.624 -0.2187,0.1165 -0.4357,0.233 -0.6528,0.3495 z"
                   id="path6323"
                   style="fill:#1484bd;fill-opacity:1;fill-rule:nonzero;stroke:none" />
                <path
                   d="m 8235.0024,8186.9853 c 0,17.3942 0,39.2266 0,56.624 0.217,0 0.4325,0 0.6495,0 0,-17.616 0,-39.3687 0,-56.9783 -0.217,0.1165 -0.4325,0.2346 -0.6495,0.3511 z"
                   id="path6325"
                   style="fill:#1279ae;fill-opacity:1;fill-rule:nonzero;stroke:none" />
                <path
                   d="m 8235.6519,8186.6342 c 0.8714,-0.4804 1.7396,-0.9416 2.6062,-1.4459 0,19.0635 0,39.3671 0,58.4242 -0.8698,0 -1.7396,0 -2.6062,0 0,-17.616 0,-39.3687 0,-56.9783 z"
                   id="path6327"
                   style="fill:#0e6f9f;fill-opacity:1;fill-rule:nonzero;stroke:none" />
                <path
                   d="m 8183.6913,8200.953 c 0,6.9503 22.2139,42.6595 49.3561,42.6595 0,0.2665 -0.2235,0.4899 -0.4932,0.4899 0,-23.5624 -48.8629,-36.1991 -48.8629,-43.1494 0,0 0,0 0,0 z"
                   id="path6329"
                   style="fill:#1492d1;fill-opacity:1;fill-rule:nonzero;stroke:none" />
                <path
                   d="m 8233.0474,8243.6125 c 0,0.2665 -0.2235,0.4899 -0.4932,0.4899 0,0.2171 0,0.4341 0,0.6528 0.4932,0 1.1395,-0.6512 1.1395,-1.1443 -0.2154,0 -0.4325,0 -0.6495,0 z"
                   id="path6331"
                   style="fill:#1492d1;fill-opacity:1;fill-rule:nonzero;stroke:none" />
                <path
                   d="m 8233.6969,8243.6109 c 0,0.4931 -0.6463,1.1443 -1.1395,1.1443 0,0.217 0,0.4341 0,0.6511 0.9879,0 1.7922,-0.8091 1.7922,-1.797 -0.217,0 -0.434,0 -0.6527,0 z"
                   id="path6333"
                   style="fill:#148dca;fill-opacity:1;fill-rule:nonzero;stroke:none" />
                <path
                   d="m 8234.3496,8243.6093 c 0,0.9879 -0.8043,1.797 -1.7922,1.797 0,0.2187 0,0.4357 0,0.6528 1.4826,0 2.445,-0.9672 2.445,-2.4498 -0.2187,0 -0.4357,0 -0.6528,0 z"
                   id="path6335"
                   style="fill:#1484bd;fill-opacity:1;fill-rule:nonzero;stroke:none" />
                <path
                   d="m 8235.0024,8243.6093 c 0,1.4826 -0.9624,2.4498 -2.445,2.4498 0,0.2154 0,0.4325 0,0.6479 1.7077,0 3.0977,-1.3869 3.0977,-3.0945 -0.217,0 -0.4325,0 -0.6495,0 z"
                   id="path6337"
                   style="fill:#1279ae;fill-opacity:1;fill-rule:nonzero;stroke:none" />
                <path
                   d="m 8235.6519,8243.6125 c 0.8666,0 1.7364,0 2.6062,0 0,3.1456 -2.5567,5.6975 -5.7039,5.6975 0,-0.8602 0,-1.7284 0,-2.603 1.7077,0 3.0977,-1.3869 3.0977,-3.0945 z"
                   id="path6339"
                   style="fill:#0e6f9f;fill-opacity:1;fill-rule:nonzero;stroke:none" />
                <path
                   d="m 8183.6913,8200.953 c 0,6.9503 48.8629,19.587 48.8629,43.1494 -26.6299,0 -55.5036,0 -82.1335,0 0,-23.5624 33.2706,-36.1991 33.2706,-43.1494 0,0 0,0 0,0 z"
                   id="path6341"
                   style="fill:#1492d1;fill-opacity:1;fill-rule:nonzero;stroke:none" />
                <path
                   d="m 8232.5542,8244.1024 c -26.6299,0 -55.5036,0 -82.1335,0 0,0.2171 0,0.4341 0,0.6528 26.6299,0 55.5036,0 82.1367,0 0,-0.2187 0,-0.4357 0,-0.6528 z"
                   id="path6343"
                   style="fill:#1492d1;fill-opacity:1;fill-rule:nonzero;stroke:none" />
                <path
                   d="m 8232.5574,8244.7552 c -26.6331,0 -55.5068,0 -82.1367,0 0,0.217 0,0.4341 0,0.6511 26.6299,0 55.5036,0 82.1367,0 0,-0.217 0,-0.4341 0,-0.6511 z"
                   id="path6345"
                   style="fill:#148dca;fill-opacity:1;fill-rule:nonzero;stroke:none" />
                <path
                   d="m 8232.5574,8245.4063 c -26.6331,0 -55.5068,0 -82.1367,0 0,0.2187 0,0.4357 0,0.6528 26.6299,0 55.5036,0 82.1367,0 0,-0.2171 0,-0.4341 0,-0.6528 z"
                   id="path6347"
                   style="fill:#1484bd;fill-opacity:1;fill-rule:nonzero;stroke:none" />
                <path
                   d="m 8232.5574,8246.0591 c -26.6331,0 -55.5068,0 -82.1367,0 0,0.2154 0,0.4325 0,0.6479 26.6299,0 55.5036,0 82.1335,0 0,-0.2154 0,-0.4325 0,-0.6479 z"
                   id="path6349"
                   style="fill:#1279ae;fill-opacity:1;fill-rule:nonzero;stroke:none" />
                <path
                   d="m 8232.5542,8246.707 c 0,0.8746 0,1.7428 0,2.603 -26.6299,0 -55.5036,0 -82.1335,0 0,-0.8602 0,-1.7284 0,-2.603 26.6299,0 55.5036,0 82.1335,0 z"
                   id="path6351"
                   style="fill:#0e6f9f;fill-opacity:1;fill-rule:nonzero;stroke:none" />
                <path
                   d="m 8183.6913,8200.953 c 0,6.9503 -33.2706,19.587 -33.2706,43.1494 -0.2713,0 -0.49,-0.2234 -0.49,-0.4899 27.1358,0 33.7606,-35.7092 33.7606,-42.6595 0,0 0,0 0,0 z"
                   id="path6353"
                   style="fill:#1492d1;fill-opacity:1;fill-rule:nonzero;stroke:none" />
                <path
                   d="m 8150.4207,8244.1024 c -0.1357,0 -0.2585,-0.056 -0.3463,-0.1452 -0.1101,0.1085 -0.2522,0.2522 -0.4102,0.4102 0.2219,0.225 0.5075,0.3878 0.7565,0.3878 0,-0.2187 0,-0.4357 0,-0.6528 z"
                   id="path6355"
                   style="fill:#1492d1;fill-opacity:1;fill-rule:nonzero;stroke:none" />
                <path
                   d="m 8150.4207,8244.7552 c 0,0.217 0,0.4341 0,0.6511 -0.2474,0 -0.4836,-0.049 -0.6974,-0.1404 0.1085,-0.2091 0.2186,-0.4182 0.3096,-0.6192 0.1309,0.069 0.2633,0.1085 0.3878,0.1085 z"
                   id="path6357"
                   style="fill:#148dca;fill-opacity:1;fill-rule:nonzero;stroke:none" />
                <path
                   d="m 8150.0329,8244.6467 c -0.091,0.201 -0.2011,0.4101 -0.3096,0.6192 -0.2155,-0.091 -0.4086,-0.2234 -0.5714,-0.3862 0.1772,-0.1772 0.3527,-0.3527 0.5123,-0.5123 0.1101,0.1133 0.2378,0.209 0.3687,0.2793 z"
                   id="path6359"
                   style="fill:#188eca;fill-opacity:1;fill-rule:nonzero;stroke:none" />
                <path
                   d="m 8150.0744,8243.9572 c -0.089,-0.089 -0.1437,-0.2107 -0.1437,-0.3447 -0.2186,0 -0.4356,0 -0.6527,0 0,0.2458 0.1628,0.5314 0.3862,0.7549 0.158,-0.158 0.3001,-0.3017 0.4102,-0.4102 z"
                   id="path6361"
                   style="fill:#1492d1;fill-opacity:1;fill-rule:nonzero;stroke:none" />
                <path
                   d="m 8149.6642,8244.3674 c -0.1596,0.1596 -0.3351,0.3351 -0.5123,0.5123 -0.1628,-0.1628 -0.2936,-0.3559 -0.3846,-0.5714 0.2091,-0.1085 0.4181,-0.2186 0.6192,-0.3096 0.069,0.1309 0.166,0.257 0.2777,0.3687 z"
                   id="path6363"
                   style="fill:#1e90cd;fill-opacity:1;fill-rule:nonzero;stroke:none" />
                <path
                   d="m 8149.3865,8243.9987 c -0.2011,0.091 -0.4101,0.2011 -0.6192,0.3096 -0.091,-0.2138 -0.1404,-0.4484 -0.1404,-0.6958 0.217,0 0.4341,0 0.6511,0 0,0.1229 0.04,0.2553 0.1085,0.3862 z"
                   id="path6365"
                   style="fill:#2594d1;fill-opacity:1;fill-rule:nonzero;stroke:none" />
                <path
                   d="m 8150.4207,8245.4063 c 0,0.2187 0,0.4357 0,0.6528 -0.3719,0 -0.7102,-0.061 -1.0086,-0.174 0.091,-0.2011 0.2011,-0.4101 0.3112,-0.6192 0.2138,0.091 0.45,0.1404 0.6974,0.1404 z"
                   id="path6367"
                   style="fill:#1484bd;fill-opacity:1;fill-rule:nonzero;stroke:none" />
                <path
                   d="m 8149.7233,8245.2659 c -0.1101,0.2091 -0.2203,0.4181 -0.3112,0.6192 -0.2985,-0.1133 -0.5586,-0.2809 -0.7709,-0.4931 0.1596,-0.1596 0.3352,-0.3352 0.5107,-0.5123 0.1628,0.1628 0.3559,0.2952 0.5714,0.3862 z"
                   id="path6369"
                   style="fill:#1d87c0;fill-opacity:1;fill-rule:nonzero;stroke:none" />
                <path
                   d="m 8150.4207,8246.0591 c 0,0.2154 0,0.4325 0,0.6479 -0.2139,0 -0.4213,-0.022 -0.624,-0.062 0.01,-0.2059 0.045,-0.4182 0.093,-0.632 0.1691,0.03 0.3463,0.046 0.5314,0.046 z"
                   id="path6371"
                   style="fill:#1279ae;fill-opacity:1;fill-rule:nonzero;stroke:none" />
                <path
                   d="m 8149.8893,8246.0128 c -0.048,0.2138 -0.083,0.4261 -0.093,0.632 -0.2011,-0.041 -0.3958,-0.1022 -0.5809,-0.1804 0.034,-0.1819 0.1053,-0.3782 0.1963,-0.5793 0.15,0.056 0.3096,0.099 0.4772,0.1277 z"
                   id="path6373"
                   style="fill:#147baf;fill-opacity:1;fill-rule:nonzero;stroke:none" />
                <path
                   d="m 8149.4121,8245.8851 c -0.091,0.2011 -0.1628,0.3974 -0.1963,0.5793 -0.3703,-0.1564 -0.7054,-0.383 -0.9863,-0.6639 0.1101,-0.1069 0.2521,-0.2505 0.4117,-0.4085 0.2123,0.2122 0.4724,0.3798 0.7709,0.4931 z"
                   id="path6375"
                   style="fill:#217fb4;fill-opacity:1;fill-rule:nonzero;stroke:none" />
                <path
                   d="m 8149.1519,8244.8797 c -0.1755,0.1771 -0.3511,0.3527 -0.5107,0.5123 -0.2138,-0.2139 -0.3798,-0.4724 -0.4931,-0.7709 0.2027,-0.093 0.4101,-0.2027 0.6192,-0.3128 0.091,0.2155 0.2218,0.4086 0.3846,0.5714 z"
                   id="path6377"
                   style="fill:#308fc8;fill-opacity:1;fill-rule:nonzero;stroke:none" />
                <path
                   d="m 8148.7673,8244.3083 c -0.2091,0.1101 -0.4165,0.2203 -0.6192,0.3128 -0.1133,-0.3 -0.174,-0.6384 -0.174,-1.0086 0.2171,0 0.4341,0 0.6528,0 0,0.2474 0.049,0.482 0.1404,0.6958 z"
                   id="path6379"
                   style="fill:#4097d1;fill-opacity:1;fill-rule:nonzero;stroke:none" />
                <path
                   d="m 8148.6412,8245.392 c -0.1596,0.158 -0.3016,0.3016 -0.4117,0.4085 -0.2809,-0.2809 -0.5075,-0.6128 -0.6655,-0.9847 0.1851,-0.033 0.3814,-0.1037 0.5841,-0.1947 0.1133,0.2985 0.2793,0.557 0.4931,0.7709 z"
                   id="path6381"
                   style="fill:#3c8dc2;fill-opacity:1;fill-rule:nonzero;stroke:none" />
                <path
                   d="m 8148.1481,8244.6211 c -0.2027,0.091 -0.399,0.1612 -0.5841,0.1947 -0.078,-0.1851 -0.1389,-0.3798 -0.1804,-0.5809 0.2091,-0.01 0.4214,-0.043 0.6352,-0.093 0.029,0.1692 0.073,0.3288 0.1293,0.4788 z"
                   id="path6383"
                   style="fill:#519bd1;fill-opacity:1;fill-rule:nonzero;stroke:none" />
                <path
                   d="m 8148.0188,8244.1423 c -0.2138,0.05 -0.4261,0.085 -0.6352,0.093 -0.042,-0.2011 -0.064,-0.4086 -0.064,-0.6224 0.2186,0 0.4373,0 0.6543,0 0,0.1835 0.016,0.3623 0.045,0.5298 z"
                   id="path6385"
                   style="fill:#59a0d6;fill-opacity:1;fill-rule:nonzero;stroke:none" />
                <path
                   d="m 8150.4207,8246.707 c 0,0.4373 0,0.873 0,1.3071 -0.3032,0 -0.6001,-0.032 -0.8873,-0.091 0.1228,-0.4293 0.2457,-0.8602 0.2633,-1.2783 0.2027,0.04 0.4101,0.062 0.624,0.062 z"
                   id="path6387"
                   style="fill:#0e6f9f;fill-opacity:1;fill-rule:nonzero;stroke:none" />
                <path
                   d="m 8149.7967,8246.6448 c -0.018,0.4181 -0.1405,0.849 -0.2633,1.2783 -0.2857,-0.057 -0.5618,-0.1436 -0.8251,-0.2569 0.2202,-0.415 0.4404,-0.8347 0.5075,-1.2018 0.1851,0.078 0.3798,0.1389 0.5809,0.1804 z"
                   id="path6389"
                   style="fill:#1471a2;fill-opacity:1;fill-rule:nonzero;stroke:none" />
                <path
                   d="m 8149.2158,8246.4644 c -0.067,0.3671 -0.2873,0.7868 -0.5075,1.2018 -0.5267,-0.2235 -1.0007,-0.5458 -1.3981,-0.9432 0.3511,-0.3511 0.7038,-0.7038 0.9193,-0.9225 0.2809,0.2809 0.616,0.5075 0.9863,0.6639 z"
                   id="path6391"
                   style="fill:#2077a8;fill-opacity:1;fill-rule:nonzero;stroke:none" />
                <path
                   d="m 8148.2295,8245.8005 c -0.1085,0.1101 -0.2506,0.2522 -0.4086,0.4118 -0.3479,-0.3479 -0.6352,-0.7565 -0.8363,-1.1986 0.2011,-0.091 0.3974,-0.1628 0.5794,-0.1979 0.158,0.3719 0.3846,0.7038 0.6655,0.9847 z"
                   id="path6393"
                   style="fill:#3d89bc;fill-opacity:1;fill-rule:nonzero;stroke:none" />
                <path
                   d="m 8147.564,8244.8158 c -0.182,0.035 -0.3783,0.107 -0.5794,0.1979 -0.1005,-0.2202 -0.1787,-0.45 -0.2314,-0.6862 0.2123,-0.046 0.423,-0.081 0.6304,-0.093 0.042,0.2011 0.1022,0.3958 0.1804,0.5809 z"
                   id="path6395"
                   style="fill:#599cd0;fill-opacity:1;fill-rule:nonzero;stroke:none" />
                <path
                   d="m 8147.3836,8244.2349 c -0.2074,0.011 -0.4181,0.046 -0.6304,0.093 -0.054,-0.2346 -0.083,-0.474 -0.083,-0.715 0.2171,0 0.4325,0 0.6496,0 0,0.2138 0.022,0.4213 0.064,0.6224 z"
                   id="path6397"
                   style="fill:#60a3d7;fill-opacity:1;fill-rule:nonzero;stroke:none" />
                <path
                   d="m 8147.8209,8246.2123 c -0.1596,0.158 -0.3351,0.3351 -0.5107,0.5107 -0.399,-0.399 -0.7214,-0.873 -0.9432,-1.3997 0.2075,-0.1085 0.4166,-0.2186 0.6176,-0.3096 0.2011,0.4421 0.4884,0.8507 0.8363,1.1986 z"
                   id="path6399"
                   style="fill:#3b85b6;fill-opacity:1;fill-rule:nonzero;stroke:none" />
                <path
                   d="m 8146.9846,8245.0137 c -0.201,0.091 -0.4101,0.2011 -0.6176,0.3096 -0.1117,-0.2633 -0.1995,-0.5394 -0.2569,-0.8251 0.2154,-0.061 0.4293,-0.1213 0.6431,-0.1707 0.053,0.2362 0.1309,0.466 0.2314,0.6862 z"
                   id="path6401"
                   style="fill:#549acd;fill-opacity:1;fill-rule:nonzero;stroke:none" />
                <path
                   d="m 8146.7532,8244.3275 c -0.2138,0.049 -0.4277,0.1101 -0.6431,0.1707 -0.059,-0.2856 -0.089,-0.5825 -0.089,-0.8857 0.217,0 0.4325,0 0.6495,0 0,0.241 0.029,0.4804 0.083,0.715 z"
                   id="path6403"
                   style="fill:#5da1d5;fill-opacity:1;fill-rule:nonzero;stroke:none" />
                <path
                   d="m 8150.4207,8248.0141 c 0,0.4325 0,0.865 0,1.2959 -0.3942,0 -0.7788,-0.041 -1.1491,-0.1165 0.019,-0.4102 0.1405,-0.8395 0.2618,-1.2704 0.2872,0.059 0.5841,0.091 0.8873,0.091 z"
                   id="path6405"
                   style="fill:#045f89;fill-opacity:1;fill-rule:nonzero;stroke:none" />
                <path
                   d="m 8149.5334,8247.9231 c -0.1213,0.4309 -0.2426,0.8602 -0.2618,1.2704 -0.3718,-0.075 -0.7293,-0.1883 -1.0709,-0.332 0.069,-0.3622 0.2873,-0.7772 0.5076,-1.1953 0.2633,0.1133 0.5394,0.1995 0.8251,0.2569 z"
                   id="path6407"
                   style="fill:#08628d;fill-opacity:1;fill-rule:nonzero;stroke:none" />
                <path
                   d="m 8148.7083,8247.6662 c -0.2203,0.4181 -0.4389,0.8331 -0.5076,1.1953 -0.6814,-0.2888 -1.2959,-0.7054 -1.8129,-1.2209 0.2186,-0.2154 0.5697,-0.5649 0.9224,-0.9176 0.3974,0.3974 0.8714,0.7197 1.3981,0.9432 z"
                   id="path6409"
                   style="fill:#166996;fill-opacity:1;fill-rule:nonzero;stroke:none" />
                <path
                   d="m 8147.3102,8246.723 c -0.1771,0.1755 -0.3527,0.3511 -0.5123,0.5091 -0.4484,-0.4485 -0.8043,-0.9879 -1.0501,-1.5991 0.2027,-0.089 0.4101,-0.1995 0.6192,-0.3097 0.2218,0.5267 0.5442,1.0007 0.9432,1.3997 z"
                   id="path6411"
                   style="fill:#337fb0;fill-opacity:1;fill-rule:nonzero;stroke:none" />
                <path
                   d="m 8146.367,8245.3233 c -0.2091,0.1102 -0.4165,0.2203 -0.6192,0.3097 -0.1229,-0.3049 -0.2171,-0.6273 -0.2809,-0.9656 0.2139,-0.048 0.4277,-0.1085 0.6432,-0.1692 0.057,0.2857 0.1452,0.5618 0.2569,0.8251 z"
                   id="path6413"
                   style="fill:#4b95ca;fill-opacity:1;fill-rule:nonzero;stroke:none" />
                <path
                   d="m 8146.1101,8244.4982 c -0.2155,0.061 -0.4293,0.1213 -0.6432,0.1692 -0.064,-0.3367 -0.097,-0.6894 -0.097,-1.0549 0.2171,0 0.4341,0 0.6512,0 0,0.3032 0.03,0.6001 0.089,0.8857 z"
                   id="path6415"
                   style="fill:#529dd4;fill-opacity:1;fill-rule:nonzero;stroke:none" />
                <path
                   d="m 8146.7979,8247.2321 c -0.158,0.1596 -0.3016,0.3016 -0.4101,0.4085 -0.5155,-0.5154 -0.9321,-1.1283 -1.2209,-1.8113 0.1819,-0.032 0.3782,-0.1054 0.5809,-0.1963 0.2458,0.6112 0.6017,1.1506 1.0501,1.5991 z"
                   id="path6417"
                   style="fill:#2679aa;fill-opacity:1;fill-rule:nonzero;stroke:none" />
                <path
                   d="m 8145.7478,8245.633 c -0.2027,0.091 -0.399,0.1643 -0.5809,0.1963 -0.1453,-0.34 -0.257,-0.6991 -0.332,-1.0693 0.2075,-0.01 0.4181,-0.043 0.632,-0.093 0.064,0.3383 0.158,0.6607 0.2809,0.9656 z"
                   id="path6419"
                   style="fill:#398fc6;fill-opacity:1;fill-rule:nonzero;stroke:none" />
                <path
                   d="m 8145.4669,8244.6674 c -0.2139,0.049 -0.4245,0.085 -0.632,0.093 -0.077,-0.3703 -0.1149,-0.7549 -0.1149,-1.1475 0.2155,0 0.4325,0 0.6495,0 0,0.3655 0.034,0.7182 0.097,1.0549 z"
                   id="path6421"
                   style="fill:#3f96d0;fill-opacity:1;fill-rule:nonzero;stroke:none" />
                <path
                   d="m 8183.6913,8200.953 c 0,6.9503 -6.6248,42.6595 -33.7606,42.6595 0,-15.436 0,-38.941 0,-54.3785 0,0 0,0 0,0 6.537,7.4658 18.7508,11.695 33.7606,11.719 z"
                   id="path6423"
                   style="fill:#1492d1;fill-opacity:1;fill-rule:nonzero;stroke:none" />
                <path
                   d="m 8149.9307,8243.6125 c 0,-15.436 0,-38.941 0,-54.3785 -0.2521,-0.2857 -0.4963,-0.5793 -0.7325,-0.8762 0,15.7567 0.08,39.498 0.08,55.2547 0.2171,0 0.4341,0 0.6527,0 z"
                   id="path6425"
                   style="fill:#1492d1;fill-opacity:1;fill-rule:nonzero;stroke:none" />
                <path
                   d="m 8149.278,8243.6125 c 0,-15.7567 -0.08,-39.498 -0.08,-55.2547 -0.2346,-0.2968 -0.4612,-0.5985 -0.6783,-0.9065 0,16.4622 0.107,39.6975 0.107,56.1612 0.217,0 0.4341,0 0.6511,0 z"
                   id="path6427"
                   style="fill:#2895d2;fill-opacity:1;fill-rule:nonzero;stroke:none" />
                <path
                   d="m 8148.6269,8243.6125 c 0,-16.4637 -0.107,-39.699 -0.107,-56.1612 -0.2186,-0.3064 -0.4277,-0.6176 -0.6272,-0.9336 0,17.1643 0.081,39.9257 0.081,57.0948 0.2171,0 0.4341,0 0.6528,0 z"
                   id="path6429"
                   style="fill:#459cd6;fill-opacity:1;fill-rule:nonzero;stroke:none" />
                <path
                   d="m 8147.9741,8243.6125 c 0,-17.1691 -0.081,-39.9305 -0.081,-57.0948 -0.1995,-0.316 -0.391,-0.6368 -0.5729,-0.9624 0,17.4852 0,40.5657 0,58.0572 0.2186,0 0.4373,0 0.6543,0 z"
                   id="path6431"
                   style="fill:#5ca3d9;fill-opacity:1;fill-rule:nonzero;stroke:none" />
                <path
                   d="m 8147.3198,8243.6125 c 0,-17.4915 0,-40.572 0,-58.0572 -0.4166,-0.75 -0.7884,-1.5225 -1.1108,-2.3173 0,18.2512 0.4612,42.1201 0.4612,60.3745 0.2171,0 0.4325,0 0.6496,0 z"
                   id="path6433"
                   style="fill:#64a6db;fill-opacity:1;fill-rule:nonzero;stroke:none" />
                <path
                   d="m 8146.6702,8243.6125 c 0,-18.2544 -0.4612,-42.1233 -0.4612,-60.3745 -0.3224,-0.7947 -0.5953,-1.6119 -0.8155,-2.4529 0,19.9317 0.6272,42.8909 0.6272,62.8274 0.217,0 0.4325,0 0.6495,0 z"
                   id="path6435"
                   style="fill:#61a5da;fill-opacity:1;fill-rule:nonzero;stroke:none" />
                <path
                   d="m 8146.0207,8243.6125 c 0,-19.9365 -0.6272,-42.8957 -0.6272,-62.8274 -0.2203,-0.8395 -0.3894,-1.7045 -0.5027,-2.5934 0,21.6122 0.4787,43.8006 0.4787,65.4208 0.2171,0 0.4341,0 0.6512,0 z"
                   id="path6437"
                   style="fill:#57a1d8;fill-opacity:1;fill-rule:nonzero;stroke:none" />
                <path
                   d="m 8145.3695,8243.6125 c 0,-21.6202 -0.4787,-43.8086 -0.4787,-65.4208 -0.1149,-0.889 -0.1708,-1.8034 -0.1708,-2.7419 0,22.3767 0,45.7796 0,68.1627 0.2155,0 0.4325,0 0.6495,0 z"
                   id="path6439"
                   style="fill:#429ad5;fill-opacity:1;fill-rule:nonzero;stroke:none" />
              </g>
            </g>
          </g>
        </g>
      </g>
    </g>
    <g
       id="g1745">
      <path
         d="M 585.8626,160.64782 C 560.30645,36.203476 318.78789,28.341099 163.04445,123.12719 v 10.46038 c 155.53834,-79.9638 376.13614,-79.48522 396.23648,35.12773 6.76848,37.93085 -14.63086,77.42049 -52.76681,100.11883 v 29.795 c 45.92996,-16.81865 93.02218,-71.281 79.34848,-137.98131 z M 302.80334,378.37415 C 195.36908,388.35595 83.436167,372.69956 67.779781,288.78406 60.05414,247.36643 78.923846,203.5012 103.93304,176.23584 V 161.67335 C 58.891876,201.17667 34.429626,251.12669 48.513537,310.2381 66.480779,385.96305 162.63424,428.88479 309.29834,414.59578 c 58.01751,-5.60622 133.9339,-24.25715 186.76907,-53.30009 v -41.21253 c -47.91264,28.63273 -127.17908,52.20619 -193.26407,58.29099"
         id="path6443"
         style="fill:#007dc5;fill-opacity:1;fill-rule:nonzero;stroke:none;stroke-width:13.6737" />
      <path
         d="m 487.38461,142.53017 h -28.15415 v 125.4015 c 0,14.7676 7.11033,27.53883 28.15415,29.52152 V 142.53017"
         id="path6447"
         style="fill:#007dc5;fill-opacity:1;fill-rule:nonzero;stroke:none;stroke-width:13.6737" />
      <path
         d="m 151.98242,188.32339 h -28.15415 v 81.94648 c 0,14.75393 7.11033,27.53884 28.15415,29.58989 V 188.32339"
         id="path6451"
         style="fill:#007dc5;fill-opacity:1;fill-rule:nonzero;stroke:none;stroke-width:13.6737" />
      <path
         d="M 123.81455,173.00889 H 151.9017 V 146.35748 H 123.81455 Z"
         id="path6455"
         style="fill:#007dc5;fill-opacity:1;fill-rule:nonzero;stroke:none;stroke-width:13.6737" />
      <path
         d="m 320.70216,298.54713 c -22.75304,0 -32.46136,-15.84782 -32.46136,-31.5042 V 158.24129 h 27.88067 v 30.06847 h 21.04382 v 22.56161 h -21.04382 v 54.39397 c 0,6.42664 3.07658,9.98181 9.70833,9.98181 h 11.33549 v 23.29998 h -16.46313"
         id="path6459"
         style="fill:#007dc5;fill-opacity:1;fill-rule:nonzero;stroke:none;stroke-width:13.6737" />
      <path
         d="m 394.78627,209.57236 c -9.57159,0 -16.95539,4.92253 -20.0183,11.55428 -1.84595,3.9517 -2.46126,7.02828 -2.73474,11.95081 h 43.04481 c -0.54695,-11.95081 -6.01643,-23.50509 -20.29177,-23.50509 z m -22.75304,42.5799 c 0,14.27534 8.9426,24.80409 24.8041,24.80409 12.44306,0 18.51418,-3.48679 25.62451,-10.52875 l 17.22886,16.47681 c -11.00733,10.92529 -22.62997,17.48867 -43.05848,17.48867 -26.78678,0 -52.34292,-14.54882 -52.34292,-57.06035 0,-36.35837 22.34282,-56.85525 51.65923,-56.85525 29.86337,0 46.94182,24.05204 46.94182,55.55624 v 10.11854 h -70.85712"
         id="path6463"
         style="fill:#007dc5;fill-opacity:1;fill-rule:nonzero;stroke:none;stroke-width:13.6737" />
      <path
         d="m 227.83039,210.87136 c 8.20422,0 11.62264,4.03374 11.62264,10.59712 v 77.21538 h 27.94905 v -77.35212 c 0,-15.65639 -8.40933,-32.93994 -32.87158,-32.93994 l -57.74403,-0.0684 v 110.36043 h 27.94904 v -87.8125 h 23.09488"
         id="path6467"
         style="fill:#007dc5;fill-opacity:1;fill-rule:nonzero;stroke:none;stroke-width:13.6737" />
      <path
         d="m 519.9143,150.8028 c 0,-1.299 -0.75205,-1.77758 -2.598,-1.77758 -0.20511,0 -0.82042,0 -1.23064,0 -0.2051,0 -0.47858,0 -0.47858,0 v 3.897 c 0.27348,0 1.50411,0.0684 1.70922,0.0684 1.84595,0 2.598,-0.61531 2.598,-1.91432 z m 2.73474,9.63996 h -2.05106 c -0.2051,0 -0.34184,-0.13674 -0.41021,-0.34184 l -2.87147,-4.7858 c -0.0684,-0.0684 -0.27348,-0.2051 -0.41021,-0.2051 0,0 -0.47858,0 -0.82043,0 -0.2051,0 -0.34184,0 -0.47858,0 v 4.78579 c 0,0.27347 -0.13673,0.54695 -0.41021,0.54695 h -1.91431 c -0.27348,0 -0.47858,-0.27348 -0.47858,-0.54695 v -12.10122 c 0,-0.68369 0.2051,-0.95716 0.88879,-1.0939 0.61531,-0.0684 2.39289,-0.13674 3.41842,-0.13674 3.48679,0 5.53785,1.0939 5.53785,4.23885 v 0.27347 c 0,1.98269 -1.02553,3.07659 -2.52963,3.62353 l 2.93984,4.9909 c 0.0684,0.0684 0.0684,0.20511 0.0684,0.34185 0,0.2051 -0.0684,0.41021 -0.47858,0.41021 z m -4.92253,-16.0666 c -5.12764,0 -9.29812,4.23885 -9.29812,9.36649 0,5.12763 4.17048,9.29811 9.29812,9.29811 5.12764,0 9.29811,-4.17048 9.29811,-9.29811 0,-5.12764 -4.17047,-9.36649 -9.29811,-9.36649 z m 0,20.57892 c -6.22154,0 -11.21244,-5.05927 -11.21244,-11.21243 0,-6.22154 4.9909,-11.21244 11.21244,-11.21244 6.22153,0 11.21243,4.9909 11.21243,11.21244 0,6.15316 -4.9909,11.21243 -11.21243,11.21243"
         id="path6471"
         style="fill:#007dc5;fill-opacity:1;fill-rule:nonzero;stroke:none;stroke-width:13.6737" />
    </g>
    <g
       id="g1735">
      <path
         d="m 374.01592,669.15909 -1.299,7.24706 c -0.13674,0.95716 -0.95716,1.64085 -1.91432,1.64085 h -7.99911 c -0.88879,0 -1.50411,-0.54695 -1.50411,-1.36738 0,-0.0684 0,-0.13673 0,-0.27347 l 1.299,-7.24706 c 0.20511,-0.88879 1.0939,-1.64084 2.05106,-1.64084 h 7.99911 c 0.82042,0 1.36737,0.54694 1.36737,1.36737 0,0.0684 0,0.2051 0,0.27347 z m -3.21332,16.80498 -7.5889,43.26358 c -0.13674,0.95716 -1.0939,1.77759 -1.98269,1.77759 h -7.6436 c -0.82042,0 -1.299,-0.61532 -1.299,-1.43574 0,-0.13674 0,-0.27348 0,-0.34185 l 7.5889,-43.26358 c 0.19144,-0.88879 1.01186,-1.70922 1.90065,-1.70922 h 7.65727 c 0.82042,0 1.36737,0.54695 1.36737,1.43574 0,0.0684 0,0.13674 0,0.27348"
         id="path6475"
         style="fill:#ffffff;fill-opacity:1;fill-rule:nonzero;stroke:none;stroke-width:13.6737" />
      <path
         d="m 417.19746,702.23577 -4.71743,26.99188 c -0.2051,0.95716 -1.09389,1.77758 -1.98268,1.77758 h -7.65728 c -0.82042,0 -1.35369,-0.61531 -1.35369,-1.43573 0,-0.0684 0.0547,-0.27348 0.0547,-0.34185 l 4.71743,-26.99188 c 0.27347,-2.05106 0.54695,-3.62353 0.54695,-4.92253 0,-3.21332 -1.36737,-4.30722 -5.94806,-4.30722 -2.78944,0 -6.00276,1.16227 -9.83139,3.00822 l -5.87969,33.21341 c -0.20511,0.95716 -1.0939,1.77758 -1.98269,1.77758 h -7.65727 c -0.82042,0 -1.36737,-0.61531 -1.36737,-1.43573 0,-0.0684 0.0684,-0.27348 0.0684,-0.34185 l 7.65727,-43.26358 c 0.13674,-0.87512 0.95716,-1.69554 1.84595,-1.69554 h 7.24706 c 0.82042,0 1.36737,0.68368 1.36737,1.42206 0,0.082 0,0.082 0,0.15041 v 0.12307 l -0.34184,1.70921 c 5.33274,-3.06291 8.87423,-3.9517 13.79676,-3.9517 9.02464,0 11.96449,5.31907 11.96449,12.42939 0,1.91432 -0.13674,3.96538 -0.54695,6.0848"
         id="path6479"
         style="fill:#ffffff;fill-opacity:1;fill-rule:nonzero;stroke:none;stroke-width:13.6737" />
      <path
         d="m 460.52942,687.33144 -0.88879,4.71743 c -0.13674,1.02552 -0.75205,1.57247 -1.57248,1.57247 -0.0684,0 -0.13673,0 -0.2051,0 h -0.13674 c -2.18779,-0.27347 -8.34096,-0.95716 -13.05838,-0.95716 -2.58433,0 -6.3446,0.34185 -6.3446,3.82864 0,1.0939 0.82042,2.18779 2.46127,3.41842 l 9.69465,6.54971 c 4.9909,3.41842 6.0848,6.83685 6.0848,10.46038 0,10.32364 -8.40933,14.76759 -18.24072,14.76759 -2.80311,0 -9.84506,-0.27347 -14.9727,-1.70921 -0.82042,-0.20511 -1.23063,-0.75205 -1.23063,-1.50411 0,-0.0684 0,-0.13673 0,-0.2051 0,-0.13674 0,-0.13674 0,-0.13674 l 0.95716,-4.9909 c 0.13673,-0.82042 0.88879,-1.299 1.70921,-1.299 0.0684,0 0.13674,0 0.27347,0 3.89701,0.47858 10.73386,0.88879 13.26349,0.88879 4.03374,0 7.11033,-0.75205 7.11033,-4.64906 0,-1.36737 -0.76573,-2.598 -2.73474,-3.96537 l -10.11854,-6.97359 c -3.14495,-2.11942 -5.40111,-5.86602 -5.40111,-9.83139 0,-10.93896 9.57159,-13.60533 17.48866,-13.60533 4.9909,0 10.11854,0.54695 14.63086,1.70921 0.82042,0.27348 1.23063,0.82042 1.23063,1.50411 0,0.0684 0,0.2051 0,0.27347 0,0.0684 0,0.0684 0,0.13674"
         id="path6483"
         style="fill:#ffffff;fill-opacity:1;fill-rule:nonzero;stroke:none;stroke-width:13.6737" />
      <path
         d="m 485.74372,669.15909 -1.299,7.24706 c -0.20511,0.95716 -1.02553,1.64085 -1.91432,1.64085 h -8.06748 c -0.82042,0 -1.50411,-0.54695 -1.50411,-1.36738 0,-0.0684 0,-0.13673 0,-0.27347 l 1.36737,-7.24706 c 0.13674,-0.88879 1.02553,-1.64084 1.98269,-1.64084 h 7.99911 c 0.82042,0 1.43574,0.54694 1.43574,1.36737 0,0.0684 0,0.2051 0,0.27347 z m -3.21332,16.80498 -7.65727,43.26358 c -0.13674,0.95716 -1.0939,1.77759 -1.98269,1.77759 h -7.57523 c -0.88879,0 -1.36737,-0.61532 -1.36737,-1.43574 0,-0.13674 0,-0.27348 0,-0.34185 l 7.6436,-43.26358 c 0.13674,-0.88879 0.95716,-1.70922 1.91432,-1.70922 h 7.5889 c 0.82042,0 1.43574,0.54695 1.43574,1.43574 0,0.0684 0,0.13674 0,0.27348"
         id="path6487"
         style="fill:#ffffff;fill-opacity:1;fill-rule:nonzero;stroke:none;stroke-width:13.6737" />
      <path
         d="m 510.47944,692.66418 c -7.11032,0 -9.63996,3.82864 -11.00733,11.82775 l -1.09389,6.41297 c -0.27348,1.98268 -0.47858,3.62353 -0.47858,5.12763 0,4.51232 1.91431,6.70012 7.31543,6.70012 2.93984,0 6.35827,-0.27348 7.99911,-0.61532 l 5.05927,-28.9062 c -2.18779,-0.34184 -5.81132,-0.54695 -7.79401,-0.54695 z m 22.95814,-23.02651 -10.2416,57.6073 c -0.2051,1.23063 -0.61532,1.70921 -2.598,2.25616 -5.40111,1.299 -11.69102,2.18779 -17.02376,2.18779 -11.47223,0 -16.5315,-7.11032 -16.5315,-16.2717 0,-1.50411 0.2051,-2.93985 0.41021,-4.51232 l 1.0939,-6.41297 c 2.46126,-14.9727 10.17323,-20.78402 23.50509,-20.78402 1.98268,0 4.78579,0.2051 7.794,0.54694 l 2.66638,-14.61718 c 0.13673,-0.88879 0.95716,-1.64084 1.91431,-1.64084 h 7.57523 c 0.82043,0 1.43574,0.61531 1.43574,1.36737 0,0.13673 0,0.2051 0,0.27347"
         id="path6491"
         style="fill:#ffffff;fill-opacity:1;fill-rule:nonzero;stroke:none;stroke-width:13.6737" />
      <path
         d="m 558.52882,693.14276 c -6.63174,0 -9.70833,4.44395 -10.80222,10.52875 h 17.5707 c 0.20511,-1.0939 0.34184,-2.05106 0.34184,-3.14495 0,-4.7858 -2.52963,-7.3838 -7.11032,-7.3838 z m 17.48866,12.23796 -0.68368,3.9517 c -0.2598,1.36737 -0.82042,2.11942 -1.96902,2.11942 h -27.00555 c -0.20511,1.16227 -0.41021,2.25616 -0.41021,3.35006 0,4.51232 2.32453,7.52054 8.47769,7.52054 6.01643,0 11.69101,-0.61532 15.24618,-0.95716 0.13673,0 0.27347,0 0.34184,0 0.68368,0 1.23063,0.2051 1.23063,0.95716 0,0.0684 0,0.2051 0,0.34184 l -0.95716,5.46948 c -0.27347,1.299 -0.47858,1.84595 -2.05105,2.11942 -5.53785,1.02553 -9.22975,1.43574 -16.68192,1.43574 -7.37012,0 -16.25803,-4.17048 -16.25803,-16.68191 0,-1.43574 0.0684,-3.21332 0.34185,-4.9909 l 0.95716,-5.11397 c 2.73474,-15.45128 10.92528,-21.19423 23.57345,-21.19423 11.00733,0 16.25803,7.31543 16.25803,16.95538 0,1.50411 -0.2051,3.14496 -0.41021,4.71743"
         id="path6495"
         style="fill:#ffffff;fill-opacity:1;fill-rule:nonzero;stroke:none;stroke-width:13.6737" />
      <path
         d="m 601.23179,684.87017 v -14.01554 h -0.13674 l -5.46948,14.01554 h -1.77758 l -5.53785,-14.01554 h -0.0684 v 14.01554 h -2.72107 v -16.87335 h 4.22517 l 5.05927,12.77124 4.92253,-12.77124 h 4.30722 v 16.87335 z m -24.46225,-14.61719 v 14.61719 h -2.80311 v -14.61719 h -5.26437 v -2.25616 h 13.33186 v 2.25616 h -5.26438"
         id="path6535"
         style="fill:#ffffff;fill-opacity:1;fill-rule:nonzero;stroke:none;stroke-width:13.6737" />
    </g>
    <g
       id="g1726">
      <path
         d="m 100.58294,564.73304 v -1.299 c 0,-6.15317 -1.777581,-10.52875 -5.401112,-13.19512 -3.555162,-2.66637 -9.229747,-3.9517 -16.804977,-3.9517 -4.785795,0 -9.229747,0.2051 -13.19512,0.61532 v 35.11406 c 4.785795,0.34184 9.161379,0.47858 13.19512,0.47858 5.250701,0 9.557916,-0.61532 12.771236,-1.98269 3.213319,-1.21696 5.674585,-3.13128 7.178692,-5.72928 1.504107,-2.598 2.256161,-5.94806 2.256161,-10.05017 z m 20.42851,0 c 0,12.16959 -3.9517,20.97546 -11.81408,26.44494 -7.93075,5.46948 -18.18602,8.13585 -30.888887,8.13585 -0.752054,0 -2.461266,0 -5.127638,-0.13674 -2.666371,-0.13674 -4.375584,-0.20511 -5.196006,-0.27347 -0.820422,0 -1.777581,-0.0684 -2.803108,-0.13674 v 38.75127 c 0,0.82042 -0.273474,1.5041 -0.888791,2.05105 -0.546948,0.54695 -1.162264,0.88879 -1.982686,0.88879 H 47.556331 c -0.752053,0 -1.36737,-0.34184 -1.982686,-0.88879 -0.683685,-0.54695 -0.957159,-1.299 -0.957159,-2.05105 V 535.62173 c 0,-1.43574 0.341842,-2.46126 1.162264,-3.07658 0.820422,-0.68368 1.982687,-1.0939 3.555162,-1.36737 8.122178,-1.299 17.762137,-1.98269 29.042939,-1.98269 12.702867,0 22.958139,2.66638 30.820519,7.99912 7.86238,5.40111 11.81408,14.07024 11.81408,26.23983 v 1.299"
         id="path6539"
         style="fill:#ffffff;fill-opacity:1;fill-rule:nonzero;stroke:none;stroke-width:13.6737" />
      <path
         d="m 179.79468,591.51982 v -0.61532 c 0,-5.94806 -1.43574,-10.46038 -4.23885,-13.53696 -2.80311,-3.06291 -6.56337,-4.63538 -11.41754,-4.63538 -3.07658,0 -5.79765,0.68368 -8.19054,2.05105 -2.3929,1.299 -4.23885,3.26802 -5.60622,6.00276 -1.299,2.66637 -2.05105,6.01642 -2.05105,10.11853 v 0.61532 z m -13.40023,50.10044 c -6.20786,0 -12.15592,-1.17594 -17.89887,-3.4868 -5.67458,-2.25616 -10.39201,-6.22153 -14.22065,-11.75938 -3.74659,-5.53785 -5.66091,-12.85328 -5.66091,-21.93261 v -10.93896 c 0,-7.58891 1.43574,-14.22065 4.15681,-19.94993 2.8031,-5.74296 6.83685,-10.11854 12.23796,-13.12675 5.33274,-3.07659 11.75938,-4.51232 19.1295,-4.51232 7.45217,0 13.81044,1.57247 19.14318,4.78579 5.33275,3.14495 9.36649,7.52054 12.10123,13.19512 2.72106,5.66091 4.08843,12.15592 4.08843,19.53972 v 8.27259 c 0,2.52963 -1.02552,3.76026 -2.93984,3.76026 h -48.37755 v 0.41021 c 0,5.59255 1.43574,10.17324 4.23885,13.59166 2.8031,3.4868 7.99911,5.26438 15.57434,5.26438 4.10211,0 8.61443,-0.41021 13.40023,-1.299 4.85416,-0.82043 8.81953,-1.70922 11.89611,-2.66638 2.03739,-0.68368 3.06291,0.0684 3.06291,2.25616 v 8.75117 c 0,0.95716 -0.2051,1.77758 -0.73838,2.25616 -0.47858,0.54695 -1.299,1.0939 -2.32453,1.64085 -3.07658,1.57247 -6.97358,2.93984 -11.89611,4.17048 -4.85417,1.14859 -9.84507,1.77758 -14.97271,1.77758"
         id="path6543"
         style="fill:#ffffff;fill-opacity:1;fill-rule:nonzero;stroke:none;stroke-width:13.6737" />
      <path
         d="m 280.73393,637.31304 c 0,0.75205 -0.27347,1.50411 -0.88879,2.11942 -0.61532,0.68369 -1.299,1.02553 -2.05106,1.02553 h -13.66002 c -0.82042,0 -1.50411,-0.34184 -2.05106,-1.02553 -0.54694,-0.61531 -0.82042,-1.36737 -0.82042,-2.11942 v -48.8698 c 0,-3.88333 -0.47858,-6.95992 -1.36737,-9.28445 -0.95716,-2.32453 -2.46126,-3.96537 -4.64906,-5.05927 -2.11942,-1.02552 -5.05927,-1.57247 -8.8879,-1.57247 -4.51232,0 -9.36649,0.54695 -14.54882,1.57247 v 63.21352 c 0,0.88879 -0.27347,1.64084 -0.82042,2.18779 -0.54695,0.61532 -1.299,0.95716 -2.11942,0.95716 h -13.60534 c -0.82042,0 -1.57247,-0.34184 -2.11942,-1.02553 -0.61532,-0.61531 -0.82042,-1.36737 -0.82042,-2.11942 V 563.2973 c 0,-1.43574 0.95716,-2.46126 2.93984,-2.93984 4.92254,-1.36737 10.25528,-2.46127 15.92986,-3.28169 5.59255,-0.73838 10.92529,-1.14859 15.77945,-1.14859 11.62265,0 20.15504,2.51596 25.62452,7.6436 5.46948,5.12763 8.13585,13.40022 8.13585,24.74939 v 48.99287"
         id="path6547"
         style="fill:#ffffff;fill-opacity:1;fill-rule:nonzero;stroke:none;stroke-width:13.6737" />
      <path
         d="m 341.55455,637.92836 c 0,1.43574 -0.95716,2.32453 -2.80311,2.598 -4.17048,0.75206 -7.99911,1.0939 -11.62264,1.0939 -5.93439,0 -10.51508,-0.61532 -13.86514,-1.77758 -3.28168,-1.23064 -5.81132,-3.4868 -7.38379,-6.90522 -1.57248,-3.35006 -2.3929,-8.34096 -2.3929,-14.89066 v -46.47691 l -12.29266,-2.11942 c -1.91432,-0.34184 -2.93984,-1.299 -2.93984,-3.00821 v -6.63175 c 0,-0.80675 0.27347,-1.50411 0.82042,-2.10575 0.54695,-0.54695 1.299,-0.82042 2.11942,-0.82042 h 12.29266 v -12.16959 c 0,-1.64085 1.02553,-2.59801 3.00821,-2.93985 l 13.74207,-2.3929 h 0.61532 c 1.57247,0 2.32453,0.75206 2.32453,2.25616 v 15.24618 h 14.95902 c 0.95716,0 1.64085,0.27347 2.1878,0.75205 0.54695,0.61532 0.82042,1.29901 0.82042,2.17412 v 8.75117 c 0,0.82042 -0.27348,1.57248 -0.88879,2.11942 -0.54695,0.54695 -1.23063,0.88879 -2.11943,0.88879 H 323.1771 v 46.47691 c 0,3.6919 0.34184,5.93439 1.01185,6.89155 0.62899,0.88879 2.18779,1.36736 4.7858,1.36736 h 9.50322 c 2.05105,0 3.07658,0.75206 3.07658,2.25617 v 9.36648"
         id="path6551"
         style="fill:#ffffff;fill-opacity:1;fill-rule:nonzero;stroke:none;stroke-width:13.6737" />
      <path
         d="m 370.93933,637.31304 c 0,0.88879 -0.34184,1.64084 -0.82042,2.18779 -0.61532,0.61532 -1.299,0.95716 -2.11943,0.95716 h -13.66002 c -0.82042,0 -1.50411,-0.34184 -2.11943,-1.02553 -0.54694,-0.61531 -0.82042,-1.36737 -0.82042,-2.11942 v -77.50253 c 0,-0.82042 0.27348,-1.43574 0.82042,-2.11943 0.61532,-0.53327 1.29901,-0.82042 2.11943,-0.82042 h 13.66002 c 0.88879,0 1.57248,0.28715 2.11943,0.75206 0.54695,0.61531 0.82042,1.299 0.82042,2.18779 z m 0.41021,-94.44425 c 0,0.88879 -0.27347,1.57248 -0.88879,2.11943 -0.54695,0.54695 -1.23063,0.82042 -2.05105,0.82042 h -14.34372 c -0.75205,0 -1.43573,-0.27347 -2.11942,-0.82042 -0.68368,-0.54695 -1.02553,-1.23064 -1.02553,-2.11943 v -13.05838 c 0,-0.75205 0.34185,-1.50411 1.02553,-2.05105 0.68369,-0.61532 1.36737,-0.88879 2.11942,-0.88879 h 14.34372 c 0.82042,0 1.5041,0.27347 2.05105,0.82042 0.61532,0.61531 0.88879,1.299 0.88879,2.11942 v 13.05838"
         id="path6555"
         style="fill:#ffffff;fill-opacity:1;fill-rule:nonzero;stroke:none;stroke-width:13.6737" />
      <path
         d="m 386.51367,560.01561 c 0,-0.82042 0.20511,-1.50411 0.82042,-2.18779 0.54695,-0.61532 1.23063,-0.95716 2.05106,-0.95716 h 13.66002 c 0.88879,0 1.50411,0.34184 2.1331,0.88879 0.53327,0.61532 0.80675,1.299 0.80675,2.25616 v 48.78776 c 0,2.93985 0.27347,5.33274 0.75205,7.31543 0.47858,1.98269 1.23064,3.62353 2.3929,4.92253 1.16226,1.299 2.66637,2.25616 4.58069,2.80311 1.84595,0.61532 4.23885,0.95716 7.17869,0.95716 4.85417,0 9.70833,-0.54695 14.54882,-1.64084 v -63.14515 c 0,-0.82042 0.27347,-1.50411 0.82042,-2.18779 0.54695,-0.61532 1.23063,-0.95716 2.05106,-0.95716 h 13.6737 c 0.75205,0 1.43573,0.34184 2.05105,0.95716 0.61532,0.68368 0.88879,1.36737 0.88879,2.18779 v 74.01574 c 0,1.43574 -1.02553,2.46126 -2.93984,2.93984 -5.33275,1.43574 -10.73386,2.51596 -16.18967,3.26802 -5.46948,0.75205 -10.66548,1.16226 -15.51964,1.16226 -5.94806,0 -10.93896,-0.61531 -15.09577,-1.84595 -4.10211,-1.21696 -7.5889,-3.19964 -10.39201,-5.79765 -2.87148,-2.66637 -4.92253,-6.01642 -6.2899,-10.05017 -1.36737,-4.10211 -1.98269,-8.95627 -1.98269,-14.69922 v -48.99287"
         id="path6559"
         style="fill:#ffffff;fill-opacity:1;fill-rule:nonzero;stroke:none;stroke-width:13.6737" />
      <path
         d="m 533.04104,637.31304 c 0,0.88879 -0.27347,1.64084 -0.82042,2.18779 -0.54695,0.61532 -1.299,0.95716 -2.11943,0.95716 h -13.59165 c -0.88879,0 -1.57248,-0.34184 -2.11943,-1.02553 -0.54694,-0.61531 -0.82042,-1.36737 -0.82042,-2.11942 v -48.8698 c 0,-3.9517 -0.47858,-7.09665 -1.299,-9.35281 -0.75205,-2.25617 -2.25616,-3.89701 -4.30722,-4.99091 -2.05105,-1.02552 -4.92253,-1.57247 -8.6828,-1.57247 -2.93984,0 -6.15316,0.47858 -9.70832,1.43574 v 63.35025 c 0,0.88879 -0.27348,1.64084 -0.82042,2.18779 -0.54695,0.61532 -1.23064,0.95716 -2.11943,0.95716 h -13.59166 c -0.88879,0 -1.57247,-0.34184 -2.11942,-1.02553 -0.54695,-0.61531 -0.82042,-1.36737 -0.82042,-2.11942 V 563.2973 c 0,-1.299 0.95716,-2.32453 2.93984,-2.93984 3.76027,-1.36737 8.27259,-2.3929 13.45493,-3.19965 5.196,-0.82042 9.77669,-1.23063 13.6737,-1.23063 10.11853,0 17.70744,1.90064 22.8214,5.66091 3.6919,-1.57248 7.72564,-2.93985 12.16959,-4.03374 4.37559,-1.08022 8.6828,-1.62717 12.83961,-1.62717 9.36648,0 16.47681,2.58433 21.2626,7.78033 4.7858,5.19601 7.17869,13.40023 7.17869,24.61266 v 48.99287 c 0,0.88879 -0.27347,1.64084 -0.82042,2.18779 -0.54695,0.61532 -1.299,0.95716 -2.18779,0.95716 h -13.60533 c -0.82042,0 -1.57248,-0.34184 -2.11943,-1.02553 -0.54694,-0.61531 -0.82042,-1.36737 -0.82042,-2.11942 v -48.8698 c 0,-3.9517 -0.34184,-7.02829 -1.09389,-9.35281 -0.75206,-2.25617 -2.05106,-3.89701 -3.82864,-4.99091 -1.84595,-1.02552 -4.29354,-1.57247 -7.50686,-1.57247 -3.96537,0 -8.27259,0.95716 -12.85328,2.80311 0.95716,4.10211 1.43574,8.40932 1.43574,13.04471 v 48.93817"
         id="path6563"
         style="fill:#ffffff;fill-opacity:1;fill-rule:nonzero;stroke:none;stroke-width:13.6737" />
      <path
         d="m 585.5207,543.82595 c 0,-1.299 -0.75205,-1.77758 -2.598,-1.77758 -0.20511,0 -0.82042,0 -1.299,0 -0.20511,0 -0.41022,0 -0.41022,0 v 3.897 c 0.20511,0 1.50411,0.0684 1.70922,0.0684 1.84595,0 2.598,-0.61531 2.598,-1.91432 z m 2.73474,9.63996 h -2.05106 c -0.2051,0 -0.34184,-0.13674 -0.41021,-0.34184 l -2.87147,-4.7858 c -0.0684,-0.0684 -0.27348,-0.2051 -0.41021,-0.2051 0,0 -0.47858,0 -0.82043,0 -0.2051,0 -0.34184,0 -0.47858,0 v 4.85416 c 0,0.2051 -0.13673,0.47858 -0.47857,0.47858 h -1.84595 c -0.27348,0 -0.47858,-0.27348 -0.47858,-0.47858 V 540.8861 c 0,-0.75205 0.2051,-1.02552 0.88879,-1.16226 0.61531,-0.0684 2.39289,-0.13674 3.41842,-0.13674 3.48679,0 5.53785,1.0939 5.53785,4.23885 v 0.27347 c 0,1.98269 -1.02553,3.07659 -2.52963,3.62353 l 2.93984,4.99091 c 0,0.0684 0.0684,0.2051 0.0684,0.34184 0,0.2051 -0.13674,0.41021 -0.47858,0.41021 z m -4.92253,-16.0666 c -5.12764,0 -9.29812,4.23885 -9.29812,9.36649 0,5.12763 4.17048,9.29811 9.29812,9.29811 5.12764,0 9.29811,-4.17048 9.29811,-9.29811 0,-5.12764 -4.17047,-9.36649 -9.29811,-9.36649 z m 0,20.57892 c -6.22154,0 -11.21244,-4.9909 -11.21244,-11.21243 0,-6.22154 4.9909,-11.21244 11.21244,-11.21244 6.22153,0 11.21243,4.9909 11.21243,11.21244 0,6.22153 -4.9909,11.21243 -11.21243,11.21243"
         id="path6567"
         style="fill:#ffffff;fill-opacity:1;fill-rule:nonzero;stroke:none;stroke-width:13.6737" />
    </g>
  </g>
</svg>
