<?xml version="1.0" encoding="UTF-8" standalone="no"?>
<svg
   xmlns:dc="http://purl.org/dc/elements/1.1/"
   xmlns:cc="http://creativecommons.org/ns#"
   xmlns:rdf="http://www.w3.org/1999/02/22-rdf-syntax-ns#"
   xmlns:svg="http://www.w3.org/2000/svg"
   xmlns="http://www.w3.org/2000/svg"
   xmlns:sodipodi="http://sodipodi.sourceforge.net/DTD/sodipodi-0.dtd"
   xmlns:inkscape="http://www.inkscape.org/namespaces/inkscape"
   version="1.1"
   id="Layer_1"
   width="548.63867"
   height="664.72052"
   viewBox="0 0 548.63868 664.72051"
   overflow="visible"
   enable-background="new 0 0 584.641 748.51"
   xml:space="preserve"
   sodipodi:docname="Intel_Pentium_Processor.svg"
   inkscape:version="1.0 (4035a4f, 2020-05-01)"><metadata
   id="metadata1045"><rdf:RDF><cc:Work
       rdf:about=""><dc:format>image/svg+xml</dc:format><dc:type
         rdf:resource="http://purl.org/dc/dcmitype/StillImage" /><dc:title></dc:title></cc:Work></rdf:RDF></metadata><defs
   id="defs1043">
	
	
	
	
	
	
	
	
	
	
	
	
	
	
	
	
	
	
	
	
	
	
	
	
	
	
	
	
	
	
	
	
	
	
	
	
	
	
	
	
	
	
	
	
	
	
	
	
	
	
	
	
	
	
	
	
	
	
	
	
	
	
	
	
	
	
	
	
	
	
	
	
	
	
	
	
	
	
	
	
	
	
	
	
	
	
	
	
	
	
	
	
	
	
	
	
	
	
	
	
	
	
	
	
	
	
	
	
	
	
	
	
	
	
	
	
	
	
	
	
	
	
	
	
	
	
	
	
	
	
	
	
	
	
	
	
	
	
	
	
	
	
	
	
	
	
	
	
	
	
	
	
	
	
	
	
	
	
	
	
	
	
	
	
	
	
	
	
	
	
	
	
	
	
	
	
	
	
	
	
	
	
	
	
	
	
	
	
	
	
	
	
	
	
	
	
	
	
	
	
	
	
	
	
	
	
	
	
	
	
	
	
	
	
	
	
	
	
	
	
	
	
	
	
	
	
	
	
	
	
	
	
	
	
	
	
	
	
	
	
	
	
	
	
	
	
	
	
	
	
	
	
	
	
	
	
	
	
	
	
	
	
	
	
	
	
	
	
	
	
	
	
	
	
	
	
	
	
	
	
	
	
	
	
	
	
	
	
	
	
	
	
	
	
	
	
	
	
	
	
	
	
	
	
	
	
	
	
	
	
	
	
	
	
	
	
	
	
	
	
	
	
	
	
	
	
	
	
	
	
	
	
	
	
	
	
	
	
	
	
	
	
	
	
	
	
	
	
	
	
	
	
	
	
	
	
	
	
	
	
	
	
	
	
	
	
	
	
	
	
	
	
	
	
	
	
	
	
	
	
	
	
	
	
	
	
	
	
	
	
	
	
	
	
	
	
	
	
	
	
	
	
	
	
	
	
	
	
	
	
	
	
	
	
	
	
	
	
	
	
	
	
	
	
	
	
	
	
	
	
	
	
	
	
	
	
	
	
	
	
	
	
	
	
	
	
	
	
	
	
	
	
	
	
	
	
	
	
	
	
	
	
	
	
	
	
	
	
	
	
	
	
	
	
	
	
	
	
	
	
	
	
	
	
	
	
	
	
	
	
	
	
	
	
	
	
	
	
	
	
	
	
	
	
	
	
	
	
	
	
	
	
	
	
	
	
	
	
</defs><sodipodi:namedview
   inkscape:pagecheckerboard="true"
   inkscape:document-rotation="0"
   pagecolor="#ffffff"
   bordercolor="#666666"
   borderopacity="1"
   objecttolerance="10"
   gridtolerance="10"
   guidetolerance="10"
   inkscape:pageopacity="0"
   inkscape:pageshadow="2"
   inkscape:window-width="1440"
   inkscape:window-height="847"
   id="namedview1041"
   showgrid="false"
   fit-margin-top="0"
   fit-margin-left="0"
   fit-margin-right="0"
   fit-margin-bottom="0"
   inkscape:zoom="0.52120562"
   inkscape:cx="539.80163"
   inkscape:cy="472.4783"
   inkscape:window-x="0"
   inkscape:window-y="25"
   inkscape:window-maximized="1"
   inkscape:current-layer="g2539" />
<g
   id="g2592"><g
     id="g2556"><path
       id="path992-3"
       d="M 388.79755,106.00255 V 88.145547 h 6.91 c 1.152,0 2.305,0 3.168,0.576 1.441,0.865 2.594,2.592 2.594,4.896 0,2.881 -1.727,4.607 -4.609,5.184 1.152,0.576 5.762,7.201003 5.762,7.201003 v 0 h -2.594 c 0,0 -4.605,-6.912003 -6.621,-6.912003 v 0 h -2.594 v 6.912003 z m 2.016,-9.217003 h 4.609 c 0.863,0 1.727,0 2.301,-0.576 0.867,-0.576 1.441,-1.439 1.441,-2.592 0,-2.016 -1.152,-3.168 -3.457,-3.168 v 0 h -4.895 v 6.336 z m -12.098,0.287 c 0,-8.928 7.203,-16.127 16.129,-16.127 8.93,0 16.129,7.199 16.129,16.127 0,8.930003 -7.199,16.129003 -16.129,16.129003 -8.926,0 -16.129,-7.199 -16.129,-16.129003 z M 363.95503,0.00779651 c -2.49561,-0.184584 -2.62448,2.96474999 -5.39648,3.46874999 -2.015,-4.03099999 -4.89444,-4.54e-4 -7.77344,-1.439454 v -0.289062 c -3.168,-1.43899999 -4.03088,2.305031 -6.04688,3.457031 -1.152,-1.439 -1.44115,-4.32024999 -4.03515,-4.03125 -1.727,0.287 -2.01585,1.439797 -2.58985,2.591797 -1.153,1.44 -1.73081,-0.289062 -2.88281,-0.289062 -3.164,-1.729001 -3.74215,2.881343 -6.91015,1.152343 -1.726,2.015 -5.18322,-0.576547 -7.19922,1.439453 -2.305,1.729 -4.03172,-1.152453 -5.76172,-1.439453 -2.015,-0.576 -2.30431,2.59186 -4.32031,2.88086 -0.575,-0.576 -1.43757,-0.863453 -1.72657,-1.439453 -2.594,-0.864001 -3.45659,1.439453 -5.18359,1.439453 -2.593,1.15 0.28859,3.4554215 -1.44141,4.6074215 -0.575,0.863001 -1.43768,-6.2e-5 -2.30468,-0.289062 -0.285,-1.151 0.86712,-1.439798 0.57812,-2.5917975 -0.578,-1.15 -2.30475,-3.91e-4 -2.59375,-1.150391 -3.743,-1.151999 -4.89456,2.5916265 -8.35156,2.0156265 -0.863,3.168 3.4568,1.152421 2.59179,4.607421 -0.28699,0.289 -0.28728,0.576344 -0.86328,1.152344 -1.728,-0.576 -2.88042,0.863115 -4.60742,0.287105 -2.881,-2.015995 1.72617,-2.878589 0.57617,-5.183589 -2.305,-0.863 -3.74365,-2.3051715 -5.47265,-0.576172 -3.168,-1.7279995 -3.74405,3.167797 -6.62305,2.591797 -1.729,2.017 -4.896,-0.286766 -6.625,0.865234 -2.016,0.863 1.43906,1.726969 0.28906,3.16797 -0.865,0.863 -1.44175,2.01545 -2.59375,1.43945 v -2.01758 h -0.57422 c -0.865,-0.576996 0.287,-1.152574 0,-2.017574 -0.865,-0.287 -2.59375,0.288609 -2.59375,-1.150391 l -6.04687,4.607425 c -1.439,-0.863 -2.59225,-1.72846 -4.03125,-1.43946 -2.305,2.015 -4.32017,2.30246 -7.20117,1.43946 -2.881,0.863 -5.47256,1.43979 -8.35156,2.59179 -3.457,-0.287 -5.76158,3.45855 -8.64258,5.18555 -5.184,0.289 -10.65661,0.86486 -14.97461,2.88086 1.151,6.046 -6.04846,1.15047 -8.06446,4.60547 -5.185,-0.864 -8.06404,2.01545 -13.24804,1.43945 -0.289,0.576 -0.86489,1.72869 0.28711,2.30469 -0.287,0.863 0.28883,2.0158 -0.57618,2.5918 -2.016,0 -3.74387,-1.43733 -6.04687,-0.86133 -1.728,0.287 -3.4572,1.15197 -4.0332,3.16797 -3.744,-0.865 -5.18133,1.43897 -7.48633,3.16797 0,1.439 -1.44175,0.86139 -2.59375,1.15039 -1.726,0.576 -2.8773,2.87925 -4.0293,4.03125 -0.289,-0.287 -0.86328,-0.57628 -0.86328,-0.86329 -1.441,-1.15299 -3.4572,-0.28954 -4.0332,1.43946 l 0.57617,0.28906 c 0.289,1.439 -0.57652,2.59197 -1.72852,3.16797 -2.015,-2.594 -5.18332,-0.289 -7.48632,0 -2.881,2.592 1.43743,4.31805 1.14843,6.62305 -1.439,0 -1.72412,2.01551 -3.45312,1.72851 -0.29,-1.152 -2.30647,-1.72803 -1.73047,-3.45703 h -4.32031 c 0,0.289 0.002,0.86523 -0.28516,0.86523 -0.577,0 -1.44358,0.28694 -2.01758,-0.28906 -2.016,2.015 -4.89611,2.88131 -6.91211,4.32031 -1.153,2.01601 -2.30465,4.31997 -5.47265,3.16797 -0.576,4.031 -5.18328,2.01514 -7.48828,3.74414 0.289,8.064 -10.94141,3.45542 -10.94141,11.23242 -1.44,2.016 -3.74572,1.72674 -5.76172,2.30274 -3.457,0.865 -4.32066,3.74383 -5.47266,6.04883 l -4.03125,1.43945 c -4.32,2.015 2.59177,2.59148 -0.86523,4.89648 -1.727,-0.863 -4.32005,-0.8631 -6.62305,-0.28711 0.576,2.303 -1.72879,2.01597 -2.59179,3.16797 0.863,2.302013 -2.5918,2.015253 -2.5918,4.031253 2.303,2.879 -2.01786,2.30236 -2.88086,4.31836 -4.032,-1.442 -5.47262,4.32042 -8.64062,4.60742 -0.57401,1.439 -1.15083,3.74449 0.57617,4.89649 l -1.15039,1.15234 -0.57618,-0.28906 c -2.018,-0.576 -4.03365,-0.57577 -5.47265,0.86523 1.153,2.01501 -2.30435,2.30315 -1.15235,3.74415 -0.863,1.151 -1.43907,3.45479 -3.45507,2.59179 -0.865,1.15 -3.74375,0.57597 -2.59375,3.16797 0,2.016 -0.5738,4.31853 -2.5918,4.89453 0,1.152 -0.57594,2.30486 0.28906,2.88086 -0.577,0.577 -1.15251,1.43952 -1.72851,1.72852 -0.576,-1.442 -1.15197,-2.8808 -3.16797,-2.5918 -2.016,-0.576 -1.43969,2.30308 -2.30469,3.45508 0.576,1.728 1.15189,5.47222 -0.28711,7.19922 -0.577,-0.576 -2.01758,0.28872 -2.01758,-0.86328 -1.152,-1.153 -2.59018,-0.28683 -3.74218,0.57617 -1.15301,2.305 2.3025,1.15197 1.4375,3.16797 -0.287,0.576 -0.8615,0.57628 -1.4375,0.86328 0,1.729 -3.16846,3.74376 -1.43946,5.75976 -1.441,0.289 -2.59197,-0.86339 -3.16797,-1.15039 -1.152,0.576 -2.59186,2.01591 -2.88086,2.87891 1.439,1.152 3.74253,0.28889 4.89453,-0.28711 0.57601,0.576 1.15218,1.44169 0.57618,2.30469 -1.152,1.441 -3.16642,0.57428 -4.60742,0.86328 v 0.86328 c -2.30301,0.576 -1.43908,3.16825 -3.45508,4.03125 0.287,2.018 -0.86535,3.74455 -1.15235,5.18555 -0.863,1.153 -1.43979,1.44158 -2.59179,2.01758 0.287,2.01499 -2.01597,2.87735 -3.16797,4.31835 -0.29,0.863 0.28553,3.16975 -1.73047,2.59375 -0.287,0.864 0.28883,2.01574 -0.57617,2.30274 0.865,4.897 -4.8923,4.6098 -4.0293,9.2168 -1.153,1.439 -2.01764,3.45548 -2.30664,4.89648 0.577,0.287 1.44347,-0.29084 1.73047,0.28516 0.863,0.576 0.28717,1.15464 0.57617,2.30664 -0.863,1.439 -2.30503,0.57628 -3.45703,0.86328 -1.15,1.152 -1.15039,2.87842 -1.15039,4.60742 -0.576,0.577 -1.15269,1.72852 -2.30469,1.72852 -3.455,1.152 -2.30664,4.60721 -2.30664,7.19921 -0.576,1.153 -0.86373,2.30475 -2.30273,2.59375 0.287,0.577 -0.28883,1.72863 0.57617,2.01563 1.439,2.88 -2.0178,2.88042 -2.5918,4.60742 1.151,1.728 1.43966,4.31853 -1.15234,4.89453 1.152,2.015 3.4e-4,5.18317 1.15234,7.20117 -0.289,1.44 -1.44175,2.3028 -2.59375,2.5918 0.576,2.303 -1.15022,3.4547 -0.57422,5.4707 -0.289,0.289 -0.8654,0.57607 -1.4414,0.28907 0,0.864 1.7e-4,1.44151 0.57617,1.72851 l 0.002,0.006 c -0.002,0.0277 -0.57428,6.90348 -1.43555,10.35352 1.152,3.168 -2.59347,4.60745 -1.73046,8.06445 1.152,1.151 -0.28666,3.74459 1.15234,5.18359 -0.576,0.576 -0.57634,1.72869 -1.15234,2.30469 -1.15201,4.031 2.01582,7.77547 -0.57618,11.23047 1.441,1.728 1.72818,4.89617 0.57618,7.20117 -0.864,1.726 1.43934,2.01514 1.15234,3.74414 -3.744,3.74 1.43928,6.62324 0.86328,10.36524 0,0.578 -1.7e-4,1.15429 -0.57617,1.15429 -2.015,7.195 3.16775,12.38483 2.59375,19.29883 0.574,0.571 1.1e-4,1.43769 0.28711,2.30469 -2.305,4.031 1.43986,6.61706 2.88086,9.78906 0.574,2.304 -0.28872,5.17742 0.86328,7.48242 0.576,4.32 4.32048,7.20344 4.89648,11.52344 4.031,5.18 3.74433,11.23406 7.48633,16.41406 1.152,2.883 3.1682,5.4765 4.0332,8.0625 0,2.593 2.01597,3.17138 3.16797,4.60938 1.439,1.445 3.74236,3.46081 4.31836,5.75781 0.287,3.461 4.03149,4.60906 4.89649,6.91406 0.864,2.594 2.59153,5.18794 4.89453,6.33594 2.304,4.031 4.32045,7.20313 8.06445,10.07813 1.44,0.578 0.2868,3.17181 2.5918,2.88281 0.289,2.304 3.16759,3.45319 5.18359,3.74219 0.865,0.578 1.72841,0.86668 1.44141,2.30468 2.879,2.883 5.76012,7.20471 10.07812,9.22071 1.153,2.593 3.74566,2.88048 5.47266,4.89648 2.015,0.859 3.74448,2.58625 4.89648,4.03125 3.168,2.015 7.19957,3.16438 8.35157,7.48438 3.457,-1.726 2.30654,2.88262 5.18554,2.01562 1.152,1.157 2.30319,1.15669 3.74219,2.30469 0.289,1.437 1.44375,1.15619 2.59375,0.86719 1.152,2.016 3.74253,3.16362 4.89453,4.89062 3.168,0 3.45694,2.88483 6.33594,3.17383 -0.576,2.305 2.01764,0.28863 2.30664,2.01562 3.455,0.289 6.04533,1.43732 7.48633,4.32032 0.576,0 1.15245,0.28887 1.43945,-0.57813 2.592,-1.148 2.01597,2.01581 3.16797,2.88281 3.744,-1.44499 4.32022,2.01569 7.19922,2.30469 -0.287,-0.289 6e-5,-0.28912 0.28906,-0.57812 1.729,-0.867 1.7288,1.43762 2.5918,2.01562 0.577,0.289 2.30451,4.4e-4 1.72851,1.14844 l 3.74414,0.28906 c 1.153,1.735 3.16771,2.88281 5.47071,2.88281 1.441,2.016 5.186,1.72657 6.625,1.72657 0.863,-0.289 0.86345,0.8675 1.43945,1.4375 1.439,0.578 2.88048,2.02325 4.89648,1.15625 0.864,2.016 3.74371,1.43945 5.47071,1.43945 1.152,1.157 2.8812,1.44563 4.0332,2.01563 1.152,0 2.30297,-0.56988 3.16797,0.57812 2.879,0 4.60739,0.57813 7.77539,0.57813 1.152,2.305 4.60694,0.28862 6.33594,2.01562 2.304,-1.445 6.04845,-0.86687 8.06445,0.57813 0,-1.156 0.28533,-2.30488 0.86133,-3.17188 0.576,0.579 2.01975,0.57856 2.59375,1.72656 0,2.883 2.59225,2.59325 4.03125,4.03125 3.455,-0.571 6.33601,1.44532 9.79101,1.44532 1.152,-0.867 3.16838,-0.28913 4.60938,-0.57813 3.168,1.727 6.91225,-0.867 10.65625,0 2.303,0.289 4.31816,4.60944 6.91016,1.14844 1.728,-0.281 3.16831,1.15662 4.32031,2.01562 2.304,0.578 2.88037,-1.43762 4.60937,-2.01562 3.744,3.172 6.33625,0.57636 10.65625,1.44336 2.878,1.727 2.30047,-3.172 4.60547,-3.75 1.152,1.156 3.45508,0.86681 3.45508,2.88281 2.881,1.156 1.7282,-2.01563 4.0332,-2.01563 1.726,2.883 5.18333,1.15582 7.48633,2.88282 l 0.86524,-0.86719 c 2.015,1.156 5.18321,1.156 7.19921,0 2.592,0.289 6.33552,1.43958 8.35352,-0.85742 2.879,1.438 4.8945,-1.44519 8.0625,-0.86719 2.015,-1.727 5.18322,-1.15845 7.19922,-1.43945 4.609,-1.446 8.066,-2.01563 13.25,-2.01563 0.574,-1.156 2.01584,-0.86731 2.58984,-1.44531 1.731,-2.305 4.60978,4.4e-4 6.05078,-1.72656 1.726,-0.29 3.16832,4.3e-4 4.32032,1.14843 0.864,-0.57099 1.72845,-0.57056 1.43945,-1.72656 0.578,-2.015 3.16803,-0.85931 3.45703,-0.57031 0.863,-2.594 3.16623,-0.86688 3.74023,-3.17187 l 0.57813,0.28906 c 1.438,0.867 1.43791,-1.15619 2.87891,-0.86719 l 0.57812,-0.85937 c 2.016,0.28899 3.16955,-1.72625 5.18555,-1.15626 v -0.57031 c 0.864,-0.867 1.15269,-6e-5 2.30469,-0.28906 1.727,-1.445 3.74181,0.002 5.75781,-1.1543 0,-0.289 6e-5,-0.85943 0.28906,-1.14843 1.727,-1.727 3.45659,-1.44507 5.18359,-0.28907 1.442,-0.868 3.16754,-2.30462 4.89454,-2.01562 2.305,-1.726 3.45665,-2.59325 5.47265,-4.03125 1.731,0.86 4.31988,0.28887 6.04688,-0.57813 2.882,-4.031 8.06643,-2.88281 11.52343,-5.75781 1.438,-0.868 4.8946,0.28944 5.1836,-1.72656 0.863,-2.016 3.45476,-2.30658 5.75976,-2.01758 2.883,-0.29 0.5763,-5.1875 4.0293,-5.1875 1.442,-0.578 2.01758,1.14862 2.01758,2.01562 h 0.86523 c 0,-0.57899 0.002,-1.43756 -0.28711,-1.72656 2.304,-1.437 -1.15461,-3.17137 1.15039,-4.60937 0.864,0.289 1.72864,-0.28894 2.30665,0.28906 1.437,1.726 0.57226,2.59337 0.57226,4.60937 h 2.01758 c -1.153,-1.72599 0.57639,-3.17143 1.15039,-4.89843 0.863,0.289 2.59391,-0.57781 2.87891,0.86719 -0.574,-2.88201 3.16976,-2.30438 2.88476,-4.60938 1.727,-1.727 3.45266,0.85944 5.47266,1.14844 0.285,-0.86 1.14828,-1.14875 0.86328,-2.59375 -0.289,0 -0.57828,0.28875 -0.86328,-0.28125 0.285,-0.578 0.28528,-1.44563 0.86328,-2.01563 1.726,-2.015 2.01512,0.5705 3.45312,1.4375 2.594,-1.438 -0.57576,-3.1715 0.86524,-5.1875 h 1.15234 v -0.57031 c 0.286,-0.578 0.86545,-1.15625 1.43946,-1.15625 1.15299,0.289 1.73068,2.01581 2.30468,2.88281 3.168,0.859 1.15231,-3.74187 4.32032,-3.17187 0.864,-3.165 2.87865,-0.2895 5.47265,-1.4375 V 432.297 c 0.575,0.289 1.43756,-1.72706 1.72656,-0.28906 h 1.44141 c 0.863,0 0.57428,-1.14863 0.86328,-2.01563 2.305,0.289 3.74188,-1.43958 6.04688,-2.01758 0,-0.289 0.28884,-0.85748 -0.28516,-1.14648 0.574,-1.445 2.87884,-0.86687 2.58984,-3.17187 2.594,0 4.31994,-2.01607 6.33594,-3.16407 -0.863,-1.734 1.72656,-2.59393 1.72656,-3.46093 0.289,-0.289 0.86735,0 1.15235,0 2.883,0 4.03478,-1.43707 6.05078,-3.16407 l -0.86719,-0.28906 c -1.438,-1.437 0.28941,-2.88325 1.44141,-4.03125 1.441,-1.157 2.30503,0.85944 3.45703,1.14844 -0.578,-1.726 2.30494,-2.87525 -0.28906,-4.03125 0.289,-1.437 0.28862,-2.87513 2.01562,-3.45313 4.031,1.148 2.88306,-5.47694 6.91406,-3.46094 0.575,-2.875 2.30454,-6.04725 4.89454,-6.90624 0.863,-0.289 4e-4,-2.01532 1.4414,-1.44532 0.863,0.578 0.86335,1.44563 1.15235,2.01563 l 0.57421,-0.57031 c -1.152,-2.01501 2.01557,-2.88049 1.72657,-4.89649 2.02,-0.289 -1.9e-4,-4.0337 2.88281,-2.5957 0.863,-1.148 -0.57784,-2.59217 0.28516,-3.45117 1.152,-0.579 2.30509,-1.72852 3.74609,-1.72852 1.441,-2.594 0.28891,-6.62469 2.87891,-8.92969 1.73,-0.578 2.59409,1.72613 3.74609,0.57813 l -1.73047,-1.44532 c -1.153,-1.72599 1.15228,-2.58625 0.86328,-4.03124 2.304,-1.437 3.17144,1.72851 4.89844,1.72851 0,-0.281 -0.57806,-0.57044 -0.28906,-1.14844 -0.864,0 -1.43769,-0.57812 -2.30469,-0.57812 -0.574,-2.594 2.01597,-0.85956 3.16797,-1.72656 0.289,-1.726 -2.01535,-1.43713 -1.15235,-3.45313 1.441,-0.867 1.44132,-3.46075 4.32032,-2.59375 0.578,-2.016 -1.7266,-4.90052 1.4414,-5.47851 -1.152,-2.58601 2.87885,-4.0293 2.58985,-6.9043 l -1.72852,-0.86719 c 0,-2.016 2.0177,-0.85981 2.5957,-2.88281 0.575,-0.281 0.8635,0.28717 1.4375,0.57617 1.153,-0.578 1.73063,-0.85962 2.01563,-2.01563 l -2.01563,-0.85937 c -0.574,-1.445 0.28907,-3.16942 0.28907,-4.60742 1.441,-0.867 2.30425,-1.44525 4.03125,-1.15625 0.289,-0.86 -0.28516,-1.14856 -0.28516,-1.72656 0.575,-0.578 0.5745,-1.14844 1.4375,-1.14844 v -0.57813 c 0,-0.579 -0.28872,-1.7265 0.86328,-1.4375 v -2.88476 c 0.289,-0.867 1.15269,-1.43549 2.30469,-1.14649 0.578,0 1.15228,-0.57825 0.86328,-1.15625 -1.438,-0.867 -0.57394,-2.30506 0.28906,-3.16406 -1.152,-4.039 4.03163,-4.32019 2.01563,-7.49219 0.578,-0.578 1.15269,-1.43743 2.30469,-1.14843 -1.153,-2.594 0.28921,-4.60907 0.57421,-6.91407 -1.437,-3.742 2.30454,-4.32018 2.01954,-7.49218 0.864,-0.859 1.14862,-2.01513 2.01562,-3.45313 -0.289,-2.015 1.72883,-2.59214 -0.57617,-3.74414 0.289,-0.287 0.57645,-1.15033 1.43945,-0.86133 -0.578,-2.016 0.86322,-3.45872 0.57422,-5.76172 -1.152,-1.44 -0.57422,-4.31993 -0.57422,-6.33593 1.152,-0.865 2.30497,0.28693 3.16797,-0.28907 -0.289,-1.151 -1.73075,-1.43973 -2.59375,-2.30273 -0.574,-2.018 1.73063,-2.30503 2.01563,-3.45703 0,-0.863 -0.8635,-0.86139 -1.4375,-1.15039 0,-1.727 2.01603,-2.30486 3.45703,-2.88086 -0.29,-2.304 0.57447,-3.45547 -2.01953,-4.60547 0.578,-1.728 -1.15188,-3.45749 0.57812,-4.89649 -1.152,-2.592 2.016,-3.74376 0,-5.75976 0.575,-0.289 0.86363,-1.72841 2.01563,-1.44141 l -1.15235,-1.43945 c -3.742,0.864 -1.1519,-3.74253 -2.8789,-4.89453 -1.152,-2.592 1.43784,-2.87914 2.58984,-3.74414 2.015,-2.303 -1.43763,-2.01608 -2.01563,-3.45508 1.441,-0.576 -0.574,-1.15464 0,-2.30664 0.863,-2.302 0.57807,-5.18144 0.28907,-7.77344 0.863,-1.153 -1.72694,-2.5918 0.28906,-2.5918 0.575,-1.728 -2.01547,-2.3042 -1.73047,-4.0332 1.73,-4.319 -2.30462,-7.48859 -2.01562,-11.80859 0.578,0 0.86328,-0.57439 0.86328,-1.15039 -0.574,-1.728 -2.01513,-3.16808 -3.45313,-3.45508 -0.289,-3.17 0.86325,-6.9118 -2.59375,-9.2168 0.289,-0.287 0.86341,-0.57611 1.44141,-0.28711 0,-3.744 -3.45731,-4.89634 -4.32031,-7.77734 0.863,-1.439 -0.86313,-2.30425 -0.57813,-4.03125 -2.59,-1.442 -0.57384,-4.60983 -2.58984,-6.04883 0.289,-2.879 -4.03091,-1.72859 -2.87891,-5.18359 -2.305,-1.153 -1.44103,-4.32077 -3.45703,-5.75977 0.289,-3.744 -3.45703,-4.03134 -3.45703,-7.77734 -3.168,-0.575 -1.44125,-4.0316 -4.03125,-5.1836 -2.305,0 -2.01597,-2.87931 -3.16797,-4.32031 -4.32,0 -3.45706,-5.47105 -6.91406,-6.62305 -1.727,-0.576 -2.58991,-2.59131 -2.87891,-4.32031 -0.289,-0.287 -0.57422,6e-5 -0.57422,0.28906 -1.442,-1.441 -0.57775,-4.03348 -2.59375,-4.89648 -2.879,0.288 -2.01603,-3.16842 -3.45703,-4.60742 -1.152,-0.289 -2.87919,-0.86478 -3.74219,0.57422 -2.016,-0.863 0.57394,-1.72691 -0.28906,-2.87891 -0.289,-2.016 -2.59025,-1.43969 -4.03125,-2.30469 0,-2.303 2.87903,-0.86373 3.45703,-2.30273 -1.152,-1.728 -2.88303,1.15259 -3.45703,-1.44141 -3.168,0.865 -4.60928,-5.18408 -7.48828,-3.45508 -0.289,-0.289 -0.57434,-0.57617 -1.15234,-0.57617 l -0.28907,-4.03125 c -4.605,-0.865 -7.48623,-4.60934 -10.36523,-7.77734 -2.015,-0.863 -4.03131,-1.43719 -4.32031,-3.74219 -2.59,2.304 -5.18329,-0.865583 -7.48829,-2.017583 -0.285,-4.031 -5.46887,-7e-5 -6.04687,-3.45507 -2.593,-0.28901 -2.59325,-2.58936 -4.03125,-4.31836 -2.879,1.439 -3.45688,-2.59347 -6.04688,-1.73047 -1.152,-0.864 0.57388,-1.72874 -0.57812,-2.30274 -1.152,0 -2.01597,-0.865 -3.16797,0 -2.016,0.863 -2.01584,-2.01775 -2.58984,-2.59375 -0.578,0 -1.44147,-0.28693 -1.73047,0.28906 -1.727,-3.16799 -2.8786,1.43901 -5.1836,0 -0.289,-1.72899 -3.74218,-1.15196 -3.74218,-3.16796 -1.152,-1.152 1.43793,-2.30503 -0.28907,-3.45704 -1.153,0.289 -1.44156,1.44186 -1.72656,2.88086 -2.02,0.287 -3.74572,-1.15217 -5.76172,-0.57617 -0.289,-2.592 -2.30431,-2.88103 -4.32031,-3.45703 -1.153,-1.44 -3.16759,-1.43962 -5.18359,-2.01562 -2.594,-1.153 -2.59549,2.01523 -4.89649,0.86523 0.286,-0.577 -1.73034,-0.28952 -1.15234,-1.72851 -2.305,-0.864 -1.43908,1.72639 -3.45508,1.15039 0.289,-1.728 -2.01792,-0.57429 -3.16992,-0.86329 -1.441,1.442 -3.16636,-0.57645 -4.31836,-1.43945 -1.727,-1.153 -2.30503,0.86345 -3.45703,1.43945 -1.153,-0.863 -2.58969,-2.01607 -2.30469,-3.45507 -1.437,-1.729 -2.59019,0.28711 -3.74219,0.28711 -1.152,-2.592 -4.03087,-2.9e-4 -6.04687,-0.86329 -2.016,0.287 -1.73271,2.59208 -2.59571,3.45508 0.57801,0 0.57829,0.28917 0.86329,0.57617 0.867,1.729 -1.15263,1.44158 -2.01563,2.01758 0.289,0.864 -0.57387,2.01574 0.57813,2.30274 4.321,1.439 1.72662,6.33597 2.01562,9.79297 -1.441,0.287 -1.15197,3.1679 -3.16797,2.8789 1.438,1.152 2.30469,2.0152 2.30469,4.03321 2.59,2.303 0.285,6.046733 0,8.927733 -0.289,1.152 1.15452,1.15217 1.72852,0.57617 0.289,0.577 1.15032,1.15256 0.86132,1.72656 0.578,1.152 -0.5745,1.44135 -1.4375,1.15235 -1.731,1.441 0.86316,2.59214 0.28516,3.74414 -0.285,1.729 -2.87928,3.16759 -0.86328,5.18359 2.305,0 3.16753,1.15189 4.89453,-0.28711 2.305,-0.863 4.60906,0.57617 6.91406,0.57617 -0.578,0.287 -0.28906,0.57635 -0.28906,1.15235 0.578,0.577 1.44364,1.15256 2.30664,1.72656 2.016,0.865 1.44175,-1.15062 2.59375,-2.01562 1.438,0.576 4.03153,-0.2876 4.89453,1.4414 2.879,2.591 4.32022,-2.01758 7.19922,-2.01758 2.016,1.152 -0.574,2.01608 0,3.45508 2.305,-0.576 2.30459,3.16952 5.18359,1.72852 1.152,2.593 4.03088,0.8654 6.04688,1.4414 1.152,0.576 1.73003,3.7438 3.45703,2.5918 l -2.01562,-2.01758 1.4414,-2.01758 c 4.031,0.29 0.57425,5.18555 4.03125,5.18555 -0.574,2.591 2.8773,1.43945 4.0293,1.43945 0.289,-2.591 1.73286,0.86366 2.88086,-1.15234 0.578,1.152 1.73069,1.15245 2.30469,1.43945 0.289,-1.15 1.44175,-1.15045 2.59375,-1.43945 1.437,1.152 1.72621,2.59214 0.57421,3.74414 0.289,0.865 0.86341,0 1.44141,0 0.289,0.289 1.15033,0.57635 0.86133,1.15235 h 0.86328 c 2.593,-2.01601 5.76141,0.28734 8.06641,1.15234 1.438,-0.865 1.72668,1.43951 2.30468,1.72851 0.574,0.574 0.574,1.7268 0,2.5918 2.59,2.303 8.06279,-0.86509 8.92579,2.87891 -0.28901,0.576 -0.86335,0.86545 -1.15235,1.43945 l 4.03125,2.01758 c 1.152,0.287 1.44147,-0.28739 1.73047,-1.15039 0.575,0 1.15256,-0.29085 1.72656,0.28515 0.578,1.728 2.87938,2.88115 4.60938,3.74415 -0.863,3.74499 2.59012,-0.28554 3.45312,1.73046 0.578,0.863 1.44107,2.01591 0.28907,2.87891 l 2.8789,1.15234 c 5.187,-1.726 4.32,4.03283 6.625,6.04883 -0.575,2.881 3.16844,2.01563 4.89844,2.01563 0.575,1.152 2.30056,1.43986 1.72656,2.88086 0.864,0.577 0.28856,2.30262 1.72656,2.01562 1.152,2.305 5.4731,2.59188 3.7461,6.04688 1.727,0.289 2.87859,2.30475 5.18359,2.59375 0,2.015 3.16952,2.01525 1.72852,4.03125 1.73,1.152 0.86297,3.16825 3.16797,4.03125 -0.285,3.457 4.32003,2.01559 3.45703,5.18359 2.879,0.577 0.57431,4.60955 4.32031,5.18555 -1.153,3.168 1.72445,4.32004 1.43945,6.62304 2.015,0.865 1.15213,3.45704 3.45313,3.45704 -0.285,1.153 0.28878,2.01579 -0.57422,2.59179 l 3.16797,5.47266 c 0.289,0 0.28922,-0.28711 0.57422,-0.28711 l 0.86718,0.86328 c 0.285,0.865 -0.86712,0.86345 -0.57812,1.43945 0.289,0.576 1.15256,0.28711 1.72656,0.28711 2.015,0.289 1.44141,2.59225 1.44141,4.03125 1.152,2.018 -0.57472,4.03272 0.86328,5.76172 1.152,1.439 -0.863,2.30225 0,4.03125 2.304,1.44 2.59337,3.74366 4.60937,5.47266 -1.442,1.44 -2.59362,2.88054 -2.01562,5.18554 2.016,1.153 -0.57838,4.89666 2.01562,5.47266 0.575,2.016 -0.28934,3.16753 -1.15234,4.89453 -1.441,2.881 2.59356,4.033 1.72656,6.625 -1.727,3.168 2.01519,2.59188 0.86719,6.04688 -1.152,1.729 -2.30431,2.30479 -4.32031,2.59179 0.285,1.152 0.5739,4.60921 2.8789,4.03321 0.863,2.015 0.574,4.89622 0,7.19922 -1.441,0.865 -2.87903,1.72896 -3.45703,3.16796 1.441,1.152 1.44128,3.16749 0.86328,4.89649 h -0.86328 v 1.72851 h 0.28907 c -0.289,0.864 1.72706,1.43963 0.28906,2.01563 0.864,3.168 -2.30252,4.32026 -1.72852,7.19726 -2.016,0.578 -0.002,3.46101 -1.72851,3.75 0.864,2.016 -1.15039,3.16357 -1.15039,4.60157 0.575,2.015 -1.72641,3.17144 -1.44141,4.89843 0,0.578 -0.57428,0.86719 -0.86328,0.86719 v 6.33594 c -1.727,1.437 -2.30503,2.87538 -3.45703,4.60937 -0.574,2.87501 -2.01585,5.17951 -2.58985,8.0625 -4.031,1.148 -3.74643,6.33607 -4.89843,9.78907 -0.863,0.289 -1.14829,0.57856 -0.86329,1.72656 -0.285,0.867 -1.43768,1.15625 -2.30468,1.15625 -1.148,0.289 -4.4e-4,2.30506 -1.14844,3.16406 v 1.15625 c -0.867,1.438 -2.30481,1.14794 -2.88281,2.58594 0.289,1.445 -0.28522,2.30494 -0.57422,3.46094 -0.578,0 -0.86335,0.28906 -1.15235,0.28906 -2.305,2.586 -2.59387,5.75731 -6.04687,7.19531 1.152,2.883 -2.88263,3.46088 -2.01563,6.04688 0,0.289 -0.57818,0.86718 -0.86718,0.86718 -1.438,1.14801 -4.03097,1.43726 -3.16797,4.03126 -0.285,2.015 -3.45291,1.43712 -2.87891,3.45312 -2.016,0.289 -3.74259,1.73388 -5.18359,3.17188 1.442,3.454 -2.8791,2.5935 -3.7461,5.1875 -1.148,5.17999 -6.62106,4.32049 -9.78906,8.0625 -0.289,4.88999 -5.47256,4.60924 -8.35156,6.90624 -2.016,-0.28099 -3.4575,2.02388 -5.1875,3.17188 0.578,0.579 1.15212,1.14856 0.57812,1.72656 -1.152,1.156 -2.87918,0.57794 -3.74218,-0.28906 -1.731,0.578 -0.57782,2.88275 -2.88282,2.59375 0,0.867 0.28894,2.0177 -0.28906,2.5957 -0.574,0.289 -0.86344,-0.28906 -1.14844,-0.28906 -2.015,-0.578 -2.88315,0.57856 -4.03515,1.72656 0.289,0.867 2.0194,1.43782 1.4414,2.88282 -0.864,0.289 -1.15275,1.72643 -2.59375,1.14843 -3.168,-5.468 -6.33773,1.72669 -8.92773,2.30469 -4.031,-1.149 -3.74433,4.03119 -7.48633,3.74219 0.289,1.156 -3.4e-4,2.30481 -1.15234,2.88281 -2.016,-0.867 -2.87853,1.72619 -4.89453,0.86719 0.863,3.453 -4.03103,1.2e-4 -3.45703,3.45312 -1.726,-0.29 -2.3051,2.30249 -3.7461,1.14649 -0.863,3.461 -4.31594,1.1577 -6.33594,2.5957 -0.575,1.446 1.15052,1.15669 1.72852,2.30469 0,0.578 0.86294,1.43762 -0.28906,2.01562 -1.441,0.578 -3.45703,0.5785 -3.45703,-1.4375 -1.152,-0.289 -2.8773,-0.578 -4.0293,0 v 1.14649 c -1.152,0.289 -2.01519,1.44525 -3.74219,1.15625 -1.73,-3.172 -2.88244,2.59343 -4.89844,1.14844 -0.574,2.30499 -3.74246,-0.57038 -4.60546,2.01562 -1.152,3.75 -5.18341,2.01525 -8.06641,4.03125 -2.016,-1.438 -3.16775,1.15606 -5.46875,0.28906 -0.867,0.289 -1.73047,1.44569 -1.73047,2.30469 -1.152,-0.578 -2.01584,0.86687 -2.58984,-0.57812 -3.168,0.867 -6.04846,1.15606 -8.06446,4.03906 -2.305,0.57 -3.16954,-1.15613 -5.18554,-0.57813 -1.153,1.727 -4.0316,0.58052 -5.1836,1.72852 -2.594,-1.437 -3.16772,3.7425 -5.76172,1.4375 -1.437,3.461 -4.60509,-3.8e-4 -6.62109,2.01562 -0.863,2.305 -2.88244,-0.28887 -4.89844,0.57813 -2.015,-0.289 -3.16818,0.86675 -3.74218,2.59375 -1.73,-0.289 -3.16643,0.57837 -4.60743,0.85937 -1.727,-2.586 -3.16948,1.15619 -4.89648,0.86719 -0.578,-2.305 -4.03103,-0.28881 -3.45703,-2.88281 -3.457,-2.305 -2.8786,3.172 -5.1836,3.75 -2.305,1.438 -4.03087,-1.44506 -6.04687,-0.28906 l -0.28906,2.59375 c -0.578,1.437 -2.30503,0.57037 -3.45703,0.85937 -1.727,-1.437 -4.03088,-0.57837 -6.04688,-0.85937 -0.863,0.281 -2.3048,1.438 -2.5918,0 -1.153,0 -2.01579,-0.28863 -2.59179,0.85937 -0.865,-0.289 -2.5918,0.57863 -2.5918,-0.85937 -1.441,0.86 -3.45738,0.2815 -4.60938,1.4375 -1.44,0.289 -1.15251,-1.43763 -1.72851,-2.01563 -1.151,0 -1.7268,1.3e-4 -2.5918,0.57813 -0.863,3.164 -4.89683,-0.578 -6.04883,2.875 -2.015,0.289 -2.30235,-2.01563 -4.31836,-2.01563 -1.44,1.156 -3.74376,2.30475 -5.75976,2.59375 l -0.57617,-0.57812 c -1.152,-0.859 -1.72897,-0.289 -3.16797,0 -2.015,-1.438 -4.89622,-0.289 -7.19922,0 -1.729,-1.438 -4.31983,-0.289 -6.04883,0 -2.591,-2.015 -4.89645,-3.45325 -8.06445,-4.03125 l -0.57617,0.57812 c -2.879,-1.156 -5.75939,3.16388 -7.77539,-0.57812 -2.881,1.156 -5.18318,-2.305 -7.20118,0 -1.726,-0.578 -3.45542,1.15587 -4.60742,-0.57813 h -0.86133 c -2.305,2.015 -3.45854,-1.72656 -5.18554,-1.72656 -2.592,0.289 -4.89617,-2.016 -7.20117,0 -2.592,0.289 -5.75733,-3.164 -7.48633,0 l -0.57422,-0.57813 c -3.745,1.445 -5.47263,-3.74256 -8.64063,-1.72656 -1.152,-0.289 -2.59196,-2.01606 -3.16796,-3.16406 -4.033,0.86 -6.91232,-2.88319 -10.94532,-0.86719 -0.863,-0.289 -2.30279,-1.43775 -2.59179,-2.59375 -4.031,-0.281 -7.19908,-1.43725 -10.08008,-4.03125 -0.863,0 -2.0158,-0.28894 -2.5918,0.28906 -1.44,-2.016 -4.89683,0.289 -6.04883,-2.875 -3.168,1.438 -4.8945,-2.02343 -8.0625,-2.02343 -4.031,1.156 -6.33636,-4.89094 -10.94336,-2.58594 -1.152,-2.594 -4.03311,-4.32 -6.91211,-3.75 -0.866,-0.859 -2.01562,-1.43788 -2.01562,-2.29688 -1.442,-2.304 -4.89683,-2.30443 -6.04883,-4.89843 -1.439,0.86 -2.59142,-1.43719 -4.60742,-0.86719 -1.729,-0.289 -0.57652,-2.87525 -1.72852,-4.03125 -1.439,-0.289 -2.88103,0.289 -3.45703,0 -0.287,-2.594 -3.45525,-1.14624 -4.03125,-3.74024 -6.623,1.726 -6.91176,-8.06457 -12.38476,-8.64257 1.152,-2.305 -2.30458,-0.57775 -2.01758,-2.59375 -4.607,1.727 -2.87911,-4.60907 -6.91211,-3.16407 -1.726,0 -0.8615,-1.72675 -1.4375,-2.59375 l -1.15235,0.57813 c -2.303,-1.445 -2.59159,-4.60894 -5.18359,-6.33594 -0.289,-1.157 -2.88258,0.28944 -2.01758,-1.72656 -1.153,-1.734 -2.88059,-1.73438 -5.18359,-1.73438 -1.729,-2.305 -2.59355,-6.62456 -5.18555,-8.35156 -1.151,0.29 -1.72656,-0.57044 -1.72656,-1.14844 -3.457,0.289 1.4e-4,-4.32037 -2.88086,-4.60937 -3.455,0.289 -1.43931,-3.45331 -4.32031,-4.32031 1.441,-2.883 -2.30291,-1.72625 -2.87891,-4.03125 1.44,-2.305 -2.3044,-0.57782 -1.4414,-2.88282 -4.895,-2.305 -4.31874,-9.78868 -8.92774,-11.80468 1.728,-4.32 -2.5918,-6.91425 -2.5918,-10.65625 -3.455,0 -1.43914,-4.03157 -3.74414,-5.47657 3.744,-2.875 -3.45551,-4.60193 -1.72851,-9.21093 -1.727,-0.867 -2.30297,-3.17138 -3.16797,-4.60938 0.576,-0.868 2.01545,-0.86762 1.43945,-2.01562 -1.729,-2.305 -3.45686,-4.8985 -2.88086,-8.0625 h 0.57618 v -0.86719 c -2.879,-1.438 0.2892,-6.0465 -2.5918,-8.0625 0,-0.579 -0.28683,-1.43952 0.57617,-1.72852 -0.289,-0.867 0.57572,-2.30475 -0.86328,-2.59375 -0.289,-5.472 1.15059,-12.38518 -1.44141,-16.99218 3.168,-1.728 -0.57665,-4.60722 1.15235,-7.19922 1.152,-1.728 -1.15272,-3.74254 0.86328,-4.89454 -0.287,-1.15199 0.57578,-2.59196 -0.57422,-3.16796 0.863,-2.305 2.01539,-4.32011 1.15039,-6.91211 0.576,-0.577 -0.57666,-2.30463 1.15234,-2.01563 -1.44,-3.168 2.30424,-4.32028 0.86524,-7.48828 1.726,-1.44 0.57428,-3.74366 0.86328,-5.47266 2.42909,-0.3737 1.46966,-2.32038 1.43555,-3.80078 l 1.44726,-1.66015 c 0,0 1.15217,-3.74589 0.57617,-6.33789 h 0.86524 c -2.881,-1.441 0.86317,-2.59143 0.57617,-4.60743 2.879,-2.303 4.31825,-6.04707 4.03125,-10.08007 0.576,-0.577 2.01545,-0.28757 1.43945,-1.72657 1.441,-1.442 2.30503,-4.03478 3.45703,-6.05078 1.153,-1.44 1.7288,-4.03087 2.5918,-6.04687 1.153,-0.866 2.0158,-3.45655 2.5918,-5.18555 -0.863,-3.744 4.03159,-6.04667 5.18359,-8.63867 0.865,-3.457 2.88083,-7.20135 6.04883,-7.77734 -0.577,-1.44001 1.15245,-1.15263 1.43945,-2.01563 -0.287,-4.608 2.88083,-6.62291 6.04883,-9.50391 0.576,-0.287 3.9e-4,-1.72845 1.15039,-1.43945 -0.574,-2.015 3.45675,-2.01531 2.59375,-4.32031 -0.576,-4.321 4.8947,-1.4396 5.4707,-5.1836 0.866,-0.576 0.28858,-2.59179 2.01758,-2.59179 1.151,-0.576 2.8788,-2.01714 2.5918,-3.74414 4.894,-2.88 7.48626,-9.50342 13.82226,-11.23243 1.72801,-1.43999 0.86504,-3.74459 3.45704,-5.18359 2.592,-0.576 2.87859,-2.88114 5.18359,-3.74414 0.577,-0.576 2.01747,-0.86569 1.73047,-2.30469 1.439,0 2.01608,-2.01534 3.45508,-1.15234 0.865,-0.864 2.88103,-0.86363 3.45703,-2.01563 4.607,-1.44 6.3344,-7.19962 10.9414,-8.64062 2.881,0 2.88094,-4.60714 6.33594,-3.74414 1.44,-2.303 4.32261,-2.59153 5.47461,-4.89453 4.031,2.016 4.60711,-2.88132 6.91211,-4.32032 2.016,0.576 3.74459,-0.57628 5.18359,-0.86328 1.728,-2.594 4.60711,-3.16772 6.91211,-5.76172 0.864,0 1.72863,-2.7e-4 2.01563,-0.863283 2.015,0 3.45742,-1.43979 4.60742,-2.59179 2.304,0.577 2.0172,-1.72835 4.0332,-1.15235 0.863,-2.592 4.03088,-1.7289 6.04688,-2.8789 0.865,-2.018 2.87925,-0.5758 4.03125,-2.5918 2.591,0.863 2.59148,-1.72852 4.89648,-1.72852 1.151,-1.728 3.74371,-2.3042 5.47071,-4.0332 2.016,1.152 0.86564,-1.44151 2.30664,-1.72851 0.576,-0.289 0.86139,0.28717 1.15039,0.57617 2.016,0.574 5.18311,-1.15186 6.91211,-2.88086 4.031,0.576 5.47101,-3.45669 9.79101,-2.30469 1.439,-1.153 3.45749,-1.15273 4.89649,-2.30273 4.32,-0.865 6.33636,-5.47277 10.94336,-5.75977 4.033,-2.018 9.50428,-2.01786 14.11328,-2.88086 1.151,-2.01599 4.0317,-0.86368 5.4707,-2.30468 3.457,0.576 4.60763,-3.16958 8.64063,-2.01758 0.576,-1.439 2.30507,-0.28522 3.45507,-0.57422 0.576,-2.879 5.18372,-0.002 5.76172,-2.59375 2.016,-0.287 3.16571,-4.0295 5.47071,-1.4375 1.152,-1.439 2.88131,-0.57623 4.32031,-0.86524 3.744,-2.01599 9.50387,-0.28701 12.67187,-3.16601 5.184,-1.441 9.7925,-2.01797 14.6875,-3.16797 0.289,0 0.57617,0.28722 0.57617,0.57422 2.87901,2.305 4.03101,-3.16828 6.625,-0.86328 l 1.15235,-1.72852 13.82422,-0.28711 0.57422,-0.57617 c 1.441,1.728 3.16843,1.7e-4 4.89843,0.57617 0.863,-0.865 1.72697,-1.43934 3.16797,-1.15234 1.148,-2.015 2.59019,1.15265 3.74219,-1.15235 6.914,0.86501 14.68772,-0.28699 21.88672,0 v -0.86328 c 0.578,-0.289 0.8674,-1.15223 1.4414,-0.86523 1.726,3.744 4.60733,1.7e-4 7.48633,0.57617 4.032,2.881 6.91249,-2.30228 11.52149,-0.86328 2.016,0 4.60959,0.57586 5.18359,2.88086 1.73,-0.289 2.87938,-1.72858 4.60938,-2.01758 0.285,0 0,0.28924 0,0.86524 0.574,0 1.15234,-0.289 1.15234,0 l 1.4375,-0.86524 c 2.305,-0.863 3.45709,0.5758 3.74609,2.5918 2.59,0.289 3.16782,-1.72656 5.75782,-1.72656 0.578,2.016 3.45709,-4.4e-4 3.74609,1.72656 0.863,1.152 2.87925,0.28923 4.03125,0.86523 v 0.28711 c 0.864,-0.287 2.01569,0.28883 2.30469,-0.57617 1.727,-1.15 3.45703,0.57569 3.45703,2.30469 2.015,0.863 1.72612,-2.5918 3.45312,-2.5918 1.152,0.576 0.86341,1.7288 1.44141,2.5918 0.864,0 1.44162,1.72806 2.01563,0.28906 0.864,0.287 2.01574,-0.28878 2.59374,0.57422 2.301,1.152 3.74175,1.44189 5.46876,-0.28711 l 1.4414,2.30469 c 2.305,0 3.74588,1.15017 6.04688,0.57617 0.578,1.151 1.73046,1.1508 1.73046,2.5918 1.438,2.016 3.74182,-0.576 5.75782,0 2.305,-1.442 3.74578,1.43928 6.05078,0.86328 1.726,2.305 5.46922,1.15217 7.19922,0.57617 v 4.89648 c 2.305,0.287 4.31987,-1.7e-4 6.04687,-0.57617 2.305,-0.865 1.72697,1.7268 3.16797,2.5918 1.152,0.287 2.59403,1.152 3.45703,0 1.726,-0.289 3.16819,0.28752 3.74219,1.72851 0,0.863 -2.2e-4,2.0158 -0.57422,2.5918 0.574,0.863 1.43785,1.15039 2.58985,1.15039 1.152,1.729 2.59403,-1.15045 3.45703,-1.43945 0.578,-0.863 0.5784,-2.0158 1.4414,-2.5918 l 0.28516,-2.5918 c -0.574,-1.43999 -2.30097,-0.86362 -3.16797,-2.01562 -0.863,-2.592 2.30469,-2.3042 2.30469,-4.0332 0.289,-1.727 -1.15256,-1.15063 -1.72656,-2.01563 0.289,-1.727 -2.016,-3.45553 0,-4.89453 0.863,0 2.0159,0.28711 2.8789,0.28711 0.578,-0.576 2.01352,-1.4398 1.72852,-2.5918 0.574,-1.729 0.28487,-3.74654 -0.57813,-5.18554 5.473,-5.762 -4.60742,-1.729 -4.60742,-6.625 1.153,-2.305 3.7465,-0.28752 5.1875,-1.72852 0.285,-0.863 1.14828,-1.72691 0.86328,-2.87891 0,-2.592 -4.03103,-0.57614 -3.45703,-3.74414 0.864,-0.864 1.15275,-2.01562 2.59375,-2.01562 0,-0.577 0.57388,-2.01563 -0.57812,-2.01563 -0.289,-1.442 0.5784,-1.72868 1.4414,-2.30468 0.575,-2.305 -2.0154,-4.03094 -1.4414,-6.335942 h 2.59375 c 0.864,-0.289 1.72662,-1.15464 2.01562,-2.30664 -2.016,-4.0309995 -5.76162,0.0016 -8.64062,-1.150391 0.289,-1.44 -0.86335,-1.439798 -1.15235,-2.5917975 -4.031,3.1679995 -6.33612,-2.304687 -10.07812,-2.304687 -3.168,-0.289 -2.88285,4.6074215 -6.33985,4.6074215 -0.864,-0.575999 -2.5895,-1.728032 -1.4375,-3.4570315 -1.442,-4.608 -5.47269,-0.863734 -8.92968,-2.302734 v -0.289063 c -3.743,-1.153 -7.4886,-2.591625 -11.8086,-2.015625 -0.863,1.152 -2.30112,0.576172 -3.45312,0.576172 -2.594,-3.455 -6.05258,1.152719 -8.64258,-0.863281 -2.015,-0.865 -4.89233,-0.289234 -7.48633,-0.865234 -1.152,-0.287 -2.59403,-0.863453 -3.45703,-1.439454 -2.59,-0.57599899 -4.60594,0.576625 -6.33594,2.015626 -0.864,-1.440001 -2.59148,-4.03079699 -4.89648,-2.59179699 -3.457,4.03099999 -6.04719,-2.01600001 -10.36719,0 -0.868,3.16799999 -3.74566,-1.72e-4 -5.47266,-0.576172 -1.73,-0.576 -1.73009,1.15217199 -3.74609,0.576172 -1.152,0.57599999 -1.72616,2.01596799 -0.28516,3.16796799 -0.868,2.304 -3.74565,1.728454 -5.47265,1.439453 V 2.9005145 L 365.1836,0.30871751 c -0.46775,-0.179875 -0.872,-0.274412 -1.22852,-0.300781 z"
       style="fill:#007dc5;fill-opacity:1" /><path
       id="path962"
       d="m 308.15655,75.186547 c 1.152,-2.881 4.895,-1.729 7.777,-2.016 2.016,0.287 3.453,5.184 6.336,2.016 1.438,-0.289 1.727,0.576 2.59,1.439 0,1.152 -0.285,2.592 1.152,3.168 0,-0.576 0.578,-0.576 0.863,-0.576 2.594,3.744 -1.152,7.199 0,10.945 -3.453,4.031 1.441,9.215 -0.863,12.959003 -0.574,2.881 -1.727,6.623 -0.574,8.641 -0.863,1.15 -1.73,2.879 -1.441,4.895 1.152,1.152 1.152,2.018 0.578,3.457 0.285,3.168 0.863,6.623 -0.578,9.791 -0.289,5.186 0.578,9.217 0.289,14.4 -2.016,1.152 0.289,1.729 0,3.457 -1.152,5.471 -0.289,10.654 -0.863,16.416 -1.441,1.727 0.863,3.168 -1.152,4.895 2.305,1.441 1.438,5.762 0.863,8.354 0.289,1.439 2.305,3.455 0,4.895 0.289,2.881 -0.289,6.336 0.574,8.641 -1.152,1.152 0,2.305 0.289,3.168 0,5.473 -0.574,11.52 0.578,16.416 -1.152,1.152 0.574,2.592 0.285,4.32 -0.863,2.016 -1.438,4.031 -0.285,6.336 -0.289,2.305 1.727,6.336 -1.73,7.199 -4.605,-1.439 -5.184,4.896 -10.367,2.594 0,-0.289 -0.574,-0.578 -0.863,-0.578 -1.152,0.289 -2.879,2.018 -4.031,0.578 -1.152,-0.578 -1.441,-2.018 -2.883,-2.881 0.289,-2.016 -2.59,-4.033 -0.285,-5.184 0.574,-0.289 0.285,-1.152 0.285,-2.018 -1.727,-0.574 0.289,-3.168 -1.438,-4.318 -0.578,-2.592 1.727,-4.896 0,-7.201 0.574,-2.592 -1.152,-4.895 -0.578,-7.775 1.441,-0.863 -0.285,-2.305 0,-3.744 0.863,-3.744 -1.727,-6.049 -0.863,-9.793 0.578,-0.574 0,-2.016 -0.289,-3.168 0,-3.455 -0.863,-6.623 0,-10.078 -0.574,-1.152 -1.152,-2.594 -1.152,-4.32 0.578,0.287 0.867,-0.576 1.152,-0.865 0,-3.168 -1.152,-6.623 -0.863,-9.791 -0.863,-3.168 0.863,-6.336 -0.289,-9.793 0,-6.623 -1.152,-10.656 -0.863,-17.566 v 0 h 0.289 c 1.441,-3.17 -1.727,-5.762 -0.578,-8.93 -1.148,0 -0.863,-1.152 -0.863,-1.727 1.152,-0.865 1.152,-2.881 1.73,-4.033 -0.867,-1.439 -1.152,-2.592 -0.867,-4.32 2.02,-1.15 -0.574,-2.016 -0.574,-3.455 -0.574,-5.473 0,-11.520003 -1.727,-16.705003 1.152,-3.166 -2.016,-5.184 -0.289,-8.063 0,-2.305 -2.879,-5.473 0,-7.777 -0.574,-1.727 1.727,-1.727 2.59,-2.592 1.73,-1.727 4.898,0 6.336,-1.727 1.729,-0.291 1.151,1.725 2.592,2.014 z"
       fill="#007dc5"
       clip-rule="evenodd"
       fill-rule="evenodd" /><path
       id="path964"
       d="m 212.25255,108.59455 c 4.896,0.576 9.217,1.439 12.961,4.318 0,1.152 0,2.594 1.152,3.168 0.287,2.305 -0.576,4.896 0.576,6.914 -1.441,1.439 -1.441,2.879 -1.441,4.895 1.152,0.865 -0.863,2.592 0.289,3.168 0.576,0.289 1.152,-0.287 1.727,-0.576 0,-0.863 1.152,-1.152 2.305,-0.863 3.457,1.729 4.896,-3.168 8.928,-2.016 3.168,-0.289 5.184,-3.168 8.641,-2.016 1.729,-1.152 3.455,-0.289 5.471,0.287 0,1.152 1.441,0.863 2.018,1.729 0.576,0.863 -0.865,1.152 -1.439,2.016 0.863,0.576 1.439,1.439 1.15,2.305 v 0 l -2.592,2.303 0.289,0.289 c -1.729,2.303 -3.457,4.32 -6.625,4.607 -0.863,1.439 -3.168,2.305 -4.607,2.881 -1.439,2.879 -4.607,2.016 -6.336,4.031 -2.881,0.576 -4.607,3.455 -7.488,2.879 -4.32,2.018 -1.152,6.912 -2.881,9.793 -0.287,6.623 -0.863,15.264 0,20.447 -2.303,3.744 0,9.504 -1.727,13.248 0,4.32 -1.152,8.928 0.863,12.672 v 0 l -0.576,0.576 c 1.729,1.729 -1.439,2.881 -0.287,5.186 -2.305,1.15 2.016,2.879 -1.152,4.607 0.287,1.439 -0.576,3.744 0.863,4.896 0.865,2.303 -2.303,3.742 0,5.471 0.289,2.881 -0.863,5.76 0,7.777 -0.863,1.15 0,2.592 0.289,4.031 v 0 15.84 c -2.305,1.439 1.439,5.184 -2.305,5.184 0.576,1.729 -0.863,2.592 -0.863,4.32 v 0 h -2.594 c 0,-0.287 0,-0.576 -0.287,-0.576 -0.287,2.305 -2.592,0.289 -3.455,2.016 -4.033,1.152 -5.186,-3.168 -8.93,-1.439 -0.287,-2.881 -4.318,-2.016 -3.455,-5.184 0.287,-2.016 -1.729,-3.168 -0.287,-4.896 -0.576,-1.729 -1.729,-3.744 -0.576,-5.473 -1.441,-4.895 1.727,-10.654 -1.729,-14.398 0.287,-2.305 2.305,-3.744 0.863,-5.473 1.152,-2.305 -2.016,-2.592 -0.287,-4.607 -0.865,-0.576 -0.289,-1.729 -0.576,-2.305 1.439,-2.305 -1.439,-3.455 0.576,-5.473 v 0 l -0.576,-2.303 c 0.287,0 0.863,0.287 0.863,-0.289 0.289,-0.576 -0.287,-1.152 -0.863,-1.152 -0.289,-2.879 0.863,-4.607 -0.576,-6.91 -0.287,-1.729 1.729,-3.17 0,-4.033 0.863,-2.303 0,-4.607 0.576,-7.199 -2.305,-0.576 0,-2.305 -0.576,-3.457 0.863,-0.863 0.287,-2.303 0.287,-3.455 -2.303,-3.457 2.881,-6.049 0,-8.928 -0.287,-2.592 0.576,-5.76 -0.863,-7.777 0,-2.592 0.863,-5.76 -0.287,-8.352 v 0 0 c -1.729,0.289 -4.32,0 -6.049,2.016 -3.455,0 -4.896,3.168 -8.928,2.305 -0.576,2.305 -4.031,0.287 -4.896,2.592 -3.744,1.152 -6.047,-1.729 -8.641,-3.168 -0.287,-1.152 0.576,-2.879 -1.15,-2.879 -1.152,0.287 -0.289,-1.441 -1.152,-1.729 -2.016,0 -2.881,-1.152 -3.457,-2.881 0.576,-2.592 -1.439,-3.455 -1.439,-5.473 -0.576,-0.863 -0.863,-1.439 -0.863,-2.592 1.727,-2.879 5.76,-1.727 7.488,-4.031 2.592,1.439 3.168,-2.592 5.471,-1.439 1.729,-2.016 5.186,1.439 6.049,-1.729 1.152,0 2.305,0 2.879,-1.152 4.609,1.152 8.064,-2.879 12.098,-2.879 v 0 l 2.592,-1.729 0.576,-17.279 c -3.457,-2.018 1.439,-4.033 0,-6.912 v 0 l -0.576,-0.576 c 1.727,-0.289 1.15,-2.305 1.15,-3.457 1.729,1.439 3.457,-1.729 5.473,-0.287 2.592,-2.016 4.896,1.152 8.064,0 v 0 z"
       fill="#007dc5"
       clip-rule="evenodd"
       fill-rule="evenodd" /><path
       id="path966"
       d="m 130.46155,175.40855 c 2.592,-1.15 6.623,-1.15 8.928,0.865 1.439,0 2.016,-1.152 3.168,-0.289 2.303,2.018 1.439,4.896 2.881,7.488 -1.729,2.305 1.15,3.457 -2.018,4.896 1.152,0.576 0.289,1.729 0.576,2.592 -1.439,0.576 1.152,2.305 -0.576,2.881 -1.15,1.727 -0.863,4.031 -0.576,6.336 v 0 l 0.576,0.863 c 3.457,-1.439 0.865,-6.336 4.609,-7.199 -0.576,-2.592 3.455,-1.729 2.016,-4.32 0.863,-1.729 2.879,-2.881 2.303,-5.184 0.576,-2.305 4.033,-1.729 4.033,-4.32 2.016,-0.865 1.729,0.287 3.744,0 0.576,-0.865 2.592,-0.289 3.455,-0.576 1.152,2.016 4.607,0.287 5.473,2.303 2.879,-0.574 5.76,1.152 6.912,2.881 0.576,1.152 1.729,0.576 2.592,0.863 0.863,0.576 2.303,0.576 2.016,2.305 2.305,0.287 0.287,3.168 2.016,3.457 0.289,9.791 0.289,19.008 2.016,27.936 v 0 l -0.863,2.592 c 3.457,4.896 1.152,12.959 2.016,19.008 3.168,1.439 -2.303,4.32 1.441,5.76 -0.576,2.592 1.15,6.049 -1.441,8.064 0,2.016 2.881,3.168 1.441,5.471 -4.32,3.457 2.592,5.473 0.287,8.641 1.152,2.305 -1.439,5.184 0,7.488 0.289,0.863 -0.287,1.439 -1.152,1.729 -4.32,-1.729 -9.791,0.287 -14.4,-1.729 -2.592,0 -3.744,-2.305 -5.184,-4.031 0.865,-2.592 -1.729,-4.609 -0.863,-7.777 v 0 l -1.439,-1.15 c 3.168,-1.729 0,-4.033 0.574,-6.338 v 0 h -0.574 c 1.439,-2.592 -2.594,-3.742 -0.289,-5.76 -2.592,-1.727 0.863,-3.455 -1.152,-4.895 1.152,-0.576 0.576,-1.729 0,-2.305 0.289,-0.863 0,-3.168 -1.152,-4.32 0.865,-1.439 0.289,-3.455 0.576,-5.184 -4.895,-1.152 1.152,-3.744 -2.303,-5.76 -0.576,-1.729 1.439,-3.168 -0.576,-4.033 0.287,-2.303 0.863,-4.031 -0.576,-5.76 -0.576,-2.879 0.863,-3.455 -1.439,-5.471 2.592,-3.457 -3.457,-4.609 -0.865,-8.064 -0.287,-0.863 -1.152,-2.305 -2.303,-1.439 -2.018,3.168 -5.186,5.184 -6.049,8.639 -1.729,1.152 -2.016,3.457 -2.592,5.184 v 0 l -3.168,3.744 c 0.287,2.881 -1.152,4.896 -0.863,7.488 -2.881,2.018 0,5.76 -1.441,8.641 -2.592,2.592 3.457,4.32 -0.576,6.049 0.865,2.016 -1.727,3.742 0.289,5.184 v 0 l -0.289,2.879 c -1.727,1.152 2.018,2.881 -0.576,4.033 1.441,1.439 0,2.879 -0.574,4.318 0.574,0.865 1.15,2.018 0,2.881 0.863,0.576 0.863,1.729 0.863,2.881 0,2.879 0.576,6.623 -2.016,8.639 -1.729,0.576 -3.457,2.018 -5.186,1.152 -0.574,-1.152 -2.016,-1.152 -3.168,-1.152 -1.15,0.576 -1.727,1.441 -3.168,1.152 -0.863,-2.592 -3.742,-1.152 -4.895,-2.879 -4.033,-2.018 -0.865,-6.912 -3.168,-9.793 1.439,-3.168 0.576,-7.199 0.863,-10.656 -1.152,-0.576 -1.729,-2.016 -1.439,-3.455 v 0 l 0.576,-0.865 v -17.279 c -2.016,-0.863 0.576,-2.305 0,-3.744 -1.729,-2.592 2.016,-6.912 -0.865,-10.08 0.576,-1.729 2.592,-4.32 0.576,-6.623 1.152,-0.576 0.576,-2.305 0.576,-3.168 -0.576,-0.576 -1.152,-2.305 -0.576,-3.168 1.152,-1.152 0.576,-2.594 0.576,-3.744 v 0 l -1.729,-1.441 c 0,-1.727 2.018,-2.303 0.865,-4.031 -0.865,-1.152 -0.289,-3.455 -0.289,-4.896 v 0 0 c 0.289,-3.744 1.152,-8.352 -0.576,-12.096 0.289,-0.863 0.865,-2.016 2.018,-2.305 0.576,0 1.15,0.289 1.727,-0.287 0.865,-2.305 2.881,0.287 4.896,-0.576 1.726,0.285 4.318,-0.58 5.47,0.859 z"
       fill="#007dc5"
       clip-rule="evenodd"
       fill-rule="evenodd" /><path
       id="path968"
       d="m 95.32455,178.86555 c 1.439,0.576 1.439,-0.863 2.881,-0.576 1.15,4.32 8.352,2.592 7.199,8.064 2.592,0.863 0.287,2.592 0.287,4.32 l -2.879,2.016 c 0.287,0.863 1.152,1.727 0.863,2.879 -1.15,0.576 -3.168,0.865 -3.455,2.594 0.287,1.439 0,2.592 -1.152,3.455 -1.729,-0.863 -3.744,2.016 -3.744,-0.576 -1.729,-0.287 -3.455,-2.592 -4.896,-0.287 -2.592,-0.576 -2.016,-4.033 -4.607,-3.168 -2.016,0.287 -1.729,-2.881 -4.031,-2.305 -1.729,-0.576 -1.729,-2.305 -2.305,-4.031 1.152,0.287 2.305,0 2.305,-1.152 -2.305,-3.457 2.879,-3.744 1.439,-7.201 4.607,0.865 0,-5.76 4.896,-4.607 2.016,-1.153 5.184,-0.864 7.199,0.575 z"
       fill="#007dc5"
       clip-rule="evenodd"
       fill-rule="evenodd" /><path
       id="path970"
       d="m 88.98855,211.98455 c 2.016,1.152 4.031,-1.439 6.625,-0.576 0.574,2.018 2.879,1.152 4.031,2.018 1.152,-0.289 2.305,0.287 2.305,1.439 1.15,1.439 4.318,-0.576 4.318,1.729 0,0.863 -0.287,1.727 0.865,2.303 1.439,-0.576 1.439,0.865 1.729,1.729 -0.865,0.576 -0.865,2.592 -2.305,2.592 -0.289,2.305 2.592,5.184 0.576,7.777 0.287,1.727 0.576,3.742 -1.152,4.607 -0.863,1.727 1.729,3.455 -0.863,4.031 v 0 l -0.576,0.576 c 4.607,2.016 -1.152,5.473 2.016,8.064 0,1.439 -3.168,2.016 -1.439,3.455 v 0 1.729 h -0.289 c -1.439,3.168 2.016,5.76 -0.576,8.064 0,2.303 1.439,4.607 0.576,7.199 -0.863,2.881 0.863,6.625 -1.152,8.352 -1.15,2.305 1.441,4.896 -1.439,6.049 -0.576,0.863 0.863,1.152 0.863,1.729 v 0 h 0.576 c -0.863,3.168 0,7.199 -0.863,9.502 0.863,1.445 1.729,2.883 1.439,4.609 -1.727,0.289 -1.727,1.727 -2.879,2.883 v 0 1.148 c -2.305,0.867 -6.336,0 -8.641,1.438 -1.439,-2.586 -5.473,-0.57 -7.775,-2.016 -4.033,-2.875 -4.896,-7.484 -4.32,-12.094 0,-0.287 -0.576,-0.287 -0.863,-0.287 0.863,-1.152 0.863,-2.881 0.863,-4.607 v 0 l -0.863,-0.576 v -10.369 h -0.576 l 0.863,-1.439 c -1.152,-3.168 1.439,-7.199 -1.439,-9.791 0,-1.729 2.879,-2.881 0.576,-4.033 1.15,-2.305 -2.018,-3.168 0.576,-4.607 -2.018,-2.881 2.016,-6.625 -1.152,-8.928 0,-1.152 -0.576,-2.881 0.576,-3.457 0.863,-3.744 -1.152,-8.063 0,-10.943 1.15,-2.305 -3.168,-3.457 -0.289,-5.184 0,-0.576 0.289,-1.441 -0.287,-2.018 v 0 h -0.578 l 0.863,-2.592 c -2.016,-0.863 -0.287,-4.318 -1.152,-6.047 0.865,-0.289 1.441,-0.576 2.018,-1.439 -0.576,-0.289 -0.289,-1.152 -0.289,-1.441 1.439,-0.576 4.896,1.729 5.473,-0.863 1.726,-1.73 2.591,2.303 4.03,0.285 z"
       fill="#007dc5"
       clip-rule="evenodd"
       fill-rule="evenodd" /><path
       id="path972"
       d="m 341.85255,236.75455 c -0.289,1.15 0,2.592 1.152,2.592 0.289,-0.576 1.73,-0.576 1.152,-1.729 2.879,-0.863 0.863,3.168 3.457,3.168 v 0 h 2.305 c -0.289,1.439 2.879,2.305 2.301,4.32 v 0 h 2.02 c -0.867,3.168 1.727,6.336 -0.289,8.928 -1.152,-0.289 -1.73,0.576 -2.594,1.729 -1.727,1.15 -0.574,4.031 -2.59,4.318 -0.863,0.576 -0.863,1.441 -0.863,2.305 -2.305,-0.863 -3.746,1.439 -5.762,0 -1.727,0 -4.031,-1.439 -4.609,-3.168 -0.863,-2.879 -4.32,0.576 -4.32,-2.592 -2.59,0.287 -1.727,-3.168 -2.879,-4.607 0,-2.592 1.73,-4.609 1.441,-7.488 1.438,-2.881 4.605,-5.184 7.199,-7.775 v 0 h 2.879 z"
       fill="#007dc5"
       clip-rule="evenodd"
       fill-rule="evenodd" /><path
       id="path974"
       d="m 307.58255,267.56855 c 2.016,1.152 5.184,0.289 5.758,3.168 -1.727,1.729 2.016,1.441 1.152,3.744 -0.289,1.729 1.727,2.881 1.441,4.896 v 0 h 0.574 c 0.863,2.881 0.578,6.625 -1.438,8.641 0.285,0.287 0.863,0.287 1.148,0.576 -0.574,0.863 -1.727,2.016 -1.727,3.744 -3.168,1.15 -0.289,6.334 -4.609,5.756 -1.438,2.594 -6.621,-0.57 -6.047,3.75 -1.727,-0.578 -0.863,1.438 -1.438,2.016 -2.883,2.875 -6.051,6.047 -7.777,9.789 -2.592,0.867 0.289,2.305 0.863,3.742 1.152,1.156 0.578,4.031 2.594,4.609 v 0 l 1.148,-0.578 c -0.285,2.016 2.883,0.578 2.305,2.305 2.594,1.156 2.883,5.188 6.336,5.477 0.867,2.016 4.32,2.305 4.32,5.18 3.168,0.289 3.746,4.031 4.609,6.336 3.457,2.016 0.863,7.203 3.168,10.367 0.574,2.883 -1.152,4.609 -1.152,7.203 0.863,0.289 0.574,1.438 0.574,2.016 -2.301,1.156 0,4.898 -2.879,5.188 -1.152,0.57 -0.863,2.016 -0.863,3.164 -1.727,1.438 -1.727,3.742 -4.031,4.32 1.438,3.742 -4.031,2.594 -3.746,5.469 -5.184,6.055 -10.078,14.117 -19.008,14.977 -3.166,-1.148 -8.063,-0.57 -9.791,-4.602 0,-4.031 -7.488,-6.914 -2.016,-10.086 -0.576,-2.016 2.879,-2.586 2.879,-4.32 1.152,-0.281 1.729,-0.859 2.305,-1.727 0.576,-2.305 2.592,-6.047 4.896,-6.914 1.152,-3.453 5.471,-6.047 6.047,-9.789 2.594,-2.594 3.746,-6.047 4.32,-9.789 -1.152,-1.156 -0.574,-2.594 -2.016,-3.461 -0.289,-3.742 -3.744,-4.602 -5.473,-7.484 -2.879,0 -2.592,-4.32 -6.336,-3.742 -2.303,-1.156 -4.32,-4.32 -6.623,-5.766 0.287,-0.859 -0.576,-0.859 -0.865,-1.438 v 0 h -1.439 c 0.576,-1.438 -1.439,-1.438 -0.576,-3.164 -1.439,-0.578 -1.152,-2.305 -2.016,-3.172 0.576,-0.289 0.576,-1.148 0.576,-1.727 -2.016,-1.156 -1.439,-3.742 -2.592,-5.188 -0.576,-4.031 2.592,-6.047 2.305,-9.5 0.863,-1.727 2.879,-3.742 3.455,-5.477 -0.287,-0.859 -1.152,-2.875 0,-3.453 2.881,-2.305 3.168,-5.184 6.336,-7.775 0.289,-2.881 4.32,-2.305 4.32,-4.896 2.303,-0.287 3.744,-4.32 6.623,-2.592 1.152,-1.152 0,-2.592 2.305,-2.881 0,-2.879 4.609,-1.439 4.609,-4.607 1.438,-0.863 3.168,-4.32 5.469,-2.016 0.582,1.153 1.445,-0.289 2.023,-0.289 z"
       fill="#007dc5"
       clip-rule="evenodd"
       fill-rule="evenodd" /><path
       id="path976"
       d="m 330.33255,271.88955 c 0,0.576 0.578,0.865 0.863,1.152 4.031,-1.439 7.488,1.729 12.387,0.576 2.59,2.016 6.621,0.287 8.637,3.168 2.02,2.016 -2.59,3.455 -0.574,5.473 -1.727,5.76 1.152,13.82 -2.594,19.008 0.578,2.883 -1.148,6.047 0.578,8.641 0.574,2.305 -1.441,3.742 0,5.469 v 0 1.156 c -1.152,0.57 0,2.305 -0.863,2.875 0,2.883 -0.578,5.477 0.285,8.641 -0.285,-0.289 -0.285,0 -0.574,0 2.016,1.727 -1.727,2.594 0.574,4.031 v 0 2.016 c -1.438,0.578 0.578,1.734 0.289,2.594 -1.152,5.477 1.152,11.523 -0.863,16.992 2.305,2.305 -0.574,4.898 0.289,7.492 -0.289,0 -0.863,0.57 -0.863,1.148 -0.867,1.727 2.016,1.727 0.574,3.453 -0.574,4.32 -6.047,1.156 -7.777,3.75 -2.59,-0.867 -6.621,-2.016 -7.488,-4.898 -1.148,0.289 -2.016,-0.289 -2.59,-1.148 1.727,-1.156 -0.578,-1.445 0,-2.594 -1.441,-3.742 1.152,-7.492 -0.578,-11.234 -0.863,-2.305 1.441,-3.742 0,-5.469 0.578,-2.305 -1.727,-4.031 -0.285,-6.047 0,-1.445 -2.883,-2.594 -0.578,-4.039 -2.016,-2.586 1.441,-3.164 -0.574,-5.469 -1.152,-5.758 1.152,-12.961 -0.863,-18.719 2.59,-2.594 -2.594,-5.477 1.148,-7.492 0.289,-0.859 -0.863,-0.281 -0.863,-1.148 -0.574,-0.289 -1.152,-1.438 -1.152,-2.305 v 0 -0.867 h 0.578 c 0.574,-1.148 0.289,-2.875 -1.441,-3.164 2.305,-1.152 -0.863,-2.881 0.863,-4.32 -1.438,-1.729 0.867,-4.32 -0.863,-6.336 1.73,-2.016 -2.016,-4.033 0.289,-6.049 v 0 l -0.58,-2.017 c 2.594,-0.287 1.73,-4.607 4.609,-4.32 z"
       fill="#007dc5"
       clip-rule="evenodd"
       fill-rule="evenodd" /><path
       id="path978"
       d="m 175.38955,289.74455 c 1.439,1.441 5.184,0.865 4.607,3.744 1.441,0.574 3.168,1.73 4.607,2.02 0.865,1.438 1.441,4.32 3.744,4.32 -2.592,0.57 -0.574,4.602 -3.744,4.602 -0.287,1.734 -0.574,4.039 -2.016,4.898 -0.576,0 -1.729,-0.289 -2.016,0.578 0.576,0.578 0.287,1.438 0.576,2.016 -2.016,2.594 -4.607,-1.438 -5.76,1.438 -2.016,0.867 -1.439,-2.875 -3.457,-1.148 -2.303,-1.156 -4.607,-2.594 -6.047,-4.609 -1.729,-0.578 -2.305,-2.594 -3.457,-4.031 2.592,-1.727 -0.576,-4.031 1.729,-5.477 2.592,-0.859 0.289,-6.332 4.607,-5.18 -1.15,-4.033 3.457,-0.865 4.033,-3.457 v 0 h 2.592 v 0.286 z"
       fill="#007dc5"
       clip-rule="evenodd"
       fill-rule="evenodd" /><path
       id="path980"
       d="m 211.67655,297.23455 v -0.289 c 1.441,1.727 4.033,-0.578 4.896,1.727 2.016,-0.289 3.168,1.438 4.896,0 -2.881,2.883 2.592,3.172 2.016,5.758 1.152,0.867 -0.287,2.594 0,3.75 -1.152,0.57 -0.287,0.859 0,1.438 0.576,2.016 -1.439,3.742 -0.576,5.469 -2.592,1.734 0.289,4.32 -0.576,6.625 v 0 l 0.576,0.578 c 1.439,-3.164 2.305,-5.188 4.607,-8.352 0.576,-2.016 2.594,-2.016 2.305,-4.32 3.744,0 -0.863,-4.898 2.881,-4.898 0.863,-1.438 2.303,-2.305 4.318,-3.164 0.865,1.148 2.881,-0.289 2.881,-1.445 1.729,0 2.592,3.461 4.031,1.445 2.018,-0.867 3.168,1.148 5.186,0.289 2.879,0.859 2.592,4.031 6.047,3.164 6.625,2.594 1.729,11.234 5.184,15.555 0,2.016 -0.287,4.32 0.865,6.047 -2.305,8.063 2.303,14.398 2.879,21.891 -0.863,5.469 2.592,9.5 2.018,14.977 1.727,8.063 3.742,15.836 2.879,24.766 0.863,1.438 2.592,2.305 1.729,4.609 2.016,0.859 0,3.164 1.729,3.742 0.287,2.594 0.863,4.031 0.574,6.625 -1.15,0 -0.287,1.148 -0.863,1.727 -2.016,0.289 -3.455,2.016 -5.473,0.867 v 0 -0.289 c -4.318,-1.445 -10.08,0 -13.535,-2.305 0,-2.305 -2.879,-3.172 -2.305,-6.047 -2.592,-3.461 -2.016,-8.641 -4.031,-12.102 0.287,-5.469 -2.592,-9.211 -2.592,-14.688 1.439,-1.438 -1.152,-2.586 -0.289,-4.609 -1.15,-0.281 -0.287,-1.438 -0.576,-2.297 0.865,-0.578 0.289,-1.734 0.576,-2.305 -1.727,-0.578 -1.439,-2.305 -2.016,-3.461 1.439,-3.164 -2.303,-6.625 -2.016,-10.367 0.576,-4.031 -1.439,-6.047 -1.439,-9.789 -0.576,-2.883 -2.592,-4.609 -2.881,-7.492 -0.287,-1.148 0.576,-2.586 -0.863,-2.875 -3.744,0.57 -4.033,4.891 -5.76,7.195 0.287,1.727 -2.881,2.016 -1.441,4.031 -0.863,1.156 -2.879,3.75 -1.727,5.477 -1.152,2.594 -1.729,5.18 -2.592,8.063 -0.576,1.148 -1.152,2.883 -1.729,4.031 0.576,3.172 -2.305,6.047 -0.289,8.93 -0.863,2.016 -0.863,5.18 0,6.914 0,1.727 -2.592,3.164 -0.863,5.18 1.439,1.727 -0.576,3.172 0.863,4.898 -1.727,1.438 0.865,2.883 -1.15,4.32 0,1.148 0.574,2.305 0.863,3.164 -0.576,2.594 1.729,7.203 -2.016,8.07 -1.152,-0.289 -2.018,0.281 -2.592,1.148 -2.881,0.289 -4.32,-0.578 -6.625,-1.438 v 0 -0.289 c -3.744,-1.156 -7.199,2.016 -8.928,-2.883 0.287,-2.594 -2.881,-4.898 -0.576,-7.484 0.576,-2.883 -1.729,-4.609 -0.863,-7.203 -1.441,-0.578 -0.865,-2.594 -0.576,-3.742 0.287,-1.438 2.016,-3.172 0.576,-4.898 -0.289,-2.594 1.152,-5.758 -1.441,-7.773 1.729,-2.594 -0.574,-5.758 2.018,-8.063 0,-2.594 -3.744,-3.75 -0.865,-5.766 -0.287,-2.875 0.865,-6.047 -0.863,-8.352 0.287,-4.031 -0.289,-9.5 0.287,-12.383 1.152,-4.031 -2.016,-7.773 -0.287,-12.094 -0.576,-1.156 -0.863,-2.594 -0.576,-4.031 v 0 l 1.152,-1.156 c -0.576,-1.148 -1.729,-2.016 -1.152,-3.453 2.881,-1.727 -2.305,-2.016 0,-3.742 0.287,-2.016 -1.152,-2.594 -0.863,-4.32 2.016,-2.016 4.607,-3.742 8.063,-3.461 1.726,2.015 4.318,1.155 6.91,1.155 z"
       fill="#007dc5"
       clip-rule="evenodd"
       fill-rule="evenodd" /><path
       id="path982"
       d="m 169.34055,322.57855 c 2.016,-1.156 4.32,0.578 7.201,0 0.863,-0.867 2.303,-1.727 4.031,-1.438 0.576,1.727 2.016,2.016 3.457,2.586 1.15,-1.438 3.455,-0.289 5.184,0 2.303,3.172 -6.912,4.031 -0.576,5.477 -1.729,1.727 -2.305,4.891 -2.881,7.484 2.018,1.156 -1.439,3.742 0.865,4.609 -0.576,2.016 -2.018,4.031 -0.865,6.047 -0.287,0.578 -1.439,2.594 0,3.172 v 0 0 c -2.016,2.586 2.018,4.031 -0.576,6.336 -0.287,2.875 0.865,4.891 0.865,8.063 -1.441,1.148 -0.289,3.453 -0.865,5.469 1.441,1.156 0,3.75 -0.576,5.477 0.289,2.016 -0.287,4.32 0.576,6.047 -1.15,1.727 2.594,3.164 -0.576,4.898 2.018,2.016 -2.016,4.031 0.576,6.047 -0.863,0.859 -1.15,2.016 -2.592,2.875 2.016,1.445 2.881,4.898 2.592,7.781 v 0 h 0.576 c 0.576,2.016 -1.727,2.305 -1.152,4.602 -1.439,0.867 -1.15,3.172 -1.15,4.898 v 0 l 2.879,0.867 c -0.576,2.875 -3.168,3.164 -4.895,4.891 -3.457,1.445 -7.488,0 -10.945,-0.859 -0.287,-3.742 -4.031,0.859 -4.32,-2.594 -2.016,-0.867 -2.879,-3.453 -3.168,-5.758 -1.152,-0.578 -0.287,-1.727 -0.576,-2.883 1.152,-0.859 2.018,-2.305 0.576,-3.164 0,-0.289 -0.287,-0.289 -0.576,-0.289 -0.863,-4.031 0.576,-8.93 -1.15,-12.672 0,-1.445 -0.865,-3.172 0.287,-4.609 -0.576,-2.594 -2.592,-6.625 0,-8.641 -0.863,-1.148 -0.863,-2.305 -0.863,-3.742 0.576,-0.578 1.15,-2.016 0.576,-3.172 -2.305,-0.289 -0.865,-2.875 -1.729,-4.031 -0.289,-0.859 3.168,-1.727 1.152,-3.453 0.863,-1.156 0.863,-2.883 -0.576,-2.883 1.439,-2.305 0.287,-5.469 0,-7.773 2.016,-2.594 -0.576,-4.898 -1.152,-7.492 1.152,-3.742 0.576,-8.641 0.576,-12.672 -2.016,-0.859 -0.289,-3.742 -1.152,-5.18 v 0 l 2.592,-3.742 c 2.016,-0.578 3.457,-3.461 5.473,-1.156 0.861,-1.149 2.301,-0.579 2.877,0.577 z"
       fill="#007dc5"
       clip-rule="evenodd"
       fill-rule="evenodd" /><path
       id="path984"
       d="m 273.59655,153.23255 c -0.287,-3.455 -2.879,-2.879 -4.318,-0.576 0.574,2.018 -2.594,2.594 -2.018,4.896 -2.016,0 0,2.305 -1.727,2.881 0.576,3.744 -3.744,5.76 -4.033,9.215 1.152,5.473 -4.607,7.777 -2.592,13.824 0.576,0 1.439,0.289 1.729,-0.576 4.031,-3.744 6.912,-7.775 10.656,-12.383 0.287,-1.152 0.863,-2.305 1.727,-2.881 -1.44,-5.47 2.881,-9.216 0.576,-14.4 z m -12.096,-15.55 c 1.152,-1.441 2.881,-0.576 4.033,-0.865 1.15,1.441 5.471,-0.576 5.76,2.881 1.439,0 3.168,-3.168 4.32,-0.863 4.318,-0.289 7.486,3.168 10.943,4.318 2.303,2.018 3.744,4.896 3.168,8.928 1.729,1.152 0.863,4.32 2.592,5.186 -1.152,2.879 -0.576,6.623 -2.592,9.504 1.152,4.607 -1.729,8.064 -4.607,10.367 0.863,4.033 -4.896,2.881 -4.609,6.336 -4.031,0.576 -4.895,4.033 -8.639,4.896 -0.865,2.592 -3.457,0.863 -4.609,2.881 -2.592,0.574 -4.318,2.303 -6.912,2.879 -1.439,0.287 -2.879,1.152 -2.303,2.881 0.287,1.439 -1.441,1.152 -1.441,2.303 -0.863,1.441 1.441,3.457 -1.15,3.744 2.879,0.865 -0.289,4.033 2.016,4.896 -0.289,1.152 -2.305,3.168 -0.289,4.031 0.289,1.729 1.152,3.744 2.305,4.609 0.576,0.576 0,2.592 1.729,2.303 2.879,-2.879 4.896,-5.184 6.912,-8.352 2.016,0.289 2.879,-2.592 4.32,-2.592 2.592,-2.305 2.592,-6.049 6.336,-6.336 1.15,-2.305 3.168,-1.729 5.76,-1.729 1.152,0.865 2.592,0.289 4.031,0.289 -0.576,2.879 3.457,1.15 2.592,4.32 2.594,1.439 4.031,3.455 3.457,6.623 -0.578,3.455 -6.049,3.168 -6.049,7.775 -1.729,1.152 -3.744,2.305 -4.031,4.609 -5.76,0.574 -4.033,8.352 -9.793,9.215 0,0.576 -1.152,0.865 -1.729,1.441 -1.15,-0.865 -2.303,0.863 -2.303,1.439 -4.896,-2.592 -6.336,5.184 -10.08,0.576 -3.168,-0.576 -7.199,-0.576 -9.217,-3.168 -0.287,-1.729 -2.879,-0.289 -3.744,-1.441 -0.863,-1.727 -2.592,-4.318 -4.895,-4.318 -5.473,-2.594 -2.881,-9.217 -6.336,-12.385 0,-1.152 -0.289,-2.592 -0.865,-3.168 0.576,-2.016 1.152,-5.184 -0.576,-7.199 0.576,-4.609 -0.287,-10.656 -0.287,-15.553 1.152,-1.439 0.576,-4.033 1.729,-5.473 -1.152,-1.439 0,-3.168 0.863,-4.607 -0.576,-2.305 0,-5.184 0.576,-7.488 0.287,-2.305 1.729,-4.607 2.016,-6.623 1.152,-1.441 0.576,-3.744 2.592,-4.033 -2.879,-2.305 2.305,-3.455 1.439,-6.047 0.576,-3.168 4.033,-4.033 5.186,-6.912 -1.441,-0.865 0.576,-1.441 0.287,-2.305 1.439,-0.287 2.881,-0.287 4.033,-1.729 v 0 -1.439 c 0.574,0.287 0.863,-0.576 1.15,-0.863 v 0 -1.152 c 1.152,0 2.881,0.576 3.457,-0.865 -0.289,-1.439 0.863,-2.016 1.729,-2.592 0.573,0.578 1.149,0.867 1.725,0.867 z"
       fill="#007dc5"
       clip-rule="evenodd"
       fill-rule="evenodd" /><path
       id="path986"
       d="m 398.30155,277.07255 c -1.441,-0.287 0.289,-2.879 -1.727,-2.592 0.574,3.457 -4.035,1.729 -3.168,5.473 -2.305,2.305 -4.32,6.049 -5.473,9.504 -1.441,1.152 -0.863,3.168 -2.305,4.031 0.289,1.73 -2.016,3.168 -0.578,4.605 -2.016,2.305 -0.574,6.336 -2.59,8.352 v 0 l 0.574,0.578 c -0.285,1.156 -1.152,2.016 -1.438,2.883 2.305,4.32 -1.441,7.195 -0.863,11.234 2.879,2.875 -1.152,6.906 1.148,10.078 0,-0.289 2.02,-0.578 2.594,0.289 0.289,-1.734 1.152,-2.305 2.305,-3.461 2.879,-0.57 2.879,-3.453 5.184,-4.609 0.574,-2.297 2.305,-2.586 2.879,-4.313 1.441,-2.023 4.32,-2.594 3.168,-4.898 0,-4.898 -0.574,-10.367 0.289,-14.398 3.168,-3.75 -2.305,-6.051 -0.289,-10.371 1.731,-4.32 -1.437,-7.775 0.29,-12.385 z m 13.535,-70.271 c 3.457,-0.863 5.184,2.305 8.641,1.729 2.594,0 2.305,2.305 3.457,4.031 1.152,3.168 -2.594,6.049 -0.289,8.352 v 0 2.881 c -2.016,7.488 -1.441,15.264 -3.168,22.752 0.289,0 0.574,0.289 0.574,0 -2.016,4.031 2.02,7.199 -1.148,10.656 -0.289,0.863 0,1.729 0.574,2.016 -0.574,3.744 1.441,6.625 -0.574,9.504 -0.578,1.441 2.016,2.016 0,2.881 -0.578,1.727 1.438,2.592 0.574,4.607 -1.152,2.016 0.863,3.744 0,6.049 -0.574,0.863 -0.863,2.303 -1.727,3.168 1.438,5.184 0.574,11.23 0.574,16.988 0.863,0.578 1.152,1.734 0,2.594 v 0 l 1.441,4.031 c -2.594,4.32 1.438,9.219 0,14.398 -0.863,0.578 -0.289,2.023 -0.289,2.883 1.441,7.773 0,16.125 0,23.617 2.016,1.727 0.863,5.188 1.152,7.773 -0.289,2.016 -2.594,1.727 -2.594,3.461 -4.32,2.305 -6.047,-2.594 -10.367,-0.867 -0.574,-1.727 -2.016,-1.438 -3.457,-1.438 v 0 l -3.168,-2.305 c 0.867,-3.461 -2.016,-5.758 -0.285,-8.641 -1.152,-1.156 1.438,-3.172 -0.578,-4.32 1.441,-0.867 -0.863,-1.156 0,-2.305 0.289,-2.305 -0.574,-4.609 -1.438,-6.336 0.285,0 0.574,-0.289 0.574,-0.289 0.289,-0.859 -0.289,-1.148 -0.863,-1.727 -1.152,0.289 -1.152,1.727 -1.152,2.594 -2.594,3.742 -5.473,6.625 -6.336,10.945 -1.152,0.281 -2.305,0.57 -2.594,2.016 -0.574,2.875 -5.758,2.875 -5.469,6.625 -2.305,2.297 -3.168,-2.305 -6.051,-0.867 -0.574,4.32 -3.742,-0.289 -6.047,0.578 -2.594,-2.016 -6.047,-3.172 -6.625,-6.336 -4.605,-2.305 -1.438,-7.781 -4.605,-11.234 0.863,-2.016 -0.867,-4.32 -1.441,-6.047 0,-2.305 1.727,-5.188 -0.289,-6.914 1.152,-0.289 0.578,-1.727 0.863,-2.883 -1.727,-0.859 -0.574,-3.453 -0.863,-5.18 0.289,-0.867 1.73,-0.289 1.73,-1.727 -0.289,-0.289 -0.578,0 -0.867,0 0.578,-4.898 0.867,-7.203 1.73,-12.102 -2.016,-0.859 0.574,-1.727 0.574,-2.875 v 0 l 0.289,-4.32 c 2.016,0 0.574,-2.305 1.727,-3.17 -0.574,-1.729 1.73,-3.168 0,-4.32 -0.574,-3.744 4.609,-2.592 2.883,-6.912 1.727,-1.15 3.168,-2.592 3.453,-4.895 1.73,-2.305 2.305,-4.896 4.609,-6.625 v 0 -1.439 c 2.879,-4.033 8.063,-4.607 11.23,-8.064 1.73,0 4.035,-0.576 5.184,0.287 v 0 l 5.762,-2.879 c 0.289,-3.168 -0.863,-6.912 0.863,-9.793 -2.59,-2.879 1.441,-5.76 -0.289,-9.215 -2.59,-4.32 0.578,-9.504 -1.727,-13.537 v 0 l -0.574,-11.52 c 1.438,-0.863 2.016,-2.303 0.574,-3.455 v 0 -0.865 c 2.016,0.289 4.031,-1.439 4.895,-3.168 3.174,1.154 7.49,0.001 10.947,1.154 z"
       fill="#007dc5"
       clip-rule="evenodd"
       fill-rule="evenodd" /><path
       id="path988"
       d="m 470.59055,246.54555 c -0.867,-0.576 -0.578,-2.879 -2.594,-2.305 -1.727,2.305 -4.031,3.168 -4.895,6.336 -1.152,0.865 -3.746,0.289 -2.883,2.594 -0.863,0.863 -1.148,2.303 -2.016,2.879 v 0 0.863 c 0.289,1.441 -0.863,1.441 -1.438,1.729 0.574,2.592 -3.746,3.744 -1.441,6.049 -0.574,0.576 -0.574,1.439 -1.441,1.439 -0.574,1.439 -1.148,2.592 -0.863,4.32 -2.305,1.729 -0.285,5.473 -2.879,6.912 1.441,3.744 4.031,-1.152 6.047,-1.152 3.168,-5.184 8.93,-9.504 11.809,-14.977 0,-1.439 0.863,-2.303 1.441,-3.455 0.575,-3.744 2.305,-7.201 1.153,-11.232 z m -5.762,-16.992 c 2.879,0.863 6.914,-3.744 7.777,0.863 2.879,1.729 6.91,0.578 8.063,4.609 1.73,1.152 3.168,2.592 4.031,4.031 -0.863,3.744 4.609,3.744 3.168,7.777 1.73,4.607 1.152,10.943 0.289,15.551 -0.289,4.033 -5.184,4.033 -5.184,8.064 -2.879,4.031 -6.047,5.184 -8.352,9.504 -0.863,0.863 -2.305,0.863 -4.031,0.863 -1.441,1.729 -3.168,2.881 -5.184,3.457 -2.594,-1.729 -2.883,4.031 -6.336,2.879 -1.441,2.592 -5.473,1.441 -7.777,3.168 -2.305,4.32 0.863,8.063 0.289,12.383 2.016,2.305 0.285,7.781 4.605,8.352 4.031,-2.586 6.914,-5.758 9.504,-9.5 2.594,-2.883 3.457,-5.758 6.914,-6.625 1.152,-2.592 3.457,-2.881 3.168,-6.336 2.016,0 3.168,-3.457 6.047,-2.305 1.727,-0.287 3.742,2.881 5.184,0.576 1.152,0.287 2.016,1.439 3.168,2.016 v 0 h 2.016 c -0.574,3.168 3.168,4.322 1.152,6.916 1.441,0.57 0.289,1.438 0.578,2.297 -0.578,-0.859 -0.867,0.867 -1.73,0.289 -0.285,2.883 -2.016,5.477 -3.168,8.063 -2.879,1.445 -4.031,4.609 -6.621,6.055 0,2.016 -2.883,1.727 -2.305,4.32 -2.305,2.586 -6.625,1.438 -6.336,6.336 -1.73,1.148 -3.746,1.148 -4.609,3.453 -0.574,-0.289 -2.016,-1.148 -2.594,0 0.867,2.305 -2.016,1.727 -3.453,1.727 -1.441,0 -1.441,-2.016 -3.168,-1.148 -0.863,1.438 -2.594,0.289 -4.031,0.859 -1.441,-1.438 -3.168,-2.875 -5.188,-1.438 -1.438,-3.453 -5.184,-3.172 -7.488,-5.469 v 0 h -1.148 c 0.285,-1.445 -0.289,-2.883 -1.73,-2.883 -2.016,0.289 -2.016,-1.438 -2.879,-2.594 -1.441,-1.727 -3.746,-3.164 -3.746,-5.18 -1.727,-1.445 -0.574,-4.32 -2.879,-5.766 -1.152,-3.164 -1.438,-6.906 -1.438,-10.078 2.016,-2.879 -3.168,-4.607 -0.289,-7.199 -0.578,-1.439 2.016,-2.881 0,-4.033 1.152,-2.303 0,-5.76 1.727,-7.199 -0.574,-1.152 -0.289,-2.592 -0.289,-4.031 1.73,0 1.152,-2.016 2.305,-3.168 -0.574,-0.865 -0.285,-2.305 -0.285,-3.457 2.301,-1.152 0.863,-3.744 2.879,-4.896 -0.289,-4.895 3.742,-8.639 4.031,-12.672 2.594,-0.863 0.289,-4.607 2.879,-5.184 -0.285,-2.592 4.32,-2.303 3.168,-5.473 1.152,-0.287 2.594,-2.303 3.168,-2.879 0.578,-1.729 0.863,-3.455 2.016,-4.896 2.594,-0.287 4.898,0.863 6.051,-1.729 3.741,-1.149 5.182,2.019 8.061,1.73 z"
       fill="#007dc5"
       clip-rule="evenodd"
       fill-rule="evenodd" /></g><g
     id="g2539"><path
       id="path994"
       d="m 235.29355,648.59455 c -0.289,-1.156 -1.152,-3.742 -5.473,-3.742 -2.592,0 -6.047,1.438 -6.047,8.063 0,4.031 1.727,7.773 6.047,7.773 2.881,0 4.896,-1.727 5.473,-4.32 h 5.184 c -1.152,4.898 -4.607,8.352 -10.943,8.352 -6.336,0 -11.232,-4.031 -11.232,-12.094 0,-7.773 5.184,-11.805 11.52,-11.805 7.488,0 10.367,4.602 10.656,7.773 v 0 z"
       fill="#007dc5"
       clip-rule="evenodd"
       fill-rule="evenodd"
       style="fill:#000000" /><polygon
       id="polygon996"
       points="289.729,743.9 303.551,743.9 303.551,747.65 284.832,747.65 284.832,725.182 302.977,725.182 302.977,729.213 289.729,729.213 289.729,733.822 302.113,733.822 302.113,737.854 289.729,737.854 "
       fill="#007dc5"
       clip-rule="evenodd"
       fill-rule="evenodd"
       style="fill:#000000"
       transform="translate(-4.03445,-83.790453)" /><path
       id="path998"
       d="m 343.86755,656.94555 c 0,1.438 0.867,3.742 5.184,3.742 2.594,0 5.188,-0.578 5.188,-2.875 0,-1.734 -2.02,-2.305 -4.609,-2.883 v 0 l -2.594,-0.578 c -4.031,-0.859 -7.773,-1.727 -7.773,-6.625 0,-2.586 1.438,-6.906 9.504,-6.906 7.488,0 9.504,4.602 9.789,7.195 v 0 h -5.184 c 0,-0.859 -0.574,-3.453 -4.895,-3.453 -2.016,0 -4.32,0.859 -4.32,2.875 0,1.734 1.441,2.023 2.594,2.305 v 0 l 6.047,1.445 c 3.457,0.57 6.625,2.016 6.625,6.047 0,6.625 -7.777,7.484 -9.793,7.484 -9.215,0 -10.656,-4.891 -10.656,-7.773 v 0 z"
       fill="#007dc5"
       clip-rule="evenodd"
       fill-rule="evenodd"
       style="fill:#000000" /><path
       id="path1000"
       d="m 403.19555,656.94555 c 0,1.438 0.867,3.742 5.184,3.742 2.594,0 5.184,-0.578 5.184,-2.875 0,-1.734 -1.727,-2.305 -4.605,-2.883 v 0 l -2.594,-0.578 c -4.031,-0.859 -7.773,-1.727 -7.773,-6.625 0,-2.586 1.438,-6.906 9.504,-6.906 7.773,0 9.789,4.602 9.789,7.195 v 0 h -4.895 c -0.289,-0.859 -0.574,-3.453 -5.184,-3.453 -2.016,0 -4.32,0.859 -4.32,2.875 0,1.734 1.441,2.023 2.594,2.305 v 0 l 6.047,1.445 c 3.457,0.57 6.625,2.016 6.625,6.047 0,6.625 -7.777,7.484 -9.793,7.484 -9.215,0 -10.656,-4.891 -10.656,-7.773 v 0 z"
       fill="#007dc5"
       clip-rule="evenodd"
       fill-rule="evenodd"
       style="fill:#000000" /><path
       id="path1002"
       d="m 430.27055,627.85955 v -70.852 h 20.445 v 10.656 h 0.289 c 6.336,-8.352 12.098,-12.961 24.191,-11.516 10.082,1.148 12.672,4.031 18.723,10.078 4.895,-6.336 10.941,-11.813 27.645,-10.078 15.844,2.016 20.449,11.516 20.738,22.75 v 0 l -0.289,48.961 h -20.16 v -48.672 c -0.289,-5.188 -5.473,-7.203 -10.367,-7.492 -11.23,-0.578 -14.688,8.063 -14.688,12.672 v 0 43.781 l -20.734,-0.289 0.285,-48.672 c -1.438,-4.898 -5.184,-7.203 -11.52,-7.492 -7.199,0 -13.824,4.031 -13.535,12.672 v 0 43.492 h -21.023 z"
       clip-rule="evenodd"
       fill-rule="evenodd" /><path
       id="path1004"
       d="m 170.49255,557.00855 h 20.449 v 10.656 h 0.287 c 4.031,-7.195 11.52,-11.805 19.584,-11.805 18.145,0 30.24,6.906 30.24,24.766 v 0 47.523 h -20.16 l -0.289,-42.336 c 0,-6.055 -0.863,-13.539 -14.688,-13.539 -12.383,0 -14.975,6.047 -14.975,11.805 v 0 44.07 h -20.16 z"
       clip-rule="evenodd"
       fill-rule="evenodd" /><path
       id="path1006"
       d="m 412.98855,628.14855 h -20.734 v -8.93 h -0.289 c -5.473,8.641 -12.098,10.656 -19.008,11.516 -11.234,0 -29.664,-1.148 -30.527,-24.477 v 0 -49.25 h 20.445 v 44.063 c -0.285,6.336 -0.285,14.117 14.688,13.539 12.387,-1.148 14.402,-7.203 14.691,-11.805 v 0 -45.797 h 20.734 z"
       clip-rule="evenodd"
       fill-rule="evenodd" /><path
       id="path1008"
       d="m 260.34855,550.67255 -0.287,-17.57 h 20.736 v 17.57 h 11.232 v 12.961 h -11.232 v 45.508 c 0,4.031 0.287,6.617 3.168,6.617 v 0 l 7.775,0.289 v 13.25 c -3.168,0.867 -6.336,1.727 -9.791,2.016 -3.457,0 -6.625,-0.289 -9.504,-1.148 -6.336,-1.734 -10.945,-6.055 -12.098,-14.117 v 0 -52.414 h -10.078 v -12.961 h 10.079 z"
       clip-rule="evenodd"
       fill-rule="evenodd" /><path
       id="polygon1012"
       style="clip-rule:evenodd;fill-rule:evenodd"
       transform="translate(-4.03445,-83.790453)"
       d="m 308.449,616.893 h 20.446 v 17.57 h -20.446 z m 0,23.906 h 20.446 v 70.851 h -20.446 z" /><path
       id="path1014"
       d="m 23.32455,557.29755 v 10.656 c 5.76,-6.047 8.352,-11.234 21.023,-11.805 10.945,-0.867 18.145,4.891 22.176,8.352 14.689,13.82 16.129,44.352 0.865,58.172 -6.336,6.047 -11.809,7.773 -23.041,7.773 -10.656,0 -14.975,-4.031 -21.023,-10.078 v 0 43.492 h -20.736 v -106.562 z m 3.457,22.75 c -1.441,2.883 -3.457,8.063 -3.457,13.828 0,5.758 2.016,10.945 3.457,13.82 3.455,5.766 8.928,7.781 13.535,7.781 4.896,0 10.367,-2.016 13.824,-7.781 1.439,-2.875 3.455,-8.063 3.455,-13.82 0,-5.766 -2.016,-10.945 -3.455,-13.828 -3.457,-5.758 -8.928,-7.773 -13.824,-7.773 -4.607,-10e-4 -10.08,2.015 -13.535,7.773 z"
       clip-rule="evenodd"
       fill-rule="evenodd" /><path
       id="path1016"
       d="m 152.06155,571.11755 c 6.336,9.508 7.199,17.57 6.623,27.938 v 0 h -52.127 c 1.439,9.797 7.775,16.133 15.84,16.703 0.863,0 1.439,0 2.305,0 6.047,-0.281 10.654,-3.164 13.248,-8.922 v 0 h 18.432 c -2.305,9.789 -9.793,16.125 -13.537,18.43 -4.607,2.305 -11.807,5.18 -17.855,5.18 v 0 h -3.455 c -6.625,0 -18.145,-3.164 -26.496,-13.242 -6.625,-7.781 -7.777,-16.992 -8.354,-22.758 0.289,-9.789 2.594,-19.578 9.793,-27.359 7.775,-8.063 16.703,-10.078 24.48,-10.938 v 0 h 4.607 c 12.095,0.57 21.599,7.484 26.496,14.968 z m -30.241,-0.57 c -3.455,0 -10.08,1.727 -13.535,8.352 -1.152,2.594 -1.152,3.742 -1.441,5.469 v 0 0.867 h 32.832 v -0.867 c -0.287,-1.727 -0.576,-2.875 -1.727,-5.469 -3.168,-6.625 -9.793,-8.352 -13.248,-8.352 v 0 z"
       clip-rule="evenodd"
       fill-rule="evenodd" /><path
       id="path1018"
       d="m 40.89355,663.85955 h -5.184 v -22.469 h 11.232 c 4.607,0 7.775,2.594 7.775,7.203 0,2.016 -1.152,7.203 -8.064,7.203 v 0 h -5.76 v 8.063 z m 4.607,-12.101 c 4.033,0 4.033,-2.297 4.033,-3.453 0,-2.016 -1.441,-2.883 -4.609,-2.883 v 0 h -4.031 v 6.336 z"
       fill="#007dc5"
       clip-rule="evenodd"
       fill-rule="evenodd"
       style="fill:#000000" /><path
       id="path1020"
       d="m 95.03755,641.39155 h 12.383 c 6.625,0 8.064,4.32 8.064,6.336 0,2.594 -1.439,4.609 -4.031,5.477 2.016,0.859 3.168,1.438 3.168,5.758 0,3.453 0,4.031 1.152,4.609 v 0 0.289 h -5.762 c -0.287,-0.867 -0.574,-2.016 -0.574,-4.32 0,-3.172 -0.289,-4.32 -4.033,-4.32 v 0 h -5.184 v 8.641 h -5.184 v -22.47 z m 10.944,10.086 c 2.881,0 4.32,-1.156 4.32,-3.172 0,-1.148 -0.863,-2.883 -3.744,-2.883 v 0 h -6.336 v 6.055 z"
       fill="#007dc5"
       clip-rule="evenodd"
       fill-rule="evenodd"
       style="fill:#000000" /><path
       id="path1022"
       d="m 167.03755,640.82055 c 3.168,0 12.096,1.148 12.096,11.805 0,10.657 -8.928,12.094 -12.096,12.094 -3.168,0 -11.809,-1.438 -11.809,-12.094 0,-10.656 8.641,-11.805 11.809,-11.805 z m 0,19.868 c 2.879,0 6.912,-1.727 6.912,-8.063 0,-6.336 -4.033,-7.773 -6.912,-7.773 -2.592,0 -6.625,1.438 -6.625,7.773 0,6.335 4.033,8.063 6.625,8.063 z"
       fill="#007dc5"
       clip-rule="evenodd"
       fill-rule="evenodd"
       style="fill:#000000" /><path
       id="path1024"
       d="m 469.72355,640.82055 c 3.168,0 11.809,1.148 11.809,11.805 0,10.657 -8.641,12.094 -11.809,12.094 -3.453,0 -11.805,-1.438 -11.805,-12.094 0,-10.656 8.352,-11.805 11.805,-11.805 z m 0,19.868 c 2.883,0 6.625,-1.727 6.625,-8.063 0,-6.336 -3.742,-7.773 -6.625,-7.773 -2.879,0 -6.621,1.438 -6.621,7.773 0,6.335 3.742,8.063 6.621,8.063 z"
       fill="#007dc5"
       clip-rule="evenodd"
       fill-rule="evenodd"
       style="fill:#000000" /><path
       id="path1026"
       d="m 522.14155,641.39155 h 12.383 c 6.625,0 7.777,4.32 7.777,6.336 0,2.594 -1.152,4.609 -3.746,5.477 2.02,0.859 3.168,1.438 3.168,5.758 0,3.453 0,4.031 1.152,4.609 v 0 0.289 h -5.758 c -0.289,-0.867 -0.578,-2.016 -0.578,-4.32 0,-3.172 -0.285,-4.32 -4.031,-4.32 v 0 h -5.473 v 8.641 h -4.895 v -22.47 z m 11.23,10.086 c 2.594,0 3.746,-1.156 3.746,-3.172 0,-1.148 -0.289,-2.883 -3.457,-2.883 v 0 h -6.625 v 6.055 z"
       fill="#007dc5"
       clip-rule="evenodd"
       fill-rule="evenodd"
       style="fill:#000000" /></g></g>
</svg>
